<?xml version="1.0" encoding="UTF-8" standalone="no"?>
<svg width="595px" height="842px" viewBox="0 0 595 842" version="1.1" xmlns="http://www.w3.org/2000/svg" xmlns:xlink="http://www.w3.org/1999/xlink" xmlns:sketch="http://www.bohemiancoding.com/sketch/ns">
    <!-- Generator: Sketch Beta 3.3.2 (12041) - http://www.bohemiancoding.com/sketch -->
    <title>A4</title>
    <desc>Created with Sketch Beta.</desc>
    <defs></defs>
    <g id="pictures" stroke="none" stroke-width="1" fill="none" fill-rule="evenodd" sketch:type="MSPage">
        <g id="A4" sketch:type="MSArtboardGroup">
            <g id="Imported-Layers" sketch:type="MSLayerGroup" transform="translate(21.000000, 25.000000)">
                <path d="M71.166,123.578 C81.559,128.038 86.014,112.69 88.007,105.851 C94.789,82.577 99.693,58.849 102.954,34.833 C103.363,31.828 103.876,25.878 102.008,23.272 C100.163,20.699 99.784,24.683 99.555,26.37 C96.923,45.747 93.038,64.983 87.883,83.848 C85.977,90.823 84.407,104.164 76.349,106.841 C72.862,107.999 69.417,106.71 67.512,103.526 C65.429,100.046 66.148,94.712 65.506,90.781 C65.452,90.451 64.881,86.289 63.808,86.629 C49.639,91.117 46.56,108.315 45.968,121.207 C45.585,129.543 47.203,139.93 42.531,147.408 C39.793,151.79 35.621,151.775 34.217,146.676 C32.927,141.991 32.348,136.977 31.429,132.203 C31.362,131.858 30.204,126.724 29.247,128.365 C29.146,128.54 29.051,128.717 28.95,128.892 C34.141,108.469 39.259,88.026 44.296,67.564 C45.071,64.414 44.861,60.485 44.333,57.302 C44.263,56.877 43.205,51.81 42.151,53.465 C38.516,59.172 34.95,64.932 31.241,70.592 C29.983,72.512 28.57,74.955 26.441,76.035 C25.323,76.603 22.69,76.822 21.33,76.248 C21.142,75.011 20.799,73.898 20.213,73.08 C18.389,70.537 17.932,74.458 17.76,76.178 C17.241,81.363 17.516,98.137 27.398,92.619 C30.566,90.85 32.416,87.309 34.282,84.299 C26.432,115.704 18.401,147.064 10.181,178.375 C9.205,182.093 9.176,186.181 9.803,189.969 C9.963,190.94 11.426,196.4 12.405,192.943 C16.903,177.053 21.495,161.063 29.556,146.569 C30.174,149.78 30.791,152.991 31.411,156.201 C32.056,159.54 32.609,164.71 35.705,166.824 C43.546,172.177 47.543,154.908 48.278,150.435 C50.698,135.727 45.171,110.79 63.022,103.989 C63.612,111.332 64.063,120.529 71.166,123.578" id="Fill-1" fill="#1A1918" sketch:type="MSShapeGroup"></path>
                <path d="M133.602,141.033 C136.559,137.646 139.282,133.943 141.395,129.938 C144.684,129.25 147.855,127.763 150.63,125.791 C164.988,115.582 165.537,94.996 164.427,79.119 C163.703,68.768 162.021,58.429 159.632,48.335 C157.979,41.355 156.389,29.429 149.509,25.374 C143.47,21.815 135.283,27.36 130.054,32.094 C129.204,25.319 127.079,17.701 120.324,16.414 C118.706,16.106 117.153,32.656 120.74,33.339 C123.071,33.783 124.598,35.027 125.597,36.698 C123.489,39.247 121.742,42.018 120.18,44.983 C119.384,46.494 118.684,48.269 117.463,49.51 C116.813,50.17 115.985,50.952 115.014,51.143 C114.614,51.165 114.214,51.187 113.815,51.209 C113.461,50.973 113.142,50.789 112.858,50.656 C112.961,48.411 112.776,46.125 112.43,44.027 C112.26,43.004 110.896,37.641 109.827,41.054 C107.683,47.905 105.979,58.862 110.268,65.29 C115.036,72.438 119.919,64.25 122.257,59.917 C123.525,57.566 125.04,55.341 126.743,53.269 C125.811,61.41 123.557,69.385 120.394,76.932 C113.558,93.244 101.551,106.493 90.229,119.798 C78.95,133.053 68.079,147.125 62.948,164.025 C57.792,181.005 58.475,199.521 65.16,215.958 C68.988,225.37 73.586,234.315 74.829,244.549 C76.055,254.636 73.677,264.728 69.94,274.056 C68.582,277.446 68.979,282.129 69.561,285.65 C69.76,286.853 70.86,291.876 72.163,288.624 C79.856,269.424 80.753,247.44 76.254,227.349 C74.07,217.594 69.588,208.909 66.009,199.657 C64.444,195.613 62.975,191.416 63.398,187.031 C63.89,181.914 65.529,176.913 67.454,172.173 C75.035,153.511 89.476,139.041 102.082,123.75 C114.723,108.417 124.48,91.82 128.524,72.171 C130.098,64.529 130.839,56.711 130.906,48.897 C133.142,46.878 135.596,45.105 138.24,43.666 C141.519,41.883 145.526,40.004 149.123,41.955 C152.568,43.824 153.883,47.915 154.958,51.428 C157.566,59.954 159.341,68.823 160.407,77.67 C161.392,85.848 161.383,94.045 156.91,101.315 C154.316,105.529 150.532,109.169 146.065,111.337 C146.152,106.503 145.416,101.648 143.48,97.72 C140.721,92.12 133.558,89.237 127.973,92.429 C121.637,96.051 121.001,104.474 121.186,110.976 C121.382,117.817 123.053,124.543 129.116,128.121 C120.441,137.226 110.237,145.288 104.647,156.816 C99.797,166.818 96.439,189.999 112.097,191.923 C118.971,192.768 124.622,189.139 130.572,186.322 C133.93,184.732 137.564,183.267 141.348,183.354 C142.823,183.388 144.236,183.649 145.558,184.223 C141.093,190.191 134.855,195.18 129.718,200.414 C124.153,206.083 118.934,212.12 115.493,219.345 C111.92,226.845 110.071,237.92 114.18,245.611 C118.366,253.447 128.663,251.337 135.805,253.463 C136.885,253.785 139.25,237.688 135.389,236.539 C131.723,235.447 122.793,235.994 118.078,233.266 C118.876,231.773 119.771,230.329 120.72,228.929 C123.002,225.562 125.647,222.464 128.423,219.497 C133.902,213.64 139.945,208.326 145.275,202.327 C151.097,195.774 152.965,188.524 152.211,179.8 C151.513,171.715 147.511,165.409 138.529,166.601 C130.798,167.627 124.798,173.539 117.168,174.821 C114.282,175.306 111.042,175.31 108.291,174.188 C107.673,173.936 106.95,173.239 106.27,172.64 C106.279,172.622 106.285,172.603 106.293,172.585 C112.278,159.868 124.562,151.387 133.602,141.033 L133.602,141.033 Z M141.772,112.173 C141.754,112.175 141.741,112.166 141.729,112.151 C141.743,112.158 141.762,112.174 141.772,112.173 L141.772,112.173 Z M125.47,107.995 C125.249,107.791 125.098,107.663 125.063,107.662 C125.288,107.664 125.413,107.789 125.47,107.995 L125.47,107.995 Z M127.548,110.008 C129.941,108.045 133.224,107.504 136.186,108.341 C137.924,108.832 139.009,110.047 140.532,110.786 C140.632,110.835 140.818,111.066 141.018,111.325 C140.76,111.96 140.493,112.591 140.198,113.207 C139.784,113.273 139.368,113.33 138.948,113.369 C135.461,113.692 131.898,113.075 128.896,111.23 C128.702,111.11 128.162,110.603 127.548,110.008 L127.548,110.008 Z" id="Fill-2" fill="#1A1918" sketch:type="MSShapeGroup"></path>
                <path d="M233.828,141.461 C230.39,140.473 226.858,141.089 223.643,139.233 C217.663,135.782 214.776,128.332 210.434,123.243 C208.908,121.455 208.322,128.786 208.307,129.209 C208.203,132.003 207.841,137.229 209.852,139.587 C215.104,145.742 218.622,155.4 227.296,157.446 C229.805,158.038 232.437,157.707 234.897,158.571 C237.718,159.562 238.66,161.398 240.664,163.272 C240.911,163.71 241.158,164.148 241.405,164.586 C241.074,165.424 240.666,166.256 240.487,166.682 C239.354,169.387 237.79,171.886 235.97,174.182 C221.093,192.948 192.622,189.5 174.055,178.26 C171.975,177 169.961,175.489 168.314,173.69 C167.682,172.999 167.021,172.227 166.508,171.432 C166.184,170.864 165.86,170.298 165.537,169.731 C165.31,168.973 165.139,168.471 165.022,168.221 C166.001,164.121 170.334,155.78 170.997,154.352 C176.03,143.511 180.101,133.102 181.313,121.099 C183.446,99.983 176.846,74.489 190.323,56.047 C193.853,51.216 198.534,47.574 203.478,44.286 C208.578,40.895 214.479,37.191 220.884,37.887 C223.931,38.219 226.766,39.656 228.971,41.76 C229.637,42.394 230.276,43.109 230.817,43.846 C230.871,43.915 230.91,43.993 230.962,44.063 C229.209,46.067 226.421,48.511 226.125,48.689 C223.689,50.148 220.999,50.717 218.182,50.72 C215.61,50.723 215.748,67.648 218.598,67.645 C234.078,67.627 237.288,50.524 235.468,38.331 C234.572,32.327 232.111,26.631 226.791,23.312 C220.707,19.515 214.225,20.872 208.22,24.168 C196.067,30.837 186.537,39.889 182.271,53.32 C177.923,67.006 178.012,81.573 178.239,95.776 C178.368,103.841 178.587,112.003 176.714,119.91 C174.929,127.446 171.243,134.371 168.04,141.366 C162.105,154.33 157.661,171.424 164.364,185.045 C170.18,196.864 187.257,201.846 199.215,203.761 C213.278,206.013 227.571,202.259 236.878,191.049 C241.615,185.344 244.446,178.287 245.243,170.932 C246.074,163.272 245.844,153.517 241.245,146.928 C239.459,144.37 236.848,142.329 233.828,141.461 L233.828,141.461 Z M232.241,42.28 C232.233,42.022 232.225,41.764 232.217,41.506 C232.434,41.63 232.41,41.911 232.241,42.28 L232.241,42.28 Z M164.878,168.931 C164.915,169.299 164.975,169.774 165.062,170.369 C164.813,170.145 164.77,169.635 164.878,168.931 L164.878,168.931 Z M241.661,163.881 C241.723,163.387 241.784,162.894 241.845,162.401 C241.967,162.717 241.861,163.268 241.661,163.881 L241.661,163.881 Z" id="Fill-3" fill="#1A1918" sketch:type="MSShapeGroup"></path>
                <path d="M379.124,209.492 C378.737,205.021 377.752,201.546 374.32,198.552 C370.87,195.542 367.71,192.622 365.282,188.675 C363.275,185.413 361.153,181.031 361.636,177.482 C361.746,176.668 361.917,175.863 362.128,175.066 C363.7,175.576 365.29,176.046 366.898,176.472 C367.786,176.707 369.121,168.511 368.441,163.425 C368.683,163.123 368.926,162.825 369.172,162.533 C371.723,159.498 370.929,149.285 368.771,146.213 C360.124,133.903 351.264,121.319 346.432,106.928 C341.376,91.867 344.993,75.328 349.35,60.488 C351.319,53.785 354.934,47.141 355.158,40.093 C355.255,37.025 355.571,31.942 353.616,29.247 C352.119,27.184 350.171,27.741 347.945,28.344 C332.843,32.44 317.682,33.291 302.487,28.898 C287.927,24.689 273.758,15.703 267.55,1.361 C266.139,-1.902 265.212,3.474 265.098,4.458 C264.688,7.978 264.596,12.672 266.044,16.02 C270.642,26.642 278.906,34.609 288.78,40.034 C281.958,40.873 274.968,41.012 268.461,39.754 C260.196,38.157 256.545,31.532 254.627,24.217 C254.291,22.288 253.885,20.383 253.405,18.515 C252.798,16.151 251.914,15.353 250.964,17.912 C249.821,20.988 250.175,25.722 250.756,28.841 C250.99,30.099 251.234,31.413 251.498,32.749 C252.675,41.612 247.559,50.644 241.891,57.148 C239.924,59.405 240.621,64.869 240.856,67.589 C240.92,68.323 241.856,75.07 243.274,73.444 C250.146,65.558 253.914,55.638 255.21,45.301 C256.977,49.119 259.452,52.458 263.135,54.596 C268.375,57.639 275.133,57.459 281.002,57.353 C283.441,57.31 285.87,57.162 288.288,56.927 C286.83,61.865 286.051,67.062 285.659,72.106 C284.427,87.936 286.252,104.016 289.116,119.595 C288.979,119.831 288.818,120.087 288.612,120.372 C287.935,121.306 287.152,122.158 286.296,122.931 C284.313,124.726 281.926,126.062 279.397,126.919 C274.464,128.592 268.871,128.495 263.853,127.257 C254.112,124.854 243.626,116.13 242.92,105.44 C242.901,105.154 241.428,97.696 240.503,99.585 C237.851,104.998 235.198,110.41 232.546,115.823 C231.169,118.635 229.724,130.743 233.445,132.433 C245.841,138.063 259.772,144.812 263.926,158.951 C267.298,170.427 258.135,183.45 249.918,190.594 C247.856,192.386 248.677,198.659 248.883,201.035 C248.963,201.962 249.583,208.306 251.3,206.89 C262.419,197.726 273.323,219.453 283.861,220.319 C298.469,221.52 304.655,203.679 305.793,192.249 C307.369,176.425 303.627,160.875 299.955,145.612 C297.746,136.429 295.409,127.234 293.455,117.97 C293.34,116.909 293.196,115.867 293.031,114.858 C292.866,113.842 292.64,112.272 292.161,111.503 C291.183,106.302 290.362,101.075 289.787,95.811 C288.159,80.907 288.667,64.613 301.504,54.559 C302.521,53.763 302.825,49.66 302.627,45.73 C310.947,48.17 319.674,49.211 328.333,48.818 C333.058,48.604 337.765,47.968 342.375,46.908 C343.382,46.676 345.349,45.844 347.343,45.248 C347.1,46.062 346.849,46.873 346.618,47.69 C344.995,53.446 343.628,59.282 342.591,65.173 C340.43,77.449 339.394,89.998 340.722,102.427 C342.803,121.912 351.907,138.494 362.545,154.35 C361.978,155.506 361.459,156.682 361,157.881 C350.672,154.417 341.055,149.064 332.683,142.187 C328.563,133.706 319.876,128.811 314.322,121.446 C313.185,119.646 312.09,117.817 311.089,115.927 C309.483,112.893 308.778,117.812 308.637,119.025 C308.224,122.574 308.16,127.205 309.583,130.587 C310.478,132.712 311.628,134.604 312.921,136.374 C318.009,144.527 324.275,151.79 331.485,157.924 C331.402,158.426 331.316,158.941 331.23,159.221 C330.813,160.56 330.299,161.871 329.74,163.158 C326.044,171.665 319.918,178.866 316.495,187.53 C312.974,196.44 312.624,206.873 314.661,216.181 C318.255,232.609 330.936,250.197 349.624,246.955 C366.108,244.095 380.566,226.143 379.124,209.492 L379.124,209.492 Z M240.949,119.222 C240.761,119.129 240.572,119.038 240.384,118.945 C240.495,118.72 240.605,118.495 240.715,118.269 C240.792,118.588 240.866,118.906 240.949,119.222 L240.949,119.222 Z M300.575,170.207 C301.946,176.46 303.339,182.798 301.279,189.04 C299.072,195.727 293.646,202.272 286.316,203.302 C278.028,204.466 270.954,194.691 263.517,190.129 C268.221,179.43 269.336,167.116 267.86,155.318 C267.397,151.62 266.633,147.954 265.468,144.45 C266.115,144.58 266.769,144.698 267.441,144.791 C275.064,145.843 283.261,144.001 288.682,138.251 C290.085,136.763 291.133,135.063 291.904,133.232 C294.653,145.589 297.863,157.838 300.575,170.207 L300.575,170.207 Z M361.427,224.844 C355.32,229.248 347.451,231.389 339.975,230.102 C331.185,228.589 325.667,222.075 321.424,214.74 C319.493,211.402 316.868,207.16 317.873,204.411 C319.407,200.22 321.397,196.374 323.699,192.554 C327.787,185.767 332.096,179.139 334.146,171.396 C335.005,168.153 335.516,164.74 335.698,161.296 C342.414,166.357 349.834,170.496 357.794,173.538 C357.564,177.671 357.74,181.845 358.258,185.94 C359.048,192.177 360.769,198.242 363.925,203.709 C365.448,206.349 367.239,208.819 369.357,211.017 C370.302,211.998 371.318,212.883 372.35,213.762 C369.294,218.209 364.931,222.318 361.427,224.844 L361.427,224.844 Z" id="Fill-4" fill="#1A1918" sketch:type="MSShapeGroup"></path>
                <path d="M426.377,222.648 C425.844,211.407 434.275,199.199 439.73,189.95 C441.42,187.085 441.04,182.687 440.764,179.509 C440.71,178.874 439.358,171.939 438.347,173.654 C428.511,190.332 421.22,206.772 422.865,226.595 C423.266,231.426 424.253,236.149 425.224,240.889 C426.262,245.956 425.966,248.842 423.43,253.506 C419.413,260.894 412.884,267.123 405.653,271.335 C398.483,275.511 390.351,278.034 382.077,278.645 C374.834,279.179 365.001,278.909 359.087,274.07 C358.888,273.907 358.689,273.682 358.488,273.445 C359.066,272.161 359.614,270.819 360.343,269.712 C362.902,265.825 366.13,262.425 369.858,259.641 C376.706,254.527 384.769,251.521 388.956,243.553 C393.323,235.243 393.49,225.212 393.821,216.052 C394.136,207.344 395.875,197.904 404.24,193.358 C407.406,191.638 405.367,175.959 403.825,176.434 C400.329,177.509 396.72,177.302 393.459,175.533 C392.063,174.776 390.739,173.688 389.682,172.498 C388.934,171.672 388.313,170.759 387.818,169.757 C387.755,169.57 387.699,169.404 387.646,169.249 C388.69,166.911 393.016,162.234 393.792,161.642 C397.148,159.08 401.028,158.243 405.082,159.332 C406.749,159.78 406.73,151.078 406.721,150.824 C406.591,146.718 406.459,142.612 406.328,138.506 C406.291,137.337 406.308,130.554 404.522,130.235 C403.031,129.968 402.728,133.693 402.664,135.504 C402.536,135.696 402.301,136.233 401.948,137.152 C401.429,137.952 400.821,138.677 400.123,139.326 C398.816,140.509 397.323,141.225 395.626,141.609 C392.09,142.411 388.281,141.424 385.684,138.889 C380.886,134.206 381.836,125.874 380.617,119.781 C379.25,112.944 376.717,106.396 372.86,100.568 C370.873,97.565 368.55,94.784 365.922,92.32 C365.909,92.307 365.894,92.295 365.881,92.282 C367.114,91.06 368.193,89.681 369.094,88.198 C371.471,84.287 372.773,79.847 373.474,75.354 C374.506,68.733 374.329,62.108 373.493,55.54 C376.911,56.52 380.257,56.314 383.474,55.338 C383.52,59.304 384.075,63.269 384.997,66.859 C388.245,79.511 401.373,96.253 415.927,94.316 C419.06,93.899 417.724,77.097 415.512,77.391 C404.971,78.795 396.295,70.111 390.863,62.007 C390.585,61.593 388.913,58.342 387.965,56.359 C388.075,56.158 388.198,55.927 388.349,55.635 C388.92,54.528 389.67,53.504 390.437,52.529 C390.729,52.158 391.039,51.802 391.348,51.448 C395.03,48.982 398.441,45.873 401.471,42.914 C403.504,40.93 402.724,34.99 402.506,32.473 C402.417,31.446 401.911,25.316 400.089,26.618 C396.578,29.126 393.05,31.762 390.198,34.948 C383.878,39.172 376.631,41.515 369.473,37.147 C366.838,35.538 367.686,49.953 368.024,51.335 C369.806,58.64 371.846,65.034 367.711,71.903 C364.59,77.088 357.66,78.979 356.347,85.075 C354.939,91.609 355.404,100.192 360.694,104.809 C365.715,109.191 370.272,113.254 373.639,119.135 C376.949,124.917 378.106,130.806 378.901,137.316 C379.594,142.991 380.459,149.642 384.207,154.234 C384.694,154.831 385.231,155.372 385.806,155.856 C384.367,160.132 383.685,164.678 383.66,168.385 C383.616,175.05 384.321,182.913 388.674,188.314 C389.804,189.717 391.159,190.89 392.654,191.801 C392.217,193.314 391.858,194.863 391.561,196.425 C389.854,205.404 391.392,215.092 388.839,223.853 C385.69,234.664 375.151,237.913 367.178,244.346 C359.848,250.262 354.214,259.123 353.229,268.603 C352.235,278.176 353.25,288.848 363.034,293.072 C370.978,296.501 380.881,296.338 389.212,294.652 C406.78,291.096 424.062,278.384 428.545,260.381 C430.086,254.192 430.161,247.678 429.594,241.353 C429.033,235.088 426.673,228.886 426.377,222.648 L426.377,222.648 Z M387.315,54.827 C387.567,54.801 387.612,55.127 387.583,55.542 C387.388,55.109 387.278,54.831 387.315,54.827 L387.315,54.827 Z M387.454,169.792 C387.502,170.008 387.553,170.237 387.612,170.495 C387.41,170.377 387.379,170.125 387.454,169.792 L387.454,169.792 Z" id="Fill-5" fill="#1A1918" sketch:type="MSShapeGroup"></path>
                <path d="M418.773,59.967 C424.762,64.698 427.934,55.259 428.261,50.84 C428.379,49.248 428.413,47.602 428.347,45.951 C435.188,53.088 444.61,57.633 454.816,56.816 C465.631,55.95 474.6,49.265 479.464,40.121 C479.788,49.707 481.022,59.255 484.549,68.128 C489.305,80.093 504.511,92.023 501.478,105.937 C499.921,113.083 495.762,118.684 489.793,122.782 C485.109,125.998 480.281,128.657 476.094,132.374 C475.121,126.809 473.996,121.277 472.21,115.906 C469.058,106.433 462.949,97.24 453.377,93.36 C443.674,89.427 432.931,93.986 428.14,103.05 C426.552,106.056 426.821,110.204 427.106,113.492 C427.161,114.127 428.622,121.05 429.523,119.346 C434.476,109.976 445.457,106.239 455.066,110.846 C465.093,115.654 469.852,126.113 472.207,136.424 C463.779,146.685 461.1,159.703 461.14,172.766 C461.144,173.93 461.241,181.231 463.195,181.183 C465.126,181.136 464.837,173.437 464.835,172.675 C464.81,164.636 469.031,157.47 474.649,151.621 C475.753,158.679 477.443,165.785 481.83,170.788 C488.949,178.907 501.087,176.447 510.22,174.044 C513.769,173.11 511.36,156.71 509.805,157.119 C499.886,159.729 485.62,162.412 480.161,150.981 C479.653,149.917 479.249,148.794 478.896,147.648 C481.599,145.356 484.44,143.34 487.177,141.642 C492.713,138.207 497.554,134.568 500.643,128.677 C503.795,122.665 505.088,115.82 505.501,109.098 C506.4,94.449 503.392,80.849 495.182,68.637 C490.8,62.119 486.232,55.942 484.367,48.156 C482.674,41.09 483.047,33.729 483.261,26.526 C483.332,24.124 483.733,19.155 482.178,16.991 C480.916,15.236 480.322,16.424 479.972,18.369 C477.751,30.706 465.161,39.628 453.015,39.967 C439.933,40.332 427.708,31.928 422.292,20.213 C422.145,19.896 421.427,18.438 420.847,19.395 C417.27,25.298 417.95,34.167 419.769,40.554 C420.15,41.891 420.688,43.101 421.295,44.271 C420.728,44.364 420.129,44.235 419.355,43.623 C417.511,42.167 417.254,48.881 417.228,49.589 C417.144,51.822 416.638,58.281 418.773,59.967" id="Fill-6" fill="#1A1918" sketch:type="MSShapeGroup"></path>
                <path d="M513.019,223.92 C512.958,223.219 511.937,216.404 510.601,218.066 C502.602,228.011 496.312,239.257 492.136,251.328 C489.958,257.623 488.333,264.14 487.276,270.716 C486.294,276.83 486.917,282.521 479.157,282.636 C467.717,282.806 456.75,274.939 453.157,264.127 C451.694,259.723 449.11,255.576 445.011,260.38 C443.086,262.635 441.482,265.271 440.119,268.046 C440.492,264.894 440.967,261.754 441.555,258.629 C442.163,255.395 442.566,251.743 444.642,249.057 C446.978,246.034 450.783,245.435 454.355,245.423 C460.054,245.405 465.81,247.045 471.249,244.514 C477.066,241.807 477.695,235.739 477.721,229.922 C477.759,221.541 474.572,213.812 471.909,205.998 C470.937,203.147 469.957,200.313 468.458,197.686 C466.516,194.285 463.717,191.687 461.32,188.639 C452.474,177.389 454.264,164.192 456.321,150.99 C456.917,147.16 457.121,142.789 456.027,139.023 C455.282,136.459 453.93,135.78 453.414,139.087 C450.977,154.739 449.225,170.955 452.589,186.618 C454.146,193.866 457.006,200.553 461.8,206.257 C464.477,209.444 467.114,212.199 468.77,216.101 C470.166,219.392 471.202,222.869 472.304,226.281 C471.465,226.886 470.51,227.747 469.754,228.03 C467.093,229.027 464.208,229.165 461.402,229.012 C454.62,228.641 446.711,227.131 442.469,233.929 C438.6,240.129 438.109,249.036 437.15,256.109 C435.826,265.875 435.373,275.705 435.491,285.555 C435.501,286.365 437.192,297.053 438.45,292.793 C439.507,289.213 440.819,285.753 442.621,282.475 C443.764,280.396 445.728,275.99 448.193,275.241 C451.287,274.301 451.464,278.583 452.341,280.726 C453.356,283.206 454.72,285.595 456.334,287.732 C461.782,294.947 474.02,302.355 483.418,299.071 C488.011,297.466 488.906,292.376 489.488,288.092 C490.364,281.645 491.369,275.351 493.303,269.116 C497.247,256.396 503.649,244.725 511.984,234.361 C513.907,231.97 513.263,226.74 513.019,223.92" id="Fill-7" fill="#1A1918" sketch:type="MSShapeGroup"></path>
                <path d="M5.814,193.741 C1.115,199.168 2.017,209.342 3.708,215.765 C5.766,223.581 12.052,226.381 18.865,229.435 C29.749,234.315 41.583,246.281 41.969,259.054 C42.159,265.353 38.066,271.955 34.68,276.941 C30.098,283.688 24.518,289.677 19.698,296.245 C10.152,309.253 4.192,324.562 1.867,340.495 C-3.594,377.918 10.24,413.868 16.374,450.262 C22.534,486.816 24.21,523.963 23.466,560.983 C22.616,603.293 18.848,645.461 15.037,687.586 C14.756,690.683 14.056,696.46 15.983,699.148 C17.801,701.683 18.28,697.779 18.436,696.05 C25.137,622.005 31.738,547.198 23.638,472.981 C21.634,454.621 18.792,436.369 14.853,418.322 C10.994,400.645 5.435,382.957 4.422,364.798 C3.475,347.81 8.94,330.806 18.21,316.667 C26.432,304.125 38.591,293.801 43.202,279.118 C47.809,264.45 46.583,246.167 39.49,232.463 C36.132,225.974 31.419,220.236 25.292,216.188 C22.179,214.132 18.806,212.71 15.418,211.181 C13.11,210.139 10.81,209.031 8.891,207.351 C8.383,206.906 7.895,206.21 7.352,205.825 C6.215,203.772 5.913,204.453 6.444,207.869 C5.672,211.205 5.922,211.927 7.197,210.037 C9.16,207.769 8.467,202.324 8.231,199.596 C8.168,198.864 7.225,192.111 5.814,193.741 L5.814,193.741 Z M86.593,214.441 C89.42,211.353 92.715,208.298 97.215,209.555 C99.129,210.09 100.579,211.313 101.855,212.778 C102.502,213.522 103.032,214.307 103.505,215.171 C103.899,215.822 104.213,216.51 104.448,217.237 C104.213,216.037 104.044,216.078 103.939,217.361 C101.918,227.061 96.107,235.611 93.485,245.158 C90.815,254.875 90.297,266.049 93.366,275.738 C94.639,279.757 96.901,283.18 99.056,286.763 C101.975,291.618 104.206,296.76 106.036,302.118 C107.638,306.806 109.078,311.618 110.148,316.459 C111.322,321.767 110.749,325.488 108.494,330.46 C104.435,339.406 98.635,347.323 95.051,356.541 C87.779,375.239 85.966,395.748 85.832,415.65 C85.665,440.534 88.864,465.521 86.219,490.35 C85.893,493.416 85.26,499.253 87.166,501.912 C88.994,504.461 89.436,500.529 89.619,498.814 C92.24,474.209 90.005,449.634 89.571,424.991 C89.181,402.786 91.397,380.039 102.35,360.283 C107.345,351.275 112.841,342.956 114.231,332.514 C115.805,320.681 113.873,308.788 110.623,297.407 C107.573,286.723 103.569,277.18 97.91,267.643 C96.836,265.834 95.353,263.648 95.284,261.766 C95.194,259.274 96.732,256.213 97.603,253.889 C99.639,248.454 102.319,243.285 104.332,237.84 C108.29,227.137 110.087,213.511 105.953,202.577 C104.417,198.512 101.664,194.315 97.38,192.797 C92.357,191.016 88.351,194.714 85.21,198.145 C83.22,200.319 83.945,205.928 84.176,208.587 C84.241,209.344 85.127,216.043 86.593,214.441 L86.593,214.441 Z M152.562,235.293 C157.78,235.298 161.396,231.786 164.668,228.103 C167.943,224.417 174.142,215.364 179.372,220.8 C183.079,224.653 184.524,231.497 183.404,236.447 C181.863,243.263 178.084,248.896 173.396,253.944 C168.815,258.875 164.415,263.566 162.384,270.146 C160.186,277.271 159.998,284.958 160.455,292.345 C161.422,307.965 165.563,323.688 169.82,338.689 C174.788,356.198 181.028,373.298 188.512,389.887 C189.965,393.108 190.845,387.816 190.965,386.789 C191.369,383.316 191.505,378.524 190.018,375.227 C183.173,360.054 177.282,344.446 172.653,328.452 C170.318,320.386 168.268,312.238 166.512,304.027 C165.093,297.394 162.629,289.823 165.121,283.19 C167.751,276.191 174.088,271.706 178.504,265.929 C182.44,260.78 184.954,254.66 186.31,248.35 C189.108,235.341 188.449,219.081 181.768,207.266 C180.253,204.587 178.012,201.544 174.517,202.168 C171.65,202.68 169.018,205.472 167.105,207.481 C162.8,212.004 159.119,218.376 152.147,218.368 C149.585,218.366 149.703,235.29 152.562,235.293 L152.562,235.293 Z M207.004,223.994 C211.468,236.482 223.014,243.409 235.579,245.783 C249.566,248.425 262.875,243.808 276.828,243.877 C283.65,243.911 290.768,245.278 295.496,250.61 C300.525,256.279 300.96,264.514 304.95,270.829 C311.379,281.006 325.776,288.055 336.331,279.788 C335.714,279.077 335.097,278.366 334.48,277.655 C338.154,291.543 341.135,305.583 343.277,319.789 C344.266,326.347 345.102,332.927 345.719,339.53 C345.965,342.165 346.323,341.911 345.703,343.741 C344.663,346.814 342.168,348.999 338.952,349.525 C325.733,351.686 321.463,333.691 317.519,324.74 C312.986,314.451 307.768,304.24 300.766,295.388 C294.789,287.83 284.909,277.075 274.501,276.537 C262.692,275.926 259.392,292.92 257.494,301.627 C251.749,327.971 255.129,356.104 255.902,382.796 C259.168,495.513 257.392,609.547 230.407,719.643 C216.258,777.367 176.688,745.298 181.667,686 C187.129,620.938 114.512,752.801 114.789,756 C114.844,756.634 129.937,659.714 130.928,658 C186.393,562.055 247.214,695.321 256.201,585.702 C261.145,525.398 261.536,464.829 260.159,404.369 C259.823,389.6 259.382,374.833 258.881,360.068 C258.433,346.909 257.427,333.519 259.182,320.414 C260.616,309.709 264.296,289.076 279.405,294.472 C290.505,298.436 299.435,309.744 305.562,319.325 C312.993,330.944 316.727,344.122 323.326,356.079 C326.153,361.201 330.437,365.907 336.611,366.517 C342.213,367.07 346.157,363.287 347.927,358.309 C350.151,352.052 349.922,344.678 349.453,338.155 C348.872,330.085 347.824,322.004 346.675,313.998 C344.335,297.698 341.01,281.542 336.799,265.624 C336.599,264.868 336.151,262.549 334.948,263.492 C324.313,271.823 309.061,262.607 304.229,251.975 C301.167,245.239 300.179,237.543 294.253,232.469 C289.672,228.547 283.67,227.165 277.771,226.976 C264.516,226.553 251.71,231.086 238.416,229.369 C225.984,227.764 212.994,221.88 208.51,209.335 C207.286,205.912 206.153,211.613 206.057,212.432 C205.626,216.137 205.733,220.44 207.004,223.994 L207.004,223.994 Z M427.808,281.707 C427.375,287.01 426.93,292.312 426.468,297.612 C426.069,302.18 426.749,309.375 423.471,312.933 C418.141,318.717 408.135,315.004 402.034,312.893 C394.746,310.372 385.127,308.18 380.175,315.968 C375.732,322.954 376.141,333.791 378.157,341.492 C380.219,349.373 385.941,354.531 392.85,358.338 C398.171,361.269 410.63,365.8 410.302,373.075 C409.879,382.446 404.405,392.612 400.055,400.667 C394.948,410.123 389.281,419.287 383.816,428.538 C371.3,449.726 358.784,470.914 346.268,492.102 C344.577,494.965 344.958,499.366 345.233,502.544 C345.289,503.178 346.638,510.113 347.651,508.398 C359.321,488.642 370.991,468.885 382.661,449.129 C393.153,431.369 406.017,413.378 411.435,393.23 C414.085,383.378 415.267,372.584 413.298,362.498 C411.577,353.686 406.485,348.866 398.803,344.75 C394.934,342.678 390.875,340.881 387.401,338.158 C385.812,336.912 384.327,335.493 383.072,333.908 C382.322,332.959 381.792,331.983 381.132,330.952 C380.934,330.493 380.737,330.035 380.54,329.576 C379.94,335.002 380.157,336.09 381.194,332.839 C384.157,329.365 386.707,327.275 391.566,327.336 C396.405,327.397 400.961,329.37 405.465,330.899 C412.712,333.359 422.792,334.544 426.74,326.32 C429.098,321.41 429.045,315.377 429.518,310.051 C430.106,303.427 430.666,296.8 431.208,290.171 C431.462,287.057 432.2,281.313 430.261,278.609 C428.448,276.081 427.95,279.97 427.808,281.707 L427.808,281.707 Z" id="Stroke-8" stroke="#1A1918" sketch:type="MSShapeGroup"></path>
                <path d="M448.61,328.334 C450.749,325.765 452.957,322.005 455.578,319.963 C457.884,318.166 457.258,318.5 459.065,320.368 C460.333,321.68 461.251,323.598 462.285,325.125 C466.254,330.988 470.014,337.12 474.567,342.558 C481.841,351.248 494.887,359.271 505.851,351.8 C515.675,345.106 517.793,328.773 520.147,318.115 C523.442,303.205 525.188,287.986 525.695,272.732 C524.697,274.002 523.698,275.272 522.699,276.542 C525.825,290.921 523.32,306.163 525.18,320.762 C526.615,332.028 529.915,343.988 538.201,352.207 C540.239,354.229 542.554,355.94 544.654,357.892 C544.954,358.17 549.725,363.453 549.274,363.569 C549.268,362.487 549.261,361.405 549.254,360.323 C549.14,361.495 548.989,362.662 548.799,363.824 C548.532,365.548 548.198,367.266 547.832,368.972 C547.012,372.797 545.929,376.549 544.646,380.243 C539.977,393.684 532.46,405.5 523.264,416.277 C514.311,426.769 504.422,436.411 495.629,447.046 C486.547,458.031 478.279,469.697 470.95,481.921 C456.785,505.546 448.009,530.76 447.783,558.503 C447.521,590.695 456.87,621.66 470.202,650.683 C471.673,653.884 472.533,648.632 472.655,647.585 C473.056,644.133 473.211,639.296 471.708,636.024 C460.577,611.793 450.334,584.727 451.572,557.617 C452.836,529.936 467.213,504.458 482.681,482.22 C490.649,470.764 499.493,459.997 508.967,449.758 C518.249,439.726 527.931,429.911 535.383,418.382 C542.458,407.435 547.424,395.263 550.358,382.58 C553.016,371.091 556.144,354.632 548.155,344.58 C544.209,339.616 538.564,336.497 534.873,331.233 C531.049,325.779 529.005,319.179 528.219,312.612 C527.302,304.957 527.848,297.153 527.694,289.464 C527.527,281.059 526.805,272.734 525.018,264.511 C523.707,258.481 522.088,266.34 522.022,268.321 C521.618,280.463 520.159,292.501 517.637,304.387 C515.627,313.859 513.841,327.87 505.856,334.476 C497.47,341.413 485.325,336.52 478.526,329.897 C470.086,321.675 464.064,310.55 457.499,300.853 C457.162,300.458 456.835,300.466 456.517,300.877 C453.421,304.597 450.324,308.318 447.228,312.038 C445.285,314.372 445.953,319.702 446.193,322.48 C446.255,323.194 447.239,329.982 448.61,328.334 L448.61,328.334 Z" id="Stroke-9" stroke="#1A1918" sketch:type="MSShapeGroup"></path>
            </g>
        </g>
    </g>
</svg>