<?xml version="1.0" encoding="UTF-8" standalone="no"?>
<svg width="595px" height="842px" viewBox="0 0 595 842" version="1.1" xmlns="http://www.w3.org/2000/svg" xmlns:xlink="http://www.w3.org/1999/xlink" xmlns:sketch="http://www.bohemiancoding.com/sketch/ns">
    <!-- Generator: Sketch Beta 3.3.1 (12005) - http://www.bohemiancoding.com/sketch -->
    <title>blinder</title>
    <desc>Created with Sketch Beta.</desc>
    <defs></defs>
    <g id="Page-1" stroke="none" stroke-width="1" fill="none" fill-rule="evenodd" sketch:type="MSPage">
        <g id="blinder" sketch:type="MSArtboardGroup">
            <g id="Imported-Layers" sketch:type="MSLayerGroup" transform="translate(-55.500000, 114.000000)">
                <path d="M172.162,302.562 C183.917,304.561 195.586,299.422 206.396,294.39 C218.076,288.954 229.861,283.459 242.432,280.639 C255.003,277.82 268.603,277.858 280.307,283.244 C294.193,289.634 303.701,302.534 314.52,313.332 C325.34,324.13 340.094,333.648 355.006,330.289 C347.249,329.914 340.133,326.092 333.322,322.36 C328.466,319.699 323.489,316.94 319.952,312.68 C317.053,309.188 315.307,304.903 312.902,301.053 C307.108,291.774 297.74,285.372 288.354,279.753 C281.066,275.391 273.441,271.272 265.1,269.67 C247.034,266.201 229.037,274.95 213.122,284.178 C197.208,293.406 180.639,303.712 162.243,303.707 L172.162,302.562 Z M305.458,340.582 C298.698,341.264 291.579,341.893 285.373,339.129 C280.453,336.937 276.682,332.856 272.466,329.504 C262.396,321.496 249.196,317.537 236.382,318.681 C228.182,319.414 220.207,322.136 211.976,322.288 C199.744,322.514 188.142,317.067 177.61,310.844 C186.22,312.978 195.321,310.991 203.696,308.067 C212.071,305.144 220.166,301.271 228.853,299.476 C242.62,296.63 257.458,299.367 269.303,306.937 C279.255,313.297 287.087,322.84 297.74,327.939 C308.003,332.853 319.79,333.128 331.167,333.312 C323.864,338.599 314.428,339.676 305.458,340.582 L305.458,340.582 Z M232.163,283.4 C227.746,290.662 231.772,300.75 238.804,305.524 C245.836,310.298 254.835,310.962 263.331,310.717 C268.931,310.556 274.61,310.046 279.837,308.033 C285.065,306.019 289.846,302.327 292.132,297.212 C293.303,294.593 293.744,291.419 292.331,288.921 L232.163,283.4 Z M244.243,280.506 C244.287,281.632 244.789,282.683 245.282,283.697 C247.531,288.324 250.25,293.381 255.125,295.025 C257.076,295.684 259.177,295.706 261.236,295.723 C265.661,295.758 270.317,295.736 274.172,293.565 C278.636,291.051 281.279,285.648 280.524,280.581 L244.243,280.506 Z M265.769,281.656 C264.54,282.588 265.589,284.566 266.833,285.477 C268.826,286.935 272.258,287.401 273.27,285.148 C274.271,282.917 271.683,280.659 269.285,280.177 C267.228,279.763 265.054,279.946 263.095,280.699 L265.769,281.656 Z M258.229,289.777 C257.239,289.89 256.485,290.982 256.729,291.948 C257.94,292.516 259.329,292.699 260.646,292.463 C261.035,290.422 258.683,288.42 256.73,289.13 L258.229,289.777 Z M254.667,282.093 C253.715,282.619 254.276,284.336 255.357,284.455 C256.438,284.574 257.366,283.498 257.448,282.413 C257.53,281.328 256.991,280.294 256.37,279.401 L254.667,282.093 Z M176.686,296.484 C171.061,297.628 164.852,294.625 162.256,289.506 L176.686,296.484 Z M171.585,289.134 C175.297,293.341 181.114,295.59 186.689,294.972 L171.585,289.134 Z M185.128,286.764 C191.296,288.629 198.287,287.543 203.6,283.896 L185.128,286.764 Z M201.684,279.277 C206.948,279.02 212.184,278.188 217.269,276.801 L201.684,279.277 Z M214.206,269.998 C219.198,271.277 223.908,273.644 227.913,276.886 L214.206,269.998 Z M225.099,265.619 C228.238,269.332 233.384,271.235 238.184,270.457 L225.099,265.619 Z M240.276,263.363 C245.407,266.805 253.05,263.183 258.219,266.565 L240.276,263.363 Z M265.51,262.769 C267.043,267.469 274.136,268.084 276.231,272.562 L265.51,262.769 Z M282.558,264.57 C283.241,267.359 283.923,270.147 284.606,272.936 L282.558,264.57 Z M291.21,268.034 L292.356,276.515 L291.21,268.034 Z M294.678,283.579 C297.092,284.613 300.184,283.685 301.63,281.492 L294.678,283.579 Z M303.7,286.901 C307.627,287.647 311.593,285.94 315.045,283.925 C318.497,281.91 321.841,279.503 325.743,278.633 L303.7,286.901 Z M313.209,290.995 C314.215,291.301 315.347,291.164 316.25,290.627 L313.209,290.995 Z M317.735,298.388 C321.819,299.439 326.189,299.355 330.23,298.147 L317.735,298.388 Z M188.719,317.097 C183.954,318.874 178.652,319.185 173.711,317.975 L188.719,317.097 Z M193.881,320.227 C192.007,322.039 189.877,323.585 187.574,324.805 L193.881,320.227 Z M207.974,323.515 C208.188,326.358 208.403,329.2 208.617,332.042 L207.974,323.515 Z M223.317,325.074 C222.083,329.068 219.8,332.734 216.761,335.604 L223.317,325.074 Z M240.345,324.054 C239.953,327.38 239.561,330.707 239.168,334.033 L240.345,324.054 Z M251.289,324.229 C252.537,327.338 252.465,330.953 251.094,334.009 C250.65,334.999 250.067,335.97 250.009,337.053 C249.952,338.136 250.683,339.366 251.768,339.363 L251.289,324.229 Z M258.128,330.326 C260.285,330.248 262.126,332.11 262.759,334.174 C263.392,336.239 263.099,338.459 262.8,340.597 L258.128,330.326 Z M272.497,336.89 C274.919,341.871 275.986,347.503 275.554,353.025 L272.497,336.89 Z M289.342,345.308 C292.423,347.276 295.504,349.243 298.585,351.211 L289.342,345.308 Z M302.222,342.961 C306.216,344.312 310.21,345.663 314.204,347.013 L302.222,342.961 Z M368.609,319.189 C380.774,331.113 381.267,352.88 369.656,365.343 C364.949,370.395 358.703,373.932 354.503,379.413 C349.577,385.841 348.019,394.713 350.462,402.434 C343.163,403.007 336.27,407.398 332.667,413.772 C332.079,414.813 331.561,415.966 331.663,417.157 C331.871,419.584 334.432,421.031 336.739,421.813 C341.645,423.477 346.904,424.092 352.062,423.607 L368.609,319.189 Z M361.102,407.515 C359.656,407.116 358.133,408.196 357.51,409.561 C356.888,410.926 356.94,412.49 357.004,413.989 C357.035,414.73 357.084,415.522 357.531,416.114 C358.15,416.935 359.302,417.093 360.328,417.154 C364.005,417.375 367.704,417.223 371.351,416.7 C373.612,416.377 376.242,415.583 376.934,413.406 C377.496,411.638 376.402,409.678 374.845,408.669 C373.288,407.661 371.377,407.395 369.531,407.209 C367.872,407.041 366.134,406.894 364.731,405.995 C363.327,405.096 362.423,403.166 363.241,401.713 L361.102,407.515 Z M408.264,307.917 C415.999,321.75 423.735,335.583 431.47,349.416 C435.327,356.314 439.267,363.321 444.965,368.797 C450.68,374.288 457.875,377.962 464.092,382.877 C470.308,387.793 475.81,394.684 475.858,402.609 C475.901,409.726 471.434,416.255 465.754,420.543 C460.073,424.832 453.253,427.276 446.582,429.756 C443.777,430.799 440.9,431.907 438.721,433.957 C436.542,436.008 435.211,439.255 436.258,442.058 L408.264,307.917 Z" id="Stroke-1" stroke="#1A1918" sketch:type="MSShapeGroup"></path>
                <path d="M440.066,415.249 C442.801,415.372 445.706,414.553 447.514,412.497 C449.322,410.442 449.654,407.022 447.801,405.007 C446.77,403.886 445.269,403.337 443.807,402.909 C439.214,401.566 433.364,401.451 430.61,405.366 C430.369,405.709 430.155,406.087 430.099,406.503 C430.003,407.22 430.387,407.911 430.811,408.496 C432.858,411.32 436.254,413.118 439.74,413.223 C443.226,413.329 446.725,411.739 448.938,409.044 L440.066,415.249 Z M461.078,310.373 C481.661,307.993 494.729,286.691 514.018,279.124 C515.836,278.411 517.769,277.816 519.712,278.009 C521.385,278.174 522.94,278.909 524.457,279.633 L561.927,297.525 C562.191,299.974 558.716,300.829 556.282,300.448 C541.689,298.167 529.283,286.012 514.533,286.798 C504.947,287.31 496.643,293.237 488.661,298.569 C483.456,302.046 477.888,305.484 471.757,307.032 C467.197,308.183 462.802,306.956 458.405,307.973 C452.791,309.271 447.555,312.802 441.816,314.191 C436.226,315.544 431.083,315.061 425.489,315.473 C432.875,314.929 439.768,311.727 446.47,308.576 C462.758,300.919 479.506,292.927 491.551,279.553 C496.591,273.957 500.818,267.414 507.132,263.308 C513.16,259.389 520.499,258.095 527.656,257.402 C535.023,256.689 542.761,256.582 549.465,259.719 C560.86,265.051 566.187,278.001 570.511,289.815 C567.038,279.78 559.178,271.351 549.41,267.185 C541.562,263.838 532.496,263.24 524.4,265.935 C514.436,269.25 506.74,277.024 498.452,283.472 C490.754,289.46 482.323,294.426 473.919,299.374 C469.837,301.777 465.655,304.204 461.379,306.425 L461.078,310.373 Z M432.867,320.67 C433.159,321.752 434.471,322.136 435.576,322.321 C454.267,325.445 473.801,323.362 491.413,316.365 C493.621,315.488 495.833,314.527 498.189,314.229 C500.38,313.952 502.601,314.261 504.772,314.666 C515.791,316.718 526.649,321.233 537.795,320.045 C550.473,318.694 561.103,310.249 570.947,302.147 C570.203,301.309 569.458,300.471 568.714,299.634 C568.053,305.966 563.286,311.006 558.647,315.367 C548.039,325.339 535.094,335.086 520.577,333.988 C509.819,333.174 500.25,326.441 489.529,325.238 C474.665,323.57 460.033,332.733 445.246,330.479 C431.498,328.384 421.075,317.009 408.055,312.121 L432.867,320.67 Z M532.59,288.631 C534.124,289.822 533.203,292.274 532.061,293.844 C526.711,301.206 518.776,306.65 509.982,308.994 C507.67,309.61 505.296,310.019 502.903,310.096 C495.254,310.343 487.564,306.993 482.535,301.224 L532.59,288.631 Z M516.826,288.557 C515.58,293.131 511.576,296.466 507.31,298.534 C504.766,299.767 501.989,300.671 499.163,300.574 C496.337,300.476 493.453,299.256 491.833,296.938 L516.826,288.557 Z M506.587,287.643 C506.06,288.522 505.719,289.512 505.593,290.529 C506.868,290.983 508.235,291.179 509.587,291.101 C509.91,289.054 507.573,287.105 505.618,287.789 L506.587,287.643 Z M497.227,293.216 C496.219,295.131 498.478,297.759 500.523,297.05 C500.521,296.263 500.52,295.476 500.518,294.689 C499.867,294.659 499.216,294.63 498.565,294.6 L497.227,293.216 Z M442.774,331.032 C443.949,333.483 448.437,333.417 448.75,336.117 C448.824,336.765 448.942,337.762 449.574,337.602 L442.774,331.032 Z M459.586,332.533 C463.16,333.455 466.322,335.872 468.15,339.078 L459.586,332.533 Z M478.498,328.153 C479.149,329.826 479.799,331.499 480.45,333.172 L478.498,328.153 Z M544.559,329.656 C546.558,329.838 546.055,327.129 548.062,327.129 L558.562,327.129 L544.559,329.656 Z M568.064,313.643 C572.051,313.09 575.949,311.904 579.569,310.144 L568.064,313.643 Z M561.359,315.983 C563.508,317.215 566.128,317.599 568.541,317.037 L561.359,315.983 Z M541.026,332.726 C542.364,333.214 543.702,333.701 545.04,334.189 L541.026,332.726 Z M438.103,307.495 C440.795,308.317 443.759,305.188 442.791,302.545 L438.103,307.495 Z M446.833,303.904 C451.299,299.35 455.598,294.631 459.718,289.761 L446.833,303.904 Z M456.768,298.875 C464.895,292.091 472.102,284.117 479.018,276.132 C481.832,272.884 484.841,268.904 483.835,264.726 L456.768,298.875 Z M480.825,286.506 C486.484,282.56 489.837,275.526 489.339,268.645 L480.825,286.506 Z M495.669,269.725 C502.955,261.668 508.993,252.485 513.503,242.602 L495.669,269.725 Z M509.573,257.715 C516.031,256.867 521.752,251.886 523.48,245.606 L509.573,257.715 Z M523.109,253.912 C531.995,252.437 540.199,247.217 545.299,239.792 L523.109,253.912 Z M548.123,252.734 C551.617,250.725 555.267,248.989 559.03,247.545 L548.123,252.734 Z M551.995,256.264 C554.62,257.573 557.657,258.043 560.556,257.591 L551.995,256.264 Z M559.061,266.663 C561.754,266.75 564.463,266.354 567.019,265.501 L559.061,266.663 Z M565.509,274.794 C568.186,275.641 571.238,275.203 573.568,273.637 L565.509,274.794 Z M299.684,403.833 C305.409,397.408 302.014,387.37 298.356,379.58 C287.213,383.955 275.097,377.662 263.982,373.218 C246.238,366.124 226.697,363.58 207.728,365.895 C198.408,367.032 188.031,370.25 184.064,378.759 C180.281,386.872 184.276,397.039 191.343,402.532 C198.411,408.026 207.753,409.665 216.703,409.799 C224.173,409.911 231.655,409.098 238.926,407.384 C247.763,405.302 256.611,401.866 265.625,402.952 C271.57,403.668 277.107,406.318 282.964,407.565 C288.821,408.812 295.7,408.304 299.684,403.833 L299.684,403.833 Z M576.113,377.45 C573.356,387.714 561.118,391.346 552.027,396.848 C549.189,398.566 546.531,400.604 543.526,402.01 C532.65,407.1 518.742,402.384 511.557,392.763 C509.021,389.368 507.184,385.46 504.371,382.29 C497.297,374.315 483.825,370.03 483.611,359.372 C489.232,366.757 499.664,368.906 508.845,367.55 C518.026,366.195 526.494,361.986 535.212,358.803 C543.929,355.621 553.581,353.448 562.42,356.279 C571.258,359.109 578.521,368.488 576.113,377.45 L576.113,377.45 Z M432.733,440.737 C431.62,449.421 433.169,458.428 437.118,466.242 L432.733,440.737 Z M392.096,443.73 C392.75,453.742 392.283,463.826 390.707,473.734 L392.096,443.73 Z" id="Stroke-2" stroke="#1A1918" sketch:type="MSShapeGroup"></path>
                <path d="M549.699,206.129 C552.524,213.359 555.349,220.589 558.175,227.819 C552.071,218.948 540.871,214.947 530.147,213.971 C499.777,211.21 471.324,228.135 446.678,246.095 C445.208,247.166 443.721,248.265 442.626,249.717 C441.408,251.333 440.749,253.287 439.879,255.114 C434.228,266.969 420.236,272.414 407.187,273.889 C414.051,272.927 416.996,264.959 419.906,258.667 C422.099,253.924 425.003,249.51 428.492,245.618 C433.163,240.407 438.816,236.186 444.427,232.003 C451.328,226.859 458.228,221.714 465.129,216.569 C485.091,201.687 508.152,185.995 532.701,190.16 C536.003,190.721 539.329,191.683 541.997,193.708 C545.93,196.693 547.902,201.53 549.699,206.129 L549.699,206.129 Z M188.033,211.902 C173.009,221.004 158.673,234.065 141.107,234.092 C177.257,249.365 217.621,215.467 256.242,222.43 C290.114,228.536 315.906,265.027 350.119,261.276 C336.7,232.38 310.583,209.664 280.106,200.38 C249.629,191.097 215.283,195.395 188.033,211.902 L188.033,211.902 Z" id="Stroke-3" stroke="#1A1918" sketch:type="MSShapeGroup"></path>
                <path d="M705.197,401.713 L70.362,459.596 L62.861,613.707 L546.404,592.709 L705.197,401.713" id="Fill-4" fill="#1A1918" sketch:type="MSShapeGroup"></path>
                <path d="M577.045,42.617 L268.254,0.182 L0.083,231.684 L636.631,197.443 L577.045,42.617" id="Fill-5" fill="#1A1918" sketch:type="MSShapeGroup"></path>
                <path d="M508.446,294.709 C507.643,295.617 507.297,296.909 507.538,298.097 C508.554,298.19 509.514,297.17 509.36,296.161 C509.207,295.152 507.986,294.464 507.043,294.856 L508.446,294.709 Z M592.647,363.85 C590.423,363.261 588.22,362.445 585.92,362.395 C583.62,362.344 581.115,363.256 580.045,365.293 C578.51,368.211 580.489,371.624 581.75,374.67 C585.299,383.247 583.357,394.083 589.425,401.107 C585.178,395.497 586.418,387.355 583.134,381.133 C580.029,375.252 573.438,372.103 567.019,370.363 C572.248,367.991 574.398,361.77 575.419,356.12 C577.034,347.191 577.195,338 575.894,329.02 C576.727,335.502 577.558,341.983 578.391,348.465 C578.566,349.834 578.755,351.244 579.439,352.443 C580.147,353.683 581.32,354.582 582.498,355.389 C591.422,361.499 602.595,364.238 613.332,362.948 C606.74,365.325 599.421,365.645 592.647,363.85 L592.647,363.85 Z M185.755,413.776 C189.82,411.257 193.278,407.581 194.937,403.096 C196.595,398.611 196.273,393.296 193.55,389.366 C192.413,387.724 190.903,386.356 189.853,384.657 C185.896,378.251 189.37,368.94 184.765,362.982 C185.013,361.592 185.854,360.318 187.036,359.545 C187.536,366.333 190.039,372.791 192.514,379.132 C194.032,383.021 195.55,386.91 197.069,390.799 C198.993,395.728 200.991,400.777 204.555,404.687 C213.124,399.057 222.376,393.217 232.628,393.337 C236.267,393.38 240.858,393.71 242.526,390.476 C234.814,394.975 227.057,399.496 218.698,402.631 C215.932,403.669 213.047,404.584 210.72,406.404 C207.556,408.88 205.743,412.986 206.045,416.993 C206.176,418.73 206.675,420.416 207.17,422.087 C209.086,428.547 211.001,435.007 212.917,441.466 C209.65,437.613 210.733,431.833 209.575,426.916 C208.595,422.757 205.966,419.192 203.184,415.948 C201.744,414.268 200.179,412.59 198.145,411.719 C194.796,410.284 190.957,411.316 187.466,412.362 C181.848,414.046 176.23,415.73 170.612,417.413 L185.755,413.776 Z M308.127,282.395 C310.522,281.424 312.593,279.809 314.853,278.555 C318.229,276.683 322.051,275.622 325.909,275.487 C326.714,275.458 327.542,275.474 328.289,275.776 C329.173,276.133 329.853,276.852 330.497,277.555 C335.521,283.039 340.228,288.813 344.585,294.84 C341.521,292.3 342.807,287.283 341.154,283.662 C340.613,282.479 339.764,281.471 338.977,280.436 C336.86,277.652 335.082,273.994 336.417,270.763 C337.4,268.383 339.794,266.95 342.044,265.7 C350.774,260.851 359.691,256.228 367.618,250.155 C373.547,245.613 378.874,240.286 383.417,234.358 C377.374,236.724 372.207,240.836 366.633,244.16 C361.059,247.484 354.591,250.097 348.199,248.97 C341.014,247.703 335.316,241.822 332.36,235.151 C330.211,230.302 329.183,224.848 325.907,220.677 C327.146,226.536 328.385,232.396 329.624,238.256 C330.369,241.78 331.115,245.431 330.359,248.954 C329.851,251.325 328.688,253.497 327.538,255.632 C324.942,260.456 322.3,265.343 318.518,269.306 C312.237,275.888 303.365,279.343 294.545,281.576 C285.725,283.809 276.623,285.032 268.068,288.129 C276.501,284.992 285.521,283.439 294.517,283.576 C299.105,283.645 303.875,284.12 308.127,282.395 L308.127,282.395 Z" id="Stroke-6" stroke="#1A1918" sketch:type="MSShapeGroup"></path>
            </g>
        </g>
    </g>
</svg>