<?xml version="1.0" encoding="UTF-8" standalone="no"?>
<svg width="595px" height="842px" viewBox="0 0 595 842" version="1.1" xmlns="http://www.w3.org/2000/svg" xmlns:xlink="http://www.w3.org/1999/xlink" xmlns:sketch="http://www.bohemiancoding.com/sketch/ns">
    <!-- Generator: Sketch 3.4.4 (17249) - http://www.bohemiancoding.com/sketch -->
    <title>breezy</title>
    <desc>Created with Sketch.</desc>
    <defs>
        <path id="path-1" d="M0,0.327 L502.874,0.327 L502.874,611 L0,611"></path>
    </defs>
    <g id="pictures" stroke="none" stroke-width="1" fill="none" fill-rule="evenodd" sketch:type="MSPage">
        <g id="breezy" sketch:type="MSArtboardGroup">
            <g id="Page-1" sketch:type="MSLayerGroup" transform="translate(46.000000, 116.000000)">
                <path d="M115.6879,33.7914 C123.1739,36.8384 141.5169,24.6094 144.3719,37.2124 C145.6119,42.6904 142.7229,48.4964 140.4259,53.2954 C137.6479,59.0974 135.1049,64.7424 134.3109,71.2004 C133.7219,75.9904 133.5159,82.9554 138.2609,85.8394 C143.2219,88.8554 152.5229,87.8814 157.8449,86.7474 C161.4869,85.9724 165.5679,82.1884 168.5889,80.1204 C171.0399,78.4414 173.4929,76.7494 175.8459,74.9364 C176.2659,74.6124 178.3889,72.4834 178.6519,72.4974 C172.4149,72.1684 164.4709,74.7094 158.5959,71.9114 C154.1349,69.7874 153.2989,64.2014 153.3219,59.7954 C153.3539,53.7074 155.1199,48.1854 157.4739,42.6424 C159.4779,37.9254 162.0709,32.5754 161.0969,27.3054 C158.6989,14.3264 138.8119,24.9054 131.1019,24.9404 C116.8289,25.0054 126.1909,5.7804 131.2289,0.4764 C129.7599,2.0224 125.6219,3.6654 123.5769,5.6224 C119.3679,9.6484 115.9169,14.2484 113.6889,19.6664 C111.9579,23.8764 110.0489,31.4964 115.6879,33.7914" id="Fill-1" fill="#231F1F" sketch:type="MSShapeGroup"></path>
                <path d="M153.5538,20.3349 C159.3598,19.6179 165.3598,17.9749 171.2158,19.2009 C178.9808,20.8269 180.8078,26.0689 180.0168,33.4029 C179.2348,40.6519 176.6398,47.5519 175.2468,54.6819 C174.8038,56.9479 173.7618,60.7189 175.3968,62.7739 C177.3278,65.2009 180.9158,63.6059 183.3948,63.1469 C190.1468,61.8959 194.5368,63.4839 195.0098,70.6799 C195.3858,76.4069 193.6728,83.4919 197.7908,88.2999 C202.6358,93.9579 208.9958,88.8749 213.6238,85.8749 C218.4478,82.7489 223.2278,79.5019 227.8168,76.0369 C228.7978,75.2969 232.9838,71.9099 229.2298,74.1569 C227.5808,75.1439 223.9028,72.9649 222.7848,71.9509 C220.7888,70.1419 219.8808,67.4879 219.4308,64.8989 C218.6038,60.1369 220.6138,52.6429 217.1628,48.6669 C212.8988,43.7559 205.9348,48.5709 200.9208,48.4009 C194.3748,48.1789 197.2628,38.2799 197.9898,34.4239 C199.1228,28.4139 200.8598,22.1099 200.2958,15.9379 C199.6748,9.1529 194.1418,6.7439 187.9028,6.4279 C181.0348,6.0799 174.4718,8.5449 167.7938,9.6889 C161.1808,10.8209 156.8158,8.1309 157.3398,1.0869 C157.3088,1.5059 153.0378,3.7899 152.5088,4.1529 C151.4218,4.8959 148.3818,6.2369 147.9038,7.5499 C146.8018,10.5779 144.8488,15.1799 146.5438,18.4049 C147.9598,21.0969 150.9888,20.6519 153.5538,20.3349" id="Fill-3" fill="#231F1F" sketch:type="MSShapeGroup"></path>
                <path d="M189.5775,115.2008 C190.0015,114.9138 190.4295,114.6338 190.8555,114.3518 C190.4385,114.6008 189.9495,114.9078 189.3925,115.2728 C189.4355,115.2558 189.4795,115.2418 189.5225,115.2238 C189.5415,115.2158 189.5585,115.2088 189.5775,115.2008" id="Fill-5" fill="#231F1F" sketch:type="MSShapeGroup"></path>
                <path d="M110.8488,69.4286 C111.7548,77.2096 108.9278,84.6396 106.5988,91.9206 C105.0058,96.8976 100.9038,107.4716 108.5528,109.4746 C115.3708,111.2606 123.2808,108.1576 130.0268,110.3696 C137.0648,112.6766 134.9108,122.9216 137.0428,128.4796 C139.7998,135.6696 146.6528,136.3336 153.4448,135.6026 C160.5108,134.8436 166.9828,132.2526 173.1398,128.7846 C182.9358,123.2686 192.4218,116.7516 200.9528,109.4256 C201.8868,108.6236 202.2038,108.2316 202.1388,108.1016 C203.7538,108.1726 205.2818,108.7036 206.4968,110.0296 C209.6638,113.4876 207.1608,119.3536 205.7738,123.0496 C203.9948,127.7916 201.7558,132.3416 199.7278,136.9786 C198.3258,140.1826 194.0418,147.2106 196.3218,150.5966 C199.1178,154.7476 205.3138,150.7976 208.2308,149.1246 C215.1348,145.1636 222.7468,140.5756 228.2218,134.7476 C231.1268,131.6566 226.8768,133.7686 225.3728,134.5826 C225.3378,134.6006 225.3048,134.6226 225.2698,134.6406 C220.9268,135.5696 221.0518,129.8026 221.9298,126.8366 C222.9408,123.4216 224.3278,120.1186 225.6568,116.8196 C227.7478,111.6266 233.4288,101.8456 230.3308,96.2426 C226.9468,90.1236 218.0878,94.1266 213.5558,96.2006 C206.7138,99.3316 197.8268,102.6566 192.3808,95.3736 C191.8938,94.7226 181.2318,101.8626 180.8558,103.2666 C179.8578,106.9936 181.0008,111.1446 185.2138,112.1416 C188.8418,112.9996 192.5548,110.7586 195.7878,109.4796 C197.5948,108.7656 199.7238,108.0976 201.7458,108.0966 C200.6388,108.3986 197.5888,110.0936 196.9688,110.4676 C194.9098,111.7086 192.8738,113.0136 190.8558,114.3516 C194.0408,112.4456 193.2308,113.6996 189.5778,115.2006 C186.5368,117.2596 183.5608,119.4176 180.7168,121.7006 C184.5748,118.6046 187.4248,116.5616 189.3928,115.2726 C188.1578,115.7706 186.8958,116.1996 185.6228,116.5846 C182.3608,117.5726 178.9658,118.2976 175.5588,118.5116 C169.5998,118.8866 164.2598,117.4076 161.7158,111.5806 C159.6208,106.7816 160.8208,99.6676 156.9798,95.7656 C153.1548,91.8796 143.8988,93.7796 139.0368,93.8476 C134.0268,93.9186 127.1628,95.0906 125.7808,88.7236 C124.5918,83.2436 127.0728,77.0626 127.9498,71.6866 C128.8278,66.3116 128.8718,60.2566 125.6778,55.5876 C122.3898,50.7826 116.6608,48.4466 110.9768,49.2156 C109.0748,49.4726 106.7328,51.6516 105.1878,52.7086 C104.1978,53.3856 100.8848,56.8486 99.8388,56.8436 C106.6728,56.8776 110.1428,63.3576 110.8488,69.4286" id="Fill-7" fill="#231F1F" sketch:type="MSShapeGroup"></path>
                <path d="M231.4979,12.8649 C234.1329,14.2229 237.3819,16.0229 238.6079,18.8679 C240.1079,22.3489 238.7459,26.7319 237.5989,30.1369 C235.4189,36.6039 229.1449,44.7289 230.2499,51.8139 C231.5159,59.9329 242.9089,56.3139 248.1809,56.8039 C266.1179,58.4729 254.7609,83.3969 249.7339,92.1259 C245.7199,99.0979 240.9419,105.5969 236.9979,112.6109 C235.4369,115.3859 232.3559,119.6859 233.8389,123.0629 C235.2549,126.2879 239.7479,126.6179 242.7129,126.1669 C246.5269,125.5879 250.0519,123.7159 253.4889,122.0779 C257.5239,120.1559 261.6459,118.3499 265.6039,116.2729 C273.3429,112.2099 280.7269,106.8319 287.6439,101.5119 C288.3259,100.9879 291.9169,98.6879 291.9469,97.7249 C291.9919,96.2869 289.0039,95.3419 288.0809,94.9109 C286.1109,93.9899 277.3699,101.2619 275.7099,102.3989 C273.0869,104.1949 270.4819,106.0309 267.9579,107.9649 C266.9629,108.0369 265.9599,107.9789 264.9549,107.7409 C254.5109,105.2589 264.6849,92.2749 267.6689,87.4249 C271.8999,80.5469 276.4049,73.7539 279.3679,66.2009 C281.7859,60.0339 285.1839,49.0779 279.7359,43.4649 C273.5259,37.0679 263.8339,43.2049 256.5479,40.6409 C248.6429,37.8589 253.7619,27.6249 255.5659,22.1999 C256.8239,18.4199 258.4849,13.9379 257.7519,9.8889 C257.0529,6.0219 254.0929,4.4259 250.6919,3.1109 C242.4049,-0.0951 233.2369,-0.4001 224.6189,1.5229 C222.4799,1.9999 220.0459,4.2979 218.2639,5.5169 C216.7949,6.5229 213.9359,9.7189 212.2429,9.9989 C218.9109,8.8959 225.4589,9.7529 231.4979,12.8649" id="Fill-9" fill="#231F1F" sketch:type="MSShapeGroup"></path>
                <path d="M108.4307,118.9394 C108.2827,118.7504 100.3967,123.5024 100.5407,124.3434 C101.5767,130.3494 104.8527,134.6614 110.9077,136.0834 C111.2787,136.1694 112.4827,135.3174 112.6117,135.2414 C113.9097,134.4674 115.1747,133.6204 116.4207,132.7674 C117.6687,131.9124 118.9117,131.0414 120.1047,130.1094 C120.2497,129.9964 121.5677,128.8554 121.5047,128.8254 C116.6697,126.5724 111.7367,123.1594 108.4307,118.9394" id="Fill-11" fill="#231F1F" sketch:type="MSShapeGroup"></path>
                <path d="M165.5036,158.1195 C167.9866,157.6145 171.0826,154.7335 173.0776,153.3405 C174.3556,152.4485 175.6436,151.5545 176.8686,150.5875 C177.2226,150.3085 178.3486,149.0185 178.6516,148.9635 C171.8026,150.2075 162.5156,150.5555 157.3936,144.8945 C156.6936,144.1205 145.7396,152.6195 145.8686,152.7875 C150.1306,158.3205 159.0866,159.4265 165.5036,158.1195" id="Fill-13" fill="#231F1F" sketch:type="MSShapeGroup"></path>
                <path d="M99.9736,189.9491 C101.4016,190.5361 106.4176,186.2981 107.5606,185.5151 C107.9476,185.2501 111.5926,182.5281 113.4136,181.0251 C113.9546,182.5131 115.2116,183.8011 116.5766,184.5661 C117.8806,185.2981 131.9276,175.5011 131.6696,174.2291 C131.3476,172.6381 131.1096,171.1391 130.4816,169.7331 C132.6686,168.1781 134.7136,166.4061 135.9386,164.2721 C138.4046,159.9771 136.8946,154.6401 135.8726,150.1541 C134.5926,144.5321 133.3056,138.9101 132.2586,133.2391 C132.4366,134.2031 123.8096,137.1461 123.8276,139.0131 C123.8876,145.5841 124.2436,152.0721 124.9466,158.6051 C125.2736,161.6441 125.7206,165.5771 124.9746,168.9861 C123.2916,170.0361 121.5896,171.5081 120.4686,172.2751 C118.4686,173.6451 114.6606,175.4121 113.5536,177.6991 C113.3366,178.1471 113.2176,178.5951 113.1656,179.0391 C111.1406,177.4831 109.2006,176.0301 108.5506,173.2541 C108.3886,172.5601 108.3346,171.8631 108.3806,171.1711 C109.7446,170.3621 111.0516,169.4391 112.3436,168.5551 C114.2706,167.2351 117.8676,165.4501 118.4816,162.9341 C118.4116,163.2221 114.6316,165.1311 114.3176,165.3421 C114.1406,165.4601 113.9546,165.5801 113.7646,165.7011 C112.9316,165.7571 112.0296,165.8241 111.4676,166.0361 C110.1746,166.5241 108.9376,167.3891 107.7736,168.1151 C104.3976,170.2221 100.6436,172.5241 97.8766,175.4321 C93.9556,179.5521 94.1436,187.5521 99.9736,189.9491" id="Fill-15" fill="#231F1F" sketch:type="MSShapeGroup"></path>
                <path d="M149.8782,183.2494 C150.4482,181.3374 149.2002,179.0394 148.0012,177.6204 C146.3982,175.7214 144.2362,175.0224 141.8362,175.5944 C139.9492,176.0444 137.7832,178.0104 136.2482,179.0854 C135.3082,179.7424 134.3602,180.4014 133.4662,181.1204 C133.2502,181.2934 132.3092,182.3274 132.1712,182.3394 C134.5692,182.1314 135.9502,184.2104 136.5702,186.2764 C136.8922,187.3504 137.1162,188.4994 137.1352,189.6214 C137.1462,190.2764 137.1082,190.9494 136.9092,191.5794 C136.8302,191.7494 136.7512,191.9184 136.6722,192.0874 C136.3902,192.2944 136.1082,192.5014 135.8282,192.7054 C134.7252,193.5074 133.5032,194.3074 132.5242,195.2594 C132.4222,195.3594 131.1892,196.5034 132.0562,196.1304 C135.8522,194.4954 139.3232,192.0644 142.6982,189.7084 C144.8302,188.2204 149.0432,186.0484 149.8782,183.2494" id="Fill-17" fill="#231F1F" sketch:type="MSShapeGroup"></path>
                <path d="M109.0483,206.4084 C114.6053,213.8464 123.7813,215.8784 131.9883,219.1544 C133.4033,219.7194 138.1083,215.7314 139.2303,214.9624 C139.8253,214.5544 145.6533,209.6774 145.7563,209.7254 C136.9243,205.6004 126.5633,206.0504 118.6393,199.8394 C117.6733,199.0824 108.9343,206.2564 109.0483,206.4084" id="Fill-19" fill="#231F1F" sketch:type="MSShapeGroup"></path>
                <path d="M211.7696,184.2646 C208.2036,190.6676 203.2036,196.0936 197.9846,201.1796 C195.5626,203.5376 192.5076,205.7286 190.4226,208.3806 C188.9246,210.2856 187.8746,213.3476 191.5626,213.2206 C194.1526,213.1316 198.1266,209.3946 200.1896,207.9816 C202.1476,206.6406 204.1096,205.2856 205.9776,203.8216 C206.2256,203.6276 208.2016,201.8336 208.1926,201.8306 C202.8876,200.2096 209.8286,194.6276 211.5936,192.8996 C214.9706,189.5946 218.2816,186.2036 221.2016,182.4816 C226.3376,175.9326 230.3646,168.1806 230.6256,159.6986 C230.7296,156.3016 230.6016,150.1216 225.8986,150.5546 C222.8376,150.8366 219.5776,153.5206 217.1116,155.1196 C210.5106,159.3996 204.1936,163.8136 199.8176,170.4726 C200.5096,169.4186 203.7616,168.1256 204.8946,167.3506 C206.3806,166.3336 208.6016,165.2656 209.6406,163.7446 C210.7536,162.1166 212.2676,160.6846 213.3556,159.0616 C213.4436,159.0286 213.5286,158.9976 213.6226,158.9616 C217.2166,158.9656 216.9086,163.3356 216.8976,165.8996 C216.8676,172.4056 214.9216,178.6056 211.7696,184.2646" id="Fill-21" fill="#231F1F" sketch:type="MSShapeGroup"></path>
                <path d="M257.6906,136.6269 C259.2316,136.3229 261.2336,134.3479 262.5166,133.4699 C263.5316,132.7739 265.9916,130.1679 267.2046,130.1109 C258.5186,130.5139 250.7286,137.3129 244.1316,142.3599 C240.8936,144.8369 237.3866,147.8369 235.7556,151.6859 C233.8216,156.2479 235.8696,159.6479 238.5586,163.2259 C244.2096,170.7479 243.8836,179.0989 240.3006,187.5699 C238.4846,191.8649 235.8916,195.7389 237.0966,200.6139 C238.1636,204.9299 241.4426,209.0939 245.6376,210.5799 C246.1606,210.7659 249.2506,208.5579 249.1766,208.6049 C251.9276,206.8799 254.6256,205.0589 257.3036,203.2249 C258.1376,202.6539 268.6696,195.3839 268.3776,195.0059 C264.0856,189.4449 257.3546,186.4649 259.7776,178.1409 C261.5906,171.9099 264.6516,166.5369 263.4036,159.7649 C262.1606,153.0269 256.3746,150.5709 253.3626,145.0259 C252.0246,142.5619 252.3026,140.1409 253.5506,137.8689 C254.8746,137.3789 256.2136,136.9189 257.6906,136.6269" id="Fill-23" fill="#231F1F" sketch:type="MSShapeGroup"></path>
                <path d="M278.6566,393.2446 C286.4366,402.9286 296.9986,410.5506 310.0016,408.2806 C315.7076,407.2846 321.7716,401.9656 326.3146,398.6276 C328.7136,396.8656 331.5316,395.0576 333.4296,392.7556 C333.7996,392.3056 335.6506,390.5716 333.9266,390.7386 C311.8566,392.8746 300.7016,365.1306 287.4216,352.4336 C271.6116,337.3166 251.5836,329.7766 230.1086,327.2266 C207.3246,324.5226 184.4236,325.1846 162.0076,319.5946 C141.8166,314.5596 122.3946,305.8696 104.9776,294.4976 C95.2866,288.1696 86.0996,281.0166 77.6886,273.0666 C73.4366,269.0476 69.0856,264.5856 67.5466,258.7486 C67.0156,256.7336 66.8556,254.5566 67.0396,252.4806 C67.3576,248.8756 69.0606,247.2066 68.1946,247.7796 C68.7176,247.3356 69.2156,246.8776 69.6546,246.3926 C71.1556,244.7366 70.6876,244.7266 68.5856,245.9416 C59.7726,251.0356 48.1406,258.0986 47.6946,269.4966 C47.2616,280.5376 55.9486,289.4286 63.1936,296.6476 C78.9016,312.2996 98.0306,324.2566 118.7276,332.1256 C141.1836,340.6636 163.9846,342.6026 187.7406,344.1736 C211.5976,345.7516 234.6686,349.9626 253.8876,365.1396 C263.9906,373.1176 270.6976,383.3386 278.6566,393.2446" id="Fill-25" fill="#231F1F" sketch:type="MSShapeGroup"></path>
                <path d="M289.9106,243.7987 C290.3596,243.4757 291.3046,242.7157 291.3306,242.6807 C291.0686,243.0367 290.5576,243.4157 289.9106,243.7987 M349.6606,182.2017 C350.4146,181.3127 351.1976,180.4647 351.9916,179.6287 C355.9596,178.2977 360.1316,177.4857 364.2846,177.1487 C374.9026,176.2857 385.5186,178.8497 394.7236,184.1427 C395.5056,184.5927 399.0366,182.2927 399.1506,182.2287 C402.4536,180.3607 405.6766,178.2377 408.7966,176.0847 C409.8276,175.3737 421.5766,165.9807 421.3966,165.8747 C418.7636,164.3277 416.1366,163.0677 413.2966,161.9497 C413.0776,161.8637 412.7366,161.9147 412.3436,162.0427 C398.0906,157.4407 382.4286,158.7627 368.7206,165.2737 C347.9126,175.1557 329.9866,190.3587 317.1256,209.3607 C311.9956,216.9407 307.2226,224.7927 301.4666,231.9277 C299.1896,234.7517 296.7576,237.4317 294.1326,239.9357 C292.8336,241.1767 291.4386,242.2837 290.1196,243.4947 C289.8276,243.7627 289.7026,243.8907 289.6826,243.9287 C287.6506,245.0787 284.4736,246.2467 282.9746,246.9217 C278.7946,248.8037 274.4876,250.3867 270.1076,251.7367 C261.8606,254.2787 253.3356,255.9697 244.7426,256.7667 C225.2286,258.5747 205.5156,255.1987 187.7476,246.9127 C186.1716,246.1777 180.8186,250.6407 179.5766,251.4907 C178.9796,251.8997 172.2046,257.3717 172.3546,257.4547 C200.8956,273.2157 235.9816,273.1237 265.5606,260.2467 C283.8256,252.2957 301.6286,240.0737 315.8476,226.1477 C329.1976,213.0707 337.6586,196.3577 349.6606,182.2017" id="Fill-27" fill="#231F1F" sketch:type="MSShapeGroup"></path>
                <path d="M282.4823,155.9923 C281.6913,155.1773 273.1133,161.7793 272.3813,162.7523 C269.3643,166.7713 273.2483,165.9503 276.1823,165.7613 C279.8923,165.5223 283.6843,166.9663 286.6823,169.0953 C294.0363,174.3173 296.8333,183.6763 295.9783,192.3563 C293.8463,214.0223 273.7513,228.1663 261.2793,244.0723 C260.2283,245.4123 263.1943,243.9923 262.9483,244.0753 C264.9553,243.3903 266.8393,241.9213 268.6133,240.8043 C273.2533,237.8823 278.5763,234.7653 282.3833,230.7653 C289.8103,222.9623 297.0213,214.5663 303.6313,206.0543 C309.1903,198.8973 314.0093,190.7263 315.0363,181.5563 C316.0123,172.8473 313.3593,164.1633 305.9553,159.0353 C302.4423,156.6013 298.1663,155.1043 293.8713,155.1923 C290.5733,155.2613 284.8623,158.3943 282.4823,155.9923" id="Fill-29" fill="#231F1F" sketch:type="MSShapeGroup"></path>
                <path d="M18.0369,289.9528 C22.1369,289.3748 27.5079,284.5008 30.7109,282.2448 C32.8239,280.7578 34.9359,279.2528 36.9329,277.6108 C37.3289,277.2848 39.6739,274.7248 39.7469,274.7228 C27.3279,274.9508 23.5349,256.2188 23.2629,246.9658 C22.8839,234.1198 26.4229,221.0518 30.7269,209.0508 C35.0429,197.0138 41.2859,184.9778 50.6049,176.0198 C50.9919,175.8108 51.3389,175.6298 51.5859,175.5188 C54.4979,174.2048 57.5349,173.1388 60.6189,172.3038 C64.0219,171.3818 67.4899,171.0898 70.9219,170.4008 C73.8699,169.8088 76.2309,168.0028 78.7399,166.3788 C78.9389,166.2498 86.8119,160.9938 86.3979,160.4698 C85.6349,159.5028 84.6989,159.8158 83.6419,160.0028 C83.3979,160.0468 82.7549,160.3648 81.9289,160.8288 C80.4399,160.8018 78.9299,160.7368 77.5599,160.9468 C74.1809,161.4648 70.9279,162.4618 67.7779,163.7758 C59.7969,167.1048 52.4539,172.0978 45.4569,177.1108 C32.3629,186.4918 21.9119,197.5788 14.6069,212.0318 C7.8459,225.4088 2.6929,240.6178 1.0529,255.5578 C-0.1881,266.8618 1.1719,292.3278 18.0369,289.9528" id="Fill-31" fill="#231F1F" sketch:type="MSShapeGroup"></path>
                <path d="M239.3376,513.2936 C237.3076,515.5816 236.3006,515.5576 239.3376,513.2936 M18.5966,313.7936 C16.4326,315.2406 12.5806,317.1276 11.2656,319.4736 C-0.4384,340.3596 -0.5864,367.6446 11.7636,388.3396 C25.5256,411.4016 51.8976,418.9136 76.6586,423.6276 C89.8856,426.1466 103.5066,427.7596 116.2906,432.1446 C129.9026,436.8146 139.7786,445.1976 146.2326,458.0716 C157.8026,481.1496 164.2636,508.5046 188.6446,522.0356 C199.0226,527.7946 212.0526,529.1856 223.3836,525.6976 C232.3756,522.9296 240.5006,517.6766 248.1156,512.2776 C254.7496,507.5746 261.7796,502.4276 265.7906,495.1656 C266.6546,493.6016 263.9676,494.7916 263.7406,494.8646 C261.0996,495.7126 258.0946,497.8086 255.8246,499.2696 C251.8696,501.8146 246.6566,504.7106 243.1526,508.4176 C239.4146,509.0086 235.5606,509.0796 231.8326,508.6926 C220.9006,507.5576 211.2726,502.0696 203.4746,494.5066 C194.8556,486.1476 188.5856,475.6016 183.4446,464.8426 C178.2236,453.9176 174.6096,441.9266 167.4316,432.0456 C152.2316,411.1246 122.4466,410.1176 99.1586,406.1286 C75.8536,402.1366 51.1016,395.5556 35.9176,376.0006 C21.4626,357.3836 16.3386,332.4966 25.0536,310.2756 C24.8626,310.7636 19.1916,313.3966 18.5966,313.7936" id="Fill-33" fill="#231F1F" sketch:type="MSShapeGroup"></path>
                <path d="M460.5935,265.6283 C444.7135,274.1753 429.9185,285.1983 418.1865,298.9363 C413.8595,304.0023 409.8205,309.3173 405.3585,314.2683 C404.2255,315.5253 402.2305,317.0113 400.7695,318.5143 C399.4605,319.0323 398.1355,319.5103 396.7855,319.9193 C382.1255,324.3663 366.4865,323.5723 351.6075,320.7253 C335.1465,317.5763 319.6065,312.5803 306.9125,301.2603 C305.4915,299.9933 292.3185,309.9173 292.9125,310.8493 C300.3685,322.5383 315.0015,328.0783 327.6945,331.9803 C340.7515,335.9933 354.9465,338.0833 368.5665,336.2363 C385.2675,333.9723 400.1305,324.3253 413.0415,314.0043 C424.7105,304.6763 433.2005,292.7423 443.2725,281.8753 C444.3035,280.7623 445.3625,279.6683 446.4425,278.5983 C448.9075,277.6833 451.4235,276.1493 453.8425,275.4043 C461.9415,272.9073 469.9815,272.2983 478.4005,272.3673 C479.9845,272.3803 483.6075,269.7833 484.6755,269.1403 C487.4515,267.4703 490.1425,265.6603 492.7895,263.7963 C495.1725,262.1183 497.5525,260.4033 499.7765,258.5173 C500.1495,258.2013 503.0195,255.1433 502.8675,255.1343 C488.0995,254.1963 473.4835,258.6903 460.5935,265.6283" id="Fill-35" fill="#231F1F" sketch:type="MSShapeGroup"></path>
                <path d="M116.468,249.1798 C136.909,252.6098 156.021,241.7528 172.181,230.5198 C173.017,229.9388 181.792,224.1458 181.099,223.1338 C180.434,222.1628 171.247,228.6038 170.99,228.7808 C159.213,236.8778 140.197,239.2768 126.135,234.6288 C119.388,232.3998 113.205,228.6808 108.173,223.6478 C103.036,218.5098 100.869,212.5758 98.234,205.9788 C98.199,205.8908 86.847,212.0418 86.555,213.9778 C83.953,231.2268 100.669,246.5288 116.468,249.1798" id="Fill-37" fill="#231F1F" sketch:type="MSShapeGroup"></path>
                <path d="M363.7786,450.728 C364.3496,450.356 365.3996,449.755 363.7786,450.728 M452.3256,398.55 C432.6896,398.079 413.9036,411.198 398.7976,422.398 C389.7756,429.088 381.5416,436.655 372.9026,443.805 C371.5786,444.901 370.2286,445.968 368.8736,447.028 C368.6666,447.189 368.5166,447.307 368.4046,447.395 C368.1216,447.61 367.7336,447.905 367.2016,448.31 C367.0766,448.405 366.2866,448.984 365.9626,449.227 C365.2326,449.739 364.4996,450.251 363.7576,450.74 C363.5406,450.871 363.2826,451.025 362.9646,451.215 C362.8836,451.263 359.6926,453.04 358.6236,453.585 C340.2446,462.949 319.5186,465.376 299.5466,460.174 C280.5726,455.231 262.1366,445.598 245.7796,434.904 C228.2576,423.449 214.0586,409.565 204.0736,391.069 C203.8406,390.637 189.0176,398.714 189.6086,400.975 C194.1366,418.292 206.4976,433.194 220.0646,444.44 C234.6906,456.563 251.7226,467.154 269.5086,473.894 C288.1076,480.941 307.2506,481.57 326.0556,474.993 C347.7076,467.419 367.5196,453.705 385.3576,439.551 C389.9826,435.881 394.4826,432.057 398.9406,428.187 C401.1126,426.302 403.2676,424.397 405.4726,422.551 C405.9946,422.115 406.4336,421.739 406.9246,421.338 C406.9496,421.318 407.1826,421.152 407.4966,420.927 C407.7766,420.816 408.0926,420.687 408.4896,420.519 C411.1386,419.394 413.8946,418.561 416.7096,417.971 C422.6356,416.728 428.5536,416.775 434.4176,418.312 C435.7916,418.673 438.1416,417.172 439.1096,416.666 C442.5076,414.887 445.8276,412.736 448.9756,410.557 C452.1526,408.359 455.3256,406.11 458.2376,403.566 C459.1696,402.751 461.5436,401.166 461.4686,399.786 C461.3676,397.932 461.2186,396.098 461.0346,394.25 C460.9836,393.732 456.3426,396.249 452.3256,398.55" id="Fill-39" fill="#231F1F" sketch:type="MSShapeGroup"></path>
                <path d="M343.3257,129.9538 C343.1207,130.2398 342.9167,130.5268 342.7007,130.8048 C342.1547,131.5068 341.4387,132.1288 340.9137,132.8438 C341.7307,131.7328 342.5397,130.7798 343.3257,129.9538 M348.0307,126.4318 C347.8477,126.4678 347.6607,126.4878 347.4767,126.5208 C351.1377,124.2928 352.6367,125.5158 348.0307,126.4318 M317.9937,139.3868 C326.1587,141.9098 333.3437,140.2938 340.6777,136.1768 C350.0357,130.9228 359.3877,124.3308 365.7737,115.5668 C370.5447,109.0198 373.5927,101.4318 377.5367,94.3978 C385.5817,80.0478 396.0027,66.6318 408.6497,56.0228 C409.6507,55.7508 410.6527,55.4858 411.6797,55.3288 C415.9477,54.6768 420.0767,55.4958 423.8237,57.5988 C430.5017,61.3478 435.0077,67.9508 438.2267,74.7168 C445.1207,89.2068 452.3167,115.8168 473.6757,112.3588 C479.7207,111.3798 485.9017,106.2458 490.6697,102.6808 C493.1067,100.8598 496.0777,98.9178 497.8807,96.4518 C498.3797,95.7698 500.0057,94.1658 498.1897,94.0768 C479.0067,93.1288 473.1657,74.1488 466.5517,59.3558 C459.7747,44.1968 447.0737,32.5598 429.7847,39.1668 C417.8967,43.7098 407.1477,51.8778 397.1577,59.5848 C389.6707,65.3598 382.5527,71.6718 376.0877,78.5788 C364.4827,90.9768 355.8897,105.0018 348.6287,120.2688 C347.5927,122.4488 346.5427,124.6798 345.3317,126.8058 C343.7357,126.9538 342.1267,126.9828 340.5297,126.8888 C329.2117,126.2258 319.8547,118.9568 308.8227,117.7588 C307.3257,117.5968 298.1667,123.3698 298.6137,125.0138 C300.5887,132.2838 311.3397,137.3318 317.9937,139.3868" id="Fill-41" fill="#231F1F" sketch:type="MSShapeGroup"></path>
                <g id="Group-45">
                    <mask id="mask-2" sketch:name="Clip 44" fill="white">
                        <use xlink:href="#path-1"></use>
                    </mask>
                    <g id="Clip-44"></g>
                    <path d="M372.0722,495.1376 C369.7842,495.8106 367.6252,497.3396 365.6112,498.5566 C360.4262,501.6886 354.4012,505.2906 350.4332,509.9576 C340.2462,521.9386 330.0292,533.9796 318.7042,544.9126 C313.0522,550.3696 307.2242,555.6496 301.0912,560.5636 C300.7692,560.8226 298.7982,562.3666 298.6642,562.4816 C297.8572,563.0956 297.0412,563.7006 296.2272,564.3056 C296.2152,564.3146 295.6772,564.7036 295.2832,564.9906 C294.8832,565.2706 294.3392,565.6546 294.3252,565.6636 C293.5922,566.1656 292.8572,566.6666 292.1202,567.1636 C292.1682,567.1106 289.4042,568.8976 288.8662,569.2306 C288.6912,569.3396 288.5592,569.4216 288.4472,569.4916 C288.3212,569.5646 288.1612,569.6586 287.9282,569.7966 C287.2052,570.2226 286.4822,570.6456 285.7542,571.0636 C284.5282,571.7676 283.2942,572.4516 282.0492,573.1126 C278.7292,574.8746 275.3502,576.5316 271.9052,578.0376 C264.4582,581.2946 256.8042,584.1096 248.9692,586.2806 C233.6872,590.5156 217.7902,592.7196 201.9212,592.3166 C172.7982,591.5766 144.2542,581.1776 122.1792,562.0156 C112.1852,553.3406 103.6312,542.9526 97.4082,531.2536 C90.0302,517.3836 87.2692,502.4426 84.3812,487.1606 C81.3802,471.2866 76.7262,454.9086 63.4862,444.4526 C48.1782,432.3636 29.3322,439.3806 12.0712,434.1576 C10.5362,433.6926 6.8252,436.9036 5.6432,437.7116 C5.1872,438.0236 -0.1818,442.3126 0.0052,442.4206 C13.1322,450.0276 29.3652,446.4746 41.1592,457.2646 C52.7052,467.8276 57.0552,484.1516 59.5722,499.0136 C62.4172,515.8236 63.9692,532.5256 71.6952,547.9986 C78.1472,560.9206 87.4082,572.3526 98.3612,581.7326 C121.8382,601.8386 151.9502,611.3506 182.6632,610.9906 C219.1282,610.5626 253.4132,596.5896 283.9952,577.5826 C318.4912,556.1426 350.0612,528.3206 374.2192,495.5626 C375.4452,493.8996 371.8472,495.2036 372.0722,495.1376" id="Fill-43" fill="#231F1F" sketch:type="MSShapeGroup" mask="url(#mask-2)"></path>
                </g>
            </g>
        </g>
    </g>
</svg>