<?xml version="1.0" encoding="UTF-8" standalone="no"?>
<svg width="595px" height="842px" viewBox="0 0 595 842" version="1.1" xmlns="http://www.w3.org/2000/svg" xmlns:xlink="http://www.w3.org/1999/xlink" xmlns:sketch="http://www.bohemiancoding.com/sketch/ns">
    <!-- Generator: Sketch Beta 3.3.2 (12041) - http://www.bohemiancoding.com/sketch -->
    <title>coat and hat</title>
    <desc>Created with Sketch Beta.</desc>
    <defs></defs>
    <g id="pictures" stroke="none" stroke-width="1" fill="none" fill-rule="evenodd" sketch:type="MSPage">
        <g id="coat-and-hat" sketch:type="MSArtboardGroup">
            <g id="Imported-Layers" sketch:type="MSLayerGroup" transform="translate(57.000000, 50.000000)">
                <path d="M228.036,39.122 C226.299,42.073 224.516,45.09 221.882,47.279 C217.063,51.286 210.334,51.828 204.074,52.131 C174.662,53.556 144.641,53.71 116.738,63.117 C115.32,63.595 113.842,64.142 112.869,65.278 C110.593,67.937 112.377,72.229 115.147,74.368 C118.455,76.921 122.746,77.736 126.866,78.438 C210.467,92.691 295.915,91.812 380.081,102.22 C403.006,105.055 427.012,108.613 448.628,100.465 C450.103,99.909 451.649,99.228 452.505,97.904 C454.085,95.459 452.554,92.185 450.606,90.021 C443.964,82.643 433.395,80.578 423.608,78.925 C397.375,74.495 371.143,70.066 344.911,65.637 C340.628,64.913 336.203,64.135 332.59,61.725 C327.664,58.438 325.069,52.705 322.678,47.287 C317.811,36.26 312.662,25.122 304.641,16.125 C296.619,7.128 285.191,0.429 273.144,0.853 C262.839,1.216 253.251,6.729 245.938,14 C238.625,21.271 233.267,30.234 228.036,39.122" id="Fill-1" fill="#F9E064" sketch:type="MSShapeGroup"></path>
                <path d="M421.204,108.034 C425.573,102.765 417.422,96.204 410.814,94.418 C385.194,87.496 358.721,84.389 332.361,81.303 C319.159,79.758 305.957,78.212 292.756,76.667 C235.774,69.997 178.276,63.318 121.168,68.801 C121.122,73.385 121.077,77.97 121.031,82.555 C156.176,85.612 191.321,88.669 226.466,91.726 C243.285,93.189 260.122,94.654 276.794,97.314 C324.985,105.003 374.616,122.564 421.204,108.034" id="Fill-2" fill="#FF4621" sketch:type="MSShapeGroup"></path>
                <path d="M13.436,321.635 C33.904,320.408 54.276,317.956 74.634,315.506 C95.401,313.007 116.925,310.249 134.67,299.174 C153.299,287.548 165.562,268.059 174.979,248.221 C184.395,228.383 191.695,207.41 203.627,188.975 C208.381,181.631 213.861,174.706 217.665,166.828 C221.065,159.791 223.043,152.168 225,144.602 C225.439,142.904 225.859,141.017 225.037,139.469 C224.119,137.741 221.992,137.08 220.053,136.819 C209.415,135.386 199.299,141.012 189.268,144.836 C166.609,153.474 140.387,153.706 120.683,167.842 C109.208,176.074 101.236,188.187 93.456,199.972 C71.31,233.519 48.278,267.033 18.396,293.919 C13.146,298.642 7.672,303.174 3.144,308.594 C1.577,310.47 0.056,312.674 0.202,315.115 C0.366,317.858 2.685,320.093 5.274,321.012 C7.864,321.931 10.693,321.799 13.436,321.635" id="Fill-3" fill="#FF4621" sketch:type="MSShapeGroup"></path>
                <path d="M197.671,158.352 C188.168,162.109 177.653,162.781 168.206,166.675 C160.695,169.771 153.997,174.849 146.135,176.895 C138.772,178.81 130.468,178.06 124.139,182.284 C120.787,184.522 118.41,187.914 116.113,191.226 C110.556,199.238 104.999,207.25 99.443,215.263 C94.138,222.911 88.785,230.616 82.062,237.052 C75.646,243.193 67.983,248.185 62.924,255.483 C59.287,260.729 57.203,266.885 54.018,272.417 C43.313,291.011 21.181,301.082 11.373,320.164 C10.25,322.35 9.346,325.132 10.774,327.132 C11.964,328.798 14.252,329.155 16.289,329.371 C33.619,331.216 51.246,333.051 68.373,329.824 C78.322,327.949 87.909,324.395 97.901,322.768 C113.421,320.242 130.265,322.226 143.992,314.557 C149.917,311.247 154.777,306.36 159.553,301.537 C165.545,295.488 171.576,289.389 176.291,282.3 C186.142,267.487 189.594,249.413 197.055,233.264 C203.941,218.359 214.149,205.288 223.129,191.542 C232.11,177.797 240.078,162.758 241.568,146.407 C234.503,142.924 225.937,144.484 218.723,147.646 C211.508,150.809 204.997,155.455 197.671,158.352" id="Fill-4" fill="#F9E064" sketch:type="MSShapeGroup"></path>
                <path d="M83.732,379.999 C86.387,382.885 87.815,386.667 89.056,390.387 C92.243,399.933 94.612,409.752 96.128,419.701 C97.105,426.121 97.822,432.858 101.382,438.289 C107.367,447.418 119.637,450.154 130.536,449.52 C141.435,448.885 152.178,445.702 163.079,446.281 C189.249,447.673 209.224,469.792 223.595,491.708 C230.413,502.106 236.824,513.003 246.003,521.389 C259.556,533.769 278.812,539.631 296.964,536.903 C315.116,534.174 331.798,522.909 341.111,507.092 C352.555,487.657 352.561,463.655 350.143,441.231 C348.586,426.796 346.163,412.455 342.892,398.31 C337.837,376.457 330.772,355.127 323.717,333.835 C314.16,304.992 304.6,276.137 293.774,247.746 C288.154,233.011 282.12,218.264 273.099,205.329 C264.078,192.393 251.745,181.261 236.775,176.3 C236.03,176.054 235.119,175.591 235.204,174.811 C235.289,174.032 236.868,174.742 236.159,175.076 C227.698,171.903 218.852,169.758 209.878,168.703 C200.166,189.716 182.574,205.86 165.426,221.41 C124.472,258.55 83.518,295.69 42.564,332.83 C37.573,337.357 32.476,342.018 29.39,348.007 C26.303,353.996 25.603,361.689 29.401,367.254 C34.889,375.294 46.487,375.525 56.173,374.558 C65.859,373.591 77.144,372.833 83.732,379.999" id="Fill-5" fill="#FF4621" sketch:type="MSShapeGroup"></path>
                <path d="M339.928,271.269 C335.135,256.588 330.21,241.643 321.17,229.121 C315.764,221.633 308.745,214.678 307.051,205.599 C305.76,198.677 307.691,190.957 304.129,184.883 C300.348,178.434 292.001,176.568 284.572,175.732 C271.575,174.268 258.139,174.084 245.727,178.208 C233.316,182.331 221.995,191.346 217.743,203.714 C215.824,209.299 215.394,215.3 213.592,220.924 C207.143,241.035 185.561,251.412 166.265,259.998 C146.969,268.583 125.639,280.22 120.971,300.817 C119.576,306.969 119.768,313.713 116.396,319.044 C112.67,324.933 105.511,327.603 98.705,329.097 C91.898,330.59 84.718,331.377 78.772,335.012 C72.827,338.646 68.563,346.338 71.493,352.66 C75.212,360.686 86.354,360.652 94.549,363.982 C104.697,368.105 111.353,379.499 109.961,390.364 C109.493,394.01 108.225,397.552 108.147,401.227 C107.861,414.664 123.019,423.227 136.407,424.409 C149.795,425.591 163.797,422.673 176.423,427.28 C184.053,430.064 190.464,435.377 196.487,440.826 C223.392,465.169 245.927,494.327 262.701,526.5 C264.91,530.736 267.179,535.21 271.128,537.898 C273.924,539.801 277.298,540.616 280.59,541.386 C298.6,545.6 318.668,549.289 334.676,540.023 C346.186,533.36 353.288,521.162 358.719,509.021 C366.61,491.384 372.105,472.676 375.006,453.573 C376.665,442.641 377.414,431.115 373.318,420.845 C369.584,411.481 362.137,403.988 358.245,394.688 C352.194,380.228 355.517,363.821 355.826,348.148 C356.344,321.854 348.09,296.27 339.928,271.269" id="Fill-6" fill="#F9E064" sketch:type="MSShapeGroup"></path>
                <path d="M233.65,452.283 C238.18,456.375 243.96,458.805 248.813,462.506 C265.201,475 267.586,498.321 277.155,516.574 C293.175,547.135 333.474,562.346 365.693,549.992 C387.547,541.612 403.755,523.216 418.897,505.369 C435.077,486.299 451.778,465.577 454.728,440.742 C457.252,419.5 449.267,398.572 441.426,378.669 C438.214,370.515 434.979,362.315 430.432,354.822 C417.406,333.359 395.047,319.719 374.984,304.625 C351.457,286.926 330.172,266.251 311.796,243.249 C299.621,228.009 288.536,211.358 283.491,192.516 C278.969,175.623 277.57,154.668 262.075,146.561 C258.501,148.851 254.817,151.248 252.505,154.809 C250.193,158.37 249.641,163.444 252.374,166.692 C253.553,168.093 255.201,169.017 256.479,170.327 C262.18,176.173 258.248,185.861 254.083,192.884 C242.537,212.355 230.897,231.955 215.918,248.927 C197.998,269.23 175.641,285.373 158.614,306.431 C151.991,314.622 146.126,323.733 143.676,333.978 C141.227,344.222 142.62,355.792 149.278,363.955 C153.699,369.375 159.976,372.87 165.883,376.615 C189.072,391.318 208.582,411.775 222.17,435.634 C225.523,441.52 228.624,447.743 233.65,452.283" id="Fill-7" fill="#FF4621" sketch:type="MSShapeGroup"></path>
                <path d="M470.399,365.867 C466.951,393.597 451.698,418.247 436.815,441.896 C431.675,450.062 426.535,458.229 421.395,466.395 C417.276,472.941 413.07,479.589 407.23,484.662 C399.165,491.668 388.665,495.102 379.579,500.721 C369.54,506.929 359.471,516.294 347.855,514.206 C344.273,513.563 340.982,511.833 337.884,509.924 C325.77,502.455 315.636,491.807 308.776,479.339 C301.538,466.185 297.999,451.313 291.475,437.79 C275.693,405.078 244.268,383.297 214.588,362.362 C204.539,355.275 193.908,347.255 190.415,335.466 C184.91,316.887 199.967,298.011 217.137,289.03 C234.307,280.049 254.162,276.966 270.982,267.346 C279.225,262.632 286.807,256.124 290.764,247.491 C298.248,231.167 291.187,212.041 282.717,196.207 C274.247,180.372 264.003,164.004 265.185,146.086 C275.435,142.82 285.631,151.492 291.329,160.616 C297.027,169.74 301.326,180.591 310.628,185.994 C317.734,190.121 326.393,190.195 334.611,190.227 C352.214,190.295 370.161,190.749 386.787,196.533 C398.972,200.772 410.787,208.572 415.665,220.515 C417.837,225.829 418.517,231.668 420.782,236.944 C427.013,251.453 443.522,258.601 452.802,271.378 C459.495,280.593 461.992,292.111 464.329,303.259 C468.652,323.88 472.997,344.959 470.399,365.867" id="Fill-8" fill="#F9E064" sketch:type="MSShapeGroup"></path>
                <path d="M250.202,76.225 C242.452,74.777 234.104,73.397 226.955,76.723 C221.25,79.378 217.225,84.658 214.023,90.076 C212.437,92.759 210.99,95.534 209.88,98.447 C208.638,101.707 207.828,105.111 207.021,108.505 C206.228,111.842 205.435,115.18 204.642,118.518 C203.579,122.992 202.511,127.494 202.234,132.085 C201.963,136.579 202.462,141.118 203.7,145.447 C204.351,147.72 205.263,150.024 207.017,151.61 C210.798,155.029 217.342,154.174 220.668,158.037 C223.452,161.27 222.818,166.608 225.9,169.558 C226.567,170.195 227.388,170.697 227.866,171.484 C228.806,173.032 228.096,175.001 228.013,176.81 C227.872,179.861 229.659,182.745 232.018,184.685 C234.377,186.626 237.265,187.786 240.103,188.916 M234.367,111.213 C235.292,112.721 234.536,114.712 233.455,116.114 C232.374,117.516 230.955,118.727 230.373,120.399 C229.604,122.61 230.693,125.307 232.781,126.364 M242.295,190.179 C251.868,196.352 263.342,198.689 274.515,200.907 C276.371,201.276 278.585,201.541 279.89,200.172 C280.57,199.459 280.828,198.455 281.06,197.498 C282.076,193.32 283.092,189.142 284.108,184.964 C283.246,184.613 282.28,184.526 281.37,184.719 C280.396,185.992 281.185,188.167 282.748,188.521 C281.99,189.543 280.555,190.005 279.344,189.616 C278.457,188.41 278.497,186.607 279.436,185.442 C278.504,184.493 276.553,185.74 277.022,186.985 C277.698,187.002 278.374,187.018 279.049,187.035 C278.182,188.313 276.28,188.747 274.944,187.972 C273.608,187.198 273.04,185.331 273.718,183.944 C273.372,183.584 273.026,183.224 272.68,182.864 C271.591,183.427 271.415,185.181 272.369,185.95 C271.061,185.931 269.753,185.912 268.445,185.893 C268.761,184.846 269.077,183.713 268.716,182.68 C268.355,181.648 266.995,180.915 266.127,181.582 C265.025,182.429 265.854,184.172 266.736,185.248 C264.937,185.275 263.139,185.302 261.341,185.33 C260.751,183.946 260.845,182.289 261.587,180.981 C261.264,180.004 260.429,179.212 259.437,178.94 C259.128,180.131 259.505,182.043 260.678,181.67 C260.643,183.444 258.048,184.21 256.622,183.154 C255.196,182.099 254.848,180.097 255.002,178.329 C254.308,178.339 253.613,178.349 252.919,178.36 C253.252,179.389 254.073,180.248 255.087,180.625 C254.407,182.2 252.173,182.843 250.76,181.87 C249.348,180.897 249.151,178.58 250.38,177.384 C249.37,177.364 248.36,177.344 247.35,177.325 C247.921,178.341 249.193,178.91 250.331,178.658 C250.323,179.305 250.314,179.953 250.305,180.6 C248.842,181.246 247.057,180.015 246.688,178.459 C246.318,176.903 247.031,175.271 248.048,174.036 C247.111,173.113 245.658,172.754 244.4,173.135 C243.622,173.141 243.734,174.437 244.364,174.893 C244.994,175.348 245.895,175.559 246.177,176.284 C246.577,177.311 245.168,178.284 244.117,177.951 C243.066,177.617 242.431,176.578 241.889,175.618 C242.39,174.795 243.372,174.291 244.333,174.363 C244.331,173.497 244.33,172.632 244.328,171.766 C240.715,171.754 236.446,171.39 234.592,168.288 C233.643,166.698 233.619,164.598 234.533,162.987 C233.403,162.649 232.275,162.311 231.146,161.973 C230.689,156.556 230.351,151.13 230.133,145.698 M254.357,76.855 C259.413,78.58 264.856,79.157 270.161,78.529 C272.579,78.242 274.979,77.709 277.414,77.725 C283.392,77.763 288.802,81.054 293.862,84.238 C295.163,85.057 296.48,85.888 297.537,87.003 C299.087,88.638 299.979,90.769 301.08,92.735 C303.754,97.51 307.765,101.454 310.266,106.322 C314.177,113.938 313.99,122.923 313.712,131.48 C313.531,137.08 313.245,143.016 310.108,147.659 C309.037,149.244 307.653,150.639 306.879,152.389 C305.369,155.806 305.902,160.77 302.475,162.259 C301.345,162.751 300.061,162.668 298.83,162.746 C291.263,163.224 285.067,171.161 286.439,178.618 C285.822,178.901 285.206,179.183 284.589,179.466 C285.729,179.066 286.361,181.11 285.43,181.881 C284.498,182.652 283.124,182.409 281.949,182.125 C281.78,181.079 281.933,179.983 282.383,179.023 C281.477,179.015 280.572,179.008 279.667,179 C279.653,179.872 279.639,180.743 279.625,181.615 C278.64,182.44 277.04,182.682 276.109,181.796 C275.178,180.91 275.738,178.908 277.022,178.961 C276.78,178.173 275.788,177.716 275.03,178.042 C275.304,179.546 274.381,181.262 272.891,181.6 C271.401,181.938 269.717,180.492 270.057,179.002 C270.914,178.626 271.77,178.25 272.628,177.873 C271.685,177.487 270.675,177.093 269.675,177.284 C268.674,177.474 267.769,178.514 268.115,179.472 C266.709,180.182 264.886,180.354 263.639,179.392 C262.393,178.43 262.304,176.133 263.719,175.441 C262.808,175.073 261.897,174.705 260.986,174.337 C261.203,175.107 261.419,175.878 261.635,176.648 C260.119,177.779 258.225,178.394 256.333,178.369 C255.77,177.445 255.422,176.391 255.326,175.313 C256.199,175.039 256.958,174.421 257.403,173.622 C256.672,173.333 256.045,172.788 255.657,172.105 C256.164,173.472 255.862,175.174 254.736,176.101 C253.609,177.028 251.685,176.893 250.874,175.681 C250.062,174.469 250.895,172.471 252.351,172.383 C251.558,171.451 250.206,171.04 249.03,171.373 C249.341,171.958 249.448,172.65 249.326,173.302 C248.64,173.762 247.636,173.113 247.495,172.299 C247.355,171.485 247.815,170.685 248.373,170.075 C249.49,168.852 251.077,168.07 252.728,167.929 C252.613,169.161 252.498,170.393 252.383,171.626 C254.243,172.122 256.343,171.589 257.742,170.266 C259.127,170.811 259.991,172.435 259.668,173.888 C260.684,174.878 262.375,174.6 263.657,173.993 C264.938,173.386 266.166,172.501 267.583,172.455 C269,172.409 270.548,173.809 269.955,175.097 C271.662,177.124 275.04,173.422 277.424,174.581 C278.28,174.998 278.726,175.942 279.398,176.618 C280.578,177.807 282.574,178.081 284.032,177.254 C283.729,176.457 283.977,175.482 284.625,174.927 C285.199,176.124 285.773,177.322 286.347,178.519 C282.671,180.198 278.029,179.486 275.027,176.78 C273.719,175.601 272.573,174.014 270.841,173.695 C269.697,173.485 268.543,173.888 267.426,174.21 C262.007,175.772 255.264,175.031 252.072,170.382 C251.618,169.721 251.228,168.978 250.564,168.529 C248.041,166.826 245.056,170.691 242.022,170.457 C240.241,170.32 238.855,168.71 238.394,166.985 C237.933,165.26 238.197,163.434 238.463,161.669 C237.195,161.008 235.706,160.778 234.296,161.024 C233.333,154.013 232.37,147.002 231.407,139.99" id="Stroke-9" stroke="#231F1F" sketch:type="MSShapeGroup"></path>
                <path d="M271.516,167.34 C272.825,164.295 274.134,161.25 275.444,158.205 C275.727,157.547 276.032,156.86 276.599,156.423 C277.219,155.945 278.194,155.674 278.261,154.895 C278.294,154.525 278.084,154.179 278.022,153.812 C277.852,152.797 278.786,151.983 279.515,151.255 C282.199,148.574 283.244,144.232 286.643,142.547 C286.462,145.294 286.061,148.021 285.66,150.745 C284.718,157.15 283.776,163.554 282.833,169.959 C282.745,170.556 282.643,171.188 282.255,171.651 C281.867,172.114 281.089,172.305 280.66,171.88 C280.577,171.413 280.185,171.017 279.718,170.931 C279.111,169.733 278.504,168.535 277.897,167.337 C275.769,167.338 273.643,167.339 271.516,167.34 L271.516,167.34 Z M300.83,134.845 C301.571,135.181 302.097,135.853 302.591,136.5 C303.236,137.344 303.893,138.209 304.221,139.22 C304.779,140.936 304.283,142.882 303.207,144.331 C302.131,145.779 300.539,146.776 298.861,147.44 C297.998,147.781 297.081,148.046 296.155,147.983 C294.498,147.87 293.056,146.699 292.202,145.275 C291.348,143.85 290.989,142.19 290.69,140.556 C290.423,139.106 290.252,137.43 291.23,136.327 C292.475,134.922 294.702,135.32 296.564,135.072 C297.999,134.88 299.511,134.246 300.83,134.845 L300.83,134.845 Z M261.903,122.92 C259.003,122.739 256.111,124.075 254.132,126.202 C252.153,128.329 251.046,131.18 250.747,134.07 C250.663,134.893 250.641,135.733 250.821,136.54 C251.378,139.039 253.73,140.728 256.095,141.71 C260.147,143.392 264.762,143.685 268.994,142.527 C270.153,142.21 271.32,141.766 272.18,140.926 C273.565,139.573 273.883,137.495 274.096,135.57 C274.326,133.49 274.487,131.243 273.417,129.444 C272.644,128.143 271.334,127.27 270.067,126.442 C267.557,124.8 264.897,123.106 261.903,122.92 L261.903,122.92 Z M230.88,129.017 C231.075,130.401 230.484,131.869 229.384,132.732 L230.88,129.017 Z M189.546,212.985 C183.991,212.051 177.75,210.671 174.833,205.851 C174.27,204.919 172.995,203.783 172.383,204.685 C172.526,203.24 174.596,203.152 176.007,203.493 C189.099,206.654 202.191,209.814 215.282,212.974 C217.533,213.518 219.854,214.094 221.699,215.493 C226.335,219.009 225.367,227.517 220.058,229.901 C221.298,225.881 218.828,221.464 215.339,219.115 C211.849,216.766 207.559,216.014 203.411,215.316 C198.789,214.539 194.168,213.762 189.546,212.985 L189.546,212.985 Z M295.829,225.843 C291.659,225.978 286.043,226.685 285.589,230.832 C285.428,232.306 286.086,233.733 286.726,235.07 C288.454,238.673 291.558,242.939 295.38,241.776 C295.842,237.602 296.187,233.414 296.415,229.221 C304.168,225.519 313.269,227.856 321.857,228.01 C332.472,228.199 342.821,224.921 352.819,221.352 C354.15,220.876 355.673,220.184 355.959,218.8 C346.445,214.994 335.66,216.55 325.758,219.188 C315.856,221.826 306.071,225.513 295.829,225.843 L295.829,225.843 Z M263.56,213.005 C261.754,213.01 259.947,213.016 258.141,213.022 C253.728,241.155 253.824,269.991 258.425,298.094 C259.727,298.03 261.03,297.966 262.332,297.902 C259.949,291.296 258.806,284.245 258.983,277.224 C259.152,270.446 260.532,263.766 261.573,257.067 C263.834,242.51 264.502,227.706 263.56,213.005 L263.56,213.005 Z M223.019,117.772 C222.282,120.126 221.545,122.48 220.807,124.834 C219.734,128.263 218.763,132.34 220.974,135.172 C221.649,136.037 222.577,136.701 223.14,137.643 C224.799,140.423 222.257,144.179 219.12,144.979 C215.984,145.78 212.719,144.591 209.701,143.422 L223.019,117.772 Z M284.518,143.741 C280.838,150.586 277.649,157.694 274.982,164.993 L284.518,143.741 Z M199.159,219.073 C195.796,227.903 198.839,237.844 202.904,246.375 C203.448,247.517 204.031,248.679 204.958,249.541 C206.312,250.801 208.21,251.256 210.024,251.616 C219.292,253.455 228.806,254.049 238.23,253.376 C238.474,249.564 238.717,245.752 238.961,241.94 C231.064,243.994 222.438,243.454 215.046,239.999 C210.355,237.807 206.043,234.258 204.214,229.414 C202.975,226.134 202.96,222.536 203.012,219.03 C201.728,219.044 200.444,219.058 199.159,219.073 L199.159,219.073 Z M272.999,257.674 C275.795,259.179 279.187,258.685 282.347,258.99 C284.978,259.244 287.522,260.075 290.144,260.417 C295.275,261.086 300.638,259.791 304.898,256.854 C312.364,251.706 315.693,242.51 318.584,233.914 C316.77,233.973 314.955,234.032 313.141,234.091 C308.535,241.4 302.421,248.751 293.93,250.345 C288.363,251.391 282.337,249.602 278.242,245.687 C275.773,243.326 273.522,240.027 270.107,239.906 C269.19,243.036 268.263,246.24 268.443,249.496 C268.623,252.752 270.127,256.127 272.999,257.674 L272.999,257.674 Z M183.772,253.294 C184.124,256.778 185.403,260.091 186.671,263.354 C188.018,266.825 189.366,270.296 190.713,273.766 C192.678,278.825 194.776,284.082 198.822,287.698 C205.431,293.607 215.356,293.587 224.13,292.324 C231.363,291.282 239.612,288.714 242.158,281.865 C242.936,279.771 243.066,277.501 243.187,275.271 C243.403,271.29 243.619,267.308 243.835,263.327 C238.34,267.703 231.054,269.385 224.033,269.133 C217.011,268.882 210.177,266.844 203.577,264.436 C199.541,262.964 195.452,261.281 192.339,258.32 C189.226,255.359 187.261,250.829 188.444,246.699 C188.761,245.59 189.291,244.541 189.49,243.405 C189.842,241.402 189.053,239.237 187.493,237.931 C184.92,242.622 183.234,247.971 183.772,253.294 L183.772,253.294 Z M280.476,285.707 C279.584,284.527 279.526,282.941 279.393,281.468 C279.062,277.792 278.04,274.18 276.396,270.877 C283.005,272.123 289.613,273.369 296.222,274.616 C301.244,275.563 306.523,276.496 311.377,274.897 C316.23,273.299 320.351,268.235 319.033,263.298 C318.984,271.759 314.545,280.075 307.543,284.825 C300.541,289.575 291.173,290.625 283.293,287.543 C282.236,287.129 281.161,286.613 280.476,285.707 L280.476,285.707 Z" id="Stroke-10" stroke="#231F1F" sketch:type="MSShapeGroup"></path>
                <path d="M244.35,290.269 C240.77,294.557 236.941,298.639 232.89,302.487 C222.107,304.054 211.085,303.955 200.332,302.197 C195.523,297.239 191.597,291.428 188.791,285.117 C189.498,289.835 188.452,294.795 185.901,298.827 C191.907,302.672 196.34,308.555 202.112,312.745 C210.021,318.487 219.909,320.691 229.56,322.232 C233.191,322.811 237.017,323.299 240.46,322.008 C248.126,319.134 243.479,298.409 244.35,290.269 L244.35,290.269 Z M276,292.998 C276.016,294.249 276.032,295.5 276.048,296.75 C285.035,298.534 294.359,299.529 303.334,297.684 C312.308,295.839 320.957,290.819 325.5,282.862 C318.503,298.593 302.263,309.782 285.071,310.717 C283.703,307.819 277.369,295.896 276,292.998 L276,292.998 Z M172.687,223.442 C171.312,216.596 165.848,210.74 159.115,208.892 C152.382,207.045 144.694,209.295 140.018,214.48 C139.281,215.298 138.592,216.23 138.414,217.317 C138.124,219.081 139.215,220.734 139.803,222.422 C142.142,229.13 136.572,235.785 131.462,240.72 C93.707,277.183 54.482,314.593 5.341,333.033 C6.826,333.789 7.611,335.695 7.088,337.277 C10.699,335.86 14.677,335.391 18.518,335.929 C15.299,337.956 18.505,343.565 22.307,343.456 C26.11,343.348 29.003,340.177 31.576,337.375 C45.534,322.172 63.618,311.19 82.711,303.355 C97.279,297.376 113.131,292.756 124.218,281.573 C133.372,272.341 138.111,259.764 144.399,248.385 C150.688,237.007 159.906,225.817 172.687,223.442 L172.687,223.442 Z M462.993,373.982 C465.843,372.901 468.975,372.573 471.988,373.042 C471.993,371.313 471.997,369.584 472.003,367.856 C463.079,367.728 456.478,359.845 451.176,352.666 C428.277,321.653 405.377,290.641 382.478,259.629 C379.09,255.041 375.698,250.447 372.734,245.575 C370.919,242.593 369.217,239.448 366.588,237.15 C361.777,232.942 354.077,232.489 348.805,236.103 C343.533,239.717 341.178,247.062 343.367,253.067 C346.668,257.047 354.045,256.225 356.389,251.616 C377.528,266.446 393.175,287.667 408.432,308.5 C425.228,331.436 442.026,354.372 458.822,377.308 C460.221,379.218 461.836,381.271 464.16,381.727 C463.771,379.145 463.382,376.564 462.993,373.982 L462.993,373.982 Z M463.279,437.776 C464.11,427.454 464.931,416.959 462.779,406.83 C450.383,458.399 444.503,511.53 445.321,564.562 C455.159,537.957 457.523,509.268 459.8,480.995 C460.959,466.588 462.119,452.182 463.279,437.776 L463.279,437.776 Z M458.076,555.923 C461.455,557.07 464.092,552.939 465.231,549.557 C482.109,499.437 485.532,444.856 475.048,393.02 C470.438,428.857 478.356,465.981 469.485,501.008 C464.858,519.276 455.68,537.231 458.076,555.923 L458.076,555.923 Z M48.179,445.23 C45.143,441.701 41.611,438.532 39.285,434.5 C34.342,425.931 35.716,415.248 33.611,405.582 C31.339,395.155 25.065,386.138 20.178,376.651 C15.291,367.165 11.697,356.004 15.226,345.933 C13.212,364.586 24.344,381.724 32.67,398.538 C40.648,414.649 46.325,431.782 51.976,448.85 C56.296,461.898 60.616,474.946 64.935,487.994 C62.743,472.627 58.301,456.998 48.179,445.23 L48.179,445.23 Z M31.112,405.282 C27.05,382.824 19.138,361.066 7.825,341.245 C7.888,359.472 16.057,376.535 21.097,394.052 C28.18,418.664 29.14,444.658 35.408,469.489 C36.994,475.774 39.288,482.486 44.72,486.024 C47.388,479.384 48.144,471.989 46.875,464.947 C45.38,456.65 41.213,449.111 38.427,441.154 C34.39,429.62 33.286,417.307 31.112,405.282 L31.112,405.282 Z M204.577,485.312 C201.364,480.974 198.152,476.636 194.94,472.298 C188.894,464.131 182.27,455.528 172.671,452.197 C163.07,448.865 149.984,453.847 148.901,463.951 C151.5,465.411 149.35,469.221 148.132,471.943 C145.815,477.121 148.363,483.198 151.759,487.742 C155.155,492.286 159.501,496.308 161.44,501.64 C166.713,505.639 171.985,509.639 177.258,513.638 C184.862,519.406 193.108,526.266 194.064,535.762 C194.439,539.49 193.611,543.297 194.299,546.981 C194.987,550.664 198.079,554.417 201.78,553.833 C203.656,553.537 205.18,552.212 206.592,550.942 C213.3,544.914 220.006,538.885 226.713,532.857 L204.577,485.312 Z M249.883,483.706 C259.409,485.294 267.993,478.344 275.422,472.174 C289.391,460.572 306.164,449.655 324.226,451.529 C326.884,451.804 329.614,452.404 331.732,454.035 C334.165,455.91 335.472,458.912 336.173,461.903 C337.832,468.981 336.52,476.707 332.616,482.841 C326.943,491.753 316.814,496.54 307.668,501.83 C302.251,504.964 297.019,508.419 292.008,512.169 C286.919,515.978 281.932,520.247 279.007,525.889 C274.542,534.501 275.27,545.546 269.09,553.023 C267.956,554.394 266.522,555.645 264.774,555.974 C261.408,556.609 258.498,553.741 256.275,551.135 C250.879,544.811 245.483,538.487 240.088,532.164 L249.883,483.706 Z M212.298,526.202 C210.091,529.226 207.459,531.94 204.503,534.238 C203.61,530.173 202.717,526.109 201.823,522.044 L212.298,526.202 Z M257.028,535.991 C258.931,535.995 260.834,536 262.737,536.004 C262.659,530.236 256.65,525.313 250.979,526.372 C251.036,530.177 254.245,533.679 258.03,534.067 C258.586,534.783 257.935,536.035 257.028,535.991 L257.028,535.991 Z M215.841,470.43 C209.509,472.678 206.645,479.947 205.277,486.525 C204.998,487.866 204.757,489.301 205.265,490.573 C205.797,491.905 207.038,492.788 208.113,493.737 C211.11,496.381 213.168,500.068 213.847,504.007 L215.841,470.43 Z M248.437,468.323 C246.391,471.141 248.616,475.027 250.96,477.602 C253.304,480.178 256.046,483.414 254.891,486.7 C254.414,488.058 253.328,489.104 252.228,490.032 C245.85,495.406 237.637,498.56 229.301,498.837 C230.014,506.873 230.727,514.909 231.439,522.945 L248.437,468.323 Z M158.938,511.051 C156.716,505.508 150.443,501.903 144.536,502.774 C138.338,505.604 138.885,515.012 142.869,520.539 C146.852,526.067 153.044,529.854 156.384,535.792 C158.439,539.444 159.26,543.66 159.689,547.828 C161.62,566.588 156.229,585.243 150.894,603.331 C139.837,640.83 128.778,678.329 117.72,715.827 L158.938,511.051 Z" id="Stroke-11" stroke="#231F1F" sketch:type="MSShapeGroup"></path>
                <path d="M165.01,523.015 C164.633,519.906 167.65,516.859 170.763,517.206 C177.787,521.978 174.08,532.654 171.915,540.865 C168.985,551.98 170.481,563.741 169.367,575.183 C167.026,599.232 153.225,621.407 153.119,645.57 C153.049,661.389 158.667,678.449 150.981,692.275 C146.982,699.467 139.976,704.418 134.662,710.701 C129.348,716.984 125.761,726.275 130.015,733.32 L165.01,523.015 Z M321.002,535.549 C321.956,530.745 322.909,525.765 321.8,520.994 C320.692,516.223 316.925,511.701 312.038,511.359 C309.784,518.975 308.729,526.944 308.924,534.884 C305.094,536.916 301.553,531.079 297.249,530.566 C292.959,530.054 289.934,535.381 290.83,539.608 C291.727,543.834 295.01,547.063 297.874,550.299 C317.331,572.282 321.88,603.316 334.112,630.004 C341.556,646.246 351.969,661.061 358.557,677.668 C367.3,699.709 369.801,725.604 386.767,742.169 L321.002,535.549 Z M318.151,544.048 C318.203,574.897 333.012,603.555 347.455,630.815 C368.074,669.731 388.968,709.051 418.107,742.074 L318.151,544.048 Z M410.167,585.923 C409.965,582.533 413.861,580.612 417.025,579.38 C420.19,578.149 423.876,575.442 422.779,572.228 C424.687,572.006 426.594,571.784 428.502,571.562 C425.508,571.67 422.514,571.777 419.52,571.884 C415.245,575.637 411.983,580.533 410.167,585.923 L410.167,585.923 Z" id="Stroke-12" stroke="#231F1F" sketch:type="MSShapeGroup"></path>
            </g>
        </g>
    </g>
</svg>