<?xml version="1.0" encoding="UTF-8" standalone="no"?>
<svg width="595px" height="842px" viewBox="0 0 595 842" version="1.1" xmlns="http://www.w3.org/2000/svg" xmlns:xlink="http://www.w3.org/1999/xlink" xmlns:sketch="http://www.bohemiancoding.com/sketch/ns">
    <!-- Generator: Sketch Beta 3.3.1 (12005) - http://www.bohemiancoding.com/sketch -->
    <title>count</title>
    <desc>Created with Sketch Beta.</desc>
    <defs></defs>
    <g id="Page-1" stroke="none" stroke-width="1" fill="none" fill-rule="evenodd" sketch:type="MSPage">
        <g id="count" sketch:type="MSArtboardGroup">
            <g id="Imported-Layers" sketch:type="MSLayerGroup" transform="translate(26.000000, 5.000000)">
                <path d="M246.758,141.226 C252.167,139.342 257.888,137.775 262.269,134.085 C247.123,149.992 229.928,163.947 211.245,175.495 C208.099,177.44 204.851,179.342 201.256,180.208 C200.356,172.023 206.719,164.926 213.153,159.786 C223.199,151.761 234.616,145.456 246.758,141.226" id="Fill-1" fill="#1A1918" sketch:type="MSShapeGroup"></path>
                <path d="M380.183,309.937 C374.493,291.372 375.638,271.508 376.488,252.11 C376.984,240.766 377.358,229.348 375.78,218.104 C372.273,193.119 358.757,169.683 338.888,154.134 C332.621,149.229 325.734,145.076 318.333,142.151 C302.105,135.739 283.904,135.381 267.919,128.383 C286.758,124.468 306.301,128.953 324.611,134.864 C350.955,143.369 377.238,155.552 395.029,176.76 C414.928,200.479 421.802,233.068 419.669,263.955 C418.925,274.713 417.117,285.594 412.269,295.227 C407.422,304.86 399.191,313.177 388.842,316.211 C387.815,316.511 386.742,316.762 385.683,316.61 C382.664,316.176 381.077,312.853 380.183,309.937" id="Fill-2" fill="#1A1918" sketch:type="MSShapeGroup"></path>
                <path d="M218.222,193.899 C217.653,197.02 221.851,198.943 224.959,198.308 C229.374,197.406 232.826,193.948 237.062,192.407 C239.61,191.48 242.362,191.279 245.073,191.221 C248.308,191.152 251.548,191.275 254.768,191.589 C257.482,191.854 260.255,192.278 262.631,193.616 C265.007,194.954 266.934,197.387 266.965,200.114 C266.995,202.84 264.618,205.569 261.903,205.308 C260.188,205.143 258.782,203.947 257.37,202.959 C251.641,198.949 243.985,197.844 237.356,200.07 C235.563,200.672 233.508,202.413 234.444,204.057 C231.457,204.055 228.471,204.053 225.484,204.051 C223.862,208.46 227.774,213.587 232.44,214.14 C237.106,214.693 241.65,211.543 243.86,207.397 C244.485,206.225 244.96,204.808 244.419,203.595 C243.879,202.382 241.889,201.917 241.25,203.081 C243.592,201.816 247.064,200.815 248.442,203.092 C248.939,203.913 248.95,204.933 248.874,205.89 C248.369,212.312 244.451,218.367 238.8,221.459 C236.489,222.723 233.816,223.52 231.215,223.095 C226.68,222.353 223.506,218.161 221.73,213.922 C219.733,209.151 218.883,203.905 219.272,198.747 C218.31,198.677 217.347,198.606 216.384,198.535 C215.519,203.222 216.078,208.106 217.558,212.636 C218.819,216.498 220.872,220.287 224.238,222.563 C227.858,225.011 232.589,225.383 236.848,224.404 C241.107,223.426 244.981,221.225 248.64,218.836 C253.052,215.955 257.257,212.757 261.211,209.275 C263.054,207.652 265.003,205.548 264.649,203.118 C264.401,201.412 263.067,200.094 261.766,198.964 C257.453,195.217 252.669,192.011 247.564,189.445 C249.042,189.394 250.52,189.342 251.999,189.291 L218.222,193.899 Z M348.843,236.7 C347.487,239.654 344.317,241.256 341.373,242.637 C340.149,243.211 338.615,243.761 337.539,242.942 C336.472,242.13 336.58,240.533 336.665,239.195 C336.883,235.777 336.184,232.172 334.029,229.509 C331.875,226.846 328.072,225.38 324.866,226.586 C323.419,227.129 322.002,228.184 320.492,227.852 C317.925,227.287 317.847,223.75 317.769,221.123 C317.681,218.147 316.7,215.05 314.436,213.116 C312.172,211.182 308.462,210.819 306.276,212.841 C304.442,214.539 304.117,217.276 303.944,219.769 C303.639,224.155 303.649,229.11 306.747,232.23 C307.271,232.758 307.89,233.222 308.611,233.403 C310.844,233.963 312.755,231.687 313.597,229.544 C314.438,227.401 315.039,224.875 317.037,223.731 C314.556,224.473 312.66,226.863 312.504,229.448 C312.347,232.033 313.94,234.635 316.314,235.67 C317.374,236.133 318.65,236.284 319.661,235.722 C320.414,235.303 320.916,234.557 321.389,233.838 C322.702,231.845 324.06,229.718 324.145,227.333 C324.23,224.948 322.474,222.328 320.088,222.41 C324.124,222.608 326.376,227.062 327.658,230.894 C328.94,234.727 330.784,239.238 334.761,239.955 C338.354,240.602 341.516,237.701 344.014,235.038 C344.089,238.2 342.082,241.154 339.434,242.883 C336.785,244.613 333.58,245.28 330.427,245.539 C322.091,246.223 314.719,243.393 312.092,235.051 C310.023,228.478 310.463,222.798 316.735,219.874 C321.039,217.868 333.137,215.297 337.392,216.567 C343.67,218.44 351.797,230.269 348.843,236.7 L348.843,236.7 Z" id="Stroke-3" stroke="#1A1918" sketch:type="MSShapeGroup"></path>
                <path d="M219.294,180.562 C222.715,182.434 227.004,181.98 230.597,180.467 C234.191,178.953 237.289,176.497 240.521,174.315 C251.984,166.577 265.635,162.117 279.456,161.595 C286.229,161.339 294.198,162.745 297.28,168.782 C298.828,171.815 298.757,175.438 298.06,178.771 C295.578,190.627 286.121,199.633 276.741,207.297 C279.069,202.377 281.446,197.252 281.444,191.809 C281.443,186.366 278.328,180.515 273.047,179.201 C267.797,177.894 262.677,181.262 257.985,183.954 C248.358,189.478 237.421,192.701 226.336,193.28 C224.981,193.35 223.499,193.344 222.434,192.502 C221.321,191.621 220.997,190.095 220.748,188.697 C220.263,185.985 219.778,183.274 219.294,180.562" id="Fill-4" fill="#1A1918" sketch:type="MSShapeGroup"></path>
                <path d="M350.853,205.378 C350.738,209.376 350.659,213.526 352.261,217.192 C353.863,220.857 357.654,223.891 361.607,223.277 C361.02,216.753 363.201,210.265 363.043,203.716 C362.885,197.168 358.972,189.705 352.43,189.379 C348.196,189.168 344.513,191.995 340.897,194.207 C330.604,200.505 317.776,202.513 306.052,199.662 C302.802,198.871 299.584,197.719 296.239,197.706 C292.895,197.693 289.266,199.133 287.86,202.168 C288.69,199.006 292.654,197.653 295.863,198.279 C299.072,198.906 301.818,200.892 304.761,202.315 C311.057,205.361 318.566,205.8 325.173,203.509 C328.214,202.455 331.048,200.858 334.103,199.847 C338.111,198.52 342.46,198.239 346.605,199.038 C347.674,199.244 348.781,199.548 349.568,200.3 C350.87,201.545 350.906,203.577 350.853,205.378" id="Fill-5" fill="#1A1918" sketch:type="MSShapeGroup"></path>
                <path d="M282.346,208.429 C278.308,214.791 274.072,221.331 267.789,225.49 C259.998,230.648 249.971,231.526 242.185,236.69 C236.605,240.391 232.626,245.989 228.042,250.868 C223.459,255.748 217.636,260.19 210.943,260.338 C207.896,260.406 204.868,259.568 201.828,259.783 C198.788,259.999 195.473,261.753 194.975,264.76 C206.197,265.952 217.668,264.745 228.395,261.243 C217.637,266.718 206.049,273.061 201.458,284.226 C210.187,278.716 218.916,273.205 227.645,267.695 C228.922,266.889 230.406,266.049 231.859,266.462 C233.068,266.806 233.867,267.918 234.6,268.939 C239.451,275.699 245.565,281.548 252.532,286.094 C255.371,287.945 258.637,289.641 261.989,289.141 C265.341,288.641 268.307,284.913 266.82,281.868 C266.042,280.275 264.349,279.355 262.7,278.704 C255.187,275.738 245.966,275.914 240.384,270.077 C237.062,266.602 235.779,261.304 237.143,256.694 C238.834,251.289 241.271,245.36 246.508,243.207 C248.664,242.32 251.044,242.204 253.344,241.822 C257.443,241.141 261.341,239.599 265.203,238.067 C275.395,234.024 286.73,228.826 290.221,218.431 C291.272,215.299 293.18,210.875 296.254,212.087 C297.078,222.821 286.983,231.269 276.963,235.206 C271.842,237.217 266.293,238.701 262.242,242.425 C257.586,246.705 255.731,253.218 254.828,259.477 C253.924,265.736 253.742,272.186 251.546,278.117 C249.35,284.048 244.522,289.557 238.235,290.248 C231.949,290.94 225.253,284.679 227.254,278.68 C229.984,278.147 232.843,280.759 232.56,283.526 C229.918,284.01 227.45,285.401 225.668,287.41 M209.315,180.155 C208.527,194.146 207.577,208.71 200.632,220.881 C196.12,228.786 189.342,235.167 184.421,242.824 C180.878,248.337 178.348,254.434 176.081,260.582 C165.343,289.71 160.146,320.869 160.85,351.905 C160.92,354.987 161.057,358.119 162.061,361.034 C163.237,364.442 165.529,367.345 167.942,370.024 C187.754,392.027 217.612,402.851 247.097,405.551 C257.664,406.518 268.487,406.527 278.681,403.586 C287.227,401.119 295.043,396.668 302.766,392.257 C312.233,386.85 322.063,381.106 327.978,371.948 C331.04,367.207 332.876,361.8 334.828,356.504 C350.986,312.682 377.255,272.623 411.004,240.338 M359.493,265.72 C363.173,267.41 367.105,269.141 371.117,268.599 C377.817,267.695 384.015,260.663 390.13,263.547 C391.814,269.222 390.231,275.603 386.598,280.277 C382.965,284.951 377.474,287.984 371.698,289.278 C364.999,290.777 357.784,290.117 351.49,292.855 C350.189,293.42 348.819,294.295 348.549,295.687 C348.334,296.8 348.893,297.898 349.392,298.916 C355.866,312.117 354.244,328.905 345.361,340.621 C343.162,343.522 339.411,346.345 336.198,344.633 C333.774,343.342 333.161,340.042 333.791,337.369 C334.421,334.695 335.963,332.329 336.833,329.724 C337.671,327.213 337.121,323.504 334.487,323.252 C332.749,323.085 331.351,324.662 330.56,326.219 C327.856,331.543 327.192,339.527 321.311,340.569 M352.664,280.724 C355.234,280.791 357.819,279.954 359.863,278.395 C361.199,280.952 358.59,284.044 355.767,284.639 C352.944,285.234 350.046,284.317 347.165,284.153 C346.603,284.121 345.988,284.135 345.55,284.489 C345.069,284.877 344.951,285.55 344.865,286.161 C344.561,288.329 344.258,290.496 343.954,292.664 M343.375,309.287 C345.018,310.662 344.251,313.674 342.309,314.578 C340.367,315.481 337.96,314.623 336.487,313.067 C335.015,311.511 334.292,309.404 333.721,307.339" id="Stroke-6" stroke="#1A1918" sketch:type="MSShapeGroup"></path>
                <path d="M210.558,303.238 C212.475,300.721 210.095,296.42 212.331,294.182 C213.284,293.229 214.758,293.051 215.904,292.342 C217.904,291.105 218.528,288.099 217.185,286.168 C213.805,285.505 210.152,286.39 207.451,288.528 C206.323,289.422 205.254,290.568 203.828,290.765 C201.629,291.067 199.85,288.973 198.963,286.939 C198.076,284.904 197.492,282.562 195.723,281.221 C194.123,284.793 190.161,286.621 186.417,287.759 C182.672,288.896 178.634,289.747 175.752,292.396 C176.801,296.299 180.941,299.112 184.956,298.65 C187.266,298.384 189.349,297.197 191.425,296.151 C193.501,295.105 195.767,294.156 198.077,294.421 C200.387,294.686 202.661,296.593 202.527,298.914 C202.436,300.505 201.358,302.345 202.454,303.501 C202.85,303.919 203.434,304.09 203.991,304.237 C206.268,304.835 209.132,305.112 210.558,303.238" id="Fill-7" fill="#1A1918" sketch:type="MSShapeGroup"></path>
                <path d="M220.734,305.643 C220.782,307.262 221.505,308.802 222.488,310.089 C224.065,312.157 226.485,313.716 229.085,313.71 C231.685,313.703 234.316,311.816 234.659,309.239 C236.044,313.945 237.629,318.959 241.476,322.005 C243.275,323.429 245.442,324.306 247.618,325.035 C252.928,326.815 258.495,327.829 264.092,328.038 C260.619,328.399 256.808,327.497 254.552,324.832 C252.105,321.94 252.026,317.805 251.84,314.021 C251.654,310.238 250.984,305.998 247.916,303.776 C243.157,300.331 235.746,303.893 230.915,300.551 C227.768,298.372 226.907,294.024 224.131,291.388 C223.477,294.626 222.821,297.874 221.783,301.011 C221.282,302.522 220.686,304.052 220.734,305.643" id="Fill-8" fill="#1A1918" sketch:type="MSShapeGroup"></path>
                <path d="M179.465,303.463 C178.515,305.747 180.116,308.449 182.314,309.585 C184.512,310.722 187.105,310.701 189.579,310.655 C192.419,310.601 195.26,310.548 198.1,310.495 C199.398,310.47 200.78,310.469 201.875,311.165 C202.969,311.862 203.535,313.537 202.648,314.484 C203.748,314.528 204.848,314.572 205.948,314.616 C205.996,311.211 208.947,308.097 212.346,307.866 C212.222,314.279 217.629,319.269 222.586,323.34 C231.012,330.257 239.511,337.223 249.155,342.304 M186.641,318.027 C185.185,316.697 183.355,315.781 181.417,315.413 C181.115,316.495 182.113,317.466 183.005,318.149 C185.684,320.2 188.456,322.298 191.716,323.166 C194.977,324.033 198.886,323.371 200.929,320.686 C201.854,319.47 203.572,317.789 204.428,319.054 C202.746,321.813 203.04,325.634 205.124,328.104 C200.441,324.486 193.889,324.984 188.01,325.656 C193.368,330.278 200.11,332.913 206.71,335.465 C208.401,336.118 210.15,336.783 211.962,336.711 C215.31,336.578 218.284,333.548 218.353,330.197 C219.765,332.196 222.38,332.835 224.73,333.52 C232.465,335.776 239.595,340.078 245.197,345.87 C239.381,344.513 234.271,341.138 229.301,337.825 C220.017,331.636 210.733,325.447 201.448,319.258" id="Stroke-9" stroke="#1A1918" sketch:type="MSShapeGroup"></path>
                <path d="M179.371,378.122 C184.94,377.722 183.786,367.799 188.762,365.269 C191.385,363.935 195.376,364.901 196.784,362.317 C197.262,361.44 197.248,360.382 197.151,359.387 C196.569,353.447 193.318,347.82 188.463,344.348 C190.63,341.93 194.616,343.357 197.332,345.134 C200.048,346.912 203.482,348.959 206.275,347.304 C198.262,339.727 190.249,332.151 182.236,324.574 C183.222,329.403 186.538,333.701 190.959,335.881 C185.028,335.28 178.961,339.377 177.302,345.103 C175.643,350.828 178.579,357.534 183.912,360.198 C179.43,364.837 177.639,371.909 179.371,378.122" id="Fill-10" fill="#1A1918" sketch:type="MSShapeGroup"></path>
                <path d="M306.561,309.043 C307.364,313.899 303.635,318.213 300.181,321.72 C290.837,331.209 281.492,340.699 271.972,350.011 C264.996,356.834 257.926,363.56 250.765,370.189 C248.378,372.398 245.969,374.606 243.269,376.42 M296.305,231.985 C296.061,243.149 302.441,254.209 312.227,259.587 M251.505,223.442 C245.581,231.223 234.961,233.662 225.19,234.064 C215.419,234.466 205.372,233.412 196.06,236.401 M247.929,330.012 C249.064,336.561 251.833,342.821 255.915,348.066 M173.58,302.867 C171.764,308.592 169.948,314.317 168.132,320.042 M194.332,403.405 C187.105,394.878 175.029,410.746 186.154,418.612 C190.178,421.458 195.518,421.858 200.349,420.883 C191.064,435.566 181.32,449.96 171.135,464.034 C184.784,454.741 199.466,444.005 203.309,427.947 C243.3,437.769 284.788,447.647 325.253,440.01 C330.084,439.098 335.347,437.616 338.004,433.48 C341.759,427.632 335.234,424.611 334.674,419.904 C333.791,412.484 338.622,401.101 340.323,393.798 C344.383,376.362 348.974,359.055 353.558,341.751 C359.08,320.908 365.01,299.273 379.138,282.984 M339.653,418.202 C333.848,436.962 328.758,455.943 324.395,475.09 M186.744,394.887 C175.878,419.579 160.364,442.215 141.257,461.258 M133.145,460.179 C126.652,467.152 123.568,476.775 122.945,486.283 C121.228,512.512 137.322,537.575 158.939,552.529 C180.556,567.483 206.963,573.8 233.009,577.339 C249.917,579.637 267.359,580.862 283.853,576.488 C303.054,571.397 320.079,558.549 330.242,541.48 C340.404,524.411 343.585,503.321 338.91,484.014 M208.847,442.875 C207.117,444.493 207.285,447.678 209.175,449.105 C211.065,450.532 214.174,449.821 215.256,447.715 C213.316,446.844 211.094,446.619 209.019,447.084 M189.703,468.786 C188.555,470.495 188.702,472.965 190.045,474.525 C191.388,476.086 193.808,476.6 195.669,475.719 C196.544,473.861 196.801,471.445 195.434,469.912 C194.066,468.379 190.829,468.984 190.766,471.037 M160.528,496.951 C160.311,500.046 163.046,503.03 166.148,503.083 C169.25,503.136 172.085,500.246 171.974,497.146 C169.983,497.097 167.991,497.049 166,497 M145.48,517.161 C147.219,518.709 148.652,520.602 150.543,521.96 C152.434,523.318 155.031,524.066 157.092,522.983 C155.413,520.714 152.846,519.12 150.067,518.623 M167.207,466.218 C159.152,473.865 151.671,482.117 144.85,490.883 M297.876,253 C295.961,269.895 294.138,287.572 300.281,303.426 M300.21,155.289 C303.408,154.838 307.12,154.547 309.409,156.825 C313.971,161.366 307.657,169.215 309.428,175.404 C310.553,179.335 314.887,181.637 318.974,181.736 C323.062,181.835 326.972,180.22 330.741,178.633 M319.867,171.317 C325.652,173.62 331.712,169.059 336.273,164.821 C340.06,169.254 342.849,174.537 344.372,180.165 M351.046,505.03 C349.698,510.711 353.367,516.304 357.231,520.682 C377.936,544.146 410.494,556.57 441.567,552.865 C445.624,552.381 449.726,551.616 453.334,549.698 C462.563,544.79 466.467,533.638 467.961,523.293 C468.868,517.012 468.188,508.957 462.269,506.668 C460.16,505.852 457.08,505.248 457.186,502.99 M131.993,454.112 C107.099,454.608 84.825,439.757 64.411,425.501 C60.897,423.048 57.295,420.505 54.951,416.917 C51.736,411.996 51.316,405.721 52.104,399.896 C53.359,390.618 57.481,381.748 63.763,374.806 M473.971,503.966 C475.686,509.776 481.766,512.872 486.707,516.376 C497.719,524.185 504.758,536.341 510.7,548.462 C515.627,558.514 520.089,568.985 521.542,580.084 C522.996,591.183 521.153,603.091 514.447,612.054 C507.934,620.761 497.426,626.069 491.811,635.381 C485.721,645.48 486.985,659.469 494.787,668.313 M48.771,368.192 C33.087,378.883 23.89,398.405 25.632,417.306 C26.81,430.077 32.548,442.206 32.818,455.029 C33.046,465.874 29.35,476.369 27.541,487.064 C23.271,512.294 30.032,539.194 45.723,559.408 M241.019,599.994 C244.479,611.957 257.623,618.977 270.069,619.409 C282.514,619.841 294.493,615.147 306.107,610.652 C317.721,606.157 329.853,601.714 342.269,602.676 C355.314,603.687 368.995,613.229 368.98,626.313 C368.966,639.313 356.135,648.959 353.726,661.734 C352.066,670.539 355.765,679.749 361.797,686.375 C367.828,693.001 375.947,697.367 384.247,700.743 C391.064,703.516 400.665,704.806 404.195,698.348 C405.723,695.552 405.466,692.172 405.869,689.011 C406.851,681.321 412.296,674.364 419.525,671.563 C426.754,668.763 435.464,670.235 441.371,675.257 C446.904,679.961 449.687,687.044 453.765,693.053 C462.696,706.214 478.718,714.231 494.605,713.489 C497.76,713.342 500.978,712.849 503.745,711.324 C506.512,709.8 508.642,707.352 510.576,704.855 C518.313,694.87 523.916,683.24 526.902,670.967 M140.764,566.589 C125.953,564.929 112.713,553.538 108.86,539.141 C107.185,532.88 107.148,526.223 104.997,520.109 C102.845,513.995 97.581,508.182 91.105,508.442 C81.915,508.811 77.78,519.837 71.127,526.188 C59.191,537.581 39.658,533.023 24.556,526.373 C14.565,521.973 3.853,515.816 0.98,505.283 C-0.351,500.403 0.234,495.229 0.872,490.211 C2.573,476.83 5.497,461.944 16.601,454.286 C10.726,470.731 19.147,492.056 35.954,496.797 C49.487,500.614 64.192,493.226 73.048,482.305 C81.905,471.383 86.128,457.525 90.031,444.017 M51.981,570.12 C54.004,591.822 56.026,613.523 58.049,635.225 C58.255,637.438 58.458,639.705 57.9,641.856 C56.931,645.588 53.883,648.337 51.43,651.311 C42.696,661.898 41.103,677.838 47.569,689.945 C51.848,697.956 61.66,704.498 69.803,700.474 C57.596,706.446 48.926,719.096 47.758,732.635 C46.59,746.174 52.966,760.121 63.97,768.096 C73.95,775.33 86.585,777.487 98.302,781.314 C113.349,786.227 127.395,794.182 139.347,804.56 C139.407,795.773 139.467,786.986 139.528,778.199 C151.598,789.974 163.669,801.75 175.739,813.525 C181.856,800.458 190.205,788.44 200.315,778.147 C206.152,794.841 224.412,803.932 241.824,807.027 C276.137,813.125 310.991,802.619 345.777,800.5 C355.801,799.889 367.242,800.576 373.731,808.24 C375.043,804.405 371.783,800.648 368.806,797.896 C358.605,788.463 348.404,779.031 338.203,769.598 C332.06,763.918 322.925,757.96 316.15,762.867 C317.583,751.497 327.807,743.644 336.905,736.676 C359.805,719.137 380.671,698.945 398.953,676.634 C406.372,667.58 413.598,657.645 415.322,646.067" id="Stroke-11" stroke="#1A1918" sketch:type="MSShapeGroup"></path>
                <path d="M47.632,744.915 C55.085,705.079 77.119,669.724 98.723,635.436 C101.829,630.506 105.153,625.367 110.271,622.582 C114.199,620.444 118.769,619.929 123.11,618.853 C136.894,615.436 148.45,606.321 159.535,597.445 C168.702,627.421 177.913,657.515 191.241,685.886 C200.755,706.139 212.297,725.362 223.817,744.545 C238.751,769.41 253.684,794.276 268.618,819.142 C270.957,823.037 273.49,827.12 277.514,829.231 C281.538,831.341 287.48,830.485 289.305,826.324 M162.151,586.062 C164.093,581.372 166.036,576.681 167.978,571.991 M125.076,461.15 C121.085,459.025 115.506,460.797 113.473,464.836 C115.03,465.055 116.588,465.273 118.145,465.492 C114.702,466.759 112.185,470.224 112.044,473.89 C114.235,473.955 116.425,474.02 118.616,474.085 C119.49,476.705 116.725,478.97 114.451,480.537 C112.177,482.105 109.84,485.121 111.545,487.294 C113.438,487.786 115.331,488.277 117.223,488.769 C115.885,492.247 114.547,495.725 113.209,499.204 C114.627,499.737 116.045,500.271 117.464,500.804 C117.374,506.844 115.741,512.855 112.763,518.11 C113.511,520.725 117.321,518.195 120.029,517.932 C122.566,517.685 124.691,520.197 124.984,522.73 C125.277,525.262 124.257,527.742 123.259,530.087 C125.341,531.372 128.405,530.641 129.683,528.556 C130.725,534.088 130.409,539.872 128.769,545.258 C132.031,542.786 136.882,542.219 140.223,544.583 C143.564,546.947 144.443,552.425 141.489,555.258 C144.023,553.538 146.705,551.763 149.756,551.495 C152.807,551.228 156.275,553.069 156.677,556.105 C157.011,558.632 155.747,562.25 158.169,563.047 C159.513,563.489 160.829,562.424 162.161,561.946 C164.98,560.936 168.184,562.752 169.747,565.307 C171.311,567.86 171.631,570.96 171.912,573.941 C172.429,571.535 173.72,569.301 175.546,567.651 C178.907,571.101 181.836,574.972 184.242,579.145 C184.123,575.707 189.151,574.495 192.197,576.093 C195.243,577.691 197.371,580.754 200.525,582.128 C203.679,583.502 208.616,581.425 207.759,578.093 C211.587,577.987 213.166,582.815 214.182,586.508 C215.197,590.2 218.996,594.454 222.063,592.161 C223.771,590.883 223.783,588.398 224.334,586.337 C224.884,584.276 227.243,582.175 228.905,583.512 C229.235,585.565 229.605,587.713 230.876,589.36 C232.146,591.006 234.628,591.919 236.367,590.777 C237.652,589.934 238.133,588.31 239.03,587.062 C241.255,583.968 245.96,583.585 249.392,585.243 C252.824,586.901 255.239,590.079 257.371,593.239 C258.078,588.22 259.826,582.06 264.82,581.197 C272.11,579.938 276.109,591.454 283.503,591.675 C282.598,587.901 283.344,583.762 285.509,580.541 C289.77,582.954 294.375,585.446 299.252,585.01 C304.128,584.573 308.876,579.739 307.278,575.111 C315.106,576.779 323.536,575.44 330.462,571.43 C327.908,568.907 328.392,564.286 330.948,561.766 C333.504,559.246 337.512,558.647 341.004,559.48 C337.602,557.75 336.541,552.7 338.871,549.678 C341.201,546.655 346.233,546.335 349.008,548.955 C347.093,546.516 345.067,543.684 345.539,540.619 C346.012,537.555 350.675,535.556 352.25,538.227 C350.602,533.468 348.314,528.932 345.466,524.778 C346.871,528.681 351.698,530.955 355.603,529.554 C351.022,522.178 347.814,513.951 346.194,505.421 M177.335,196.85 C150.944,178.962 131.978,150.454 125.675,119.202 C123.637,109.094 123.199,97.58 129.667,89.55 C131.309,87.512 133.464,85.733 136.036,85.247 C141.466,84.221 146.265,89.27 148.127,94.473 C154.181,111.394 141.494,128.89 128.92,141.73 C126.101,144.609 123.08,147.552 119.226,148.728 C111.956,150.945 104.336,146.146 99.396,140.37 C88.074,127.132 84.985,108.986 81.501,91.918 C76.729,68.54 70.432,45.473 62.664,22.913 M51.803,0.717 C48.64,9.782 46.362,19.156 45.013,28.662 C50.236,20.133 53.071,10.158 53.113,0.157 C70.983,11.423 87.386,25.013 101.778,40.478 M344.209,128.135 C357.619,99.04 333.154,65.422 337.995,33.753 C399.524,30.719 461.282,32.327 522.571,38.559 C525.669,61.095 520.516,83.859 519.515,106.585 C517.934,142.478 526.722,177.961 529.367,213.791 C536.05,304.344 503.442,394.921 513.985,485.106 C462.174,485.406 410.377,488.288 358.852,493.739 C369.733,441.69 372.452,387.944 366.878,335.063" id="Stroke-12" stroke="#1A1918" sketch:type="MSShapeGroup"></path>
                <path d="M373.505,757.519 C162.387,699.092 330.421,724.707 392.356,736.019 C399.685,737.357 404.606,740.169 405.207,747.419 L400.757,747.419 C400.106,742.619 397.106,739.868 391.906,739.868 C382.956,739.868 378.105,748.369 378.105,757.369 C378.105,763.92 381.155,769.37 388.556,769.37 C394.956,769.37 398.507,764.67 399.656,759.47 L404.057,759.47 C403.407,762.97 401.807,766.22 399.356,768.87 C396.757,771.67 392.807,773.271 388.406,773.271 C378.605,773.271 382.469,760 373.505,757.519 L373.505,757.519 Z M407.704,756.97 C407.704,745.619 323.148,648.312 334.5,648.312 C343.55,648.312 442.456,741.969 442.456,752.47 C442.456,763.97 435.456,773.32 423.806,773.32 C414.755,773.32 407.704,767.42 407.704,756.97 L407.704,756.97 Z M423.905,769.42 C433.105,769.42 437.906,761.92 437.906,752.519 C437.906,744.969 433.556,739.868 426.306,739.868 C417.255,739.868 412.305,747.619 412.305,756.97 C412.305,764.771 416.755,769.42 423.905,769.42 L423.905,769.42 Z M445.805,759.519 L450.205,736.818 L454.655,736.818 L450.255,759.519 C448.955,766.019 451.355,769.32 458.205,769.32 C463.605,769.32 466.605,766.87 467.706,761.32 L472.456,736.818 L476.856,736.818 L471.956,762.07 C470.456,769.82 464.263,769.766 458.006,773.12 C393.888,807.492 353.331,825.077 445.805,759.519 L445.805,759.519 Z M471.775,678.644 L487.504,736.818 L498.255,761.769 C499.155,763.82 499.905,766.37 499.905,766.37 L500.005,766.37 L505.705,736.818 L509.856,736.818 L502.955,772.57 L498.404,772.57 L487.604,747.569 C486.754,745.669 485.904,743.119 485.904,743.119 L485.804,743.119 L480.103,772.57 L464.875,714.396 L471.775,678.644 L471.775,678.644 Z M481.004,612.5 L508.156,612.5 L540.406,740.719 L529.005,740.719 L522.854,772.57 L518.454,772.57 L524.604,740.719 L513.254,740.719 L481.004,612.5 L481.004,612.5 Z" id="Stroke-13" stroke="#1A1918" sketch:type="MSShapeGroup"></path>
            </g>
        </g>
    </g>
</svg>