<?xml version="1.0" encoding="UTF-8" standalone="no"?>
<svg width="595px" height="842px" viewBox="0 0 595 842" version="1.1" xmlns="http://www.w3.org/2000/svg" xmlns:xlink="http://www.w3.org/1999/xlink" xmlns:sketch="http://www.bohemiancoding.com/sketch/ns">
    <!-- Generator: Sketch Beta 3.3.2 (12041) - http://www.bohemiancoding.com/sketch -->
    <title>drinkup</title>
    <desc>Created with Sketch Beta.</desc>
    <defs></defs>
    <g id="pictures" stroke="none" stroke-width="1" fill="none" fill-rule="evenodd" sketch:type="MSPage">
        <g id="drinkup" sketch:type="MSArtboardGroup">
            <g id="Imported-Layers" sketch:type="MSLayerGroup" transform="translate(83.000000, 34.000000)">
                <path d="M175.5,543 C175.758,534.511 175.015,526.053 174.889,517.569 C174.771,509.624 176.384,502.487 178.256,494.85 C179.66,489.127 180.943,483.384 182.661,477.744 C184.108,472.989 185.843,467.731 189.855,464.534 C185.928,464.028 182.002,463.522 178.075,463.016 C181.589,471.22 177.544,480.523 174.44,488.164 C170.831,497.049 166.716,506.045 167.384,515.88 C167.865,522.959 177.547,526.583 181.36,519.665 C196.145,492.839 198.491,461.632 197.726,431.608 C197.537,424.152 197.561,416.716 198.351,409.293 C199.178,401.534 201.799,393.823 204.09,386.397 C206.003,380.193 207.947,373.647 211.357,368.083 C214.749,362.549 218.702,356.511 216.925,349.672 C215.49,344.148 211.448,340.615 208.748,335.803 C206.126,331.129 208.037,323.503 210.165,319.069 C212.775,313.629 218.28,310.833 222.344,306.639 C227.361,301.461 229.305,294.176 231.322,287.474 C235.109,274.888 246.168,266.225 248.169,252.831 C249.228,245.737 248.19,238.648 248.331,231.524 C248.47,224.466 251.766,217.557 253.822,210.909 C255.49,205.513 256.337,199.888 255.989,194.247 C255.678,189.204 254.374,184.295 254.341,179.231 C254.268,167.685 262.815,157.106 265.232,145.994 C267.282,136.564 252.823,132.556 250.768,142.006 C247.784,155.731 238.68,167.297 239.416,181.884 C239.712,187.738 241.307,193.322 241.047,199.231 C240.742,206.157 237.171,213.131 235.249,219.714 C233.271,226.49 233.19,233.326 233.537,240.312 C233.907,247.757 233.387,253.67 229.513,260.139 C226.362,265.399 222.443,270.099 219.787,275.66 C216.791,281.932 215.997,289.048 212.468,295.06 C209.458,300.19 202.922,302.846 199.452,307.853 C195.5,313.557 193.684,319.965 192.867,326.78 C192.146,332.794 193.496,339.274 196.445,344.531 C197.727,346.816 199.63,348.753 201.158,350.87 C202.871,353.246 202.145,354.36 200.721,356.838 C193.62,369.2 189.41,382.285 185.725,396.051 C181.632,411.343 182.738,427.187 182.986,442.823 C183.358,466.222 179.826,491.378 168.408,512.094 C173.067,513.356 177.725,514.618 182.384,515.88 C181.725,506.17 187.076,496.989 190.477,488.189 C194.715,477.224 195.72,466.401 191.027,455.446 C188.939,450.57 182.583,451.27 179.248,453.928 C169.207,461.929 166.85,478.048 164.057,489.764 C162.127,497.86 160.209,505.605 159.916,513.992 C159.578,523.663 160.794,533.321 160.5,543 C160.206,552.678 175.207,552.65 175.5,543" id="Fill-1" fill="#64E178" sketch:type="MSShapeGroup"></path>
                <path d="M199.232,449.994 C202.226,439.684 207.629,430.502 212.63,421.077 C218.251,410.482 221.986,399.971 224.004,388.157 C228.585,361.333 232.445,334.264 232.5,307 C232.519,297.326 217.519,297.328 217.5,307 C217.448,332.954 213.869,358.629 209.54,384.169 C207.646,395.346 204.236,404.916 198.929,414.918 C193.571,425.016 187.975,434.962 184.768,446.006 C182.064,455.317 196.539,459.264 199.232,449.994" id="Fill-2" fill="#64E178" sketch:type="MSShapeGroup"></path>
                <path d="M402.786,224.735 C399.805,224.735 396.86,226.328 395.768,230.006 C386.924,259.797 384.896,290.823 381.831,321.583 C380.241,337.541 378.018,353.389 376.888,369.396 C375.759,385.375 374.774,401.309 372.12,417.125 C367.431,445.066 362.189,472.745 349.683,498.384 C342.813,512.469 334.958,526.048 328.374,540.277 C322.159,553.71 319.112,568.226 315.282,582.441 C314.303,586.075 313.268,589.752 312.113,593.391 C312.863,598.533 313.306,603.743 313.5,609.001 C313.678,613.835 310.024,616.245 306.277,616.245 C304.58,616.245 302.864,615.751 301.476,614.763 C299.341,616.887 296.819,618.668 293.803,620.257 C282.984,625.957 269.838,630.209 257.134,630.209 C253.009,630.209 248.932,629.761 244.994,628.769 C244.289,628.591 243.615,628.508 242.974,628.508 C235.088,628.508 232.336,641.045 241.005,643.232 C246.075,644.51 251.222,645.071 256.374,645.071 C264.57,645.071 272.779,643.652 280.709,641.446 C292.405,638.19 305.793,633.038 313.935,623.659 C321.942,614.437 325.463,601.312 328.8,589.824 C332.863,575.836 335.361,561.216 341.326,547.847 C347.708,533.543 355.694,519.987 362.635,505.955 C369.039,493.006 374.014,479.673 377.665,465.701 C385.217,436.802 389.327,406.916 391.356,377.165 C393.006,353.006 396.162,329.035 398.423,304.932 C400.67,280.983 403.363,257.132 410.232,233.994 C411.895,228.393 407.301,224.736 402.786,224.735" id="Fill-3" fill="#CCE0FF" sketch:type="MSShapeGroup"></path>
                <path d="M86.508,255.776 C82.763,255.776 79.183,258.176 79.499,263 C79.98,270.317 81.629,277.381 83.322,284.492 C85.209,292.43 85.855,300.334 86.261,308.467 C87.062,324.531 86.762,340.626 87.647,356.687 C89.429,388.981 94.634,421.019 99.85,452.901 C102.452,468.8 105.286,484.697 107.352,500.678 C109.41,516.585 110.204,532.628 111.971,548.567 C113.474,562.11 115.281,576.179 120.045,589.027 C124.187,600.195 131.558,608.472 140.937,615.601 C165.991,634.641 196.851,644.454 226.005,655.233 C226.938,655.577 227.817,655.734 228.632,655.734 C235.761,655.734 238.062,643.75 229.994,640.767 C202.862,630.737 175.26,621.448 151.352,604.714 C148.822,602.943 146.515,601.072 144.434,599.064 C143.193,599.954 141.73,600.364 140.21,600.364 C138.885,600.364 137.516,600.052 136.215,599.475 C128.254,595.952 123.739,587.74 121.058,579.851 C118.497,572.315 116.186,563.923 115.503,555.982 C114.516,544.528 118.605,535.164 124.901,526.954 C123.769,514.308 122.61,501.686 120.735,489.106 C118.355,473.13 115.658,457.202 113.067,441.258 C107.889,409.413 103.163,377.423 102.158,345.132 C101.718,330.981 101.814,316.822 100.937,302.687 C100.511,295.795 99.695,289.017 98.196,282.273 C96.772,275.869 94.93,269.575 94.5,263 C94.185,258.192 90.264,255.776 86.508,255.776" id="Fill-4" fill="#CCE0FF" sketch:type="MSShapeGroup"></path>
                <path d="M144.683,509.71 C143.004,509.71 141.269,510.299 139.696,511.696 C134.349,516.452 129.128,521.443 124.901,526.954 C125.204,530.334 125.504,533.716 125.816,537.098 C127.146,551.53 128.616,566.339 132.893,580.257 C135.229,587.852 139.09,593.91 144.434,599.064 C145.216,598.502 145.912,597.748 146.476,596.785 C148.366,593.558 147.525,588.179 143.786,586.524 C138.833,584.331 136.783,579.573 135.12,574.678 C133.122,568.803 131.268,562.151 130.503,555.982 C128.657,541.122 140.228,531.261 150.303,522.303 C155.965,517.269 150.694,509.71 144.683,509.71" id="Fill-5" fill="#CCE0FF" sketch:type="MSShapeGroup"></path>
                <path d="M124.901,526.954 C118.605,535.164 114.516,544.528 115.503,555.982 C116.186,563.923 118.497,572.315 121.058,579.851 C123.739,587.74 128.254,595.952 136.215,599.475 C137.516,600.052 138.885,600.364 140.21,600.364 C141.73,600.364 143.193,599.954 144.434,599.064 C139.09,593.91 135.229,587.852 132.893,580.257 C128.616,566.339 127.146,551.53 125.816,537.098 C125.504,533.716 125.204,530.334 124.901,526.954" id="Fill-6" fill="#A3C8FF" sketch:type="MSShapeGroup"></path>
                <path d="M267.915,527.299 C261.59,527.299 257.429,537.112 264.214,541.476 C287.908,556.713 297.496,581.708 298.5,609.001 C298.598,611.644 299.796,613.566 301.476,614.763 C303.983,612.269 305.958,609.302 307.577,605.618 C309.311,601.669 310.791,597.554 312.113,593.391 C310.599,583.024 307.836,572.934 303.346,563.28 C296.603,548.781 285.12,537.1 271.785,528.525 C270.457,527.67 269.144,527.299 267.915,527.299" id="Fill-7" fill="#CCE0FF" sketch:type="MSShapeGroup"></path>
                <path d="M312.113,593.391 C310.791,597.554 309.311,601.669 307.577,605.618 C305.958,609.302 303.983,612.269 301.476,614.763 C302.864,615.751 304.58,616.245 306.277,616.245 C310.024,616.245 313.678,613.835 313.5,609.001 C313.306,603.743 312.863,598.533 312.113,593.391" id="Fill-8" fill="#A3C8FF" sketch:type="MSShapeGroup"></path>
                <path d="M266.306,2.532 L266.013,2.127 C265.596,2.43 265.201,2.809 264.9,3.26 C264.601,3.709 264.393,4.241 264.393,4.823 L264.399,4.979 L264.897,4.932 L264.398,4.961 C264.443,5.771 264.873,6.426 265.405,6.917 C265.94,7.414 266.592,7.78 267.201,8.069 C271.341,10.027 275.915,11.021 280.49,11.021 C283.578,11.021 286.666,10.568 289.621,9.651 L289.808,9.593 L289.906,9.421 C290.157,8.985 290.266,8.505 290.266,8.033 C290.259,6.9 289.669,5.809 288.812,5.09 L288.812,5.089 C287.621,4.107 286.133,3.767 284.783,3.451 C281.955,2.798 279.126,2.145 276.298,1.491 C274.59,1.098 272.734,0.718 270.919,0.717 C269.186,0.716 267.471,1.069 266.012,2.127 L266.013,2.127 L266.6,2.937 C267.835,2.04 269.314,1.718 270.919,1.717 C272.594,1.716 274.385,2.075 276.073,2.466 C278.901,3.119 281.729,3.772 284.558,4.426 C285.908,4.734 287.231,5.07 288.173,5.859 L288.173,5.859 C288.818,6.389 289.273,7.269 289.267,8.033 C289.266,8.353 289.194,8.652 289.039,8.925 L289.473,9.173 L289.325,8.696 C286.469,9.582 283.48,10.021 280.49,10.021 C276.06,10.021 271.628,9.058 267.628,7.165 C267.07,6.902 266.499,6.571 266.085,6.185 C265.669,5.794 265.424,5.383 265.396,4.905 L265.395,4.886 L265.393,4.823 C265.393,4.483 265.515,4.142 265.733,3.814 C265.95,3.486 266.262,3.181 266.599,2.937 L266.6,2.937 L266.306,2.532" id="Fill-9" fill="#231F1F" sketch:type="MSShapeGroup"></path>
                <path d="M263.223,13.022 C263.453,17.651 263.681,22.299 263.681,26.924 C263.681,32.969 263.291,38.973 262.016,44.844 C260.837,50.27 258.905,55.532 257.271,60.907 C253.059,74.768 250.914,89.253 250.914,103.739 C250.913,105.809 250.957,107.879 251.046,109.947 L252.045,109.904 C251.956,107.85 251.913,105.795 251.913,103.739 C251.913,89.352 254.045,74.964 258.228,61.198 C259.85,55.859 261.793,50.572 262.993,45.056 C264.29,39.088 264.681,33.012 264.681,26.924 C264.681,22.266 264.452,17.601 264.221,12.973 L263.223,13.022" id="Fill-10" fill="#231F1F" sketch:type="MSShapeGroup"></path>
                <path d="M288.071,15.611 C283,39.889 277.928,64.166 272.857,88.444 C270.226,101.043 267.575,113.915 267.574,126.775 C267.574,130.703 267.821,134.63 268.394,138.546 L269.385,138.401 C268.818,134.539 268.574,130.661 268.574,126.775 C268.573,114.053 271.204,101.245 273.836,88.649 C278.908,64.371 283.979,40.093 289.05,15.815 L288.071,15.611" id="Fill-11" fill="#231F1F" sketch:type="MSShapeGroup"></path>
                <path d="M283.214,145.4 C277,143.115 270.787,140.829 264.573,138.544 C261.506,137.416 258.45,136.29 255.547,134.867 C249.261,131.798 243.302,127.124 236.073,126.406 L235.977,127.401 C242.819,128.057 248.699,132.612 255.107,135.765 C258.072,137.218 261.161,138.354 264.228,139.482 C270.441,141.768 276.655,144.053 282.869,146.339 L283.215,145.4 L283.214,145.4" id="Fill-12" fill="#231F1F" sketch:type="MSShapeGroup"></path>
                <path d="M236.844,150.527 C237.47,147.743 238.586,145.066 240.154,142.688 C241.423,140.762 242.993,139.023 244.575,137.275 C247.873,133.63 251.171,129.986 254.469,126.342 L255.205,125.528 L254.108,125.506 C252.92,125.483 251.731,125.46 250.543,125.437 L250.523,126.436 C251.711,126.46 252.9,126.483 254.088,126.506 L254.099,126.006 L253.727,125.671 C250.429,129.315 247.132,132.959 243.834,136.604 C242.253,138.352 240.645,140.127 239.319,142.137 C237.681,144.622 236.52,147.41 235.868,150.308 L236.844,150.527" id="Fill-13" fill="#231F1F" sketch:type="MSShapeGroup"></path>
                <path d="M239.283,92.048 C215.717,94.448 194.477,106.399 174.078,118.039 C169.2,120.825 164.21,123.679 160.221,127.739 C154.586,133.479 151.604,141.473 151.603,149.435 C151.603,154.16 152.654,158.877 154.837,163.106 C159.043,171.249 166.742,177.14 175.078,180.915 C183.412,184.688 192.434,186.56 201.333,188.401 C209.042,189.996 216.752,191.59 224.461,193.185 C233.573,195.069 242.753,196.967 252.1,197.441 C253.868,197.53 255.636,197.569 257.403,197.569 C262.589,197.568 267.766,197.24 272.925,196.912 C278.409,196.563 283.894,196.215 289.379,195.866 C295.171,195.497 301.044,195.123 306.707,193.594 C320.069,189.981 330.834,180.349 339.74,170.01 C344.409,164.577 349.024,158.065 349.035,150.894 C349.035,150.19 348.99,149.482 348.897,148.769 L348.897,148.768 C348.399,144.995 346.598,141.699 344.199,138.792 C341.798,135.883 338.792,133.351 335.833,131.085 C321.972,120.471 306.63,111.755 290.377,105.259 L290.01,106.18 C306.178,112.642 321.442,121.314 335.23,131.872 C338.164,134.117 341.113,136.609 343.434,139.423 C345.757,142.238 347.446,145.364 347.913,148.898 L347.978,149.39 L347.913,148.897 C348.001,149.567 348.044,150.233 348.044,150.894 C348.055,157.615 343.628,163.984 338.988,169.363 C330.14,179.641 319.502,189.114 306.449,192.636 C300.915,194.132 295.109,194.509 289.316,194.876 C283.831,195.225 278.347,195.573 272.862,195.922 C267.704,196.25 262.546,196.577 257.403,196.577 C255.65,196.577 253.899,196.539 252.15,196.45 C242.905,195.982 233.773,194.099 224.662,192.214 C216.953,190.619 209.243,189.024 201.534,187.43 C192.635,185.59 183.686,183.725 175.486,180.012 C167.289,176.301 159.779,170.524 155.719,162.65 C153.613,158.575 152.595,154.013 152.595,149.435 C152.594,141.719 155.493,133.966 160.928,128.435 C164.787,124.503 169.691,121.684 174.57,118.901 C194.965,107.256 216.095,95.4 239.384,93.035 L239.284,92.048 L239.283,92.048" id="Fill-14" fill="#231F1F" sketch:type="MSShapeGroup"></path>
                <path d="M346.301,152.309 C346.339,153.403 346.358,154.497 346.358,155.592 C346.358,162.24 345.656,168.887 344.269,175.388 C343.377,179.571 342.187,183.707 340.157,187.414 C337.711,191.882 334.082,195.647 330.055,198.842 C310.869,214.08 284.513,215.954 259.831,217.101 C253.61,217.392 247.328,217.668 241.072,217.668 C228.33,217.669 215.706,216.52 203.936,212.034 C195.537,208.838 187.725,203.961 178.983,201.298 C175.442,200.225 171.803,199.507 168.772,197.666 C166.195,196.105 164.175,193.827 162.202,191.407 C160.227,188.989 158.303,186.434 155.874,184.371 C154.731,183.407 153.544,182.566 152.881,181.429 C152.269,180.396 152.079,179.1 151.909,177.776 C151.098,171.57 150.317,165.193 150.317,158.95 C150.317,152.088 151.258,145.394 154.119,139.243 L153.221,138.825 C150.277,145.152 149.325,152 149.325,158.95 C149.325,165.276 150.114,171.692 150.925,177.905 C151.101,179.229 151.283,180.664 152.026,181.932 C152.847,183.316 154.147,184.2 155.232,185.127 C157.551,187.093 159.445,189.595 161.433,192.034 C163.423,194.47 165.511,196.848 168.258,198.514 C171.496,200.471 175.223,201.187 178.694,202.247 C187.271,204.852 195.066,209.712 203.583,212.961 C215.523,217.511 228.272,218.66 241.072,218.66 C247.356,218.66 253.654,218.383 259.877,218.092 C284.565,216.933 311.143,215.105 330.672,199.619 C334.767,196.369 338.494,192.516 341.027,187.89 C343.127,184.053 344.336,179.822 345.24,175.595 C346.641,169.026 347.349,162.309 347.349,155.592 C347.349,154.486 347.331,153.38 347.293,152.275 L346.302,152.309 L346.301,152.309" id="Fill-15" fill="#231F1F" sketch:type="MSShapeGroup"></path>
                <path d="M252.843,57.285 C220.929,59.829 189.26,65.425 158.407,73.972 C146.768,77.197 135.152,80.873 124.4,86.474 C88.32,105.274 65.539,145.779 65.535,186.436 C65.535,186.527 65.534,186.622 65.535,186.722 L66.031,186.715 L65.535,186.716 C65.582,203.839 69.85,221.974 82.14,234.075 C87.288,239.14 93.547,242.859 99.827,246.286 C134.666,265.291 173.335,277.234 212.823,281.185 C231.66,283.069 250.618,283.156 269.358,285.302 C278.506,286.349 287.683,287.897 296.952,287.898 C297.648,287.898 298.345,287.889 299.043,287.871 C321.332,287.278 341.989,277.015 361.755,267.021 C382.016,256.767 403.488,245.475 414.956,225.652 C420.975,215.24 423.535,203.454 423.534,191.471 C423.534,178.749 420.65,165.798 415.943,153.99 C403.25,122.162 377.811,95.646 346.538,81.644 C327.69,73.207 307.231,69.279 287.023,65.419 L286.837,66.393 C307.045,70.252 327.426,74.174 346.133,82.55 C377.164,96.44 402.43,122.776 415.022,154.357 C419.689,166.063 422.543,178.899 422.543,191.471 C422.542,203.315 420.013,214.921 414.098,225.155 C402.839,244.648 381.57,255.893 361.307,266.135 C341.545,276.135 321.009,286.303 299.018,286.879 C298.328,286.897 297.64,286.906 296.952,286.906 C287.794,286.907 278.654,285.369 269.471,284.317 C250.658,282.164 231.696,282.077 212.922,280.198 C173.567,276.261 135.023,264.356 100.302,245.415 C94.042,242.001 87.868,238.322 82.835,233.368 C70.821,221.555 66.569,203.686 66.527,186.713 L66.527,186.707 C66.525,186.621 66.526,186.53 66.526,186.436 C66.522,146.144 89.143,105.95 124.858,87.354 C135.508,81.806 147.055,78.146 158.672,74.928 C189.464,66.398 221.071,60.813 252.922,58.274 L252.844,57.285 L252.843,57.285" id="Fill-16" fill="#231F1F" sketch:type="MSShapeGroup"></path>
                <path d="M222.637,73.728 C199.365,79.814 176.052,86.605 154.647,97.703 C133.243,108.803 113.672,124.545 101.388,145.36 C97.186,152.484 93.823,160.718 93.82,168.911 C93.82,171.564 94.174,174.213 94.972,176.81 C97.29,184.354 102.924,190.242 108.309,195.793 C114.944,202.627 121.579,209.46 128.214,216.293 C132.228,220.427 136.282,224.602 140.945,228.077 C155.939,239.243 175.305,241.933 193.677,244.285 C207.641,246.07 221.605,247.854 235.568,249.638 C249.485,251.416 263.514,253.201 277.556,253.202 C281.315,253.202 285.076,253.073 288.837,252.783 C318.395,250.496 347.036,237.832 368.618,217.507 C372.762,213.603 376.738,209.327 379.312,204.166 C381.828,199.115 382.86,193.501 383.512,187.969 C384.109,182.888 384.406,177.771 384.406,172.655 C384.406,162.162 383.153,151.668 380.666,141.473 C378.724,133.528 375.837,125.378 369.847,119.623 C367.044,116.934 363.719,114.924 360.458,112.953 C337.904,99.33 313.553,85.181 287.261,85.174 C285.869,85.174 284.472,85.214 283.072,85.295 L283.13,86.286 C284.511,86.205 285.888,86.166 287.261,86.166 C313.183,86.159 337.402,100.174 359.945,113.802 C363.206,115.772 366.464,117.75 369.16,120.338 C374.925,125.866 377.78,133.825 379.703,141.709 C382.17,151.826 383.415,162.241 383.415,172.655 C383.415,177.733 383.119,182.811 382.527,187.853 C381.881,193.343 380.858,198.842 378.424,203.723 C375.938,208.713 372.052,212.912 367.938,216.784 C346.527,236.952 318.087,249.527 288.76,251.794 C285.027,252.082 281.292,252.21 277.556,252.21 C263.599,252.21 249.611,250.433 235.694,248.654 C221.73,246.87 207.766,245.086 193.802,243.301 C175.431,240.958 156.247,238.25 141.537,227.282 C136.959,223.87 132.94,219.737 128.925,215.602 C122.29,208.769 115.656,201.936 109.021,195.102 C103.632,189.558 98.136,183.762 95.92,176.519 C95.153,174.024 94.812,171.476 94.812,168.911 C94.809,160.994 98.088,152.9 102.242,145.864 C114.399,125.26 133.816,109.622 155.104,98.584 C176.393,87.544 199.633,80.768 222.887,74.688 L222.638,73.728 L222.637,73.728" id="Fill-17" fill="#231F1F" sketch:type="MSShapeGroup"></path>
                <path d="M105.781,191.758 C103.602,185.758 101.429,179.457 101.431,173.297 C101.431,171.397 101.635,169.51 102.11,167.644 C103.65,161.546 107.903,156.46 112.095,151.566 C115.279,147.844 118.464,144.121 121.649,140.399 C129.06,131.736 136.519,123.037 145.455,116.066 C155.889,107.924 168.104,102.323 180.507,97.541 C202.626,89.012 225.665,82.875 249.096,79.27 L248.946,78.29 C225.444,81.905 202.335,88.061 180.15,96.616 C167.71,101.413 155.403,107.047 144.845,115.284 C135.804,122.338 128.308,131.092 120.896,139.754 C117.711,143.476 114.525,147.199 111.341,150.921 C107.153,155.821 102.773,161.005 101.148,167.4 C100.651,169.354 100.439,171.326 100.439,173.297 C100.442,179.69 102.67,186.086 104.849,192.097 L105.781,191.758" id="Fill-18" fill="#231F1F" sketch:type="MSShapeGroup"></path>
                <path d="M284.952,75.365 C287.654,75.818 290.348,76.271 293.008,76.853 C306.581,79.82 319.216,86.118 331.458,92.837 C342.521,98.906 353.461,105.425 362.487,114.15 C365.728,117.283 368.715,120.712 370.791,124.657 L371.669,124.195 C369.52,120.112 366.457,116.609 363.175,113.437 C354.038,104.605 343.018,98.049 331.935,91.967 C319.671,85.238 306.955,78.888 293.22,75.884 C290.528,75.295 287.818,74.84 285.117,74.386 L284.953,75.365 L284.952,75.365" id="Fill-19" fill="#231F1F" sketch:type="MSShapeGroup"></path>
                <path d="M67.198,164.243 C68.025,166.473 68.381,168.688 68.382,170.906 C68.389,177.942 64.747,185.042 61.045,192.305 C57.354,199.569 53.607,206.999 53.601,214.81 C53.601,215.609 53.64,216.412 53.725,217.218 L53.769,217.642 L54.196,217.662 L54.448,217.667 C56.332,217.664 58.17,216.738 59.286,215.212 L58.884,214.92 L58.389,214.941 C58.702,222.144 61.569,228.654 65.672,234.529 C69.775,240.406 75.116,245.662 80.424,250.386 C83.76,253.353 87.179,256.278 90.961,258.719 C95.656,261.751 100.792,263.964 105.873,266.155 C141.148,281.355 176.833,296.691 214.698,303.576 C229.438,306.256 244.417,307.629 259.398,307.629 C260.873,307.629 262.349,307.615 263.825,307.589 C282.638,307.248 301.319,304.743 319.932,302.245 C338.94,299.691 358.662,296.923 375.087,286.751 C393.683,275.219 405.525,255.827 420.651,240.343 L420.806,240.184 L420.791,239.962 C420.749,239.368 420.729,238.777 420.729,238.188 C420.728,233.077 422.197,228.094 423.89,223.073 C425.582,218.053 427.496,212.999 428.331,207.734 C428.673,205.568 428.828,203.419 428.828,201.284 C428.814,184.152 418.811,167.994 413.699,151.487 L412.751,151.781 C417.94,168.447 427.851,184.545 427.837,201.284 C427.837,203.37 427.684,205.468 427.351,207.579 C426.541,212.709 424.651,217.714 422.95,222.756 C421.252,227.799 419.738,232.884 419.738,238.188 C419.738,238.8 419.759,239.414 419.801,240.031 L420.296,239.996 L419.941,239.65 C404.721,255.256 392.902,274.558 374.565,285.907 C358.384,295.937 338.808,298.714 319.8,301.262 C301.187,303.76 282.544,306.258 263.806,306.597 C262.336,306.623 260.867,306.637 259.398,306.637 C244.478,306.637 229.557,305.269 214.876,302.6 C177.159,295.744 141.54,280.445 106.266,265.244 C101.184,263.054 96.101,260.858 91.499,257.886 C87.792,255.493 84.408,252.604 81.084,249.645 C75.802,244.946 70.515,239.736 66.485,233.961 C62.453,228.186 59.682,221.859 59.38,214.898 L59.317,213.479 L58.483,214.628 C57.57,215.887 56.002,216.678 54.448,216.675 L54.24,216.671 L54.218,217.166 L54.712,217.114 C54.631,216.344 54.593,215.576 54.593,214.81 C54.587,207.328 58.23,200.015 61.929,192.755 C65.618,185.494 69.366,178.29 69.373,170.906 C69.374,168.582 68.998,166.243 68.128,163.898 L67.198,164.243" id="Fill-20" fill="#231F1F" sketch:type="MSShapeGroup"></path>
                <path d="M76.431,253.09 C82.184,301.506 87.937,349.922 93.69,398.338 C95.836,416.404 97.983,434.484 98.517,452.64 C99.191,475.418 97.345,498.65 102.817,520.92 C106.045,534.047 111.723,546.391 117.451,558.569 C122.524,569.347 127.891,580.428 136.729,588.598 C142.243,593.692 148.845,597.392 155.494,600.736 C186.599,616.375 220.971,625.467 255.739,627.252 C258.537,627.396 261.355,627.491 264.174,627.491 C272.339,627.49 280.516,626.698 288.236,623.998 C299.099,620.195 308.318,612.865 316.55,604.938 C329.486,592.481 340.627,578.109 349.079,562.253 C362.577,536.927 368.924,508.557 375.124,480.628 C392.067,404.295 409.038,327.804 418.575,250.164 L417.59,250.044 C408.062,327.62 391.098,404.08 374.156,480.413 C367.958,508.342 361.62,536.621 348.203,561.787 C339.805,577.542 328.729,591.833 315.862,604.224 C307.677,612.108 298.558,619.336 287.908,623.062 C280.34,625.71 272.276,626.499 264.174,626.499 C261.377,626.499 258.576,626.405 255.79,626.262 C221.161,624.484 186.919,615.426 155.94,599.85 C149.316,596.52 142.8,592.858 137.402,587.87 C128.746,579.875 123.415,568.922 118.349,558.147 C112.622,545.974 106.977,533.688 103.78,520.683 C98.352,498.623 100.178,475.462 99.509,452.61 C98.972,434.396 96.821,416.287 94.674,398.221 C88.922,349.805 83.169,301.389 77.416,252.973 L76.432,253.09 L76.431,253.09" id="Fill-21" fill="#231F1F" sketch:type="MSShapeGroup"></path>
                <path d="M116.366,565.269 C116.924,576.389 117.605,588.085 123.318,597.828 C128.112,605.991 135.912,611.818 143.767,616.895 C173.543,636.132 207.993,648.068 243.287,651.378 C246.998,651.726 250.795,651.959 254.588,651.96 C264.912,651.959 275.226,650.235 283.643,644.352 C286.298,642.484 288.765,640.281 291.726,639.72 C292.755,639.52 293.899,639.509 295.045,639.397 C296.188,639.283 297.353,639.063 298.383,638.37 C299.851,637.373 300.57,635.745 301.212,634.295 C303.751,628.518 306.29,622.74 308.829,616.963 L307.922,616.564 C305.383,622.341 302.843,628.119 300.304,633.896 C299.671,635.347 298.988,636.775 297.829,637.548 C297.016,638.097 296.034,638.303 294.947,638.41 C293.863,638.519 292.691,638.525 291.538,638.746 C288.212,639.397 285.665,641.737 283.073,643.539 C274.905,649.253 264.81,650.968 254.588,650.968 C250.836,650.968 247.069,650.737 243.38,650.391 C208.246,647.096 173.945,635.211 144.306,616.062 C136.485,611.012 128.826,605.258 124.174,597.326 C118.615,587.867 117.907,576.339 117.357,565.22 L116.366,565.269" id="Fill-22" fill="#231F1F" sketch:type="MSShapeGroup"></path>
                <path d="M310.058,598.192 C310.279,596.708 310.379,595.219 310.379,593.73 C310.379,588.705 309.23,583.695 307.654,578.943 C302.52,563.489 292.621,549.664 279.646,539.825 C255.179,521.28 223.323,518.334 192.267,518.331 C186.589,518.331 180.936,518.43 175.36,518.552 C166.886,518.739 158.1,518.964 150.198,522.372 C146.235,524.083 142.55,526.786 139.835,530.156 C137.123,533.525 135.378,537.572 135.352,541.942 L136.343,541.949 C136.368,537.843 138.006,534.011 140.608,530.778 C143.209,527.548 146.772,524.93 150.591,523.282 C158.254,519.971 166.908,519.725 175.382,519.543 C180.955,519.422 186.6,519.323 192.267,519.323 C223.273,519.32 254.892,522.293 279.047,540.616 C291.86,550.33 301.644,563.996 306.713,579.256 C308.269,583.947 309.388,588.857 309.388,593.73 C309.388,595.174 309.29,596.615 309.077,598.046 L310.059,598.192 L310.058,598.192" id="Fill-23" fill="#231F1F" sketch:type="MSShapeGroup"></path>
                <path d="M240.245,163.768 C238.632,169.019 237.793,174.506 237.766,179.999 L238.758,180.004 C238.785,174.609 239.609,169.217 241.193,164.059 L240.245,163.768" id="Fill-24" fill="#231F1F" sketch:type="MSShapeGroup"></path>
                <path d="M258.515,170.041 C258.593,170.955 258.631,171.872 258.631,172.79 C258.631,178.336 257.211,183.886 254.523,188.736 L255.391,189.217 C258.161,184.215 259.623,178.505 259.623,172.79 C259.623,171.845 259.584,170.899 259.504,169.957 L258.515,170.041" id="Fill-25" fill="#231F1F" sketch:type="MSShapeGroup"></path>
                <path d="M225.541,200.935 C225.438,201.665 225.387,202.401 225.387,203.137 C225.387,205.971 226.135,208.801 227.561,211.255 L228.419,210.757 C227.083,208.46 226.379,205.796 226.379,203.137 C226.379,202.447 226.426,201.757 226.523,201.074 L225.541,200.935" id="Fill-26" fill="#231F1F" sketch:type="MSShapeGroup"></path>
                <path d="M256.777,210.68 C255.872,211.312 254.755,211.649 253.644,211.648 C253.141,211.648 252.64,211.58 252.161,211.441 L251.886,212.394 C252.458,212.56 253.051,212.64 253.644,212.64 C254.954,212.64 256.261,212.248 257.343,211.494 L256.777,210.68" id="Fill-27" fill="#231F1F" sketch:type="MSShapeGroup"></path>
                <path d="M230.428,228.634 C228.234,232.057 226.041,235.48 223.847,238.903 L224.683,239.438 C226.876,236.015 229.07,232.592 231.263,229.169 L230.428,228.634" id="Fill-28" fill="#231F1F" sketch:type="MSShapeGroup"></path>
                <path d="M252.608,237.138 C252.958,238.132 253.309,239.126 253.659,240.12 L254.595,239.79 C254.244,238.796 253.893,237.802 253.543,236.808 L252.608,237.138" id="Fill-29" fill="#231F1F" sketch:type="MSShapeGroup"></path>
                <path d="M244.649,263.649 C242.982,265.316 241.315,266.983 239.649,268.649 L240.351,269.351 C242.017,267.684 243.684,266.017 245.35,264.351 L244.649,263.649" id="Fill-30" fill="#231F1F" sketch:type="MSShapeGroup"></path>
                <path d="M219.955,259.873 C219.506,263.566 219.056,267.259 218.607,270.952 L219.592,271.072 C220.041,267.379 220.491,263.686 220.94,259.993 L219.956,259.873 L219.955,259.873" id="Fill-31" fill="#231F1F" sketch:type="MSShapeGroup"></path>
                <path d="M231.544,292.805 C230.544,295.138 229.544,297.471 228.544,299.805 L229.456,300.195 C230.455,297.862 231.455,295.529 232.455,293.195 L231.544,292.805" id="Fill-32" fill="#231F1F" sketch:type="MSShapeGroup"></path>
                <path d="M209.504,310 L209.504,311 L210.496,311 C210.495,310.667 210.495,310.333 210.495,310 L209.504,310" id="Fill-33" fill="#231F1F" sketch:type="MSShapeGroup"></path>
                <path d="M200.819,310.499 C199.628,312.009 199.166,313.69 199.17,315.41 C199.174,318.025 200.186,320.75 201.22,323.503 C202.26,326.254 203.328,329.032 203.534,331.665 C203.559,331.987 203.571,332.31 203.571,332.632 C203.574,335.975 202.245,339.299 200.959,342.563 C189.615,371.39 182.777,401.984 180.77,432.898 C179.959,445.407 179.918,458.006 177.209,470.15 C174.053,484.322 167.324,497.552 163.687,511.77 C162.282,517.269 161.42,523.095 161.42,528.849 C161.419,537.988 163.596,546.96 169.261,554.09 L169.674,554.611 L170.056,554.066 C171.536,551.954 173.692,550.312 176.122,549.447 L176.583,549.283 L176.424,548.819 C175.931,547.374 175.69,545.848 175.69,544.318 C175.689,540.869 176.913,537.404 179.177,534.811 L180.267,533.56 L178.67,534.008 C178.541,534.044 178.417,534.06 178.295,534.06 C177.796,534.063 177.286,533.771 176.89,533.277 C176.495,532.788 176.244,532.118 176.246,531.5 C176.246,531.405 176.252,531.314 176.264,531.228 L176.265,531.221 C176.361,530.446 176.698,529.729 177.172,529.033 C177.645,528.338 178.251,527.674 178.848,527.016 C189.36,515.438 196.543,500.879 199.335,485.491 C201.858,471.558 200.841,457.28 202.829,443.417 C204.096,434.557 206.58,425.898 209.064,417.252 C214.755,397.437 220.448,377.622 226.14,357.807 L225.663,357.67 L226.132,357.832 C229.834,347.088 231.732,335.726 231.732,324.363 C231.732,323.578 231.723,322.794 231.706,322.011 L230.715,322.032 C230.731,322.809 230.74,323.586 230.74,324.363 C230.74,335.616 228.86,346.869 225.194,357.509 L225.191,357.518 L225.186,357.533 C219.495,377.348 213.802,397.163 208.11,416.978 C205.627,425.625 203.128,434.326 201.847,443.276 C199.846,457.281 200.86,471.546 198.359,485.314 C195.601,500.516 188.5,514.911 178.114,526.349 C177.519,527.006 176.88,527.699 176.352,528.475 C175.824,529.249 175.403,530.113 175.281,531.099 L175.773,531.16 L175.281,531.092 C175.262,531.231 175.255,531.368 175.255,531.5 C175.257,532.375 175.585,533.232 176.116,533.898 C176.645,534.558 177.407,535.049 178.295,535.052 C178.506,535.052 178.722,535.023 178.937,534.963 L178.803,534.485 L178.43,534.159 C175.997,536.95 174.699,540.636 174.698,544.318 C174.698,545.952 174.955,547.586 175.485,549.14 L175.955,548.98 L175.789,548.513 C173.161,549.449 170.845,551.213 169.244,553.497 L169.65,553.782 L170.038,553.473 C164.551,546.571 162.412,537.837 162.412,528.849 C162.412,523.195 163.26,517.446 164.648,512.016 C168.24,497.938 174.978,484.699 178.177,470.366 C180.915,458.081 180.949,445.43 181.76,432.962 C183.76,402.152 190.575,371.657 201.882,342.926 C203.16,339.667 204.559,336.239 204.563,332.632 C204.563,332.286 204.55,331.937 204.523,331.587 C204.295,328.747 203.182,325.901 202.148,323.153 C201.11,320.409 200.157,317.762 200.161,315.41 C200.165,313.859 200.556,312.444 201.599,311.113 L200.82,310.499 L200.819,310.499" id="Fill-34" fill="#231F1F" sketch:type="MSShapeGroup"></path>
                <path d="M121.71,279.166 C131.794,348.059 173.056,411.75 231.81,449.113 C244.824,457.388 258.576,464.398 271.469,472.741 C273.537,474.074 275.589,475.519 276.566,477.586 C277.11,478.728 277.303,479.984 277.303,481.301 C277.303,482.657 277.096,484.071 276.88,485.454 C271.991,516.539 267.102,547.625 262.213,578.71 L263.194,578.864 C268.082,547.779 272.971,516.693 277.86,485.608 C278.076,484.218 278.294,482.757 278.294,481.301 C278.294,479.89 278.089,478.477 277.462,477.16 C276.318,474.771 274.082,473.256 272.008,471.908 C259.057,463.529 245.303,456.519 232.343,448.276 C173.839,411.078 132.728,347.62 122.692,279.022 L121.71,279.166" id="Fill-35" fill="#231F1F" sketch:type="MSShapeGroup"></path>
                <path d="M93.722,273.436 C103.96,312.178 114.214,352.297 114.213,391.848 C114.213,407.051 112.698,422.169 109.091,437.098 C106.819,446.506 103.694,455.841 102.918,465.599 C102.78,467.329 102.717,469.056 102.717,470.779 C102.723,485.977 107.532,500.904 108.383,515.98 C108.631,520.345 108.794,525.217 109.87,529.576 C110.942,533.926 112.961,537.812 116.95,540.032 C120.036,541.738 123.582,541.986 126.596,543.252 C127.893,543.79 129.165,544.676 130.094,545.742 C131.025,546.81 131.604,548.043 131.603,549.29 C131.603,549.644 131.556,550.003 131.457,550.366 L132.415,550.625 C132.536,550.179 132.594,549.731 132.594,549.29 C132.593,547.73 131.882,546.284 130.841,545.09 C129.797,543.894 128.413,542.935 126.978,542.336 C123.754,541.006 120.251,540.747 117.434,539.166 C113.77,537.125 111.88,533.559 110.833,529.338 C109.789,525.123 109.621,520.303 109.373,515.923 C108.501,500.678 103.703,485.767 103.709,470.779 C103.709,469.08 103.771,467.38 103.906,465.678 C104.666,456.081 107.766,446.794 110.055,437.331 C113.683,422.315 115.204,407.116 115.204,391.848 C115.203,352.125 104.919,311.93 94.682,273.183 L93.723,273.436 L93.722,273.436" id="Fill-36" fill="#231F1F" sketch:type="MSShapeGroup"></path>
                <path d="M403.172,266.054 C402.978,314.437 392.065,362.752 371.444,406.521 C363.915,422.508 355.035,438.051 349.966,455.087 C342.46,480.349 343.785,507.261 339.017,532.985 C336.639,545.835 332.088,558.994 325.065,569.996 C318.041,581.001 308.559,589.84 296.303,594.126 L296.631,595.062 C309.144,590.687 318.793,581.669 325.901,570.53 C333.011,559.388 337.594,546.119 339.992,533.166 C344.777,507.286 343.463,480.411 350.917,455.369 C355.939,438.479 364.786,422.977 372.341,406.944 C393.024,363.042 403.969,314.588 404.164,266.058 L403.173,266.054 L403.172,266.054" id="Fill-37" fill="#231F1F" sketch:type="MSShapeGroup"></path>
                <path d="M277.316,21.92 C276.505,28.892 274.13,35.681 270.419,41.638 L271.261,42.163 C275.05,36.08 277.473,29.154 278.301,22.035 L277.316,21.92" id="Fill-38" fill="#231F1F" sketch:type="MSShapeGroup"></path>
                <path d="M258.076,92.989 C258.404,95.362 258.566,97.758 258.566,100.153 C258.566,103.757 258.195,107.361 257.46,110.888 L258.432,111.09 C259.18,107.496 259.558,103.825 259.558,100.153 C259.558,97.713 259.392,95.272 259.059,92.854 L258.076,92.989" id="Fill-39" fill="#231F1F" sketch:type="MSShapeGroup"></path>
                <path d="M93.866,461.764 C84.53,469.679 73.078,473.851 61.151,477.394 C49.227,480.938 36.839,483.85 25.672,489.314 C23.19,490.529 20.676,491.97 18.528,493.775 C16.381,495.579 14.596,497.754 13.612,500.428 C13.028,502.011 12.769,503.616 12.77,505.216 C12.782,511.635 16.857,517.928 20.704,523.219 C39.784,549.407 58.864,575.595 77.944,601.782 C82.555,608.111 87.202,614.487 92.734,620.098 C95.973,623.382 99.472,626.362 102.686,629.592 C112.676,639.623 119.959,652.08 129.109,663.065 C135.6,670.853 142.973,677.823 150.311,684.76 C156.164,690.292 162.016,695.824 167.869,701.356 C173.469,706.644 179.419,712.183 186.979,714.346 C189.443,715.049 191.931,715.356 194.419,715.356 C203.414,715.351 212.406,711.372 220.688,707.625 C274.05,683.448 329.644,664.196 386.529,650.194 C388.5,649.708 390.605,649.147 392.493,648.244 C394.378,647.341 396.062,646.083 397.117,644.201 C397.86,642.875 398.175,641.464 398.175,640.046 C398.162,635.983 395.666,631.851 393.289,628.483 C379.269,608.707 365.248,588.931 351.228,569.155 L350.42,569.729 C364.439,589.505 378.46,609.28 392.48,629.056 C394.835,632.367 397.195,636.403 397.183,640.046 C397.182,641.32 396.906,642.546 396.251,643.717 C395.328,645.363 393.84,646.498 392.064,647.349 C390.292,648.198 388.249,648.75 386.293,649.231 C329.348,663.247 273.697,682.519 220.279,706.721 C212.006,710.472 203.116,714.369 194.419,714.364 C192.013,714.364 189.62,714.068 187.251,713.392 C179.998,711.327 174.145,705.928 168.55,700.635 C162.698,695.103 156.845,689.571 150.992,684.039 C143.654,677.103 136.311,670.158 129.871,662.43 C120.787,651.534 113.493,639.048 103.389,628.892 C100.135,625.624 96.639,622.646 93.441,619.402 C87.977,613.861 83.357,607.527 78.745,601.198 C59.665,575.01 40.585,548.823 21.505,522.635 C17.67,517.386 13.749,511.199 13.762,505.216 C13.762,503.723 14.002,502.24 14.543,500.771 C15.451,498.302 17.111,496.262 19.167,494.534 C21.221,492.807 23.667,491.399 26.108,490.205 C37.138,484.805 49.471,481.898 61.434,478.345 C73.393,474.79 84.991,470.585 94.507,462.521 L93.866,461.764" id="Fill-40" fill="#231F1F" sketch:type="MSShapeGroup"></path>
                <path d="M395.66,645.939 C392.385,658.913 387.081,671.374 380.001,682.728 C376.199,688.825 371.837,694.646 366.287,699.122 C360.138,704.083 352.716,707.249 345.353,710.358 C300.781,729.19 256.138,747.851 211.422,766.34 C203.03,769.813 194.003,773.283 185.259,773.28 C182.223,773.28 179.221,772.864 176.282,771.891 C171.089,770.173 166.562,766.809 162.147,763.407 C114.056,726.363 71.36,682.854 28.823,639.482 C20.194,630.688 11.435,621.664 6.529,610.494 C2.035,600.269 1.04,588.834 1.041,577.562 C1.041,577.048 1.043,576.536 1.048,576.025 C1.225,552.519 4.969,529.043 12.112,506.649 L11.168,506.347 C3.994,528.837 0.234,552.411 0.056,576.016 C0.051,576.531 0.05,577.046 0.05,577.562 C0.051,588.89 1.04,600.464 5.621,610.893 C10.629,622.282 19.489,631.379 28.114,640.177 C70.652,683.548 113.379,727.092 161.542,764.193 C165.966,767.598 170.573,771.043 175.97,772.832 C179.021,773.843 182.133,774.272 185.259,774.272 C194.266,774.268 203.392,770.731 211.801,767.257 C256.519,748.766 301.165,730.105 345.74,711.272 C353.102,708.159 360.615,704.969 366.909,699.894 C372.589,695.312 377.01,689.397 380.842,683.253 C387.977,671.811 393.321,659.256 396.622,646.182 L395.661,645.939 L395.66,645.939" id="Fill-41" fill="#231F1F" sketch:type="MSShapeGroup"></path>
                <path d="M265.476,137.215 C262.503,131.619 263.658,125.115 265.097,119.236 C266.94,111.704 269.967,104.498 272.425,97.158 C278.476,79.09 273.543,60.117 278.232,41.994 C280.657,32.621 266.189,28.648 263.768,38.006 C261.14,48.16 261.303,58.557 261.294,68.962 C261.286,78.351 260.13,86.895 257.08,95.766 C251.71,111.382 244.045,128.826 252.524,144.785 C257.063,153.33 270.011,145.751 265.476,137.215" id="Fill-42" fill="#64E178" sketch:type="MSShapeGroup"></path>
                <path d="M269.768,15.006 C267.746,20.804 266.674,26.862 266.5,33 C266.226,42.679 281.227,42.652 281.5,33 C281.638,28.142 282.633,23.58 284.232,18.994 C285.578,15.131 282.735,10.797 278.993,9.768 C274.853,8.629 271.112,11.15 269.768,15.006" id="Fill-43" fill="#64E178" sketch:type="MSShapeGroup"></path>
            </g>
        </g>
    </g>
</svg>