<?xml version="1.0" encoding="UTF-8" standalone="no"?>
<svg width="595px" height="842px" viewBox="0 0 595 842" version="1.1" xmlns="http://www.w3.org/2000/svg" xmlns:xlink="http://www.w3.org/1999/xlink" xmlns:sketch="http://www.bohemiancoding.com/sketch/ns">
    <!-- Generator: Sketch Beta 3.3.2 (12041) - http://www.bohemiancoding.com/sketch -->
    <title>dude</title>
    <desc>Created with Sketch Beta.</desc>
    <defs></defs>
    <g id="pictures" stroke="none" stroke-width="1" fill="none" fill-rule="evenodd" sketch:type="MSPage">
        <g id="dude" sketch:type="MSArtboardGroup">
            <g id="Imported-Layers" sketch:type="MSLayerGroup" transform="translate(6.000000, 109.000000)">
                <path d="M94.293,437.115 C94.293,333.349 177.727,249.23 280.647,249.23 C383.567,249.23 467,333.349 467,437.115 C467,540.881 383.567,625 280.647,625 C177.727,625 94.293,540.881 94.293,437.115" id="Fill-1" fill="#FAE164" sketch:type="MSShapeGroup"></path>
                <path d="M431.445,138.052 C431.445,71.504 377.497,17.555 310.948,17.555 C244.399,17.555 190.451,71.504 190.451,138.052 C190.451,204.6 244.399,258.549 310.948,258.549 C377.497,258.549 431.445,204.6 431.445,138.052" id="Fill-2" fill="#FAE164" sketch:type="MSShapeGroup"></path>
                <path d="M547.92,238.157 C547.92,205.993 521.847,179.919 489.683,179.919 C457.518,179.919 431.445,205.993 431.445,238.157 C431.445,270.321 457.518,296.395 489.683,296.395 C521.847,296.395 547.92,270.321 547.92,238.157" id="Fill-3" fill="#FAE164" sketch:type="MSShapeGroup"></path>
                <path d="M205.313,215 C205.313,167.883 167.116,129.688 120,129.688 C72.883,129.688 34.687,167.883 34.687,215 C34.687,262.117 72.883,300.312 120,300.312 C167.116,300.312 205.313,262.117 205.313,215" id="Fill-4" fill="#FAE164" sketch:type="MSShapeGroup"></path>
                <path d="M94.293,336.108 C94.293,313.855 76.253,295.815 54,295.815 C31.747,295.815 13.706,313.855 13.706,336.108 C13.706,358.362 31.747,376.402 54,376.402 C76.253,376.402 94.293,358.362 94.293,336.108" id="Fill-5" fill="#FAE164" sketch:type="MSShapeGroup"></path>
                <path d="M130.675,71.789 C130.675,44.654 108.677,22.656 81.541,22.656 C54.406,22.656 32.408,44.654 32.408,71.789 C32.408,98.925 54.406,120.923 81.541,120.923 C108.677,120.923 130.675,98.925 130.675,71.789" id="Fill-6" fill="#FAE164" sketch:type="MSShapeGroup"></path>
                <path d="M229.835,233.806 C221.102,233.008 214.315,239.478 205.884,238.967 C204.455,238.881 208.025,248.611 208.324,249.302 C209.193,251.31 211.422,257.986 214.19,258.153 C221.427,258.592 227.31,253.316 234.491,252.915 C241.449,252.526 248.546,255.271 253.651,259.985 C253.825,260.146 255.051,261.709 255.923,262.711 C256.045,263.183 256.197,263.662 256.252,264.068 C256.772,267.909 256.605,271.778 255.99,275.598 C254.653,283.926 251.241,291.819 246.847,298.975 C238.832,312.028 227.875,322.918 217.127,333.7 C211.634,339.211 206.134,344.725 200.989,350.566 C196.579,355.572 190.802,361.332 189.023,367.95 C186.762,376.352 192.81,388.623 198.231,394.786 C203.76,401.072 212.7,403.886 220.748,404.913 C222.06,405.08 218.6,395.25 218.309,394.578 C217.371,392.41 215.3,386.091 212.443,385.727 C208.064,385.168 203.866,384.047 199.885,382.131 C200.346,381.193 200.823,380.256 201.433,379.41 C202.562,377.842 203.773,376.326 204.991,374.825 C207.613,371.595 210.377,368.482 213.209,365.435 C223.978,353.851 235.854,343.285 245.888,331.023 C255.532,319.238 264.288,305.156 265.399,289.595 C266.514,273.983 259.977,255.353 249.383,243.829 C244.262,238.259 237.428,234.5 229.835,233.806 L229.835,233.806 Z M256.543,263.376 C256.66,263.486 256.748,263.553 256.787,263.548 C256.695,263.559 256.614,263.49 256.543,263.376 L256.543,263.376 Z" id="Fill-7" fill="#231F1F" sketch:type="MSShapeGroup"></path>
                <path d="M274.922,259.547 C274.248,263.114 278.335,270 279.988,272.938 C284.64,281.203 291.899,284.114 300.437,278.965 C304.614,276.446 308.191,273.099 312.496,270.757 C314.29,269.78 318.141,267.618 321.564,266.765 C321.505,267.85 321.44,268.936 321.386,270.026 C321.178,274.172 321.169,278.271 322.136,282.343 C323.949,289.982 327.605,299.832 333.772,305.022 C340.36,310.566 346.441,305.003 353.228,303.426 C355.795,302.829 358.546,302.831 361.093,303.553 C361.071,303.63 361.054,303.714 361.028,303.787 C358.362,311.618 351.949,317.506 349.223,325.349 C346.493,333.206 348.083,340.832 351.122,348.373 C353.969,355.438 357.882,363.308 365.258,366.497 C371.321,369.119 378.264,369.058 384.73,368.781 C386.315,368.714 382.614,359.195 382.291,358.447 C381.524,356.675 379.032,349.484 376.425,349.596 C370.041,349.869 362.973,350.074 357.117,347.116 C357.668,344.378 358.689,341.707 359.958,339.249 C363.742,331.914 370.178,325.719 371.009,317.124 C371.843,308.48 367.573,298.77 362.862,291.768 C359.443,286.686 354.394,283.626 348.156,283.829 C342.329,284.018 336.071,289.627 330.29,288.135 C330.383,286.537 330.517,284.939 330.574,283.339 C330.726,279.079 330.714,274.69 330.089,270.464 C329.452,266.162 327.925,261.992 326.119,258.057 C324.614,254.777 322.616,249.65 319.126,247.88 C313.032,244.79 302.667,252.163 298.052,255.559 C294.703,258.024 291.329,260.907 287.232,262.018 C285.646,262.449 283.986,262.623 282.35,262.413 C281.571,262.313 280.757,262.14 280.022,261.849 C278.723,261.334 277.422,259.605 278.755,261.974 C277.775,260.232 275.607,255.915 274.922,259.547" id="Fill-8" fill="#231F1F" sketch:type="MSShapeGroup"></path>
                <path d="M281.33,348.597 C280.774,358.666 284.855,369.898 291.023,377.788 C297.272,385.783 306.88,385.783 316.196,384.968 C316.868,384.909 312.428,365.385 307.891,365.782 C302.559,366.248 296.903,366.832 291.787,364.887 C291.335,364.715 290.895,364.526 290.462,364.321 C290.503,363.967 290.541,363.612 290.587,363.26 C291.919,352.94 295.942,343.246 299.242,333.455 C302.576,323.564 303.893,315.185 300.039,305.194 C297.208,297.853 291.684,284.801 281.561,287.182 C279.993,287.55 286.155,307.24 289.867,306.367 C291.124,306.072 292.08,306.156 293.031,306.361 C292.093,310.602 290.548,314.743 289.125,318.82 C285.764,328.456 281.9,338.296 281.33,348.597" id="Fill-9" fill="#231F1F" sketch:type="MSShapeGroup"></path>
                <path d="M440.627,375.838 C437.221,406.84 430.331,437.399 419.915,466.804 C410.317,493.897 398.822,522.264 375.425,540.367 C353.392,557.415 325.054,565.501 297.893,569.604 C268.432,574.054 238.259,573.141 208.986,567.758 C193.613,564.931 178.479,560.844 163.75,555.613 C150.828,551.024 138.03,545.502 126.915,537.354 C103.895,520.479 96.349,493.076 89.868,466.608 C75.255,406.922 74.768,343.758 87.867,283.748 C88.608,280.354 89.415,276.95 90.285,273.544 C91.004,274.804 91.786,276.018 92.656,277.145 C100.275,287.013 108.197,296.703 116.678,305.846 C123.78,313.502 131.728,320.976 141.686,324.657 C164.664,333.151 188.044,321.374 209.465,313.821 C211.628,313.058 204.181,293.569 201.159,294.635 C180.41,301.952 156.901,314.01 134.589,305.762 C124.788,302.139 117.041,294.906 110.118,287.312 C103.915,280.509 97.987,273.451 92.251,266.247 C93.162,263.036 94.132,259.83 95.164,256.635 C101.198,261.334 106.918,264.821 115.098,263.531 C123.448,262.214 131.3,258.576 139.164,255.651 C146.592,252.888 155.685,249.503 163.758,250.91 C164.33,251.01 164.809,251.13 165.221,251.256 C166.376,255.429 167.427,259.62 168.946,263.684 C171.565,270.689 175.514,281.081 183.359,283.652 C190.822,286.099 200.391,284.819 208.027,283.725 C217.54,282.362 226.723,279.572 235.476,275.627 C238.037,274.472 229.633,255.331 227.17,256.441 C218.964,260.141 210.391,262.83 201.496,264.268 C193.768,265.518 183.907,267.083 176.262,264.757 C175.271,264.464 174.339,264.043 173.465,263.493 C173.455,263.485 173.447,263.479 173.438,263.471 C172.236,259.052 171.017,254.625 169.574,250.281 C167.348,243.58 164.1,233.236 156.093,231.806 C140.427,229.009 124.787,240.229 110.066,243.672 C106.605,244.482 102.954,245.127 99.448,244.405 C116.625,199.045 147.036,158.241 195.943,144.804 C197.725,144.315 191.118,124.662 187.638,125.618 C135.148,140.039 102.892,187.212 86.722,236.669 C80.049,231.345 73.877,225.484 68.146,219.15 C65.265,215.966 67,222.667 67.292,223.607 C68.61,227.858 70.531,233.088 73.588,236.466 C76.807,240.023 80.162,243.457 83.654,246.747 C83.418,247.582 83.173,248.417 82.947,249.252 C66.204,310.913 65.449,377.16 78.306,439.594 C84.712,470.701 93.684,503.317 110.588,530.499 C118.136,542.637 127.974,552.811 140.132,560.371 C152.818,568.259 167.04,573.518 181.234,577.983 C211.026,587.356 242.327,592.236 273.579,591.566 C303.743,590.92 335.136,585.552 362.523,572.451 C375.062,566.452 386.763,558.501 396.083,548.113 C405.718,537.372 412.601,524.456 418.393,511.33 C431.514,481.591 440.781,450.058 446.213,418.022 C447.568,410.031 448.661,402 449.546,393.944 C449.984,389.957 447.344,385.082 445.635,381.625 C445.242,380.831 440.838,373.915 440.627,375.838 L440.627,375.838 Z M165.837,251.47 C167.922,252.304 167.192,253.213 165.837,251.47 L165.837,251.47 Z M164.771,249.688 C164.092,248.27 163.395,246.207 162.87,243.243 C163.251,245.392 164.112,247.566 164.771,249.688 L164.771,249.688 Z" id="Fill-10" fill="#231F1F" sketch:type="MSShapeGroup"></path>
                <path d="M345.042,177.591 C345.195,177.857 345.386,178.12 345.614,178.374 C345.613,178.303 345.618,178.232 345.617,178.161 C345.426,177.968 345.234,177.777 345.042,177.591" id="Fill-11" fill="#231F1F" sketch:type="MSShapeGroup"></path>
                <path d="M438.82,315.41 C438.625,315.284 438.428,315.161 438.237,315.032 C438.395,315.961 438.693,316.562 439.019,316.903 C438.958,316.441 438.909,315.976 438.841,315.516 C438.835,315.482 438.826,315.444 438.82,315.41" id="Fill-12" fill="#231F1F" sketch:type="MSShapeGroup"></path>
                <path d="M454.694,372.698 C454.597,372.56 452.868,369.724 452.934,370.146 C452.289,368.531 451.945,366.738 451.579,365.066 C450.591,360.544 450.065,355.924 449.61,351.322 C448.733,342.443 448.599,333.359 446.498,324.65 C444.27,315.416 440.233,304.419 433.157,297.735 C427.804,292.678 420.558,292.061 413.533,291.835 C409.926,291.719 406.285,291.749 402.713,291.169 C401.01,290.892 399.377,290.478 397.805,289.771 C397.856,288.978 397.906,288.348 397.948,288.135 C398.373,285.972 398.992,283.855 399.696,281.767 C401.22,277.248 403.224,272.918 405.074,268.528 C408.418,260.591 411.04,252.655 410.076,243.942 C409.044,234.617 405.113,224.838 399.827,217.141 C393.906,208.517 385.955,207.109 375.958,208.562 C369.947,209.436 363.963,210.133 357.883,210.264 C356.022,210.304 354.134,210.339 352.255,210.293 C352.395,209.85 352.527,209.411 352.64,208.981 C353.866,204.318 354.644,199.609 354.529,194.778 C354.314,185.736 350.711,176.569 346.324,168.779 C342.515,162.014 337.54,156.452 329.513,155.233 C321.153,153.963 312.77,157.286 304.772,159.213 C295.75,161.386 286.404,162.917 277.118,163.247 C271.02,163.463 263.931,162.999 258.591,159.628 C258.524,159.084 258.455,158.543 258.39,158.011 C257.833,153.474 256.641,149.088 255.038,144.81 C252.069,136.884 248.013,128.83 241.854,122.89 C229.434,110.913 209.664,111.705 198.28,124.753 C196.537,126.752 199.871,133.129 200.719,135.088 C201.006,135.75 205.716,144.935 206.585,143.939 C216.805,132.225 234.97,129.651 247.084,140.071 C247.762,140.655 248.659,142.052 249.51,142.944 C249.623,147.864 250.661,153.004 252.23,157.617 C254.853,165.329 258.76,174.554 266.217,178.801 C271.709,181.928 278.561,182.605 284.761,182.456 C293.952,182.235 303.237,180.706 312.172,178.611 C320.427,176.675 329.199,173.049 337.819,174.419 C339.957,174.758 342.01,175.511 343.862,176.623 C344.257,176.86 344.65,177.211 345.042,177.591 C343.594,175.09 345.174,172.355 345.366,175.166 C345.431,176.12 345.592,177.057 345.619,178.015 C345.621,178.063 345.616,178.113 345.617,178.161 C346.268,178.819 346.916,179.467 347.566,179.758 C346.716,179.378 346.083,178.896 345.614,178.374 C345.655,181.323 345.198,184.305 344.601,187.18 C343.647,191.772 341.904,196.113 340.795,200.651 C339.637,205.392 340.925,209.66 342.612,214.137 C344.206,218.367 346.227,223.299 349.618,226.443 C352.065,228.714 355.257,229.175 358.487,229.369 C368.468,229.967 378.068,228.249 387.934,227.268 C392.266,226.837 396.719,226.994 400.496,229.401 C400.791,229.589 401.064,229.819 401.326,230.066 C402.009,246.052 388.926,259.336 388.427,275.244 C388.145,284.266 392.096,294.028 397.019,301.433 C400.726,307.01 405.673,309.697 412.234,310.523 C419.683,311.461 427.843,310.019 434.918,313.039 C436.148,313.564 437.168,314.31 438.237,315.032 C438.112,314.29 438.073,313.35 438.202,312.132 C438.102,313.075 438.65,314.436 438.82,315.41 C438.959,315.499 439.093,315.593 439.236,315.679 C441.066,316.791 439.96,317.889 439.019,316.903 C439.541,320.886 439.785,324.917 440.122,328.916 C441.858,349.529 445.942,370.078 458.144,387.313 C460.192,390.208 461.298,389.763 460.566,386.265 C459.615,381.714 457.391,376.509 454.694,372.698" id="Fill-13" fill="#231F1F" sketch:type="MSShapeGroup"></path>
                <path d="M147.624,265.566 C136.578,265.566 127.624,274.521 127.624,285.566 C127.624,296.612 136.578,305.566 147.624,305.566 C158.67,305.566 167.624,296.612 167.624,285.566 C167.624,274.521 158.67,265.566 147.624,265.566" id="Fill-14" fill="#231F1F" sketch:type="MSShapeGroup"></path>
                <path d="M339.412,340.233 C339.412,329.187 330.457,320.233 319.411,320.233 C308.365,320.233 299.411,329.187 299.411,340.233 C299.411,351.279 308.365,360.233 319.411,360.233 C330.457,360.233 339.412,351.279 339.412,340.233" id="Fill-15" fill="#231F1F" sketch:type="MSShapeGroup"></path>
                <path d="M253.823,457.603 C251.061,450.385 247.245,439.37 239.151,436.555 C232.484,434.235 225.566,436.968 220.352,441.212 C217.337,443.666 214.733,446.566 212.005,449.322 C210.677,450.663 209.309,452.263 207.682,453.305 C207.649,453.192 207.624,453.079 207.59,452.966 C205.641,446.557 202.594,439.393 197.915,434.436 C189.594,425.619 176.733,428.572 167.007,433.203 C161.859,435.654 157.089,438.833 152.823,442.614 C148.564,446.39 144.657,450.8 138.865,452.099 C125.884,455.011 116.084,443.844 108.803,434.929 C106.043,431.549 107.7,438.582 107.949,439.385 C109.316,443.796 111.289,448.626 114.245,452.244 C121.229,460.795 129.205,470.176 140.89,471.54 C153.173,472.972 160.225,461.274 169.6,455.497 C178.603,449.949 189.735,445.568 199.614,449.707 C199.634,451.233 199.758,452.739 200.095,454.277 C201.296,459.743 204.318,469.733 209.512,472.948 C214.196,475.847 218.539,470.315 221.474,467.311 C225.526,463.164 229.644,458.627 235.122,456.373 C237.408,455.432 239.883,454.889 242.359,454.91 C243.687,454.922 244.968,455.033 246.248,455.449 C246.613,455.568 249.082,457.051 249.555,457.23 C249.923,458.193 250.284,459.159 250.666,460.117 C252.171,463.89 253.77,467.626 255.564,471.273 C260.727,481.766 267.424,492.539 277.909,498.409 C288.074,504.1 299.275,503.309 308.974,497.057 C319.392,490.342 328.545,479.862 334.251,468.906 C341.43,455.121 338.815,442.347 332.446,428.768 C331.881,427.563 329.065,421.226 327.439,422.98 C326.402,424.099 328.168,428.526 329.668,431.793 C329.07,430.731 330.093,433.674 329.927,436.077 C329.789,438.085 329.385,440.086 328.855,442.024 C327.794,445.907 326.093,449.634 324.054,453.097 C319.93,460.101 314.408,466.341 308.409,471.799 C302.504,477.173 295.504,482.03 287.388,483.059 C279.202,484.096 271.166,480.774 265.021,475.485 C259.246,470.515 256.472,464.522 253.823,457.603 L253.823,457.603 Z M248.883,455.484 C248.971,455.728 249.072,455.967 249.162,456.21 C248.611,454.813 247.898,452.793 248.883,455.484 L248.883,455.484 Z" id="Fill-16" fill="#231F1F" sketch:type="MSShapeGroup"></path>
                <path d="M317.826,499.39 C301.342,526.038 268.732,549.586 236.152,538.238 C229.178,535.809 222.593,532.006 217.102,527.054 C214.542,524.746 212.654,522.066 210.465,519.459 C210.395,519.375 210.341,519.311 210.28,519.24 C210.073,518.148 209.839,516.102 209.775,515.243 C209.451,510.812 209.752,506.688 208.492,502.348 C206.963,497.083 204.728,491.634 201.56,487.129 C197.112,480.804 189.923,479.062 182.623,481.019 C172.989,483.601 165.3,488.524 154.931,487.29 C145.739,486.196 137.248,481.392 131.717,473.983 C129.083,470.454 130.643,477.731 130.863,478.439 C132.267,482.969 134.314,487.488 137.159,491.298 C147.087,504.598 164.429,510.094 180.048,504.275 C184.483,502.622 188.806,500.345 193.53,499.61 C195.24,499.344 197.005,499.265 198.724,499.505 C199.495,499.612 200.227,499.765 200.948,499.979 C201.012,500.696 201.078,501.411 201.183,502.126 C201.879,506.872 203.225,511.497 204.881,515.991 C210.843,532.169 221.077,546.662 236.82,554.439 C251.275,561.579 267.677,561.823 282.69,556.217 C301.089,549.347 315.923,535.078 326.13,518.576 C327.66,516.103 324.699,510.569 323.691,508.241 C323.401,507.571 318.339,498.56 317.826,499.39 L317.826,499.39 Z M210.444,519.891 C210.471,519.929 210.489,519.956 210.489,519.956 C210.475,519.949 210.46,519.925 210.444,519.891 L210.444,519.891 Z" id="Fill-17" fill="#231F1F" sketch:type="MSShapeGroup"></path>
                <path d="M574.425,199.094 C565.384,201.544 555.507,199.927 548.258,193.752 C547.66,193.243 547.127,192.676 546.588,192.115 C546.707,192.69 546.714,193.369 546.516,194.141 C546.656,193.593 546.604,192.835 546.493,192.018 C546.308,191.827 546.128,191.633 545.936,191.449 C543.707,189.299 545.687,189.589 546.422,191.548 C546.238,190.365 545.985,189.121 546.03,188.245 C546.281,183.351 548.163,178.764 549.696,174.172 C552.873,164.655 551.987,156.74 548.091,147.516 C544.895,139.95 540.402,130.248 530.72,131.268 C525.522,131.815 520.277,133.559 515.195,134.764 C509.452,136.126 503.708,137.488 497.963,138.849 C493.463,139.916 487.839,142.022 483.297,140.044 C483.225,140.013 483.154,139.972 483.083,139.933 C483.007,139.065 482.943,138.195 482.948,137.322 C483.087,115.951 489.085,95.432 482.305,74.4 C479.4,65.389 475.078,54.76 467.501,48.633 C459.752,42.365 448.877,44.503 439.887,46.174 C429.664,48.074 419.636,51.034 410.019,54.989 C401.137,58.643 391.085,65.227 381.056,63.32 C378.862,62.903 376.856,62.085 375.053,60.748 C374.847,60.596 374.655,60.423 374.468,60.244 C374.15,56.176 373.786,52.093 373.457,48.026 C372.583,37.218 369.072,26.567 363.323,17.357 C354.658,3.475 339.036,-0.533 323.453,0.311 C284.11,2.441 246.762,26.537 225.959,59.453 C224.415,61.897 227.4,67.483 228.398,69.788 C228.687,70.454 233.731,79.483 234.264,78.639 C253.308,48.505 285.03,27.046 320.198,20.901 C328.313,19.484 336.591,18.829 344.78,20.027 C352.433,21.146 358.155,23.955 363.783,28.605 C363.697,27.816 363.661,26.863 363.704,25.708 C363.671,26.593 364.117,27.963 364.238,28.906 C364.242,28.938 364.244,28.969 364.248,29 C364.693,29.377 365.138,29.738 365.584,30.138 C366.88,31.301 365.459,32.863 364.47,31.143 C364.598,32.605 364.685,34.072 364.773,35.536 C365.053,40.187 365.315,44.797 366.305,49.364 C368.407,59.068 372.6,70.441 379.773,77.586 C386.43,84.216 395.47,83.461 403.691,80.463 C413.89,76.742 423.42,71.767 433.912,68.74 C443.282,66.036 453.856,63.215 463.688,63.643 C466.198,63.752 468.689,64.164 470.986,65.231 C473.079,66.202 474.208,67.826 475.951,69.033 C476.118,69.928 476.265,70.787 476.266,70.793 C476.715,73.58 476.889,76.429 476.939,79.249 C477.299,99.597 470.12,120.026 477.52,139.826 C480.305,147.278 484.718,158.638 493.853,159.89 C498.557,160.535 503.656,158.655 508.183,157.581 C513.927,156.22 519.671,154.858 525.415,153.496 C530.176,152.367 537.151,149.441 542.35,150.434 C542.196,151.246 542.02,152.061 541.786,152.89 C540.365,157.935 538.088,162.735 537.344,167.961 C536.657,172.775 537.221,177.642 538.412,182.328 C543.614,202.801 558.753,224.776 582.73,218.28 C584.492,217.802 577.927,198.145 574.425,199.094 L574.425,199.094 Z M475.492,67.04 C475.561,67.055 475.75,67.967 475.924,68.887 C474.736,67.952 473.146,66.526 475.492,67.04 L475.492,67.04 Z" id="Fill-18" fill="#231F1F" sketch:type="MSShapeGroup"></path>
                <path d="M363.783,28.605 C363.917,29.814 364.174,30.626 364.47,31.143 C364.409,30.427 364.338,29.713 364.248,29 C364.093,28.87 363.938,28.733 363.783,28.605" id="Fill-19" fill="#231F1F" sketch:type="MSShapeGroup"></path>
                <path d="M546.588,192.115 C546.546,191.912 546.488,191.725 546.422,191.548 C546.447,191.706 546.472,191.864 546.493,192.018 C546.524,192.051 546.556,192.083 546.588,192.115" id="Fill-20" fill="#231F1F" sketch:type="MSShapeGroup"></path>
                <path d="M505.442,438.251 C505.86,434.259 506.812,430.332 507.937,426.486 C510.436,417.95 513.969,409.682 518.472,402.01 C522.318,395.457 527.086,389.358 529.965,382.275 C536.065,367.267 529.638,350.279 522.141,336.979 C518.405,330.353 513.833,324.291 508.388,318.976 C506.033,316.677 503.567,314.499 500.971,312.475 C500.321,311.968 499.657,311.483 498.99,311 C500.245,306.351 502.493,301.589 503.863,297.757 C506.37,290.746 509.213,283.887 512.1,277.027 C517.185,264.948 521.009,252.915 517.18,239.91 C513.552,227.585 507.021,215.382 495.111,209.511 C484.607,204.333 472.827,203.844 461.606,201.211 C451.581,198.858 440.265,193.832 436.529,183.424 C432.343,171.762 429.697,159.724 424.94,148.228 C415.504,125.423 401.105,103.219 376.916,94.454 C346.923,83.586 315.251,92.818 286.09,101.771 C284.143,102.369 291.105,121.967 294.395,120.957 C329.758,110.1 375.1,97.694 405.74,126.478 C417.982,137.979 422.582,152.283 427.164,167.908 C431.866,183.946 438.434,203.738 452.923,213.65 C467.913,223.904 487.709,220.621 503.488,229.062 C505.15,229.951 506.762,230.96 508.253,232.115 C508.422,232.246 509.152,232.997 509.935,233.806 C509.944,234.6 509.96,235.39 509.905,236.203 C509.737,238.683 509.246,241.152 508.647,243.56 C506.221,253.296 501.546,262.353 497.924,271.668 C496.095,276.375 494.379,281.125 492.781,285.915 C491.244,290.517 489.008,295.567 489.06,300.488 C489.16,309.988 495.1,321.46 502.55,327.305 C509.517,332.772 516.415,337.813 521.598,345.163 C522.11,345.888 522.825,347.522 523.021,347.692 C523.122,348.214 523.227,348.714 523.231,348.698 C523.378,349.637 523.465,350.632 523.501,351.572 C523.673,356.169 522.523,360.748 520.711,364.941 C516.441,374.818 509.315,383.238 504.783,393.042 C500.187,402.988 496.261,414.133 496.274,425.208 C496.292,439.641 509.041,474.288 529.514,464.42 C532.182,463.134 523.501,444.129 521.208,445.234 C515.201,448.13 510.046,446.273 505.214,442.761 C505.187,441.255 505.285,439.748 505.442,438.251 L505.442,438.251 Z M512.163,236.008 C511.929,236.075 511.712,235.829 511.513,235.417 C511.875,235.778 512.13,236.017 512.163,236.008 L512.163,236.008 Z" id="Fill-21" fill="#231F1F" sketch:type="MSShapeGroup"></path>
                <path d="M29.2,199.538 C32.245,201.703 30.621,196.897 30.054,195.082 C20.142,163.332 14.193,130.225 12.759,96.979 C12.136,82.533 12.894,65.807 22.129,53.868 C29.159,44.781 42.1,38.048 53.722,41.233 C65.796,44.543 69.84,58.149 79.869,64.423 C89.573,70.494 99.792,66.39 107.214,59.032 C114.265,52.04 119.515,43.17 127.593,37.227 C137.889,29.651 151.421,31.651 159.574,41.6 C159.904,42.004 160.868,43.624 160.86,43.375 C161.394,44.84 161.667,46.486 161.981,47.982 C162.811,51.928 163.265,55.935 163.843,59.922 C165.162,69.026 167.505,77.771 171.517,86.085 C174.612,92.498 178.504,99.385 185.228,102.522 C190.859,105.15 197.65,105.237 202.073,100.416 C203.841,98.489 200.459,91.987 199.634,90.081 C199.344,89.411 194.693,80.221 193.769,81.23 C189.663,85.705 183.484,86.093 178.131,83.627 C176.794,83.012 175.451,82.238 174.32,81.283 C174.215,81.195 174.025,80.976 173.815,80.739 C173.545,79.683 173.172,78.533 173.095,78.068 C172.757,76.01 172.496,73.94 172.21,71.874 C169.986,55.848 165.428,39.25 155.559,26.124 C148.148,16.265 135.302,9.488 123.34,15.514 C114.285,20.076 108.517,29.257 101.953,36.61 C94.902,44.509 84.783,52.038 73.905,46.193 C62.952,40.307 59.314,26.055 46.625,22.338 C35.176,18.986 22.705,24.429 15.107,33.114 C5.46,44.142 3.6,59.763 3.681,73.836 C3.896,111.906 11.594,150.451 22.904,186.679 C24.054,190.364 25.906,197.196 29.2,199.538 L29.2,199.538 Z M174.088,82.548 C174.09,82.526 174.091,82.499 174.093,82.474 C174.093,82.499 174.09,82.524 174.088,82.548 L174.088,82.548 Z" id="Fill-22" fill="#231F1F" sketch:type="MSShapeGroup"></path>
                <path d="M60.404,416.382 C44.436,392.747 29.48,368.218 16.727,342.685 C5.978,321.161 7.187,296.473 18.498,275.271 C24.165,264.646 32.527,256.639 41.281,248.586 C48.857,241.619 56.918,234.073 60.367,224.084 C68.311,201.076 42.86,179.684 56.159,157.639 C72.755,130.127 108.738,136.041 134.223,144.533 C136.582,145.319 133.69,137.614 133.431,136.921 C132.5,134.433 130.155,126.648 127.126,125.639 C102.324,117.374 70.259,111.088 51.06,134.01 C43.176,143.422 41.59,154.61 44.31,166.356 C47.121,178.489 55.366,190.583 52.215,203.386 C49.321,215.15 39.372,223.532 30.822,231.373 C21.656,239.779 13.644,248.611 8.184,259.913 C-4.245,285.642 -0.477,313.31 10.69,338.705 C24.902,371.024 44.127,401.799 63.853,430.997 C65.867,433.979 66.994,433.383 66.276,429.948 C65.31,425.325 63.049,420.297 60.404,416.382" id="Fill-23" fill="#231F1F" sketch:type="MSShapeGroup"></path>
            </g>
        </g>
    </g>
</svg>