<?xml version="1.0" encoding="UTF-8" standalone="no"?>
<svg width="595px" height="842px" viewBox="0 0 595 842" version="1.1" xmlns="http://www.w3.org/2000/svg" xmlns:xlink="http://www.w3.org/1999/xlink" xmlns:sketch="http://www.bohemiancoding.com/sketch/ns">
    <!-- Generator: Sketch 3.3.3 (12072) - http://www.bohemiancoding.com/sketch -->
    <title>coatandhat copy</title>
    <desc>Created with Sketch.</desc>
    <defs></defs>
    <g id="pictures" stroke="none" stroke-width="1" fill="none" fill-rule="evenodd" sketch:type="MSPage">
        <g id="coatandhat-copy" sketch:type="MSArtboardGroup">
            <g id="Imported-Layers" sketch:type="MSLayerGroup" transform="translate(-26.000000, 16.000000)">
                <path d="M211.34,73.741 C225.313,76.72 239.115,80.427 252.66,84.978 C251.483,84.581 250.306,84.184 249.128,83.787 C290.438,97.852 337.757,122.197 349.154,168.15 C354.255,188.716 352.352,211.62 361.539,231.047 C372.859,254.984 399.998,268.785 423.123,278.87 C454.376,292.5 487.636,300.679 519.878,311.526 C518.701,311.129 517.524,310.732 516.347,310.335 C525.094,313.306 533.763,316.484 542.292,320.038 C548.565,322.651 556.276,318.667 561.923,316.192 C575.247,310.355 588.488,302.116 600.368,293.839 C612.446,285.424 624.844,276.685 635.104,266.073 C636.55,264.577 649.78,250.823 645.784,249.158 C615.679,236.615 583.969,228.63 553.113,218.237 C554.29,218.634 555.467,219.031 556.644,219.428 C530.129,210.412 501.966,199.479 480.761,180.589 C472.573,173.295 466.12,164.414 462.53,154.005 C459.278,144.581 458.286,134.585 457.157,124.737 C454.596,102.397 450.25,81.398 435.649,63.6 C421.37,46.196 401.673,33.823 381.472,24.39 C358.07,13.462 332.996,5.858 307.77,0.48 C303.771,0.889 299.967,1.956 296.355,3.68 C290.755,5.712 285.372,8.233 280.207,11.243 C266.183,18.757 252.257,27.874 239.695,37.62 C230.023,45.125 218.783,52.967 211.68,63.047 C210.444,64.974 209.21,66.901 207.975,68.827 C206.632,72.153 207.754,73.791 211.34,73.741" id="Fill-1" fill="#0066FF" sketch:type="MSShapeGroup"></path>
                <path d="M116.313,87.549 C119.947,125.865 150.068,155.958 178.843,178.44 C193.632,189.996 209.352,200.32 225.429,209.986 C243.606,220.915 262.875,230.114 280.589,241.788 C300.443,254.872 315.157,272.19 326.264,293.128 C337.041,313.444 344.459,335.352 350.821,357.389 C356.67,377.648 361.511,398.265 368.926,418.036 C376.42,438.016 387,456.521 401.186,472.52 C416.086,489.325 434.828,500.818 453.309,513.205 C470.993,525.056 488.555,538.473 497.294,558.526 C499.275,563.071 516.915,554.685 516.926,554.68 C530.249,548.843 543.49,540.604 555.37,532.328 C567.449,523.912 579.847,515.173 590.106,504.561 C593.404,501.15 603.197,493.178 600.787,487.646 C584.911,451.221 543.029,437.818 515.333,412.577 C499.601,398.24 487.043,380.248 478.153,360.966 C469.514,342.231 464.217,322.21 458.761,302.383 C446.961,259.496 433.334,210.873 397.898,181.111 C380.353,166.374 359.224,156.794 339.535,145.37 C323.796,136.237 308.315,126.62 293.55,115.97 C260.705,92.28 223.883,59.659 219.806,16.67 C219.357,11.936 198.414,21.286 200.174,20.515 C186.851,26.352 173.61,34.592 161.73,42.868 C149.652,51.283 137.254,60.022 126.994,70.634 C122.667,75.11 115.666,80.72 116.313,87.549" id="Fill-2" fill="#F9E064" sketch:type="MSShapeGroup"></path>
                <path d="M48.983,113.825 C42.785,131.741 55.753,148.446 67.427,160.554 C81.784,175.444 98.602,187.814 115.297,199.921 C131.641,211.773 147.128,224.615 162.437,237.781 C182.147,254.731 201.332,272.797 216.32,294.171 C233.94,319.301 243.483,348.051 242.23,378.86 C242.285,377.62 242.341,376.379 242.396,375.138 C240.727,407.229 230.052,438.633 235.044,470.979 C240.283,504.923 245.184,538.981 251.038,572.826 C254.39,592.209 258.326,611.487 263.306,630.522 C264.529,635.197 283.82,626.29 282.938,626.677 C296.26,620.839 309.502,612.6 321.382,604.324 C333.46,595.909 345.858,587.17 356.118,576.557 C359.913,572.632 368.428,565.869 366.799,559.643 C358.894,529.429 353.722,498.63 349.063,467.775 C346.761,452.528 344.561,437.266 342.157,422.035 C339.774,406.943 336.791,392.201 337.292,376.845 C337.237,378.086 337.181,379.327 337.125,380.568 C338.681,345.721 350.478,311.939 343.556,276.872 C337.94,248.423 322.141,223.551 302.943,202.281 C283.364,180.587 260.496,162.224 238.08,143.6 C222.885,130.975 206.136,120.335 190.851,107.792 C180.717,99.477 170.785,90.595 162.65,80.266 C156.487,72.439 150.627,62.956 151.073,52.622 C151.018,53.862 150.963,55.103 150.908,56.344 C151.067,54.29 151.47,52.338 152.143,50.391 C154.584,43.335 145.104,45.996 142.05,46.843 C130.555,50.028 118.119,57.591 108.216,63.775 C94.583,72.289 81.087,81.416 68.981,92.015 C65.82,94.888 62.658,97.76 59.497,100.633 C55.219,104.434 51.714,108.832 48.983,113.825" id="Fill-3" fill="#FF4621" sketch:type="MSShapeGroup"></path>
                <path d="M0.819,185.044 C14.553,222.491 40.368,252.958 67.955,281.059 C96.532,310.168 126.497,337.878 150.103,371.396 C157.491,381.886 164.254,392.866 169.745,404.475 C175.043,415.673 179.611,427.414 179.272,439.981 C179.328,438.74 179.383,437.499 179.438,436.258 C178.763,448.728 174.66,460.703 173.952,473.201 C173.255,485.516 174.292,497.59 177.149,509.596 C183.002,534.192 194.62,557.166 207.252,578.907 C219.586,600.137 233.43,620.419 246.443,641.227 C261.492,665.289 274.594,690.55 286.739,716.183 C301.229,746.765 314.305,777.988 327.803,809.013 C329.781,813.559 347.427,805.171 347.434,805.168 C360.758,799.331 373.999,791.091 385.878,782.815 C397.957,774.4 410.355,765.661 420.615,755.049 C423.914,751.635 433.703,743.668 431.295,738.134 C409.657,688.396 388.932,638.145 362.148,590.875 C340.201,552.143 312.648,516.692 293.978,476.099 C283.904,454.194 276.225,430.42 277.278,406.045 C277.223,407.286 277.168,408.526 277.112,409.767 C277.754,398.669 281.019,388.089 282.262,377.096 C283.76,363.848 281.247,352.197 276.107,340.009 C266.201,316.516 250.965,295.521 234.684,276.067 C205.925,241.704 171.036,213.066 142.519,178.494 C126.533,159.112 112.991,137.83 104.312,114.165 C102.623,109.562 84.343,118.158 84.68,118.01 C71.357,123.848 58.116,132.087 46.236,140.363 C34.157,148.778 21.759,157.517 11.5,168.13 C8.014,171.735 -1.311,179.237 0.819,185.044" id="Fill-4" fill="#64E078" sketch:type="MSShapeGroup"></path>
                <path d="M199.91,142.016 C199.037,142.277 198.163,142.576 197.4,143.073 C196.443,143.695 195.708,144.595 194.936,145.435 C189.48,151.371 181.805,154.634 174.62,158.289 C167.434,161.944 160.138,166.557 156.701,173.85 C155.599,176.188 155.103,179.346 157.045,181.052 C158.539,182.364 160.788,182.186 162.749,181.855 C178.333,179.222 193.035,171.607 204.177,160.398 C209.106,155.439 213.582,149.047 212.912,142.087 C208.872,140.273 204.152,140.744 199.91,142.016 L199.91,142.016 Z M155.748,179.5 C155.748,183.093 155.747,186.686 155.747,190.278 C155.747,191.574 155.794,193.001 156.666,193.96 C157.193,194.542 157.948,194.856 158.684,195.13 C168.926,198.945 180.477,198.292 190.843,194.824 C201.207,191.356 210.503,185.233 218.944,178.29 C223.298,174.708 227.615,170.664 229.499,165.35 C230.934,161.303 230.82,156.895 230.688,152.604 C230.646,151.252 230.6,149.877 230.173,148.594 C229.618,146.928 228.425,145.417 228.448,143.661 C228.457,142.969 228.657,142.258 228.448,141.599 C228.061,140.383 226.553,139.994 225.281,139.878 C222.015,139.578 218.703,139.791 215.502,140.508 L155.748,179.5 Z M154.35,194.466 C150.442,202.54 141.774,206.974 133.686,210.85 C128.156,213.5 122.626,216.15 117.097,218.8 C113.189,220.673 109.27,222.552 105.636,224.911 C93.022,233.096 84.419,247.18 82.896,262.14 C82.393,267.074 82.62,272.055 83.092,276.992 L154.35,194.466 Z M170.609,249.912 C170.575,251.422 172.54,252.007 174.047,252.113 C177.725,252.373 182.024,252.949 183.827,256.165 C185.311,258.814 184.37,262.202 182.741,264.764 C181.112,267.327 178.851,269.466 177.417,272.143 C175.982,274.819 175.574,278.427 177.606,280.683 C179.926,283.259 183.992,282.812 187.433,282.389 C190.875,281.965 195.164,282.215 196.704,285.322 C197.894,287.72 196.74,290.599 195.342,292.883 C193.943,295.167 192.228,297.501 192.279,300.178 C192.347,303.695 195.683,306.518 199.168,306.987 C202.653,307.456 206.139,306.066 209.132,304.219 C211.01,303.061 212.79,301.693 214.144,299.951 C216.153,297.366 217.106,294.122 218.82,291.332 C220.536,288.543 223.553,286.064 226.777,286.64 C229.289,287.088 231.104,289.221 232.696,291.216 C233.738,292.521 234.78,293.827 235.823,295.133 C236.929,296.519 238.165,297.991 239.892,298.4 C242.74,299.074 245.423,296.446 246.292,293.651 C247.161,290.855 246.867,287.835 247.397,284.956 C248.216,280.507 251.113,276.485 255.073,274.299 C259.711,271.738 265.338,271.728 270.257,269.76 L170.609,249.912 Z M284.054,284.814 C281.291,291.561 276.118,297.292 269.689,300.731 C266.26,302.565 262.02,304.313 261.185,308.111 C260.827,309.739 261.212,311.425 261.503,313.067 C262.749,320.112 261.615,328.553 255.582,332.399 C251.66,334.9 246.705,334.804 242.086,335.354 C237.467,335.904 232.324,337.7 230.613,342.025 C229.736,344.241 229.94,346.751 229.202,349.018 C227.108,355.454 218.423,357.204 211.995,355.083 C205.567,352.961 200.29,348.286 194.06,345.64 C184.762,341.689 174.027,342.581 164.379,345.581 C157.399,347.751 150.594,351.005 143.29,351.287 C135.984,351.57 127.765,347.704 126.185,340.566 C125.218,336.198 126.907,331.745 128.113,327.436 C129.318,323.127 129.928,318.095 127.221,314.532 C125.666,312.486 123.25,311.282 120.827,310.427 C111.843,307.253 102.034,307.992 92.513,307.632 C89.108,307.504 85.572,307.188 82.64,305.454 C77.182,302.224 75.422,294.819 76.873,288.645 C78.323,282.471 82.275,277.231 86.13,272.195 L284.054,284.814 Z M224.525,137.463 C230.639,136.562 235.14,131.343 238.422,126.107 C241.703,120.871 244.55,115.055 249.604,111.501 C255.817,107.132 264.006,107.114 271.591,107.501 C274.572,107.653 277.617,107.856 280.368,109.015 C283.118,110.173 285.566,112.476 286.095,115.413 C287.021,120.536 282.214,126.472 285.479,130.527 C286.385,131.654 287.755,132.306 289.132,132.748 C298.449,135.74 308.288,130.557 316.383,125.059 C324.48,119.561 333.129,113.271 342.899,113.847 C344.383,113.934 345.917,114.209 347.115,115.087 C349.554,116.875 349.755,120.533 348.758,123.386 C347.76,126.24 345.851,128.695 344.733,131.504 C343.614,134.313 343.485,137.905 345.677,139.987 C346.474,140.745 347.498,141.22 348.54,141.574 C356.033,144.116 364.088,140.811 371.526,138.113 C378.964,135.415 387.899,133.48 394.283,138.155 C400.517,142.719 401.478,151.43 404.428,158.572 C406.926,164.621 411.183,169.931 416.544,173.685 L224.525,137.463 Z M278.959,172.228 C279.837,175.703 280.74,179.241 282.631,182.285 C284.523,185.33 287.596,187.857 291.166,188.176 C294.909,188.509 298.382,186.449 301.764,184.811 C305.147,183.173 309.272,181.931 312.537,183.79 C316.178,185.863 316.971,190.688 319.338,194.144 C321.446,197.222 325.013,199.253 328.735,199.496 C332.968,199.773 337.008,197.887 340.829,196.046 C345.292,193.896 349.755,191.745 354.218,189.595 C358.355,187.602 363.273,185.605 367.339,187.739 C372.59,190.496 372.703,197.996 376.24,202.756 C379.878,207.653 387.356,208.923 392.696,205.974 C397.892,203.105 401.265,196.949 407.097,195.846 C413.231,194.686 418.65,199.671 422.903,204.242 L278.959,172.228 Z M271.087,269.356 C275.237,265.94 279.181,262.273 282.89,258.384 L271.087,269.356 Z M284.296,283.288 C284.683,281.26 285.641,279.344 287.03,277.816 C287.491,277.308 287.998,276.844 288.503,276.38 C290.549,274.507 292.593,272.633 294.638,270.759 L284.296,283.288 Z M272.515,270.829 C274.853,270.499 277.097,269.523 278.933,268.038 C281.724,265.779 283.461,262.492 284.973,259.235 L272.515,270.829 Z M281.64,280.546 C283.051,276.632 288.367,275.491 290.305,271.811 C290.794,270.884 291.096,269.767 291.979,269.205 L281.64,280.546 Z M276.008,272.679 C279.67,272.329 283.053,269.857 284.5,266.475 C285.017,265.266 285.308,263.948 286.025,262.845 C286.618,261.932 287.492,261.205 288.497,260.788 L276.008,272.679 Z M279.225,275.916 C281.864,274.646 284.198,272.746 285.977,270.419 C287.634,268.251 288.865,265.672 291.066,264.06 L279.225,275.916 Z M418.891,174.096 C420.347,175.423 421.928,176.616 423.604,177.653 C424.575,178.253 425.579,178.802 426.627,179.253 C427.405,179.588 428.207,179.868 428.994,180.182 C432.672,181.647 436.052,183.855 438.871,186.634 L418.891,174.096 Z" id="Stroke-5" stroke="#231F1F" sketch:type="MSShapeGroup"></path>
                <path d="M424.637,204.912 C428.778,206.66 432.466,209.306 436.117,211.93 C439.069,214.053 442.022,216.176 444.975,218.299 L424.637,204.912 Z M441.272,187.465 C441.972,189.988 444.535,191.478 445.985,193.658 C446.383,194.256 446.696,194.907 447.099,195.502 C447.736,196.442 448.579,197.219 449.396,198.008 C452.56,201.065 455.432,204.424 457.96,208.025 L441.272,187.465 Z M426.563,202.877 C431.666,205.123 436.44,208.114 440.687,211.726 C441.832,212.699 443.023,213.759 444.503,214.011 L426.563,202.877 Z M439.444,190.309 C442.238,193.325 445.049,196.359 448.316,198.855 C449.128,199.475 449.969,200.063 450.705,200.77 C451.641,201.67 452.389,202.744 453.129,203.811 C454.309,205.507 455.501,207.228 456.216,209.166 L439.444,190.309 Z M430.046,200.861 C431.265,202.513 432.836,203.904 434.623,204.914 C437.507,206.544 440.95,207.206 443.478,209.348 C445.252,210.851 446.402,212.944 447.5,214.994 L430.046,200.861 Z M437.684,193.313 C439.758,195.929 442.23,198.229 444.99,200.107 C446.101,200.864 447.282,201.573 448.114,202.629 C449.096,203.875 449.489,205.468 450.027,206.96 C450.566,208.452 451.368,209.985 452.791,210.686 L437.684,193.313 Z M436.394,196.246 C436.591,196.955 437.416,197.238 438.099,197.513 C439.675,198.147 441.003,199.268 442.238,200.435 C445.8,203.805 448.839,207.726 451.213,212.017 L436.394,196.246 Z M433.164,199.156 C434.545,201.417 436.929,202.829 439.141,204.289 C441.651,205.946 444.046,207.77 446.44,209.593 C447.163,210.143 447.886,210.694 448.609,211.245 C449.37,211.824 450.204,212.543 450.205,213.499 L433.164,199.156 Z M459.18,209.053 C457.874,209.837 456.569,210.622 455.265,211.406 C452.778,212.901 450.275,214.404 447.555,215.414 C447.094,215.585 446.611,215.753 446.265,216.101 C445.862,216.505 445.708,217.087 445.569,217.64 C445.333,218.58 445.147,219.717 445.837,220.399 C446.619,221.029 447.768,220.771 448.716,220.44 C451.392,219.504 453.946,218.223 456.297,216.639 C457.378,215.911 458.445,215.088 459.091,213.956 C459.737,212.824 459.874,211.315 459.113,210.257 C458.5,209.403 460.081,208.511 459.18,209.053 L459.18,209.053 Z M281.37,257.868 C284.252,256.016 288.436,256.502 290.766,259.014 C291.743,260.067 292.381,261.381 293.015,262.669 C294.72,266.135 296.494,269.566 298.334,272.962 L281.37,257.868 Z M349.988,197.144 C353.722,197.875 357.312,199.336 360.495,201.42 C361.169,201.861 361.883,202.421 361.989,203.22 C362.087,203.951 361.639,204.633 361.188,205.217 C359.725,207.108 357.987,208.817 356.888,210.94 C355.788,213.064 355.452,215.808 356.841,217.755 C358.007,219.39 360.068,220.076 361.988,220.665 C367.789,222.443 373.59,224.221 379.39,225.999 C380.35,226.293 381.333,226.599 382.129,227.211 C384.473,229.012 384.293,232.584 383.523,235.439 C382.753,238.294 381.633,241.384 382.819,244.092 C383.807,246.349 386.203,247.702 388.609,248.236 C391.014,248.771 393.51,248.644 395.967,248.824 C399.535,249.085 403.054,250.004 406.295,251.521 C409.067,252.819 411.778,254.724 412.914,257.568 C414.249,260.912 413.117,264.663 412.235,268.154 C411.369,271.581 410.753,275.072 410.395,278.588 C410.232,280.19 410.13,281.852 410.672,283.367 C411.291,285.093 412.676,286.428 414.127,287.549 C420.444,292.429 428.499,294.33 436.283,296.105 C435.431,304.762 431.212,313.043 424.71,318.821 C423.061,320.286 421.238,321.636 420.092,323.521 C418.32,326.441 418.494,330.218 419.722,333.406 C420.949,336.593 423.108,339.32 425.235,341.992 L349.988,197.144 Z M171.387,347.492 C168.909,350.143 166.251,353.795 167.844,357.056 C168.737,358.882 170.723,359.883 172.635,360.575 C175.745,361.7 179.027,362.35 182.332,362.494 C184.087,362.57 186.502,363.169 186.322,364.917 C186.235,365.746 185.52,366.347 184.869,366.869 C182.578,368.706 180.419,370.707 178.414,372.853 C176.913,374.46 175.431,376.304 175.257,378.496 C174.969,382.101 178.422,385.044 181.946,385.858 C185.47,386.672 189.147,386.029 192.763,386.118 C193.165,386.128 193.599,386.16 193.905,386.421 C194.377,386.823 194.325,387.553 194.233,388.166 C193.943,390.077 193.655,391.988 193.366,393.899 C193.118,395.534 192.879,397.254 193.458,398.804 C194.439,401.433 197.434,402.71 200.208,403.136 C202.982,403.561 205.898,403.445 208.471,404.567 L171.387,347.492 Z M211.538,404.655 C222.019,409.624 234.412,409.11 245.549,405.867 C256.686,402.624 266.888,396.861 277.149,391.451 C291.33,383.974 306.054,377.011 321.847,374.251 C332.981,372.304 344.361,372.498 355.662,372.257 C368.86,371.975 382.201,371.062 394.79,367.087 C407.379,363.113 419.28,355.802 426.671,344.863 L211.538,404.655 Z M211.004,407.932 C210.78,408.838 211.191,409.791 211.769,410.523 C212.348,411.255 213.091,411.841 213.695,412.552 C214.927,414.003 215.507,415.882 216.057,417.704 C216.66,419.7 217.263,421.696 217.866,423.693 L211.004,407.932 Z M427.808,347.748 C427.732,354.917 427.619,362.086 427.47,369.255 L427.808,347.748 Z M218.902,425.923 C238.658,429.749 259.622,427.057 277.77,418.363 C283.71,415.518 289.343,412.057 295.336,409.329 C313.628,401.004 334.235,399.903 353.957,396.039 C371.558,392.59 388.624,386.884 405.632,381.194 C414.193,378.33 423.369,375.013 428.417,367.53 L218.902,425.923 Z M216.853,410.259 C217.151,415.383 219.102,420.398 222.346,424.376 L216.853,410.259 Z M226.408,421.704 C223.92,418.12 226.832,412.756 224.653,408.976 L226.408,421.704 Z M230.682,410.758 C230.88,412.877 232.003,414.785 233.137,416.587 C234.773,419.186 236.492,421.733 238.289,424.224 L230.682,410.758 Z M243.961,423.094 C242.398,421.933 241.554,420 241.295,418.07 C241.036,416.139 241.293,414.181 241.551,412.25 L243.961,423.094 Z M248.974,408.457 C248.259,409.043 248.167,410.092 248.215,411.016 C248.399,414.523 249.828,417.952 252.188,420.552 L248.974,408.457 Z M258.493,419.246 C258.084,416.496 257.674,413.723 257.825,410.947 C257.977,408.171 258.733,405.356 260.44,403.162 L258.493,419.246 Z M265.57,402.162 C266.686,404.582 267.827,407.042 269.595,409.036 C271.364,411.03 273.884,412.528 276.548,412.434 L265.57,402.162 Z" id="Stroke-6" stroke="#231F1F" sketch:type="MSShapeGroup"></path>
                <path d="M281.811,409.472 C279.736,404.971 279.405,399.693 280.899,394.968 M285.519,396.967 C289.396,399.12 293.273,401.274 297.151,403.428 M307.71,403.007 C307.125,399.364 306.689,395.696 306.404,392.018 C306.289,390.545 306.202,389.045 306.544,387.609 C306.912,386.07 307.772,384.56 307.473,383.006 M311.459,387.274 C313.111,389.638 315.471,391.397 317.788,393.113 C320.681,395.255 323.573,397.397 326.466,399.539 M330.531,389.007 C331.663,383.95 333.663,379.088 336.416,374.697 M338.049,376.216 C341.519,381.276 345.727,385.829 350.5,389.685 C353.108,391.792 356.142,393.775 359.494,393.686 M368.173,388.696 C370.896,384.783 373.787,380.986 376.833,377.319 M382.215,371.784 C386.718,376.446 393.586,378.697 399.975,377.606 M411.688,364.308 C411.947,362.788 412.212,361.248 412.848,359.844 C413.484,358.439 414.544,357.16 415.978,356.593 M419.998,355.5 C419.516,359.561 422.18,363.78 426.054,365.09 M450.08,436.704 C440.119,450.953 423.414,459.261 406.433,462.988 C389.45,466.714 371.888,466.409 354.507,466.799 C338.346,467.161 322.198,468.138 306.111,469.728 C283.971,471.917 261.404,475.442 241.896,486.14 C240.701,486.796 239.42,487.598 239.033,488.905 C238.442,490.899 240.209,492.759 241.853,494.033 C263.7,510.97 292.891,514.979 320.533,514.752 C348.176,514.525 375.965,510.687 403.355,514.425 C415.378,516.065 427.918,519.111 439.358,515.068 C449.659,511.427 457.269,502.6 467.041,497.714 C476.295,493.086 487.074,492.198 496.305,487.524 C506.273,482.476 513.877,472.969 516.61,462.134 C517.571,458.324 517.91,454.108 516.1,450.62 C513.809,446.208 508.721,444.079 503.909,442.83 C498.111,441.326 492.113,440.592 486.124,440.654 C480.977,440.708 475.737,441.336 470.746,440.077 C466.827,439.088 463.272,436.979 459.387,435.863 C455.502,434.746 450.837,434.842 447.985,437.708 M522.848,455.899 C527.953,457.298 530.536,463.175 530.684,468.466 C530.833,473.758 529.277,478.98 529.351,484.273 C529.555,498.894 541.897,511.106 542.689,525.707 C543.548,541.551 530.604,556.862 535.145,572.066 C537.114,578.659 542.081,583.837 546.087,589.432 C550.093,595.027 553.323,602.114 551.144,608.641 C550.06,611.888 547.764,614.559 545.949,617.461 C540.671,625.903 539.542,636.809 542.979,646.153 C544.801,651.107 547.793,655.557 549.714,660.472 C553.426,669.976 552.805,681.078 548.055,690.108 M237.96,497.848 C229.025,505.491 223.197,516.667 222.044,528.369 C221.62,532.669 221.793,537.075 220.575,541.222 C218.975,546.676 215.117,551.169 211.01,555.098 C200.284,565.357 186.85,573.413 179.738,586.439 C172.538,599.628 173.132,615.482 172.949,630.508 C172.765,645.534 171.068,661.86 160.746,672.781 C153.133,680.838 140.773,686.408 139.733,697.444 M147.659,699.972 C186.231,687.541 228.207,694.222 267.602,703.723 C275.371,705.597 283.252,707.633 290.06,711.818 C296.868,716.004 302.56,722.721 303.596,730.646 C301.98,740.205 294.293,747.887 285.467,751.899 C276.642,755.912 266.751,756.815 257.067,757.257 C234.559,758.286 211.952,757.128 189.667,753.805 C180.156,752.386 170.459,750.483 162.265,745.448 C148.235,736.826 140.638,718.883 144.212,702.808 M302.829,724.437 C310.27,721.35 317.956,718.097 323.432,712.19 C328.909,706.283 331.54,696.924 327.382,690.025 C326.668,688.842 325.748,687.668 325.72,686.286 C325.685,684.494 327.149,683.064 328.539,681.931 C333.22,678.111 338.371,674.867 343.838,672.296 C348.747,669.987 354.016,668.151 358.073,664.551 C363.995,659.295 366.417,650.43 363.99,642.893 C374.097,642.368 384.204,641.843 394.311,641.317 C404.363,640.795 415.715,639.629 421.906,631.692 M385.729,656.758 C393.745,657.154 397.26,667.712 395.213,675.472 C393.166,683.233 387.864,689.91 386.34,697.79 C386.061,699.23 385.907,700.714 385.329,702.061 C382.885,707.75 373.444,710.641 375.242,716.565 C376.503,720.721 382.934,721.954 383.429,726.269 C384.125,732.338 372.28,735.695 375.01,741.16 C375.821,742.783 377.78,743.65 378.423,745.347 C379.063,747.034 378.184,748.871 377.897,750.653 C377.093,755.641 381.115,760.23 385.614,762.53 C390.113,764.83 395.245,765.662 399.763,767.923 C406.64,771.365 411.539,777.813 418.069,781.876 C425.807,786.692 435.238,787.818 444.34,788.302 C455.477,788.893 466.641,788.7 477.786,788.292 C500.689,787.454 525.434,784.949 542.416,769.56 C546.445,765.908 549.964,761.5 551.622,756.321 C553.297,751.093 552.976,745.46 552.568,739.984 C551.419,724.572 549.714,709.2 547.459,693.91 M290.599,520.216 C280.729,530.079 270.858,539.941 260.987,549.804 C256.926,553.863 252.803,557.968 247.839,560.855 C242.165,564.155 235.669,565.704 229.28,567.21 C223.473,568.579 217.667,569.948 211.86,571.318 M522.635,477.451 C521.073,484.174 519.503,491.112 520.658,497.917 C522.417,508.283 530.276,516.977 531.343,527.437 C532.024,534.11 529.846,540.707 527.698,547.062 M445.015,518.54 C449.848,519.169 454.803,518.854 459.518,517.616 C460.646,527.776 454.968,537.762 456.009,547.932 C456.657,554.251 459.884,560.404 458.788,566.661 C457.206,575.686 447.095,581.961 447.129,591.123 C447.138,593.507 447.87,595.867 447.671,598.243 C447.253,603.264 442.976,606.92 439.51,610.576 C436.044,614.232 433.017,619.682 435.493,624.069 M445.897,529.39 C445.721,526.768 442.51,525.21 439.962,525.85 C437.414,526.49 435.523,528.607 434.015,530.759 C432.939,532.296 431.933,534.051 432.082,535.921 C432.304,538.718 435.233,540.754 438.038,540.699 C440.842,540.643 443.389,538.951 445.259,536.86 C448.119,533.663 449.499,528.186 446.278,525.353 M334.25,517.855 C334.843,517.257 335.831,517.097 336.582,517.477 C335.711,529.54 329.831,541.165 320.63,549.015 M332.381,547.945 C333.945,548.224 335.233,546.774 336.113,545.451 C341.212,537.783 344.661,529.023 346.157,519.936" id="Stroke-7" stroke="#231F1F" sketch:type="MSShapeGroup"></path>
                <path d="M479.766,501.831 C485.587,505.254 488.501,512.938 486.413,519.359 M487.072,498.159 C490.367,497.048 493.308,500.657 494.424,503.95 C496.328,509.56 496.377,515.781 494.563,521.42 M199.055,573.809 C193.886,575.091 190.86,580.306 188.418,585.039 C185.881,589.958 183.345,594.876 180.807,599.794 C179.709,601.924 178.577,604.264 179.041,606.616 M177.36,620.002 C177.199,626.356 177.039,632.709 176.88,639.063 C176.728,645.079 176.561,651.19 174.745,656.928 C172.596,663.72 168.272,669.575 164.02,675.292 C160.083,680.586 156.146,685.88 152.208,691.174 M411.445,666.599 C410.738,673.853 408.826,680.987 405.81,687.622 C404.528,690.443 403.015,693.315 403.058,696.413 C403.085,698.325 403.709,700.171 404.327,701.981 M407.642,721.281 C405.849,722.639 404.89,724.812 404.147,726.935 C400.309,737.893 400.358,750.17 404.282,761.097" id="Stroke-8" stroke="#231F1F" sketch:type="MSShapeGroup"></path>
            </g>
        </g>
    </g>
</svg>