<?xml version="1.0" encoding="UTF-8" standalone="no"?>
<svg width="842px" height="595px" viewBox="0 0 842 595" version="1.1" xmlns="http://www.w3.org/2000/svg" xmlns:xlink="http://www.w3.org/1999/xlink" xmlns:sketch="http://www.bohemiancoding.com/sketch/ns">
    <!-- Generator: Sketch Beta 3.3.1 (12005) - http://www.bohemiancoding.com/sketch -->
    <title>glass</title>
    <desc>Created with Sketch Beta.</desc>
    <defs></defs>
    <g id="Page-1" stroke="none" stroke-width="1" fill="none" fill-rule="evenodd" sketch:type="MSPage">
        <g id="glass" sketch:type="MSArtboardGroup">
            <g id="Group" sketch:type="MSLayerGroup" transform="translate(32.000000, 20.000000)" stroke="#979797">
                <path d="M232.908203,194.851508 C266.014139,177.999727 296.000953,163.476698 333.244141,157.763617 C334.576156,157.559287 352.070891,156.529825 357.244141,159.263617 C376.245126,169.304643 395.192467,179.516076 413.427734,190.888617 C424.858131,198.017257 434.934683,207.137155 446.097656,214.677679 C449.127498,216.72432 452.418839,218.491676 455.908203,219.583929 C468.952079,223.66697 482.847274,225.048401 495.527344,230.150336 C534.914996,245.998296 563.990795,271.558028 593.388672,300.943304" id="Path-89" sketch:type="MSShapeGroup"></path>
                <path d="M232.908203,202.867187 C238.908203,203.033854 245.060599,204.721183 250.908203,203.367187 C262.580669,200.664462 296.724745,182.266884 315.556641,186.324219 C331.683319,189.798714 350.491514,208.273559 359.097656,218.800781 C361.199492,221.371793 371.599901,244.900065 378.779297,249.578125 C391.185475,257.66193 409.352193,264.896677 424.285156,267.876953 C440.139379,271.041091 452.55077,275.527484 467.076172,269.980469 C493.244551,259.987188 472.835191,238.298542 505.132812,261.265625" id="Path-90" sketch:type="MSShapeGroup"></path>
                <path d="M235.09375,197.890625 C256.019188,198.471887 264.869158,196.833901 285.09375,188.390625 C294.933469,184.282781 304.271789,179.040749 314.09375,174.890625 C316.142021,174.025159 318.371398,173.315809 320.59375,173.390625 C382.312041,175.468392 395.66558,205.162499 445.574219,236.552734 C455.148256,242.574363 504.89336,258.758139 515.917969,261.177734 C524.774748,263.121552 558.292974,265.322108 569.560547,274.644531 C594.47439,295.257434 604.093996,321.499934 605.435547,351.791016" id="Path-91" sketch:type="MSShapeGroup"></path>
                <path d="M235.095703,207.130859 C241.929036,207.630859 248.787633,209.401983 255.595703,208.630859 C271.461327,206.833823 288.566918,195.945568 304.808594,204.066406 C320.86999,212.097104 319.480206,229.9201 326.453125,242.841797 C334.382648,257.536202 346.213333,267.121782 360.605469,275.033203 C376.231483,283.622893 401.963412,292.064681 420.158203,289.164062 C478.618335,279.844331 392.245619,283.739225 457.158203,280.664062 C482.083802,279.48324 506.138361,293.698483 531.578125,298.509766" id="Path-92" sketch:type="MSShapeGroup"></path>
                <path d="M339.810547,203.722656 C326.177115,230.98952 341.62957,249.839742 366.396484,264.287109 C377.498821,270.763473 392.25312,274.259147 401.396484,263.287109" id="Path-93" sketch:type="MSShapeGroup"></path>
                <path d="M362.003906,225.726562 C355.38333,237.864285 361.376837,243.648179 374.003906,245.226562" id="Path-94" sketch:type="MSShapeGroup"></path>
                <path d="M234.53125,171.304688 C277.936291,165.370109 300.780595,162.896583 352.519531,148.099609 C419.809163,128.855246 443.728934,100.031921 516.162109,124.457031 C567.351571,141.718572 550.364396,192.635104 611.353516,206.890625" id="Path-95" sketch:type="MSShapeGroup"></path>
                <path d="M236.710938,168.207031 C252.997396,164.382812 269.898499,162.588231 285.570313,156.734375 C318.812151,144.317629 332.365804,118.241665 361.447266,104.470703 C413.054205,80.0332375 469.065931,52.2606582 522.412109,88.4257812 C537.823137,98.8734221 551.130877,109.850396 559.791016,126.835937 C563.859842,134.81632 564.759288,144.06502 567.855469,152.470703 C570.64381,160.040646 575.412595,166.888255 577.421875,174.701172 C578.843085,180.227428 576.840376,186.217937 577.972656,191.810547 C578.859014,196.188483 581.225665,200.157311 583.369141,204.076172 C590.99428,218.017017 599.288411,231.58138 607.248047,245.333984" id="Path-96" sketch:type="MSShapeGroup"></path>
                <path d="M221.314453,171.9375 C241.738301,145.593843 274.61026,132.240923 292.910156,104.943359" id="Path-97" sketch:type="MSShapeGroup"></path>
                <path d="M221.96875,189.904297 C225.921692,193.857239 230.273799,202.938416 232.404297,208.207031 C238.19319,222.522677 240.982946,238.043285 247.796875,251.900391 C303.507137,365.195236 243.416395,220.789329 272.576172,292.685547" id="Path-98" sketch:type="MSShapeGroup"></path>
                <path d="M223.376953,210.150391 C221.796643,222.792874 232.759509,229.871628 229.783203,244.085938 C219.839611,291.574769 215.409855,257.547929 222.025391,308.078125" id="Path-99" sketch:type="MSShapeGroup"></path>
                <path d="M210.150391,184.892578 C199.992589,202.671258 203.586053,223.726448 199.806641,242.886719 C197.119373,256.510206 183.865025,271.988824 178.558594,282.042969 C175.2238,288.361434 176.619106,303.702001 176.626953,308.167969" id="Path-100" sketch:type="MSShapeGroup"></path>
                <path d="M259.960938,217.460938 C266.691406,217.641276 273.841337,215.656121 280.152344,218.001953 C301.022808,225.759609 318.829457,286.849105 323.451172,297.458984 C330.451131,313.528501 337.476524,318.203639 350.435547,332.78125" id="Path-101" sketch:type="MSShapeGroup"></path>
                <path d="M307.355469,274.179688 C318.982671,296.750766 313.481921,304.670963 321.289063,323.873047 C327.68444,339.602819 333.437464,347.54315 342.740234,363.253906" id="Path-102" sketch:type="MSShapeGroup"></path>
                <path d="M351.890625,211.087891 C321.742466,235.206418 369.469434,273.769347 386.390625,253.087891" id="Path-103" sketch:type="MSShapeGroup"></path>
                <path d="M180.167969,111.433594 C186.445312,122.346354 194.255041,132.510883 199,144.171875 C201.014059,149.121534 199.216882,154.885829 200,160.171875 C200.556971,163.931427 201.63567,167.624616 203,171.171875 C203.338449,172.051842 205.875376,172.821725 205,173.171875 C202.833554,174.038453 200.333333,173.171875 198,173.171875" id="Path-104" sketch:type="MSShapeGroup"></path>
                <path d="M193,189.171875 C188.062082,208.923546 170.784348,205.140383 157,217.171875 C149.664895,223.574228 125.586354,255.827733 121.730469,263.554688 C119.706071,267.611456 120.330446,272.840435 117.730469,276.554688 C86.1358061,321.68992 106.83315,281.349325 98.7304688,297.554688" id="Path-105" sketch:type="MSShapeGroup"></path>
                <path d="M134.019531,216.324219 C109.209865,248.576785 120.106582,236.351818 94.0195312,255.324219 C91.9140543,256.855475 91.1857048,259.880103 89.0195312,261.324219 C73.5404538,271.643604 84.7285446,260.260881 68.0195312,265.324219 C51.463469,270.341207 34.1456,280.147723 24.0195312,294.324219" id="Path-106" sketch:type="MSShapeGroup"></path>
                <path d="M61.0195312,309.324219 C87.0238867,272.918121 95.9993149,319.935565 118.019531,328.324219 C123.635104,330.463484 129.043297,333.695141 135.019531,334.324219 C142.01257,335.060328 150.096953,328.533769 156.019531,332.324219 C161.196437,335.637438 158.686198,344.324219 160.019531,350.324219" id="Path-107" sketch:type="MSShapeGroup"></path>
                <path d="M201.019531,350.324219 C250.393878,409.573435 182.321588,324.16098 204.019531,360.324219 C205.734517,363.182529 210.804867,363.220076 212.019531,366.324219 C218.849545,383.778699 205.735155,397.261024 188.019531,393.324219 C182.18944,392.028643 167.339776,377.838493 163.847656,381.195312 C156.106604,388.636441 151.173177,398.53125 144.835938,407.199219" id="Path-108" sketch:type="MSShapeGroup"></path>
                <path d="M67.0039063,324.863281 C72.7546778,333.489439 71.8698347,323.943724 67.0039063,326.863281 C62.7685,329.404525 58.4831205,340.336557 62.0039063,344.863281 C68.290347,352.945848 79.7916977,355.941772 83.0039063,366.863281 C91.013966,394.097484 79.2498028,389.109178 99.3867188,409.246094" id="Path-109" sketch:type="MSShapeGroup"></path>
                <path d="M52.9804688,329.433594 C49.9804688,326.10026 48.35822,320.406427 43.9804688,319.433594 L40.9804688,317.433594 C29.1026272,314.794073 29.0361971,331.691405 33.9804688,338.433594 C36.3541226,341.670394 40.2977633,343.447928 42.9804688,346.433594 C52.807813,357.37075 56.8719716,367.348685 64.1757813,380.746094" id="Path-110" sketch:type="MSShapeGroup"></path>
                <path d="M149.34375,378.621094 C143.213455,335.709026 123.295526,367.121876 114.273438,390.8125" id="Path-111" sketch:type="MSShapeGroup"></path>
                <path d="M181.84375,158.167969 C181.84375,149.972019 169.654679,134.726804 166.84375,128.167969 C165.970385,126.130118 167.026982,119.865174 162.84375,119.167969 C155.931168,118.015872 148.077775,121.369225 141.84375,118.167969 C134.702546,114.500864 130.858633,106.436572 125.84375,100.167969 C124.164933,98.0694469 122.495545,95.7751484 121.84375,93.1679688 C120.979344,89.7103435 119.564853,76.6673762 114.84375,74.1679688 C109.905422,71.5535596 104.177083,70.8346354 98.84375,69.1679688" id="Path-112" sketch:type="MSShapeGroup"></path>
                <path d="M104.410156,75.5585937 C122.747301,72.502403 108.362973,92.0558766 114.410156,101.558594 C119.847887,110.103599 132.956557,102.378195 138.410156,110.558594 C139.934881,112.845681 136.554627,115.813656 136.410156,118.558594 C136.216646,122.235292 136.37128,126.026414 137.410156,129.558594 C142.207432,145.86933 164.477223,136.156192 160.410156,160.558594" id="Path-113" sketch:type="MSShapeGroup"></path>
                <path d="M100.28125,94.46875 C122.084835,91.7433019 100.167477,120.384915 104.28125,135.46875 C107.877135,148.653661 119.75595,149.806861 130.28125,151.46875 C133.718766,152.011516 137.046171,153.186028 140.28125,154.46875 C153.076781,159.54223 166.216293,163.979704 178.328125,170.519531 C186.55973,174.964216 193.747972,181.167188 200.898438,187.199219 C206.418651,191.855993 211.125,197.39974 216.238281,202.5" id="Path-114" sketch:type="MSShapeGroup"></path>
                <path d="M123.667969,113.929688 C117.012739,113.929688 106.216514,126.341096 113.667969,131.929688 C121.745765,137.988035 113.276022,141.808649 137.667969,143.929688 C147.22641,144.760856 144.883649,145.267927 150.667969,140.929688" id="Path-115" sketch:type="MSShapeGroup"></path>
                <path d="M129.667969,121.929688 C120.044063,125.137656 132.133243,136.999139 137.667969,125.929688" id="Path-116" sketch:type="MSShapeGroup"></path>
                <path d="M213.246094,130.09375 C212.684939,118.776404 215.96787,93.1196788 204.289062,84.7109375 C178.80863,66.365026 184.768001,79.5131802 167.289062,53.7109375 C152.641066,32.0877048 171.625361,23.7131611 146.289062,4.7109375 C145.327582,3.98982724 145.48037,1.86977852 144.289062,1.7109375 C120.416642,-1.47205196 117.423116,-0.197087191 100.289062,7.7109375 C81.3605968,16.4471524 76.2223024,14.2222978 69.2890625,32.7109375" id="Path-117" sketch:type="MSShapeGroup"></path>
                <path d="M81.2890625,33.7109375 C89.5470909,26.4851627 110.371305,15.9923178 121.289062,22.7109375 C126.180154,25.7208402 131.312354,43.6354313 132.289062,45.7109375 C132.800807,46.7983942 134.909004,46.5707621 135.289062,47.7109375 C138.68417,57.8962595 124.518987,63.9481625 138.289062,72.7109375 C148.491072,79.2031251 162.655634,76.2442578 173.289062,77.7109375 C198.667766,81.2114483 203.573899,113.223643 213.289062,130.710938" id="Path-118" sketch:type="MSShapeGroup"></path>
                <path d="M105.625,162.378906 C101.246649,177.703134 86.3963901,180.591852 71.625,183.378906 C44.60681,188.476678 20.6336316,186.285319 0.75,206.160156" id="Path-119" sketch:type="MSShapeGroup"></path>
                <path d="M92.1914062,71.21875 C79.0203719,59.5111639 67.0174843,52.2241649 49.3554688,50.2617188" id="Path-120" sketch:type="MSShapeGroup"></path>
                <path d="M629.363281,327.554688 C648.034222,340.001981 663.920244,306.296249 676.363281,313.554688 C681.263668,316.413246 672.834879,328.937782 672.363281,330.554688 C665.277071,354.850264 670.549326,341.494224 658.363281,358.554688 C648.762091,371.996354 653.241243,371.038281 633.363281,378.554688 C597.365909,392.166288 623.300526,379.884658 579.894531,391.722656 C575.290093,392.978412 571.407922,396.171178 566.894531,397.722656 C528.585318,410.891448 486.008451,422.372774 453.894531,448.722656 C426.227746,471.423608 409.225281,509.596637 381.894531,532.722656 C362.160571,549.420623 342.236028,547.673673 346.894531,519.722656 C348.865962,507.894073 361.430468,501.418751 367.894531,491.722656" id="Path-121" sketch:type="MSShapeGroup"></path>
                <path d="M577.496094,341.203125 C601.101874,339.057145 582.890724,352.605926 564.496094,362.203125 C547.86866,370.878308 524.005976,360.815772 512.496094,375.203125" id="Path-122" sketch:type="MSShapeGroup"></path>
                <path d="M489.859375,400.023438 C486.859375,400.023438 483.474102,398.552654 480.859375,400.023438 C462.015715,410.622996 480.912957,405.453688 471.859375,415.023438 C461.734938,425.725095 450.871074,435.746077 439.601562,445.234375 C437.233288,447.22833 432.635277,448.623899 430.601562,445.234375 C421.713052,430.420191 440.084782,414.818277 435.601562,437.234375" id="Path-123" sketch:type="MSShapeGroup"></path>
                <path d="M402.101563,480.875 C382.563873,490.643845 388.7784,509.846343 382.179688,501.78125 C378.195111,496.911212 375.776872,490.902226 373.347656,485.097656 C371.494751,480.67017 364.811971,472.651563 369.402344,471.25 C383.065746,467.078199 397.950377,474.016275 412.214844,473.230469 C438.01055,471.809425 437.179688,441.250038 437.179688,423.691406" id="Path-124" sketch:type="MSShapeGroup"></path>
                <path d="M495.027344,358.441406 C520.05429,336.746398 512.856402,347.951258 522.238281,329.1875" id="Path-125" sketch:type="MSShapeGroup"></path>
                <path d="M169.210937,414.839844 C169.210937,429.173177 171.038749,443.623531 169.210937,457.839844 C165.313951,488.149737 147.777337,507.066957 154.210937,539.222656" id="Path-126" sketch:type="MSShapeGroup"></path>
            </g>
            <g id="Group" sketch:type="MSLayerGroup" transform="translate(8.000000, -2.000000)" stroke="#000000">
                <path d="M162.914062,200.382812 C183.703612,192.822976 186.429469,195.346679 200.914062,208.382812 C217.267825,223.101199 215.404971,223.03735 217.914062,249.382812" id="Path-127" sketch:type="MSShapeGroup"></path>
                <path d="M164.800781,192.265625 C176.243149,192.265625 184.263219,187.2506 196.800781,192.265625 C202.928607,194.716755 211.923839,203.419447 215.800781,208.265625 C220.077362,213.611351 221.665748,234.333141 235.800781,227.265625 C238.272887,226.029572 238.758493,220.655343 239.800781,219.265625 C244.576449,212.898069 247.171223,213.209963 251.800781,206.265625 C256.708154,198.904565 260.09553,185.354456 267.800781,178.265625 C306.125394,143.006982 356.575824,127.196407 408.800781,143.265625 C435.806008,151.574926 434.887425,146.168153 461.800781,160.265625 C484.200882,171.999011 527.959646,210.068663 537.800781,233.265625 C550.496135,263.190387 539.68932,247.894087 545.800781,268.265625 C547.096452,272.584526 555.584385,283.370489 555.800781,287.265625 C559.548125,354.717807 527.311701,429.761725 459.757812,454.476562 C436.118076,463.125247 405.260979,464.899953 380.757812,462.476562 C338.653285,458.312379 319.935299,454.812805 283.757812,435.476562 C258.028489,421.724683 225.662207,366.319273 221.757812,339.476562 C219.932051,326.924452 220.932666,314.106234 219.757812,301.476562 C219.025695,293.606295 215.279784,283.603047 215.757812,275.476562 C216.000352,271.353384 220.0319,264.106125 220.757812,260.476562 C222.616739,251.181932 216.281123,249.336702 217.757812,240.476563" id="Path-128" sketch:type="MSShapeGroup"></path>
                <path d="M161.621094,198.285156 C159.369202,207.292725 130.381236,240.464462 122.621094,245.285156 C105.265771,256.066493 86.8955446,265.147931 68.6210937,274.285156 C67.8631208,274.664143 56.882422,279.563555 52.6210937,278.285156 C50.4793291,277.642627 47.9784403,277.062123 46.6210937,275.285156 C34.8149561,259.829183 24.0342161,243.594422 13.5898437,227.1875 C9.74021995,221.140178 4.6294771,211.682344 3.62890625,204.316406 C-4.74221925,142.690398 6.2236169,125.047557 42.8359375,79.59375 C58.9292746,59.6140432 73.7876758,35.2057915 94.6679687,19.8203125 C109.433155,8.9407017 164.849521,-2.543377 181.667969,0.8203125 C188.76179,2.23907672 208.457896,44.7245467 210.667969,51.8203125 C221.052498,85.1613814 214.739268,120.521463 199.613281,150.773438 C193.487131,163.025739 156.445174,176.437222 164.613281,192.773438" id="Path-129" sketch:type="MSShapeGroup"></path>
                <path d="M472.363281,189.859375 C453.561819,189.859375 435.064856,175.922204 418.363281,167.859375 C399.446119,158.726952 416.919029,167.813669 404.363281,164.859375 C369.984246,156.77019 330.66963,149.357937 299.363281,171.859375 C279.57987,186.078702 272.362852,203.119287 259.363281,222.859375 C233.711592,261.81194 236.22013,261.1395 238.363281,301.859375 C243.355022,396.702445 238.375628,297.600089 236.363281,339.859375 C236.188157,343.536995 235.934538,347.46611 237.363281,350.859375 C240.416965,358.111875 244.434404,358.103837 246.363281,360.859375 C267.788029,391.466158 210.154805,338.534585 279.363281,404.859375 C299.032526,423.709068 328.714183,426.059587 353.363281,431.859375 C388.756161,440.187111 324.905848,431.65117 382.363281,439.859375 C394.852941,441.643612 397.627266,431.556137 410.363281,431.859375 C420.741948,432.106486 431.038716,435.946171 441.363281,434.859375 C506.467242,428.006326 436.719746,431.03428 448.363281,425.859375 C457.133545,421.96148 466.471561,419.471636 475.363281,415.859375 C492.804965,408.773691 487.46178,394.728043 493.363281,386.859375 C495.20719,384.40083 499.115144,383.667684 500.363281,380.859375 C501.739189,377.763583 495.078236,379.096523 497.363281,375.859375 C511.438155,355.919971 527.136995,333.611393 528.363281,307.859375 C528.463557,305.753576 526.400921,303.967224 526.363281,301.859375 C525.851879,273.220821 533.145969,259.254188 522.363281,236.859375 C513.294119,218.023423 494.297393,202.816742 477.363281,191.859375 L472.363281,189.859375 Z" id="Path-130" sketch:type="MSShapeGroup"></path>
                <path d="M149.332031,185.113281 C152.223264,169.211501 153.798496,163.135638 167.332031,154.113281 C167.952205,153.699832 169.039138,152.348984 168.332031,152.113281 C158.865974,148.957929 168.732488,158.41077 171.332031,144.113281 C177.889996,108.044474 157.537993,156.598378 167.332031,132.113281 C169.716886,126.151145 176.995047,121.932153 181.332031,117.113281 C185.003079,113.034339 186.149352,92.0571217 186.332031,91.1132812 C189.67906,73.8203017 191.62271,56.1827841 190.332031,38.1132812 C189.585206,27.6577286 187.738675,34.6385962 183.332031,31.1132812 C165.564239,16.8990477 146.087597,17.1589549 125.332031,28.1132812 C100.465977,41.2370322 62.9024241,62.6868963 51.3320313,87.1132812 C48.5761244,92.9313068 47.2110743,99.3551951 44.3320312,105.113281 C34.4437296,124.889885 19.7115649,143.057193 14.3320313,165.113281 C9.3148212,185.683842 17.2916377,192.795511 25.3320313,210.113281 C28.7646548,217.506624 27.7499974,222.531247 33.3320313,228.113281 C64.5802744,259.361524 106.806074,247.007749 137.332031,224.113281 C144.633341,218.637299 144.782613,204.761536 147.332031,197.113281 C148.605696,193.292287 155.477122,188.629354 152.332031,186.113281 L152.332031,182.113281 C146.665365,177.579948 147.332031,185.593281 147.332031,180.113281" id="Path-131" sketch:type="MSShapeGroup"></path>
            </g>
        </g>
    </g>
</svg>