<?xml version="1.0" encoding="UTF-8" standalone="no"?>
<svg width="595px" height="842px" viewBox="0 0 595 842" version="1.1" xmlns="http://www.w3.org/2000/svg" xmlns:xlink="http://www.w3.org/1999/xlink" xmlns:sketch="http://www.bohemiancoding.com/sketch/ns">
    <!-- Generator: Sketch Beta 3.3.2 (12032) - http://www.bohemiancoding.com/sketch -->
    <title>A4</title>
    <desc>Created with Sketch Beta.</desc>
    <defs></defs>
    <g id="pictures" stroke="none" stroke-width="1" fill="none" fill-rule="evenodd" sketch:type="MSPage">
        <g id="A4" sketch:type="MSArtboardGroup">
            <g id="Imported-Layers" sketch:type="MSLayerGroup" transform="translate(20.000000, 18.000000)">
                <path d="M463.44,792.071 L539.009,764.002 L539.009,398.945 L555.508,10.61 L195.44,0.11 L0.536,164.108 L56.033,706.135 L315.159,805.57 L463.44,792.071" id="Fill-1" fill="#1A1918" sketch:type="MSShapeGroup"></path>
                <path d="M187.071,529.058 C183.725,511.41 185.553,492.812 192.272,476.153 C196.842,464.823 203.675,454.157 205.337,442.054 C206.863,430.947 203.865,419.771 200.895,408.961 C196.32,392.314 191.432,375.063 180.134,362.009 C176.136,357.39 171.216,353.055 169.841,347.102 C175.433,345.869 181.025,344.635 186.617,343.401 C191.369,342.353 196.328,341.305 201.046,342.494 C206.729,343.927 211.165,348.41 214.405,353.293 C217.374,357.769 219.601,362.736 220.968,367.93 C222.632,374.255 223.088,381.059 226.416,386.688 C230.336,393.318 237.538,397.17 244.385,400.696 M195.44,530.254 C201.427,535.993 210.478,537.209 218.742,536.507 C227.006,535.805 235.113,533.498 243.406,533.38 M258.968,539.085 C259.848,543.895 262.092,548.448 265.372,552.074 M273.195,556.158 C282.718,561.715 294.249,563.742 305.097,561.768 C308.624,561.126 312.121,560.056 315.155,558.146 C321.11,554.396 324.651,547.887 329.443,542.733 C333.217,538.674 337.783,535.448 342.313,532.254 C355.901,522.672 369.489,513.089 383.077,503.507 C386.17,501.326 389.301,499.11 391.724,496.202 C394.052,493.408 395.636,490.081 397.14,486.77 C407.495,463.973 415.239,439.99 420.171,415.442 M246.139,389.327 C245.235,390.336 244.331,391.346 243.427,392.354 C251.395,382.027 259.362,371.699 267.329,361.372 C269.123,359.046 270.927,356.704 272.283,354.099 C273.342,352.065 274.113,349.895 275.102,347.826 C280.929,335.63 293.458,328.283 305.496,322.135 M287.222,329.215 C287.825,321.057 288.428,312.863 287.821,304.705 C287.498,300.362 286.894,295.704 289.009,291.897 C290.376,289.434 292.75,287.625 293.995,285.098 C295.701,281.634 295.044,277.32 296.948,273.96 C299.419,269.599 305.09,268.483 310.058,267.819 C307.103,267.799 304.148,267.778 301.192,267.757 C300.339,267.751 299.432,267.73 298.717,267.264 C297.756,266.637 297.424,265.404 297.199,264.279 C295.53,255.916 295.625,247.205 297.478,238.881 C297.796,237.454 298.209,235.958 299.264,234.945 C300.066,234.176 301.145,233.779 302.191,233.401 C305.61,232.169 309.03,230.937 312.45,229.705 C306.023,229.736 299.596,229.767 293.169,229.798 C293.148,226.443 291.025,223.192 287.963,221.823 C286.443,221.143 284.618,220.811 283.652,219.456 C281.556,216.512 285.418,213.142 287.332,210.077 C289.933,205.912 288.833,200.42 290.487,195.797 C293.487,187.413 304.919,184.769 313.098,188.29 C321.277,191.811 326.778,199.515 331.5,207.065 C333.403,210.108 335.288,213.286 335.852,216.83 C336.251,219.336 335.967,221.895 336.031,224.432 C336.136,228.526 337.15,232.536 338.09,236.522 C344.011,261.628 347.215,287.374 347.627,313.165 M323.442,321.611 C328.616,317.843 335.697,318.019 341.916,319.529 C348.135,321.038 354.09,323.711 360.446,324.461 C360.492,323.89 360.539,323.318 360.585,322.747 M357.311,316.754 C360.464,300.881 363.616,285.008 366.769,269.135 C368.186,262 369.607,254.835 369.967,247.569 C370.213,242.599 369.965,237.568 370.975,232.695 C372.956,223.148 379.52,215.222 382.871,206.066 C386.789,195.359 386.122,183.596 385.403,172.219 C391.093,172.261 396.785,170.631 401.592,167.584 C322.079,165.748 242.547,164.785 163.014,164.695 C250.716,165.366 338.415,166.561 426.103,168.279 C422.111,169.043 418.118,169.807 414.125,170.572 C416.261,171.607 416.747,174.379 416.964,176.743 C417.917,187.093 418.87,197.46 418.871,207.854 C418.874,250.441 402.955,291.667 401.399,334.227 C401.566,334.227 402.374,334.239 402.541,334.239 M391.428,330.197 C397.078,310.446 395.602,288.171 406.77,270.928 C415.287,257.778 430.167,249.391 437.333,235.458 C443.26,223.932 443.029,210.285 441.811,197.382 C441.504,194.13 441.156,190.76 442.212,187.669 C443.268,184.578 446.179,181.85 449.431,182.158 C450.909,182.298 452.271,183.035 453.453,183.933 C459.795,188.753 461.283,197.52 462.292,205.422 C463.269,213.074 464.247,220.727 465.224,228.38 C465.573,231.109 465.922,233.863 465.695,236.605 C465.316,241.18 463.364,245.454 461.507,249.653 C452.449,270.135 444.985,291.35 439.79,313.135 M424.346,414.667 C434.041,390.905 443.736,367.144 453.432,343.382 C456.039,336.994 458.68,330.542 462.663,324.909 C465.394,321.047 468.715,317.631 471.454,313.775 C480.587,300.914 482.616,284.163 491.117,270.876 C497.62,260.71 507.474,253.232 517.118,245.977 C512.505,242.272 507.566,238.424 501.697,237.677 C491.671,236.401 483.095,244.366 476.159,251.716 C457.925,271.036 439.369,291.023 429.372,315.636 C423.895,329.121 421.072,343.818 413.333,356.145 C407.597,365.283 399.311,372.843 395.026,382.744 M181.816,539.338 C182.74,543.301 183.664,547.263 184.588,551.226 C185.065,553.271 185.545,555.356 185.37,557.448 C185.152,560.057 183.939,562.462 182.774,564.806 C175.279,579.889 168.91,595.53 163.737,611.558 C161.278,619.178 159.087,626.889 156.368,634.421 C150.162,651.609 141.202,667.801 129.934,682.188 M367.118,521.995 C359.914,526.043 352.71,530.092 345.506,534.141 C341.073,536.632 336.528,539.216 333.329,543.168 C330.883,546.19 329.367,549.839 327.885,553.433 C310.009,596.762 292.134,640.091 274.258,683.42 M281.053,512.244 C284.752,497.537 288.474,482.646 288.46,467.48 C288.454,460.531 287.633,453.487 285.006,447.054 C281.506,438.483 275.05,431.515 268.727,424.753 M282.071,393.796 C294.72,398.461 307.17,403.666 319.375,409.394 C323.979,411.555 328.701,413.908 331.911,417.853 C339.692,427.417 335.639,441.517 337.272,453.739 C338.607,463.736 344.228,473.087 352.429,478.958 M327.609,444.367 C326.661,446.788 325.714,449.21 324.766,451.631 M299.058,350.078 C316.498,352.641 330.879,365.88 339.417,381.302 C343.827,389.268 347.139,398.129 353.729,404.411 C361.827,412.13 373.431,414.625 383.398,419.707 C395.053,425.648 404.442,435.139 413.614,444.467 M322.873,355.156 C320.302,349.997 317.73,344.839 315.159,339.68 M61.379,335.692 C66.319,326.078 66.404,314.117 61.601,304.434 C57.374,295.912 49.803,289.413 45.539,280.91 C39.304,268.479 41.024,253.332 46.305,240.468 C49.217,233.374 54.21,225.953 61.816,224.983 C65.037,224.573 68.266,225.411 71.459,226.001 C85.931,228.676 101.311,226.132 114.151,218.941 C116.064,217.87 118.651,216.761 120.219,218.293 C120.93,218.988 121.153,220.033 121.281,221.019 C122.729,232.207 115.828,243.32 106.286,249.338 C96.744,255.356 85.046,257.004 73.767,256.784" id="Stroke-2" stroke="#FFFFFF" sketch:type="MSShapeGroup"></path>
                <path d="M100.951,216.999 C104.604,212.471 108.257,207.944 111.91,203.416 C111.024,206.328 111.019,209.501 111.894,212.416 C118.18,217.093 126.72,216.874 134.543,216.452 C135.693,216.39 136.874,216.32 137.923,215.845 C139.526,215.119 140.572,213.569 141.53,212.092 C147.415,203.008 153.153,193.83 158.74,184.56 C160.938,180.913 163.155,177.14 163.84,172.937 C164.526,168.734 163.343,163.949 159.867,161.491 C151.897,160.038 142.72,158.882 136.546,164.127 C130.289,169.441 129.834,179.188 124.315,185.264 C122.27,187.516 119.631,189.14 117.399,191.208 C115.167,193.275 113.265,196.059 113.43,199.098 C111.959,199.353 110.489,199.608 109.018,199.863 C109.428,195.024 112.021,190.682 114.548,186.535 C118.387,180.235 122.753,173.493 129.716,171.055 M151.048,205.864 C148.915,207.906 146.745,209.997 145.375,212.614 C144.006,215.23 143.556,218.511 144.954,221.112 C146.032,223.119 148.021,224.442 149.932,225.681 C152.929,227.622 156.212,229.636 159.774,229.382 C163.527,229.116 166.593,226.411 169.347,223.847 C176.076,217.583 182.806,211.32 189.535,205.056 C192.13,202.641 194.823,200.077 195.936,196.711 C196.641,194.576 196.651,192.279 196.564,190.032 C196.341,184.291 195.532,178.572 194.153,172.995 C193.792,171.531 193.343,169.997 192.238,168.972 C190.957,167.785 189.089,167.544 187.352,167.361 C184.558,167.067 181.765,166.772 178.971,166.478 C177.926,166.367 176.855,166.259 175.835,166.511 C174.953,166.729 174.161,167.205 173.383,167.674 C165.649,172.342 157.007,178.464 156.635,187.49 C156.516,190.371 157.304,193.257 156.966,196.12 C156.628,198.984 154.548,202.032 151.666,201.93 C152.192,198.837 154.982,196.748 157.311,194.647 C161.101,191.226 164.141,186.978 166.153,182.286 C166.618,181.202 167.025,179.937 166.499,178.882 C166.227,178.336 165.741,177.932 165.265,177.55 C162.419,175.264 159.454,173.127 156.386,171.151 C160.396,168.567 164.732,166.488 169.257,164.977 M205.169,181.375 C209.085,184.994 213.552,188.015 218.368,190.303 C222.488,192.261 226.929,193.726 230.475,196.595 C234.021,199.465 236.522,204.295 235.013,208.6 C229.791,209.616 224.569,210.631 219.347,211.646 C215.68,212.359 211.892,213.123 208.839,215.274 C203.202,219.247 201.53,226.765 197.5,232.359 C195.347,235.349 192.469,237.813 189.184,239.481 C187.327,240.424 185.258,241.125 183.189,240.89 C179.085,240.426 176.169,236.322 175.647,232.226 C175.125,228.129 176.429,224.045 177.717,220.121 C178.554,217.568 179.509,214.847 181.674,213.255 C182.546,212.614 183.561,212.201 184.519,211.698 C185.774,211.04 186.938,210.223 188.131,209.456 C192.16,206.867 196.557,204.827 200.297,201.835 C204.037,198.844 207.161,194.602 207.319,189.815 C207.357,188.685 207.26,187.445 207.942,186.544 C208.536,185.76 209.552,185.463 210.433,185.026 C212.517,183.994 214.053,181.923 214.437,179.629 C204.809,179.318 195.105,182.276 187.288,187.904 C186.249,188.652 185.22,189.47 184.556,190.564 C183.041,193.061 183.776,196.231 184.06,199.138 C185.236,211.184 177.756,223.245 180.633,235.001 M151.63,370.525 C152.31,365.163 153.502,359.866 155.185,354.73 C155.835,352.746 156.586,350.737 157.951,349.158 C160.171,346.59 163.638,345.55 166.922,344.691 C185.186,339.914 205.328,336.178 217.814,322.018 C223.712,315.328 227.265,306.911 232.532,299.715 C236.359,294.488 241.109,289.875 244.038,284.097 C247.553,277.162 248.143,269.163 248.669,261.405 C249.241,252.966 249.72,244.046 245.875,236.513 C244.039,232.918 241.262,229.751 240.218,225.852 C239.311,222.464 238.792,217.684 235.294,217.434 C233.523,217.307 232.012,218.618 230.726,219.842 C221.352,228.769 211.978,237.696 202.604,246.623 C200.639,248.494 198.497,250.929 199.168,253.558 C199.692,255.612 201.788,256.863 203.823,257.462 C209.861,259.241 216.514,257.13 221.586,253.401 C226.659,249.673 230.442,244.492 234.105,239.372 C237.339,234.852 240.664,229.988 240.98,224.439 C241.296,218.89 237.224,212.716 231.671,212.939 C227.305,213.115 224.06,216.883 221.388,220.34 C215.971,227.347 210.555,234.354 205.139,241.36 M123.722,194.443 C128.429,193.575 133.1,195.784 137.379,197.932 C139.112,198.802 141.16,200.464 140.366,202.234 C137.553,203.32 134.677,201.111 132.091,199.559 C127.978,197.09 123.002,196.09 118.255,196.78 C114.425,197.336 110.052,200.239 110.919,204.011 C111.662,207.244 115.601,208.38 118.873,208.925 C122.534,209.534 126.374,210.131 129.886,208.931 C133.397,207.731 136.375,204.091 135.491,200.487 M158.845,205.183 C161.226,209.566 166.072,212.497 171.059,212.571 C169.867,206.486 163.271,202.019 157.177,203.172 C158.235,203.832 159.293,204.492 160.35,205.153 C158.271,206.208 156.139,207.305 154.6,209.057 C153.062,210.81 152.238,213.397 153.191,215.525 C154.206,217.79 156.811,218.841 159.229,219.4 C160.364,219.662 161.584,219.859 162.669,219.433 C164.953,218.537 165.406,215.559 165.507,213.107 M184.308,218.289 C187.127,218.651 190.006,219.029 192.557,220.283 C195.109,221.537 197.319,223.847 197.676,226.667 C191.998,227.89 185.678,224.699 183.29,219.404 C178.679,221.594 178.301,227.9 178.593,232.997 C183.824,234.228 189.609,229.779 189.761,224.407 M212.321,240.475 C214.674,241.926 216.724,243.866 218.302,246.136 C219.065,247.233 219.478,249.143 218.211,249.567 C217.764,249.717 217.273,249.578 216.841,249.39 C215.054,248.61 213.684,246.936 213.274,245.03 C213.127,244.346 213.019,243.524 212.392,243.216 C212.093,243.069 211.743,243.083 211.412,243.121 C208.992,243.403 206.739,244.875 205.508,246.979 C205.087,247.701 204.775,248.528 204.869,249.358 C205.086,251.267 207.423,252.331 209.294,251.894 C211.165,251.456 212.608,250.002 213.881,248.563 M113.525,223.563 C107.462,229.72 98.147,232.472 89.712,230.599 C90.622,229.049 92.073,227.824 93.754,227.186 M121.436,242.698 C126.788,248.591 131.037,255.38 135.257,262.13 C136.653,264.362 138.069,266.642 138.712,269.195 C139.582,272.652 138.962,276.283 138.521,279.821 C137.476,288.204 137.472,296.716 138.506,305.101 M124.683,258.567 C127.913,266.504 131.142,274.441 134.371,282.377 C134.74,283.283 135.116,284.244 134.973,285.212 C134.83,286.179 133.956,287.111 132.992,286.941" id="Stroke-3" stroke="#FFFFFF" sketch:type="MSShapeGroup"></path>
                <path d="M137.909,230.777 C146.401,236.921 154.903,243.072 162.879,249.872 C168.319,254.509 173.548,259.473 179.664,263.171 C192.151,270.721 207.208,272.376 221.724,273.856 L137.909,230.777 Z M202.493,299.624 C207.049,304.356 210.825,309.836 213.625,315.778 L202.493,299.624 Z M62.03,344.733 C51.161,361.063 44.595,380.231 43.168,399.796 C70.526,395.493 97.986,405.092 123.781,415.171 C131.158,418.053 139.825,422.866 139.563,430.78 C139.397,435.778 135.285,439.981 130.586,441.694 C125.888,443.406 120.713,443.102 115.749,442.493 C102.399,440.855 89.303,437.164 77.062,431.591 C73.969,430.183 70.885,428.624 68.392,426.315 C66,424.099 64.243,421.274 61.896,419.011 C57.366,414.646 51.08,412.742 45.563,409.718 C40.047,406.694 34.761,401.478 35.174,395.2 C63.373,389.303 93.91,395.61 117.465,412.198 C123.488,416.44 131.199,421.515 137.506,417.708 C143.481,414.101 143.067,405.511 142.499,398.555 C141.579,387.298 142.233,375.913 144.436,364.835 L62.03,344.733 Z M221.426,734.318 C206.424,738.396 190.615,737.953 175.075,737.48 C169.529,737.311 163.842,737.113 158.709,735.003 C153.43,732.832 149.166,728.815 144.427,725.633 C135.268,719.484 123.138,715.198 119.835,704.673 C117.074,695.876 122.358,686.081 130.088,681.056 C137.817,676.031 147.394,674.837 156.609,674.565 C189.798,673.588 222.477,682.827 255.654,684.135 C261.971,684.383 270.37,686.225 270.572,692.544 C270.641,694.702 269.582,696.722 268.478,698.578 C258.15,715.925 240.908,729.022 221.426,734.318 L221.426,734.318 Z M182.359,136.721 C191.875,120.793 201.391,104.865 210.907,88.937 C217.439,78.004 224.351,66.672 235.1,59.841 C241.238,55.942 248.286,53.749 255.298,51.827 C302.159,38.987 351.134,36.445 399.659,33.973 C402.004,33.853 404.419,33.743 406.633,34.525 C409.329,35.476 411.395,37.622 413.423,39.636 C430.596,56.684 452.517,68.899 476.05,74.532 C489.957,77.861 504.349,78.931 518.162,82.629 C522.388,83.759 527.587,87.341 525.598,91.236 C524.483,93.42 521.682,93.994 519.252,94.318 C493.808,97.711 468.031,101.108 442.552,97.979 C433.4,96.855 423.867,94.651 417.094,88.393 L182.359,136.721 Z M314.644,61.758 C322.514,57.601 332.251,59.378 340.426,62.899 C348.6,66.42 356.079,71.559 364.564,74.247 C378.928,78.798 394.486,75.872 409.505,77.085 C413.282,77.391 417.424,78.174 419.755,81.161 C422.329,84.459 421.641,89.473 419.123,92.813 C416.605,96.154 412.672,98.114 408.735,99.528 C392.91,105.213 375.567,103.795 358.76,103.275 C355.234,103.166 351.669,103.103 348.221,103.844 C344.525,104.638 341.095,106.325 337.62,107.813 C326.467,112.591 314.486,115.428 302.375,116.16 L314.644,61.758 Z M412.667,105.655 C411.366,111.57 406.47,116.181 400.955,118.68 C395.439,121.179 389.307,121.894 383.285,122.53 C384.348,122.875 385.628,122.195 385.938,121.122 L412.667,105.655 Z M456.366,101.099 C462.125,101.125 468.247,106.81 465.934,112.083 C464.221,115.988 459.307,117.059 455.114,117.833 C448.748,119.008 442.307,120.726 437.038,124.488 C430.208,129.366 425.407,137.582 417.276,139.663 C415.324,140.163 413.296,140.263 411.284,140.352 C401.485,140.782 391.676,140.982 381.868,140.952 C379.975,140.946 377.855,140.837 376.565,139.452 C375.557,138.372 375.339,136.796 375.178,135.328 C374.719,131.161 374.461,126.524 377.048,123.225 C380.277,119.107 386.345,118.946 391.575,119.151 L414.399,120.042 L456.366,101.099 Z M395.212,132.667 C396.411,131.759 396.853,129.981 396.219,128.617 C392.861,127.586 389.625,126.158 386.6,124.373 C384.56,126.068 382.897,128.214 381.764,130.611 C384.952,134.294 390.246,136.012 394.989,134.903 C395.006,134.07 395.024,133.238 395.041,132.405 L395.212,132.667 Z M440.654,130.153 C443.822,132.431 444.839,137.224 442.868,140.593 C441.844,142.343 440.185,143.638 438.42,144.636 C430.937,148.87 421.596,149.19 413.674,152.858 C403.036,157.783 390.988,158.958 379.395,157.395 C376.995,157.072 374.432,156.528 372.799,154.741 C371.691,153.529 371.485,151.107 373.056,150.625 L440.654,130.153 Z M370.286,137.946 C361.274,135.488 352.907,142.878 344.18,146.208 C339.648,147.937 334.784,148.579 329.961,149.1 C311.134,151.132 292.126,151.498 273.235,150.191 C270.695,150.015 267.788,149.6 266.413,147.457 C265.544,146.105 265.524,144.374 264.856,142.912 C263.637,140.244 260.612,139.023 258.251,137.283 C255.889,135.542 254.057,131.986 256.039,129.822 L370.286,137.946 Z M241.761,156.519 C245.868,153.724 249.974,150.929 254.08,148.134 C256.094,146.763 258.108,145.392 260.122,144.021 L241.761,156.519 Z M391.567,80.382 C390.146,84.537 390.676,89.315 392.973,93.059 C394.824,88.41 393.18,82.614 389.164,79.629 C389.491,77.961 391.695,77.617 393.395,77.653 C396.808,77.724 400.221,77.795 403.635,77.866 C406.055,77.917 408.814,78.128 410.3,80.039 C411.979,82.197 411.008,85.568 408.913,87.325 C406.818,89.082 403.974,89.603 401.256,89.905 C394.989,90.603 388.63,90.477 382.395,89.53 L391.567,80.382 Z M484.969,83.142 C487.233,85.467 488.238,88.952 487.559,92.126 C486.88,95.3 484.537,98.068 481.519,99.262 L484.969,83.142 Z M449.844,77.757 C448.78,82.687 448.705,87.828 449.626,92.787 C449.832,93.895 450.899,95.306 451.743,94.558 L449.844,77.757 Z M453.708,83.072 C453.727,88.873 453.281,94.676 452.374,100.405 L453.708,83.072 Z M356.401,117.205 C355.666,118.184 357.595,118.934 358.784,118.641 C364.307,117.28 369.59,114.949 374.318,111.786 C377.141,109.899 380.037,107.107 379.667,103.731 L356.401,117.205 Z M386.399,110.897 C393.976,111.948 401.763,111.469 409.155,109.499 L386.399,110.897 Z M264.935,150.839 C259.785,153.176 255.042,156.407 250.982,160.344 L264.935,150.839 Z M390.786,736.67 C392.641,734.836 394.497,733.001 396.353,731.167 C399.377,728.178 402.431,725.151 404.673,721.538 C409.358,713.989 410.047,704.554 408.832,695.753 C407.617,686.952 404.661,678.5 402.51,669.879 C399.034,655.949 397.662,641.496 398.452,627.16 C398.646,623.635 398.975,620.094 399.937,616.697 C400.697,614.012 401.844,611.455 402.79,608.83 C411.496,584.683 402.751,557.316 409.253,532.486 C411.77,522.875 416.487,514.009 421.163,505.244 C424.861,498.313 428.559,491.382 432.256,484.451 C439.572,470.739 446.936,456.952 456.46,444.672 C457.382,443.483 458.391,442.258 459.795,441.717 C463.757,440.189 467.239,444.718 469.094,448.538 C471.014,452.49 472.981,456.668 472.71,461.053 C472.032,472.001 458.378,478.056 456.04,488.773 C455.355,491.912 455.724,495.173 455.567,498.382 C455.222,505.395 452.24,512.248 447.343,517.28 L390.786,736.67 Z" id="Stroke-4" stroke="#FFFFFF" sketch:type="MSShapeGroup"></path>
                <path d="M414.641,650.599 C418.629,645.012 421.013,638.293 421.439,631.442 C421.181,637.816 417.048,643.877 411.209,646.446 C414.361,642.767 417.512,639.088 420.664,635.409 C422.988,639.698 425.313,643.988 427.637,648.277 C421.211,642.702 421.67,632.512 424.496,624.488 C427.321,616.463 431.997,608.841 432.34,600.341 C432.557,594.971 431.052,589.288 433.27,584.393 C434.092,582.58 435.383,581.005 436.145,579.166 C437.115,576.827 437.167,574.22 437.132,571.688 C437.026,564.102 436.262,556.526 434.851,549.072 C433.164,540.157 430.688,530.342 435.232,522.489 C436.548,520.214 438.497,518.201 440.978,517.334 C445.029,515.919 449.582,517.854 452.735,520.764 C461.712,529.051 461.748,542.97 461.125,555.172 C460.535,566.711 459.946,578.251 459.357,589.791 C459.227,592.337 459.109,594.966 459.997,597.356 C460.731,599.33 462.1,600.994 463.098,602.848 C467.932,611.834 464.463,625.465 473.101,630.895 M463.44,764.002 C471.59,751.512 482.081,740.726 490.834,728.651 C499.587,716.576 506.751,702.54 506.715,687.626 C506.67,668.853 495.44,652.175 484.595,636.852 M497.692,638.099 C497.872,634.654 498.051,631.209 498.231,627.764 C498.424,624.055 498.598,620.216 497.253,616.754 C494.684,610.139 486.947,605.808 486.509,598.725 M477.288,593.295 C478.885,590.27 474.358,588.01 471.58,586.015 C466.057,582.047 466.333,573.589 469.016,567.34 C471.699,561.091 476.184,555.536 477.491,548.862 C478.376,544.341 477.719,539.682 477.664,535.075 C477.456,517.536 485.914,501.245 493.246,485.309 C496.184,478.924 498.971,472.47 501.758,466.017 C504.369,459.972 506.593,451.952 501.628,447.628 C497.742,444.244 491.375,445.59 487.607,449.104 C483.839,452.617 481.991,457.666 480.129,462.47 C472.87,481.197 463.5,499.105 452.252,515.745 M498.701,608.021 C499.997,600.03 499.977,591.828 498.642,583.843 C497.494,576.981 495.616,569.123 499.97,563.696 C500.988,562.427 502.287,561.404 503.289,560.122 C508.864,552.989 503.207,541.589 507.977,533.894 C509.706,531.106 512.567,529.253 514.884,526.93 C518.037,523.769 520.21,519.644 521.033,515.256 C521.692,511.74 521.434,507.891 519.451,504.915 C517.468,501.939 513.471,500.165 510.145,501.482 M501.968,463.43 C505.712,464.233 508.824,467.435 509.521,471.201 C509.872,473.102 509.652,475.06 509.362,476.972 C507.264,490.771 501.446,503.986 492.685,514.851 C497.236,522.787 495.58,532.826 492.407,541.407 C489.235,549.988 484.651,558.216 483.572,567.301 C482.691,574.711 484.219,582.204 486.365,589.351 M503.232,641.497 C501.541,648.76 502.432,656.596 505.711,663.294 C508.033,668.036 511.523,672.272 512.843,677.385 C514.854,685.179 511.455,693.237 508.131,700.568 C502.855,712.207 497.578,723.845 492.301,735.483" id="Stroke-5" stroke="#FFFFFF" sketch:type="MSShapeGroup"></path>
            </g>
        </g>
    </g>
</svg>