<?xml version="1.0" encoding="UTF-8" standalone="no"?>
<svg width="595px" height="842px" viewBox="0 0 595 842" version="1.1" xmlns="http://www.w3.org/2000/svg" xmlns:xlink="http://www.w3.org/1999/xlink" xmlns:sketch="http://www.bohemiancoding.com/sketch/ns">
    <!-- Generator: Sketch Beta 3.3.2 (12041) - http://www.bohemiancoding.com/sketch -->
    <title>madonna</title>
    <desc>Created with Sketch Beta.</desc>
    <defs></defs>
    <g id="pictures" stroke="none" stroke-width="1" fill="none" fill-rule="evenodd" sketch:type="MSPage">
        <g id="madonna" sketch:type="MSArtboardGroup">
            <g id="Imported-Layers" sketch:type="MSLayerGroup" transform="translate(42.000000, 25.000000)">
                <path d="M235.216,386.368 C235.216,553.477 292.775,688.946 363.777,688.946 C434.78,688.946 492.338,553.477 492.338,386.368 C492.338,219.258 434.78,83.789 363.777,83.789 C292.775,83.789 235.216,219.258 235.216,386.368" id="Fill-1" fill="#0066FF" sketch:type="MSShapeGroup"></path>
                <path d="M221.663,455.442 C221.663,641.829 172.123,792.925 111.013,792.925 C49.903,792.925 0.363,641.829 0.363,455.442 C0.363,269.055 49.903,117.959 111.013,117.959 C172.123,117.959 221.663,269.055 221.663,455.442" id="Fill-2" fill="#FF4621" sketch:type="MSShapeGroup"></path>
                <path d="M510.338,165.207 C510.338,74.498 401.24,0.965 266.661,0.965 C132.083,0.965 22.985,74.498 22.985,165.207 C22.985,255.915 132.083,329.448 266.661,329.448 C401.24,329.448 510.338,255.915 510.338,165.207" id="Fill-3" fill="#FAE164" sketch:type="MSShapeGroup"></path>
                <path d="M84.359,652.682 C84.359,581.027 172.331,522.939 280.849,522.939 C389.368,522.939 477.339,581.027 477.339,652.682 C477.339,724.338 389.368,782.426 280.849,782.426 C172.331,782.426 84.359,724.338 84.359,652.682" id="Fill-4" fill="#64E178" sketch:type="MSShapeGroup"></path>
                <path d="M139.852,189.145 C138.709,217.65 135.34,246.017 129.779,273.998 C124.185,302.148 115.364,329.026 107.079,356.431 C103.034,369.815 100.06,383.483 99.909,397.517 C99.837,404.211 100.313,410.916 101.568,417.496 C102.562,422.712 103.822,428.803 109.215,431.093 C113.895,433.079 120.338,432.534 125.303,432.156 C131.242,431.705 137.131,430.53 142.798,428.7 C152.904,425.437 162.383,420.122 170.444,413.206 C174.588,409.651 178.355,405.652 181.622,401.277 C181.894,400.912 183.864,397.612 184.184,397.611 C184.872,397.61 185.755,399.923 185.796,400.005 C187.478,403.354 188.297,407.346 188.687,411.047 C190.008,423.577 187.71,436.72 187.055,449.25 C185.528,478.489 185.738,507.804 187.487,537.027 C189.226,566.063 192.627,595.027 197.677,623.674 C201.727,646.65 206.075,673.275 224.324,689.725 C233.985,698.434 247.121,703.77 260.189,703.476 C273.754,703.17 284.294,695.994 290.911,684.377 C297.943,672.034 302.343,657.824 306.427,644.291 C311.071,628.906 314.62,613.208 317.112,597.333 C317.713,593.506 317.912,589.13 316.818,585.366 C316.072,582.799 314.724,582.127 314.206,585.43 C311.758,601.024 308.3,616.425 303.658,631.515 C299.427,645.27 295.091,660.777 286.64,672.628 C268.743,697.724 231.571,685.517 216.558,663.815 C208.766,652.552 205.264,638.958 202.624,625.701 C199.462,609.819 197.045,593.758 195.049,577.691 C191.061,545.574 189.302,513.132 189.808,480.773 C190.084,463.129 191.462,445.597 192.385,427.988 C193.236,411.759 192.665,394.543 184.586,380.033 C184.249,379.638 183.922,379.646 183.604,380.057 C174.007,395.105 159.376,406.306 142.383,411.775 C134.111,414.438 125.387,415.718 116.699,415.385 C112.091,415.209 106.77,414.858 104.869,409.874 C103.126,405.303 103.441,399.692 103.944,394.926 C106.232,373.231 115.729,352.412 121.657,331.554 C127.584,310.704 132.374,289.527 135.923,268.143 C140.02,243.463 142.523,218.554 143.525,193.557 C143.596,191.771 144.049,184.049 141.979,183.179 C139.92,182.314 139.892,188.148 139.852,189.145" id="Fill-5" fill="#231F1F" sketch:type="MSShapeGroup"></path>
                <path d="M221.87,252.385 C256.369,263.845 293.753,270.213 329.809,262.702 C359.684,256.479 387.968,240.648 406.056,215.691 C407.911,213.131 407.346,208.196 407.091,205.249 C407.033,204.582 405.901,197.701 404.674,199.395 C386.446,224.544 358.031,240.141 327.874,246.086 C292.262,253.107 255.477,246.762 221.455,235.461 C220.54,235.157 217.944,251.081 221.87,252.385" id="Fill-6" fill="#231F1F" sketch:type="MSShapeGroup"></path>
                <path d="M94.963,241.441 C72.201,251.362 46.9,253.54 22.777,247.653 C21.431,247.325 19.455,263.666 23.193,264.578 C47.315,270.464 72.616,268.287 95.379,258.366 C99.246,256.681 95.704,241.119 94.963,241.441" id="Fill-7" fill="#231F1F" sketch:type="MSShapeGroup"></path>
                <path d="M142.118,560.679 C145.661,553.097 149.891,545.859 154.774,539.061 C156.49,536.672 158.963,531.823 162.552,533.286 C166.316,534.822 165.826,541.096 167.282,544.348 C169.445,549.181 174.47,551.445 179.599,551.058 C185.856,550.586 190.67,546.1 194.048,541.135 C195.089,539.606 196.004,537.992 196.887,536.368 C197.869,534.561 197.583,534.027 199.006,535.123 C200.304,536.122 201.186,538.904 202.045,540.31 C203.087,542.017 204.161,543.704 205.298,545.35 C209.36,551.228 214.234,556.54 220.48,560.131 C234.759,568.34 247.651,561.87 259.996,553.483 C275.223,543.137 289.105,530.966 301.506,517.371 C303.495,515.19 302.771,509.592 302.541,506.929 C302.475,506.173 301.586,499.471 300.123,501.075 C292.526,509.405 284.396,517.22 275.692,524.391 C267.044,531.515 257.752,538.899 247.645,543.838 C237.87,548.615 227.652,548.295 218.519,542.19 C209.3,536.026 203.655,525.954 198.317,516.542 C197.98,516.148 197.652,516.156 197.335,516.567 C193.782,523.499 189.413,532.203 181.005,533.893 C178.331,534.431 175.258,534.318 172.737,533.171 C168.191,531.103 168.488,527.105 167.147,522.919 C166.254,520.132 164.35,516.18 160.868,516.067 C157.643,515.962 155.506,519.851 153.915,522.035 C148.422,529.578 143.841,537.666 139.894,546.111 C138.394,549.322 138.956,554.323 139.516,557.705 C139.74,559.057 140.664,563.79 142.118,560.679" id="Fill-8" fill="#231F1F" sketch:type="MSShapeGroup"></path>
                <path d="M172.192,578.979 C182.423,588.237 196.022,594.086 209.994,591.391 C222.272,589.023 232.304,580.198 236.328,568.413 C237.537,564.872 237.309,560.46 236.706,556.819 C236.528,555.741 235.253,550.48 234.105,553.845 C230.234,565.181 219.717,573.011 208.007,574.73 C194.877,576.656 182.381,571.329 172.774,562.635 C171.025,561.053 170.669,568 170.646,568.601 C170.556,571.021 170.079,577.067 172.192,578.979" id="Fill-9" fill="#231F1F" sketch:type="MSShapeGroup"></path>
            </g>
        </g>
    </g>
</svg>