<?xml version="1.0" encoding="UTF-8" standalone="no"?>
<svg width="595px" height="842px" viewBox="0 0 595 842" version="1.1" xmlns="http://www.w3.org/2000/svg" xmlns:xlink="http://www.w3.org/1999/xlink" xmlns:sketch="http://www.bohemiancoding.com/sketch/ns">
    <!-- Generator: Sketch Beta 3.3.2 (12041) - http://www.bohemiancoding.com/sketch -->
    <title>mirror</title>
    <desc>Created with Sketch Beta.</desc>
    <defs></defs>
    <g id="pictures" stroke="none" stroke-width="1" fill="none" fill-rule="evenodd" sketch:type="MSPage">
        <g id="mirror" sketch:type="MSArtboardGroup">
            <g id="Imported-Layers" sketch:type="MSLayerGroup" transform="translate(36.000000, 45.000000)">
                <path d="M156.845,345.441 C179.308,361.03 206.587,370.166 236,370.166 C312.768,370.166 375,307.933 375,231.166 C375,154.398 312.768,92.166 236,92.166 C159.232,92.166 97,154.398 97,231.166 C97,267.067 111.166,302.072 136.144,327.861 C146.111,338.151 155.344,349.321 169.209,353.601 C191.517,360.488 215.502,364.172 238.431,368.421 C262.706,372.92 288.683,376.542 311.343,366.746 C327.507,359.759 340.304,346.481 349.714,331.597 C356.501,320.861 361.716,309.222 366.829,297.596 C378.891,270.164 390.765,240.972 387.338,211.202 C382.793,171.716 352.029,139.924 318.066,119.278 C287.692,100.815 253.49,88.683 218.27,83.881 C209.486,82.683 200.015,82.057 192.268,86.368 C186.266,89.708 182.158,95.551 177.19,100.295 C160.674,116.068 134.734,119.623 119.751,136.858 C98.686,161.088 108.426,200.763 90.484,227.387" id="Fill-1" fill="#FFFFFF" sketch:type="MSShapeGroup"></path>
                <path d="M156.845,345.441 C179.308,361.03 206.587,370.166 236,370.166 C312.768,370.166 375,307.933 375,231.166 C375,154.398 312.768,92.166 236,92.166 C159.232,92.166 97,154.398 97,231.166 C97,267.067 111.166,302.072 136.144,327.861 C146.111,338.151 155.344,349.321 169.209,353.601 C191.517,360.488 215.502,364.172 238.431,368.421 C262.706,372.92 288.683,376.542 311.343,366.746 C327.507,359.759 340.304,346.481 349.714,331.597 C356.501,320.861 361.716,309.222 366.829,297.596 C378.891,270.164 390.765,240.972 387.338,211.202 C382.793,171.716 352.029,139.924 318.066,119.278 C287.692,100.815 253.49,88.683 218.27,83.881 C209.486,82.683 200.015,82.057 192.268,86.368 C186.266,89.708 182.158,95.551 177.19,100.295 C160.674,116.068 134.734,119.623 119.751,136.858 C98.686,161.088 108.426,200.763 90.484,227.387" id="Stroke-2" stroke="#1A1918" sketch:type="MSShapeGroup"></path>
                <path d="M311.781,419.712 C306.961,401.954 307.647,379.235 323.385,369.702 C330.042,365.67 338.155,364.907 345.308,361.841 C354.077,358.082 361.025,351.018 366.764,343.397 C385.427,318.609 393.077,287.472 399.994,257.225 C401.456,250.835 402.911,244.389 403.062,237.835 C403.383,223.873 397.81,210.53 392.338,197.681 C388.443,188.536 384.548,179.392 380.653,170.248 C376.523,160.55 372.233,150.609 364.86,143.077 C357.507,135.566 347.685,131.062 339.239,124.806 C321.198,111.441 308.689,89.645 287.279,82.882 C281.959,81.201 276.112,80.463 271.732,77.009 C267.772,73.887 265.655,69.034 262.526,65.08 C259.397,61.126 254.094,57.886 249.473,59.905 C250.531,56.352 248.738,52.169 245.436,50.483 C242.135,48.798 237.696,49.799 235.438,52.739 C235.637,55.105 235.835,57.47 236.034,59.836 C239.872,59.595 242.925,55.372 241.95,51.652 C236.662,49.62 230.549,49.842 225.422,52.252 C227.748,50.721 230.556,55.021 228.511,56.909 C226.466,58.798 222.677,56.906 222.319,54.146 C223.926,53.165 225.533,52.184 227.14,51.204 L311.781,419.712 Z M215.167,56.95 C214.55,54.348 211.609,52.549 209.011,53.184 C208.175,56.098 210.065,59.51 212.979,60.347 C206.547,66.748 195.858,68.362 187.823,64.143 C190.4,62.985 192.977,61.827 195.553,60.669 C197.92,64.481 191.332,67.695 186.964,66.667 C182.596,65.638 176.763,64.038 174.614,67.977 C173.912,69.263 173.913,70.798 173.798,72.258 C172.939,83.162 164.837,92.227 155.741,98.303 C146.646,104.378 136.271,108.33 127.151,114.368 C112.231,124.246 101.313,139.372 94.165,155.776 C78.58,191.541 80.184,232.324 85.28,271.004 C87.189,285.496 89.743,300.443 97.883,312.584 C103.672,321.221 111.92,327.865 118.87,335.599 C125.841,343.355 131.565,352.275 139.387,359.172 C157.277,374.945 182.954,377.656 206.8,378.086 C220.785,378.338 237.226,379.305 244.857,391.027 C249.482,398.132 249.333,407.232 251.811,415.339 C254.29,423.446 262.149,431.584 270.136,428.741 L215.167,56.95 Z M239.081,158.16 C247.653,154.554 256.898,152.553 266.195,152.292 C264.994,153.961 263.793,155.631 262.593,157.301 C265.516,155.711 269.347,156.867 271.704,159.217 C274.457,161.963 275.567,165.974 275.86,169.852 C276.467,177.865 274.465,187.18 280.027,192.981 C277.08,196.528 273.734,199.745 270.073,202.549 C274.288,203.291 278.632,203.299 282.85,202.573 C283.279,201.081 283.708,199.588 284.137,198.096 C285.074,198.113 286.011,198.13 286.948,198.148 C286.221,199.919 286.705,201.928 287.175,203.784 C287.645,205.64 288.079,207.675 287.268,209.409 C286.456,211.144 283.82,212.06 282.593,210.59 C281.919,207.769 281.253,204.758 282.221,202.024 C283.189,199.29 286.495,197.187 289.049,198.562 C290.106,199.13 290.827,200.158 291.757,200.915 C293.799,202.576 296.922,202.748 299.134,201.321 C301.345,199.894 302.476,196.977 301.803,194.432 C298.49,195.759 294.031,196.798 291.91,193.928 C290.894,192.552 290.843,190.708 290.903,188.998 C291.278,178.376 294.371,167.833 293.252,157.263 C292.947,154.378 292.351,151.333 293.51,148.674 C294.669,146.014 298.546,144.382 300.519,146.508 L239.081,158.16 Z M273.975,114.92 C264.436,125.309 254.896,135.698 245.357,146.086 C242.171,149.557 238.96,153.059 236.557,157.111 C233.196,162.779 231.549,169.304 230.594,175.823 C228.105,192.818 230.107,210.375 235.762,226.593 C238.623,234.799 242.394,242.657 245.462,250.788 C255.785,278.145 257.911,307.799 259.935,336.969 L273.975,114.92 Z M324.835,166.235 C321.002,179.554 319.519,193.545 320.474,207.372 C320.831,212.539 321.513,217.833 320.118,222.821 C317.286,232.947 306.93,238.85 297.186,242.804 C293.017,244.496 288.592,246.059 284.121,245.558 C280.806,245.186 277.726,243.702 274.807,242.088 C264.435,236.35 255.152,228.653 247.592,219.524 L324.835,166.235 Z M284.185,221.427 C280.6,222.955 276.595,223.487 272.735,222.946 C276.392,222.709 279.909,220.809 282.112,217.88 C283.677,218.904 285.002,220.289 285.957,221.897 C285.659,219.859 285.601,217.297 287.398,216.291 C289.573,215.073 291.949,217.315 293.894,218.873 C297.506,221.765 302.635,222.638 306.999,221.104 L284.185,221.427 Z M260.112,103.282 C250.998,106.172 241.683,109.185 234.118,115.031 C226.009,121.297 220.499,130.42 216.855,139.998 C207.754,163.919 209.553,190.714 215.456,215.617 C221.358,240.521 231.159,264.331 237.973,289.001 L260.112,103.282 Z M309.766,128.765 C318.972,158.775 326.623,189.262 332.679,220.063 L309.766,128.765 Z M372.243,23.155 C353.413,42.911 333.798,61.918 313.461,80.119 C216.804,166.618 104.763,234.108 4.086,315.893 L372.243,23.155 Z M442.306,41.19 C398.192,90.834 354.048,140.513 312.899,192.641 C282.395,231.283 253.562,271.24 222.285,309.259 C187.475,351.572 149.669,391.433 109.095,428.256 C92.514,443.303 74.963,458.519 65.851,478.972 L442.306,41.19 Z M305.877,393.977 L286.785,395.051 C285.379,393.804 287.251,391.497 289.109,391.21 C290.966,390.923 293.113,391.36 294.538,390.134 C292.034,387.223 287.532,386.251 284.05,387.87 C282.795,385.737 281.934,383.374 281.523,380.934 C281.344,383.893 281.163,386.853 280.983,389.812 C277.62,391.578 273.773,392.41 269.981,392.192 C267.108,394.969 274.198,399.461 272.394,403.027 C271.805,404.192 270.451,404.71 269.215,405.13 C265.3,406.459 261.385,407.788 257.471,409.117 C261.269,408.08 265.068,407.042 268.866,406.005 C268.979,407.597 269.092,409.189 269.204,410.78 C271.294,411.663 273.867,411.262 275.588,409.785 C276.555,408.956 277.73,407.731 278.842,408.351 C279.242,408.574 279.486,408.993 279.711,409.392 C280.978,411.646 282.245,413.899 283.512,416.152 C283.752,413.806 283.992,411.461 284.232,409.115 C288.755,409.61 293.446,406.875 295.244,402.695 C293.345,401.822 291.026,401.924 289.211,402.96 C289.186,401.322 289.161,399.684 289.136,398.045 C294.959,398.965 301.126,397.467 305.877,393.977 L305.877,393.977 Z M259.761,381.265 C257.929,379.601 254.994,379.298 252.861,380.554 C250.727,381.809 249.567,384.522 250.133,386.932 C252.454,386.071 254.995,387.2 257.468,387.336 C259.94,387.472 263.008,385.399 261.999,383.137 C260.189,382.87 258.452,382.118 257.019,380.979 L259.761,381.265 Z" id="Stroke-3" stroke="#1A1918" sketch:type="MSShapeGroup"></path>
                <path d="M305.048,357.744 C302.469,358.036 302.013,362.087 303.945,363.82 C305.876,365.553 308.796,365.487 311.36,365.091 C314.056,364.675 316.888,363.904 318.692,361.859 C320.497,359.814 320.658,356.153 318.383,354.65 C316.243,353.235 313.168,354.494 311.74,356.625 C310.313,358.756 310.093,361.447 309.917,364.007 M329.727,350.463 C334.488,353.684 340.163,356.549 345.771,355.287 C351.38,354.024 355.502,346.592 351.725,342.258 C349.21,339.374 344.83,339.309 341.008,339.469 C339.29,339.541 337.502,339.632 335.996,340.462 C334.49,341.292 333.375,343.102 333.915,344.734 C334.455,346.366 337.09,346.967 337.931,345.468 M361.237,312.745 C359.057,310.491 354.679,312.525 354.235,315.629 C353.791,318.734 356.322,321.66 359.288,322.679 C362.253,323.699 365.508,323.248 368.58,322.618 C370.31,319.825 370.045,315.94 367.952,313.408 C365.858,310.876 362.092,309.886 359.024,311.061 M378.15,283.048 C375.76,288.027 380.598,294.753 386.079,294.071 C386.967,290.855 387.852,287.414 386.826,284.24 C385.799,281.066 382.016,278.566 379.07,280.13 M386.083,250.31 C383.856,250.789 381.569,249.366 380.331,247.454 C379.093,245.542 378.677,243.229 378.287,240.985 C379.073,238.057 382.243,235.984 385.24,236.439 C388.237,236.893 390.651,239.813 390.533,242.842 C389.022,242.894 387.511,242.947 386,243 M384.054,200.573 C385.732,197.473 386.422,193.847 386,190.348 C385.811,188.785 385.361,187.168 384.236,186.067 C381.171,183.068 375.377,186.741 375.512,191.027 C375.647,195.313 379.649,198.58 383.773,199.755 M216.625,365.359 C215.418,364.031 212.994,364.929 212.227,366.552 C211.46,368.175 211.823,370.081 212.202,371.836 C213.762,371.864 215.322,371.893 216.882,371.921 C216.937,369.614 216.993,367.308 217.049,365.001 M178.869,362.279 C175.694,360.733 171.4,363.972 172.015,367.449 C174.612,368.134 177.312,368.823 179.955,368.346 C182.599,367.868 185.171,365.87 185.393,363.192 C185.615,360.515 182.465,357.917 180.146,359.273 M162.958,347.952 C159.811,348.546 156.602,349.216 153.861,350.873 C151.121,352.531 148.894,355.383 148.841,358.585 C148.788,361.788 151.516,365.027 154.71,364.784 C157.385,364.58 159.454,362.13 160.103,359.527 C160.753,356.923 160.295,354.187 159.835,351.544 C159.574,350.047 158.174,348.09 157.047,349.109 M139.805,338.438 C137.087,337.21 133.498,338.548 132.247,341.256 C130.996,343.965 132.305,347.565 135.002,348.838 C136.226,349.416 137.921,349.425 138.697,348.317 C139.256,347.518 139.14,346.446 138.983,345.484 C138.52,342.653 137.9,339.848 137.126,337.086 C136.444,334.655 134.107,331.676 132.067,333.163 M115.495,306.276 C112.394,308.743 110.661,312.83 111.044,316.774 C113.453,319.668 118.682,316.742 119.066,312.997 C119.45,309.252 116.948,305.891 114.582,302.962 M104.014,285.848 C101.056,285.667 97.736,286.369 96.044,288.801 C94.352,291.234 95.694,295.509 98.656,295.573 C99.798,295.598 100.873,295.024 101.773,294.322 C106.367,290.738 107.094,283.167 103.266,278.774 M93.862,265.854 C92.286,266.503 90.615,267.228 89.682,268.654 C88.749,270.081 89.035,272.416 90.639,272.993 C91.671,273.364 92.813,272.894 93.733,272.299 C97.999,269.545 99.984,263.718 98.287,258.932 M270.361,426.022 C266.177,443.821 273.131,462.054 277.051,479.913 C279.316,490.231 280.575,500.738 281.83,511.226 C283.557,525.657 285.284,540.087 287.011,554.517 C289.421,574.654 291.834,594.826 292.368,615.1 C293.59,661.535 284.966,708.381 292.457,754.225 M287.727,424.961 C305.195,460.802 304.704,502.532 301.834,542.301 C298.963,582.07 294.153,622.698 304.074,661.316 C305.8,668.037 307.969,674.669 308.987,681.534 C312.558,705.633 301.928,731.747 312.142,753.864 M295.006,420.156 C294.508,424.135 299.997,426.835 303.516,424.912 C307.034,422.99 308.265,418.372 307.638,414.412 C307.397,412.882 306.914,411.35 305.948,410.139 C303.334,406.86 297.765,407.201 294.807,410.173 C291.848,413.146 291.238,417.858 292.234,421.932 C293.154,421.973 294.075,422.014 294.995,422.055 C292.597,432.766 278.989,446.141 269.122,450.949 C268.996,444.532 274.95,438.648 281.365,438.849 C287.162,439.031 292.03,443.405 295.163,448.286 C299.112,454.439 301.169,462.128 299.267,469.187 C297.365,476.246 290.892,482.241 283.581,482.22 C280.144,477.782 284.595,470.493 290.204,470.263 C295.812,470.032 300.596,475.103 301.701,480.606 C302.806,486.11 301.03,491.791 298.636,496.868 C294.857,504.882 288.526,512.73 279.757,514 C283.447,508.826 290.462,506.279 296.612,507.882 C299.202,515.981 301.824,524.335 301.153,532.812 C300.482,541.288 295.701,550.022 287.645,552.747 C287.471,548.293 293.451,545.012 297.113,547.554 C304.58,563.068 296.032,584.132 279.866,590.057 C280.58,585.997 286.401,584.786 289.866,587.018 C293.33,589.25 294.927,593.412 296.309,597.295 C300.751,609.769 304.625,625.312 295.498,634.905 C292.228,633.855 294.694,628.081 298.109,628.442 C301.524,628.803 303.586,632.37 304.65,635.634 C306.578,641.545 307.007,648.354 303.84,653.704 C300.673,659.054 293.077,661.958 287.881,658.543 C288.919,657.294 289.957,656.044 290.995,654.795 C292.959,655.954 294.923,657.112 296.886,658.271 C300.977,667.487 306.977,676.34 307.306,686.417 C307.635,696.495 298.467,707.671 288.928,704.404 C287.11,699.033 294.572,694.063 299.715,696.451 C304.858,698.838 306.781,705.427 305.916,711.031 C304.309,721.434 294.365,729.882 283.84,729.787 C283.207,727.243 282.575,724.698 281.942,722.153 C287.436,716.018 297.935,721.401 302.148,728.476 C305.12,733.47 306.82,739.537 305.308,745.149 C303.796,750.76 298.418,755.512 292.629,754.982 C284.734,754.256 282.129,745.733 272.694,752.2 C269.203,754.593 267.893,760.46 271.313,762.953 C284.214,759.448 297.505,757.379 310.861,756.795 C313.174,756.694 315.753,756.524 317.327,754.825 C318.9,753.127 317.998,749.485 315.694,749.712" id="Stroke-4" stroke="#1A1918" sketch:type="MSShapeGroup"></path>
                <path d="M292.092,770.072 C287.539,770.495 283.759,774.967 284.099,779.527 C284.44,784.087 288.842,787.948 293.408,787.69 C297.891,787.437 301.583,783.734 303.211,779.551 C304.839,775.367 304.816,770.75 304.772,766.261 C303.569,764.704 300.761,766.345 300.797,768.311 C300.832,770.278 302.534,771.789 304.233,772.78 C306.071,773.853 308.207,774.654 310.302,774.275 C314.525,773.51 316.539,768.2 315.48,764.04 C314.421,759.881 311.305,756.619 308.498,753.373 C283.124,724.029 276.377,683.428 270.623,645.064 L292.092,770.072 Z M312.697,104.196 C312.697,111.395 305.752,117.231 297.185,117.231 C288.619,117.231 281.674,111.395 281.674,104.196 C281.674,96.996 288.619,91.16 297.185,91.16 C305.752,91.16 312.697,96.996 312.697,104.196 L312.697,104.196 Z M522,233.301 C522,324.561 467.057,398.543 399.28,398.543 C331.504,398.543 276.56,324.561 276.56,233.301 C276.56,142.04 331.504,68.059 399.28,68.059 C467.057,68.059 522,142.04 522,233.301 L522,233.301 Z M47,99.281 C47,44.45 101.184,0 168.025,0 C234.865,0 289.049,44.45 289.049,99.281 C289.049,154.112 234.865,198.562 168.025,198.562 C101.184,198.562 47,154.112 47,99.281 L47,99.281 Z M302.755,472.487 C302.755,421.924 256.315,380.934 199.029,380.934 C141.742,380.934 95.303,421.924 95.303,472.487 C95.303,523.051 141.742,564.041 199.029,564.041 C256.315,564.041 302.755,523.051 302.755,472.487 L302.755,472.487 Z M162.958,379.797 C162.958,383.568 177.863,386.625 196.25,386.625 C214.636,386.625 229.541,383.568 229.541,379.797 C229.541,376.026 214.636,372.969 196.25,372.969 C177.863,372.969 162.958,376.026 162.958,379.797 L162.958,379.797 Z M236,384.354 C236,376.518 231.758,370.166 226.524,370.166 C221.291,370.166 217.049,376.518 217.049,384.354 C217.049,392.19 221.291,398.543 226.524,398.543 C231.758,398.543 236,392.19 236,384.354 L236,384.354 Z M178.68,365.186 C178.68,370.052 187.269,373.997 197.864,373.997 C208.46,373.997 217.049,370.052 217.049,365.186 C217.049,360.319 208.46,356.374 197.864,356.374 C187.269,356.374 178.68,360.319 178.68,365.186 L178.68,365.186 Z M312.697,171.735 C312.697,163.671 304.029,157.134 293.336,157.134 C282.643,157.134 273.975,163.671 273.975,171.735 C273.975,179.799 282.643,186.336 293.336,186.336 C304.029,186.336 312.697,179.799 312.697,171.735 L312.697,171.735 Z M0,227.135 C0,265.795 34.899,297.135 77.949,297.135 C121,297.135 155.899,265.795 155.899,227.135 C155.899,188.475 121,157.134 77.949,157.134 C34.899,157.134 0,188.475 0,227.135 L0,227.135 Z M321.223,707.742 C321.223,706.228 319.026,705 316.317,705 C313.608,705 311.411,706.228 311.411,707.742 C311.411,709.256 313.608,710.483 316.317,710.483 C319.026,710.483 321.223,709.256 321.223,707.742 L321.223,707.742 Z M299.934,620.823 C299.934,614.65 302.503,609.646 305.673,609.646 C308.842,609.646 311.411,614.65 311.411,620.823 C311.411,626.996 308.842,632 305.673,632 C302.503,632 299.934,626.996 299.934,620.823 L299.934,620.823 Z M259.999,157.995 C254.397,157.729 248.767,158.061 243.235,158.983 C240.431,159.451 236.902,161.092 237.401,163.891 C238.005,166.587 241.865,167.01 244.322,165.75 C246.781,164.49 248.7,162.226 251.334,161.394 C253.968,160.562 257.703,162.516 256.933,165.169 C252.329,167.448 247.541,169.356 242.631,170.868 C247.194,172.721 252.952,170.907 255.629,166.772 C257.294,167.317 258.958,167.862 260.623,168.406 C262.746,169.958 262.211,173.53 260.235,175.263 C258.259,176.996 255.463,177.364 252.841,177.561 C250.22,177.758 247.454,177.903 245.25,179.333 C243.917,180.482 245.586,182.721 247.329,182.955 C249.073,183.189 250.926,182.53 252.567,183.163 C254.27,183.821 255.187,185.659 255.724,187.404 C257.566,193.39 256.676,200.16 253.349,205.467 C249.195,212.094 241.272,217.168 241.181,224.989 L259.999,157.995 Z M309.869,145.423 C306.254,144.947 301.231,145.494 300.847,149.12 C300.578,151.673 303.192,153.659 305.706,154.177 C308.221,154.695 310.878,154.33 313.344,155.041 C308.03,159.527 301.107,162.066 294.153,162.078 C293.414,163.206 294.102,164.828 295.254,165.527 C296.406,166.226 297.839,166.233 299.183,166.14 C302.902,165.882 306.578,165.007 310.015,163.562 C310.46,167.155 306.088,169.247 302.525,169.886 C298.961,170.525 294.531,171.578 293.789,175.122 C298.255,177.966 304.738,177.04 308.23,173.059 C309.244,173.731 309.16,175.337 308.427,176.308 C307.695,177.279 306.539,177.813 305.497,178.44 C300.338,181.545 297.387,187.948 298.377,193.888 C301.882,194.334 305.476,194.07 308.878,193.116 C310.241,197.796 307.604,202.57 306.143,207.219 C302.897,217.545 305.48,228.758 308.932,239.016 L309.869,145.423 Z M303.834,251.69 C304.401,258.039 304.419,264.479 305.905,270.677 C310.428,289.552 327.28,302.491 343.025,313.839 L303.834,251.69 Z M255.477,238.079 C256.219,247.21 256.961,256.342 257.703,265.473 C257.966,268.709 258.222,272.025 257.355,275.154 C256.673,277.616 255.329,279.835 253.986,282.008 C249.622,289.067 245.099,296.028 240.42,302.883 C236.265,308.971 231.707,315.22 225.077,318.44 C222.624,319.631 219.966,320.362 217.529,321.586 C213.61,323.552 210.43,326.7 207.349,329.821 C198.966,338.312 190.779,346.997 182.797,355.867 L255.477,238.079 Z M315.002,616.934 C317.897,617.027 320.792,617.12 323.687,617.213 C326.318,620.055 326.543,624.691 324.549,628.01 C322.554,631.33 318.652,633.278 314.779,633.331 C309.504,633.404 304.35,629.983 302.368,625.094 C300.386,620.204 296.21,609.451 300.047,605.829 C303.847,607.166 307.783,608.522 311.8,608.215 C315.817,607.907 319.963,605.474 320.96,601.572 C321.614,599.016 320.842,596.315 319.813,593.886 C318.296,590.303 316.204,586.965 313.642,584.037 C312.733,582.999 311.631,581.946 310.255,581.86 C306.853,581.648 306.161,586.596 306.766,589.95 C305.177,589.967 298.2,589.7 296.612,589.716 C306.35,576.59 306.685,557.838 317.772,545.828 C321.434,541.861 326.063,538.896 329.813,535.011 C333.563,531.126 336.482,525.785 335.422,520.49 C334.462,515.695 330.542,512.137 326.841,508.94 C317.692,513.258 316.243,526.919 307.187,531.428 L315.002,616.934 Z" id="Stroke-5" stroke="#1A1918" sketch:type="MSShapeGroup"></path>
                <path d="M319.696,642.362 C323.31,647.035 324.749,654.165 320.96,658.697 C318.051,662.176 312.423,662.969 308.667,660.427 C304.911,657.886 303.553,652.367 305.7,648.373 M278.666,700.752 C283.217,693.088 284.286,683.445 281.524,674.971 C278.701,666.307 272.106,658.751 271.728,649.647 C270.967,631.31 295.285,618.685 293.36,600.434 C293.033,597.336 291.931,594.379 290.839,591.462 C286.979,581.148 283.104,570.802 277.965,561.062 C272.481,550.667 265.576,541.024 257.502,532.483 C254.761,529.583 246.043,525.24 242.202,526.325 C240.326,526.854 238.937,528.474 238.073,530.221 C236.703,532.991 236.397,536.27 237.231,539.245 C238.491,543.739 242.07,547.134 244.632,551.035 C252.736,563.37 250.187,579.573 247.334,594.054 M235.368,610.924 C223.437,649.775 211.558,692.093 225.824,730.149 C228.713,737.857 232.655,745.274 233.998,753.395 C236.456,768.25 230.05,782.218 221.144,794.89 M314.761,662.04 C315.627,678.632 316.218,696.378 307.558,710.557 C300.869,721.508 289.555,728.74 281.248,738.521 C272.824,748.439 267.725,760.682 262.756,772.709 C259.701,780.103 256.646,787.496 253.592,794.89" id="Stroke-6" stroke="#1A1918" sketch:type="MSShapeGroup"></path>
            </g>
        </g>
    </g>
</svg>