<?xml version="1.0" encoding="UTF-8" standalone="no"?>
<svg width="595px" height="842px" viewBox="0 0 595 842" version="1.1" xmlns="http://www.w3.org/2000/svg" xmlns:xlink="http://www.w3.org/1999/xlink" xmlns:sketch="http://www.bohemiancoding.com/sketch/ns">
    <!-- Generator: Sketch 3.4.4 (17249) - http://www.bohemiancoding.com/sketch -->
    <title>painlevels</title>
    <desc>Created with Sketch.</desc>
    <defs>
        <path id="path-1" d="M0,0.818 L517.144,0.818 L517.144,809 L0,809"></path>
        <path id="path-3" d="M0,0.818 L517.144,0.818 L517.144,809 L0,809"></path>
        <path id="path-5" d="M0,0.818 L517.144,0.818 L517.144,809 L0,809"></path>
    </defs>
    <g id="pictures" stroke="none" stroke-width="1" fill="none" fill-rule="evenodd" sketch:type="MSPage">
        <g id="painlevels" sketch:type="MSArtboardGroup">
            <g id="Page-1" sketch:type="MSLayerGroup" transform="translate(39.000000, 29.000000)">
                <path d="M285.3156,357.9687 C282.5096,343.0617 276.8006,328.4067 267.2746,316.4817 C257.6596,304.4457 244.8146,295.6727 232.1056,287.2277 C219.7416,279.0127 205.4406,271.0857 196.5886,258.8237 C187.2566,245.8987 187.3816,229.1197 190.8636,214.1777 C194.4256,198.8867 201.9526,183.9627 199.0936,167.8817 C196.7296,154.5827 188.4646,142.3517 177.1626,134.9827 C170.0666,130.3567 162.0776,128.9787 154.2626,126.1047 C145.7006,122.9577 141.4216,116.2517 134.5786,110.8127 C129.2516,106.5777 121.9736,105.7947 115.9196,108.8877 C110.5226,111.6457 105.5126,115.3447 100.5986,118.8797 C97.4466,121.1487 93.6666,123.3557 92.2526,127.1627 C92.2386,127.2027 96.0196,125.2137 95.5516,125.4917 C97.4336,124.3707 99.2786,123.1597 101.0996,121.9287 C110.5926,122.1837 118.0716,135.5177 125.3616,139.7947 C131.6666,143.4937 139.1166,144.3767 145.8086,147.1327 C151.6106,149.5217 156.8976,153.1787 161.2746,157.6667 C170.0456,166.6587 175.2956,179.3377 175.1296,191.9197 C174.9246,207.3937 167.3036,221.4867 164.4876,236.4827 C161.8246,250.6717 162.9686,265.7767 172.2096,277.4547 C180.9566,288.5087 193.9936,296.0227 205.7596,303.4137 C217.8716,311.0227 230.1516,318.7527 240.0806,329.1807 C249.7946,339.3827 256.7516,351.9647 260.9666,365.3627 C271.5756,399.0837 264.4276,434.6157 256.1576,467.9807 C255.7406,469.6647 261.7406,466.0187 262.1696,465.7497 C264.5006,464.2877 269.6676,461.6757 270.7086,458.8307 C282.4386,426.7917 291.7616,392.2137 285.3156,357.9687" id="Fill-1" fill="#F9E064" sketch:type="MSShapeGroup"></path>
                <path d="M176.3541,494.1032 C170.1601,483.3702 172.1891,471.2652 171.5551,459.4462 C170.9201,447.5822 165.5641,438.5632 158.5411,429.3162 C151.5391,420.0952 144.7251,411.0142 143.0701,399.2132 C142.2491,393.3602 142.5821,387.3352 144.0641,381.6122 C145.5781,375.7682 150.0971,370.5042 150.8281,364.5892 C151.5351,358.8622 147.3441,352.6102 145.3761,347.3572 C142.8381,340.5812 140.6951,333.6542 138.9351,326.6362 C135.6131,313.3952 133.9071,299.8912 133.3311,286.2642 C132.1901,259.2832 134.3611,230.8802 124.4811,205.1612 C119.5521,192.3282 111.4691,182.5202 102.6011,172.2602 C93.8751,162.1662 86.7841,150.5402 90.5841,136.8732 C90.4201,137.4622 86.2221,139.4882 85.5371,139.9572 C84.2121,140.8642 81.5901,142.0462 80.8381,143.5482 C74.5831,156.0382 75.0731,169.5762 82.4501,181.3562 C88.7521,191.4222 96.6151,200.0492 101.2681,211.1322 C111.8881,236.4302 110.3511,264.0702 110.5141,290.8892 C110.6861,319.0182 114.8031,345.5932 125.4081,371.7432 C126.4561,374.3262 127.6851,376.9742 127.5331,379.8352 C127.3431,383.4202 125.1011,386.4622 123.5851,389.5912 C121.1381,394.6442 119.6551,400.0932 119.1991,405.6892 C118.1671,418.3642 122.8481,429.3942 130.1311,439.4752 C137.4511,449.6062 145.7951,459.0542 147.2411,471.9782 C148.6511,484.5762 144.6251,499.2272 153.1491,509.9952 C154.6551,511.8972 177.6021,496.2652 176.3541,494.1032" id="Fill-3" fill="#231F1F" sketch:type="MSShapeGroup"></path>
                <g id="Group-7">
                    <mask id="mask-2" sketch:name="Clip 6" fill="white">
                        <use xlink:href="#path-1"></use>
                    </mask>
                    <g id="Clip-6"></g>
                    <path d="M417.3002,467.4109 C416.1152,468.2269 416.8402,467.7169 417.3002,467.4109 M509.1712,106.3989 C504.8182,97.7369 497.3912,89.9009 487.4232,88.3079 C483.3522,87.6569 479.6932,88.4179 476.1012,90.3489 C467.6722,94.8789 459.2652,100.6899 451.9602,106.8879 C442.8732,114.5979 445.6822,127.6689 446.4662,138.1429 C447.5472,152.5829 448.5432,167.0839 447.6852,181.5639 C446.3192,204.6329 439.4672,232.0689 420.6882,247.4269 C421.0152,247.1609 417.3882,249.9219 417.6992,250.3759 C418.0112,250.8309 421.8942,248.4439 421.5292,248.6539 C427.2732,245.3499 432.7872,241.4759 437.9912,237.3789 C458.3152,221.3789 468.7862,198.6779 471.6992,173.2449 C473.3842,158.5329 472.7612,143.6799 471.7372,128.9449 C471.2712,122.2379 470.4902,115.5059 470.2652,108.7819 C471.1212,109.3119 471.9212,109.8599 472.6262,110.4039 C478.5562,114.9749 482.6322,122.1159 485.2772,129.0049 C490.8872,143.6159 490.7742,159.7539 490.9292,175.1729 C491.2692,208.8899 491.2722,243.6799 481.4332,276.2519 C476.3882,292.9539 468.2472,307.9469 457.9922,321.9979 C447.5562,336.2969 436.0002,350.1439 429.9512,367.0269 C427.2082,374.6819 425.6182,382.8779 426.1072,391.0279 C426.6412,399.9189 429.6782,408.3589 431.7152,416.9629 C435.5462,433.1339 433.1342,450.8329 421.6742,463.5559 C420.9272,464.3859 419.7892,465.4889 419.1782,466.0519 C419.0182,466.1999 418.8972,466.3129 418.7952,466.4109 C418.6622,466.4849 418.4202,466.6379 417.9952,466.9319 C417.7322,467.1129 417.5192,467.2599 417.3432,467.3809 C416.3702,468.0179 415.3822,468.6339 414.3972,469.2529 C412.5982,470.3849 410.7892,471.5019 408.9902,472.6349 C400.8802,477.7429 392.8352,483.1119 385.7092,489.5529 C380.0512,494.6679 374.9762,500.6589 372.7022,508.0679 C369.9582,517.0099 371.8872,525.3199 374.6472,533.9849 C374.7662,534.3559 388.3032,528.1089 387.7192,525.0329 C385.6012,513.8619 387.0702,500.6499 393.1962,490.8629 C398.2822,482.7369 402.2372,481.4729 409.6852,476.9349 C428.7382,465.3219 449.1992,451.3839 455.1042,428.5239 C457.8922,417.7299 456.7652,407.2579 454.1222,396.5629 C451.0182,384.0009 448.3142,372.2129 451.4602,359.3219 C457.1492,336.0149 474.4662,318.3239 487.5982,299.0519 C513.8162,260.5749 517.2732,213.5279 517.0942,168.3189 C517.0142,148.0139 518.5602,125.0819 509.1712,106.3989" id="Fill-5" fill="#FF4621" sketch:type="MSShapeGroup" mask="url(#mask-2)"></path>
                </g>
                <path d="M405.9125,230.6379 C405.8345,230.1039 405.8815,229.4899 405.7875,228.9789 C405.7075,228.5439 405.3515,228.0579 405.1645,227.6619 C404.7035,226.6879 404.1435,225.8279 403.5545,224.9269 C403.2235,224.4199 400.2975,226.0989 400.4435,226.0219 C398.1895,227.2029 395.9875,228.6289 393.8995,230.0749 C391.7965,231.5309 389.6685,233.0089 387.7555,234.7119 C387.3875,235.0389 385.2465,236.6619 385.6095,237.2169 C386.1945,238.1109 386.7635,238.9749 387.4675,239.7819 C388.2845,240.7189 389.0725,241.1649 390.1415,241.7879 C390.8905,242.2249 391.6885,242.4029 392.4775,242.7239 C393.3565,243.0819 394.1085,243.2329 395.0655,243.1169 C396.0375,242.9999 397.5585,241.9319 398.3045,241.4809 C399.7295,240.6189 401.1165,239.6989 402.4765,238.7389 C403.6975,237.8779 404.9345,236.9999 406.0605,236.0169 C406.2245,235.8739 407.8135,234.2919 407.6315,234.2519 C405.8475,233.8669 406.1195,232.0509 405.9125,230.6379" id="Fill-8" fill="#231F1F" sketch:type="MSShapeGroup"></path>
                <path d="M400.2272,59.9724 C400.4852,59.6964 400.7442,59.4224 400.9982,59.1404 C400.7392,59.4284 400.4822,59.7044 400.2272,59.9724 M393.9832,64.4524 C394.7502,64.1274 395.5272,63.8284 396.3092,63.5414 C391.3192,67.3964 388.9152,66.5974 393.9832,64.4524 M445.8922,45.6304 C440.8552,43.6234 434.3782,45.4224 429.2562,46.3404 C414.2892,49.0244 402.4592,56.0034 390.2532,64.9074 C380.8902,71.7374 373.5922,79.5614 368.7382,90.1704 C363.1442,102.3944 361.1332,115.8754 358.5932,128.9634 C355.4932,144.9424 351.8642,160.8144 347.9702,176.6164 C344.0072,192.6974 338.6572,208.8714 336.0662,225.2294 C336.0012,225.6394 339.5022,223.8774 339.5422,223.8694 C342.0392,222.5364 344.4612,220.9134 346.7892,219.3184 C349.4932,217.4674 355.0232,214.7654 356.1772,211.4564 C360.5972,198.7714 363.5382,185.4474 366.7322,172.4054 C369.8782,159.5574 372.8842,146.6734 375.6042,133.7274 C378.2082,121.3294 380.1312,108.7884 382.8312,96.4144 C385.2742,85.2224 388.8692,73.9584 395.9402,64.7644 C396.3512,64.2304 396.7802,63.7204 397.2182,63.2204 C397.4492,63.1404 397.6772,63.0534 397.9092,62.9764 C403.8702,60.9974 410.1372,59.8844 416.3582,59.0914 C420.7092,58.5364 425.8052,58.2674 429.0262,61.8344 C432.5332,65.7174 431.6572,71.8264 430.9322,76.5274 C429.1992,87.7644 427.2462,99.2854 422.9002,109.8504 C418.6312,120.2314 410.8952,128.7854 407.7212,139.6644 C403.9952,152.4314 403.8982,166.2314 401.2902,179.2664 C398.6012,192.7114 394.8752,206.0824 390.6002,219.0864 C390.3162,219.9514 394.3602,217.4844 394.6802,217.2804 C396.4002,216.1844 399.8392,214.4934 400.7932,212.5324 C407.1442,199.4884 412.2592,186.0984 416.1292,172.0954 C419.7662,158.9374 421.3602,145.4324 424.6302,132.2244 C428.0262,118.5104 437.6752,108.3874 442.9512,95.5414 C447.6332,84.1414 450.8172,70.7274 451.6992,58.4114 C452.0602,53.3744 451.1832,47.7384 445.8922,45.6304" id="Fill-10" fill="#0066FF" sketch:type="MSShapeGroup"></path>
                <path d="M339.5421,223.8695 C339.5221,223.8795 339.5031,223.8915 339.4841,223.9025 C339.5331,223.8765 339.5451,223.8685 339.5421,223.8695" id="Fill-12" fill="#0066FF" sketch:type="MSShapeGroup"></path>
                <g id="Group-16">
                    <mask id="mask-4" sketch:name="Clip 15" fill="white">
                        <use xlink:href="#path-3"></use>
                    </mask>
                    <g id="Clip-15"></g>
                    <path d="M392.7365,2.5864 C378.7225,-3.9166 362.2395,9.0574 351.6225,16.5324 C339.0645,25.3734 329.5935,35.8664 320.5805,48.2184 C311.4145,60.7794 302.8025,73.7724 295.2125,87.3494 C278.8285,116.6564 266.8115,148.4514 262.6275,181.8884 C262.6445,181.7524 268.5175,178.6494 269.1095,178.2444 C270.4505,177.3274 274.5415,175.3244 274.8495,173.5184 C280.0015,143.2414 291.1655,114.4284 305.8935,87.5584 C313.0885,74.4314 321.0665,61.7044 329.5715,49.3874 C337.3985,38.0524 345.3905,26.2874 355.1375,16.4874 C357.4515,15.6394 359.8565,15.0224 362.2995,14.7644 C368.1735,14.1424 374.6845,15.5624 377.9965,20.8814 C384.6785,31.6124 376.1985,47.5974 370.5015,56.9624 C356.8305,79.4334 335.8315,96.4384 325.5195,121.0984 C319.3455,135.8644 316.6535,151.8374 315.8665,167.7564 C315.4575,176.0264 315.5565,184.3164 315.9525,192.5854 C316.3365,200.5974 316.5455,208.9724 318.6825,216.7264 C318.8945,217.4954 329.7015,210.6754 330.5175,210.1164 C333.1415,208.3194 335.7505,206.4664 338.1895,204.4244 C338.9515,203.7864 340.9235,202.5494 340.9585,201.4704 C341.4745,185.8124 338.6495,170.1174 339.0175,154.3824 C339.3725,139.1704 341.3995,123.8544 346.5985,109.4924 C356.5855,81.9064 380.5805,64.0694 393.8955,38.5604 C399.0765,28.6364 406.7185,9.0744 392.7365,2.5864" id="Fill-14" fill="#64E078" sketch:type="MSShapeGroup" mask="url(#mask-4)"></path>
                </g>
                <path d="M260.8807,41.1047 C260.9337,41.0567 260.9847,41.0067 261.0367,40.9587 C262.1597,39.9517 263.3337,39.0007 264.4527,37.9917 C267.4797,35.2607 267.9487,37.8007 260.8807,41.1047 M258.0547,42.3007 C258.9517,41.9567 259.8207,41.5747 260.6897,41.1947 C259.9027,41.5567 259.0287,41.9277 258.0547,42.3007 M290.8847,24.8597 C278.4577,25.6957 267.5007,34.2497 257.7247,41.1367 C238.3097,54.8147 222.0597,72.1247 207.5547,90.8367 C199.2927,101.4957 191.5927,112.5777 184.1087,123.7927 C180.5287,129.1577 176.9827,134.5457 173.4657,139.9527 C170.1587,145.0387 166.1287,150.6907 168.8707,156.8857 C169.1767,157.5767 178.8347,151.1797 179.6017,150.6537 C180.7757,149.8497 189.7937,144.5887 189.2907,142.8997 C187.6577,137.4217 190.1737,132.5067 193.0727,127.9087 C195.8647,123.4787 198.7757,119.1167 201.6517,114.7407 C207.5727,105.7317 213.5907,96.7817 219.8987,88.0367 C232.0617,71.1777 245.3827,55.0477 260.8667,41.1177 C262.2327,40.5217 263.6017,39.9397 265.0767,39.5407 C269.7697,38.2737 274.8757,38.0617 279.6127,39.2157 C283.6057,40.1877 287.4627,42.1737 290.2057,45.2817 C293.9227,49.4907 293.6957,53.8017 291.4957,58.6527 C283.4697,76.3527 270.5307,91.3257 258.6097,106.4597 C252.2907,114.4827 246.0807,122.5987 240.7027,131.2947 C236.2737,138.4547 227.5427,150.5237 231.3257,159.1607 C231.2627,159.0187 241.1367,154.1717 240.9937,152.5387 C240.4327,146.1187 243.7257,140.3207 246.8077,134.9067 C249.7567,129.7237 253.0027,124.7137 256.4527,119.8517 C263.0027,110.6197 270.2497,101.8937 277.4797,93.1937 C284.6707,84.5407 291.8237,75.8137 298.2897,66.5997 C301.1027,62.5907 303.7687,58.4837 306.2427,54.2577 C308.7287,50.0107 312.7717,44.4517 312.9617,39.3667 C313.3617,28.6237 299.4087,24.2857 290.8847,24.8597" id="Fill-17" fill="#231F1F" sketch:type="MSShapeGroup"></path>
                <g id="Group-21">
                    <mask id="mask-6" sketch:name="Clip 20" fill="white">
                        <use xlink:href="#path-5"></use>
                    </mask>
                    <g id="Clip-20"></g>
                    <path d="M157.5323,519.0996 C157.2283,518.6376 146.5013,525.0586 146.5493,526.6216 C146.9033,538.1396 145.4253,548.0816 140.8023,558.7266 C136.7123,568.1436 131.2233,576.9496 126.0263,585.7806 C115.4693,603.7206 104.7343,621.5526 93.8743,639.3106 C72.3483,674.5096 50.6813,709.6736 30.9733,745.9366 C19.8973,766.3166 8.7913,787.0956 0.0453,808.6036 C-0.6987,810.4336 7.9533,805.3526 8.5503,804.9716 C12.6093,802.3796 18.4143,799.2666 21.1493,795.0986 C24.1663,790.4996 27.1753,785.8956 30.1873,781.2936 C31.0063,780.0406 28.5683,781.1086 28.5813,781.1066 C28.2503,781.1666 27.8743,781.3046 27.4843,781.4706 C34.1423,767.1836 40.8853,752.9686 48.2663,738.9986 C57.9553,720.6626 68.2053,702.6306 78.7023,684.7476 C99.4953,649.3286 121.4523,614.5716 141.5183,578.7296 C146.8613,569.1846 152.5433,559.6666 156.6453,549.5006 C160.3613,540.2936 163.4133,528.0376 157.5323,519.0996" id="Fill-19" fill="#231F1F" sketch:type="MSShapeGroup" mask="url(#mask-6)"></path>
                </g>
                <path d="M374.2567,553.8138 C371.2787,555.5958 368.3787,557.6298 365.7737,559.9278 C345.5127,577.7968 335.1107,602.8468 328.0077,628.3328 C319.6057,658.4818 312.5497,689.4518 307.6797,720.3708 C306.2677,729.3368 305.0887,738.3398 304.2357,747.3768 C303.8097,751.8918 303.4647,756.4148 303.2127,760.9428 C303.0747,763.4208 303.4357,766.9318 303.1607,769.9978 C301.9617,771.0118 298.9507,773.6488 300.3867,775.3068 C302.0897,777.2738 312.3207,769.8478 313.0047,769.3948 C317.0717,766.6968 323.8557,763.2148 325.9307,758.5108 C327.4197,755.1368 326.5507,750.3428 326.6807,746.7418 C327.3397,728.4618 329.6307,710.3218 332.5727,692.2828 C335.5587,673.9778 339.4037,655.8478 343.1887,637.6968 C346.2047,623.2308 349.1037,608.7498 353.6367,594.6608 C358.5587,579.3598 365.7527,564.6598 377.0587,553.0538 C379.1347,550.9218 374.6177,553.5978 374.2567,553.8138" id="Fill-22" fill="#231F1F" sketch:type="MSShapeGroup"></path>
            </g>
        </g>
    </g>
</svg>