<?xml version="1.0" encoding="UTF-8" standalone="no"?>
<svg width="595px" height="842px" viewBox="0 0 595 842" version="1.1" xmlns="http://www.w3.org/2000/svg" xmlns:xlink="http://www.w3.org/1999/xlink" xmlns:sketch="http://www.bohemiancoding.com/sketch/ns">
    <!-- Generator: Sketch Beta 3.3.1 (12005) - http://www.bohemiancoding.com/sketch -->
    <title>pc</title>
    <desc>Created with Sketch Beta.</desc>
    <defs></defs>
    <g id="pictures" stroke="none" stroke-width="1" fill="none" fill-rule="evenodd" sketch:type="MSPage">
        <g id="pc" sketch:type="MSArtboardGroup" stroke="#1A1918">
            <g id="Imported-Layers" sketch:type="MSLayerGroup" transform="translate(12.000000, 67.500000)">
                <g sketch:type="MSShapeGroup">
                    <path d="M357.958,68.918 L39.958,36.418 L39.958,303.918 L356.958,272.918 L357.958,68.918 L357.958,68.918 Z M241.362,406.087 L546.958,327.918 L356.958,278.918 L39.958,309.155 L241.362,406.087 L241.362,406.087 Z M41.967,310.01 C39.36,314.053 40.521,319.646 43.434,323.475 C46.347,327.305 50.66,329.769 54.853,332.13 C80.443,346.539 106.033,360.948 131.623,375.357 C164.291,393.751 197.113,412.218 232.164,425.521 C235.73,426.874 239.346,428.181 243.119,428.735 C249.438,429.662 255.859,428.438 262.099,427.078 C318.646,414.755 372.122,391.021 428.311,377.154 C438.346,374.677 448.457,372.518 458.523,370.168 C490.774,362.638 522.566,353.142 553.664,341.749 M399.41,295.005 C385.686,290.547 372.189,284.967 357.896,282.986 C330.823,279.234 303.908,288.662 276.934,293.062 C253.394,296.902 229.425,296.913 205.608,298.179 C161.329,300.533 117.41,307.243 73.578,313.944 C111.222,323.247 140.151,358.77 178.864,360.989 C198.162,362.095 216.74,354.571 235.394,349.506 C268.667,340.473 303.695,339.09 336.789,329.425 C346.019,326.73 355.052,323.403 364.236,320.556 C388.731,312.965 414.142,308.836 439.456,304.731 C425.887,302.506 412.488,299.252 399.41,295.005 L399.41,295.005 L399.41,295.005 Z M53.739,291.295 C90.176,280.743 129.856,291.573 166.869,283.261 C175.756,281.265 184.458,278.169 193.54,277.472 C201.326,276.874 209.164,278.062 216.954,277.519 C225.263,276.94 233.29,274.413 241.327,272.228 C273.475,263.487 307.053,260.031 340.307,262.041 C341.991,262.143 343.844,262.21 345.178,261.176 C346.587,260.084 346.942,258.137 347.166,256.369 C350.511,230.016 347.394,203.336 346.546,176.785 C345.499,143.984 347.927,111.182 350.354,78.454 C251.66,70.403 153.023,61.667 54.45,52.249 C56.428,67.587 56.393,83.184 54.346,98.513 C53.374,105.793 51.948,113.151 52.95,120.427 C53.567,124.902 55.087,129.201 56,133.625 C58.151,144.043 56.887,154.818 55.876,165.408 C52.822,197.396 52.156,229.613 53.884,261.701 C54.416,271.569 55.171,281.516 53.739,291.295 L53.739,291.295 L53.739,291.295 Z M226.694,58.351 C225.477,57.584 223.751,58.977 223.898,60.409 C224.045,61.841 225.49,62.863 226.922,63.008 C228.354,63.152 229.761,62.626 231.087,62.065 C231.542,61.872 232.055,61.604 232.147,61.118 C232.262,60.514 231.66,60.032 231.117,59.745 C228.737,58.487 225.993,57.929 223.311,58.157 L226.694,58.351 L226.694,58.351 Z M38.592,303.668 C34.469,287.33 32.973,270.331 34.18,253.523 C34.833,244.429 36.246,235.085 33.65,226.345 C32.223,221.538 29.607,217.035 29.119,212.044 C28.431,205.005 32.057,198.335 33.393,191.391 C34.608,185.076 33.914,178.569 34.151,172.142 C34.647,158.627 39.265,145.324 38.107,131.849 C36.875,117.514 29.156,103.882 30.536,89.56 C31.159,83.097 33.614,76.978 35.403,70.736 C38.681,59.297 39.739,47.225 38.502,35.39 L38.592,303.668 L38.592,303.668 Z M160.608,264.874 C157.639,265.789 155.734,269.269 156.562,272.264 C157.391,275.259 160.814,277.265 163.832,276.524 C164.903,276.261 165.921,275.678 166.569,274.785 C167.013,274.172 167.267,273.444 167.478,272.718 C168.061,270.708 168.336,268.461 167.405,266.587 C166.474,264.713 163.963,263.531 162.183,264.632 L160.608,264.874 L160.608,264.874 Z M177.319,264.915 C176.757,265.015 176.194,265.115 175.631,265.216 C174.039,266.798 174.012,269.651 175.516,271.318 C177.019,272.986 179.785,273.281 181.654,272.036 C183.146,271.042 184.01,269.03 183.354,267.361 C182.697,265.692 180.335,264.85 178.942,265.979 L177.319,264.915 L177.319,264.915 Z M194.145,264.105 C193.11,262.826 190.718,263.871 190.532,265.506 C190.345,267.14 191.77,268.607 193.353,269.055 C194.935,269.503 196.621,269.189 198.235,268.873 C197.452,266.717 196.149,264.752 194.469,263.19 L194.145,264.105 L194.145,264.105 Z M208.497,262.582 C206.317,263.637 205.24,266.524 206.199,268.749 C208.221,269.312 210.494,269.605 212.336,268.597 C214.178,267.589 215.115,264.823 213.654,263.316 C212.431,263.002 211.209,262.689 209.987,262.376 L208.497,262.582 L208.497,262.582 Z M226.447,258.757 C224.563,260.681 224.145,263.88 225.472,266.224 C226.799,268.568 229.758,269.855 232.377,269.228 C233.865,268.395 234.329,266.165 233.296,264.808 C231.728,262.747 227.745,262.866 227.294,260.316 L226.447,258.757 L226.447,258.757 Z M240.426,259.541 C239.152,261.854 240.213,265.271 242.724,266.089 C245.235,266.907 248.259,264.25 247.444,261.738 C246.493,258.805 242.433,258.702 239.386,259.177 L240.426,259.541 L240.426,259.541 Z M259.107,256.666 C257.755,256.2 256.271,255.733 254.93,256.227 C253.589,256.721 252.769,258.666 253.832,259.622 C254.291,260.035 254.944,260.139 255.559,260.205 C257.453,260.407 259.368,260.415 261.265,260.227 C261.564,258.683 260.24,257.032 258.667,256.991 L259.107,256.666 L259.107,256.666 Z M148.007,284.947 C148.724,281.286 149.442,277.625 150.159,273.964 C191.635,269.065 232.996,263.188 274.195,256.342 C275.019,258.562 275.844,260.783 276.668,263.003 L148.007,284.947 L148.007,284.947 Z M326.858,211.276 C334.385,205.033 332.117,193.237 330.054,183.677 C325.156,160.979 325.418,137.182 330.813,114.596 C332.215,108.728 333.834,102.063 330.474,97.052 C326.665,91.37 318.637,90.929 311.797,90.943 C266.528,91.03 221.465,85.327 176.611,79.221 C172.514,78.663 167.818,78.276 164.769,81.069 C160.295,85.167 162.665,92.407 164.154,98.289 C167.115,109.988 165.067,122.282 163.581,134.258 C160.993,155.109 160.159,176.177 161.088,197.168 C161.178,199.196 161.295,201.272 162.079,203.145 C164.164,208.128 170.33,210.147 175.719,209.777 C181.108,209.407 186.229,207.288 191.579,206.546 C197.393,205.739 203.293,206.578 209.114,207.332 C242.348,211.641 275.868,213.22 309.344,214.795 C315.439,215.081 322.161,215.171 326.858,211.276 L326.858,211.276 L326.858,211.276 Z" id="Stroke-1"></path>
                    <path d="M164.07,98.574 C151.334,102.633 137.942,93.451 124.616,94.495 C123.826,94.557 123.005,94.667 122.347,95.108 C121.632,95.587 121.209,96.386 120.853,97.169 C114.846,110.382 120.363,125.59 122.812,139.895 C124.172,147.841 124.564,156.001 127.007,163.684 C128.361,167.945 130.333,172.007 131.402,176.349 C135.646,193.595 125.131,210.788 123.069,228.429 C151.179,237.381 181.628,232.718 210.987,235.613 C224.778,236.973 238.463,240.02 252.318,239.719 C269.587,239.344 286.827,233.775 303.879,236.534 C303.758,228.914 303.637,221.294 303.517,213.674 M196.151,205.54 C202.649,178.797 190.659,150.517 195.214,123.374 C195.772,120.046 196.58,116.662 196.013,113.335 C195.222,108.699 192.126,103.115 195.649,100 L196.151,205.54 L196.151,205.54 Z M329.912,109.352 C304.052,113.68 277.811,106.642 251.655,104.811 C221.884,102.727 190.475,107.153 163.343,94.724 L329.912,109.352 L329.912,109.352 Z M118.672,110.287 C117.857,112.227 120.296,113.925 122.345,114.406 C130.136,116.237 138.303,113.899 146.28,114.555 C152.66,115.08 159.042,117.514 165.304,116.186 L118.672,110.287 L118.672,110.287 Z M400.488,331.617 C395.165,327.744 390.034,321.441 383.601,322.835 C380.811,323.44 378.579,325.445 376.16,326.96 C367.899,332.129 357.472,331.565 347.792,332.688 C341.066,333.469 334.478,335.137 327.913,336.801 C311.457,340.971 295.001,345.142 278.544,349.312 C289.709,357.137 301.433,364.163 313.597,370.319 C318.845,372.975 324.318,375.51 330.177,376.022 C334.657,376.413 339.145,375.6 343.569,374.791 C361.298,371.548 379.043,368.302 396.521,363.904 C413.188,359.711 429.593,354.474 445.607,348.234 C433.716,337.205 413.602,341.157 400.488,331.617 L400.488,331.617 L400.488,331.617 Z M56.779,58.362 C73.166,61.054 89.6,63.75 106.191,64.463 C113.855,64.792 121.561,64.699 129.153,65.796 C138.784,67.188 148.113,70.479 157.817,71.21 C169.427,72.086 181.156,69.261 192.693,70.828 C198.727,71.648 204.54,73.651 210.539,74.691 C222.82,76.821 235.578,74.874 247.781,77.411 C254.438,78.795 260.885,81.504 267.683,81.662 C273.07,81.786 278.351,80.295 283.702,79.661 C290.256,78.886 296.887,79.401 303.466,79.917 C319.643,81.185 335.82,82.453 351.997,83.721 L56.779,58.362 L56.779,58.362 Z M67.345,75.034 C68.276,75.138 68.114,76.581 67.543,77.322 C66.971,78.064 66.24,79.096 66.855,79.802 C67.2,80.198 67.805,80.221 68.252,80.497 C68.699,80.772 68.773,81.663 68.248,81.662 C70.789,81.918 73.383,81.643 75.814,80.858 C76.077,78.944 76.341,77.031 76.604,75.117 C73.283,74.907 69.949,74.922 66.63,75.161 L67.345,75.034 L67.345,75.034 Z M63.429,87.924 C67.003,86.599 70.865,86.052 74.667,86.333 L63.429,87.924 L63.429,87.924 Z M245.986,91.223 C250.219,91.495 254.452,91.767 258.686,92.039 L245.986,91.223 L245.986,91.223 Z M285.807,96.5 C285.907,98.204 286.008,99.909 286.109,101.613 C298.524,101.324 310.969,102.357 323.166,104.689 C324.049,103.277 323.222,101.304 321.844,100.37 C320.465,99.436 318.723,99.269 317.064,99.13 C306.645,98.253 296.226,97.377 285.807,96.5 L285.807,96.5 L285.807,96.5 Z M272.647,98.427 C270.312,97.986 267.857,98.194 265.628,99.021 C268.321,100.547 271.645,100.916 274.607,100.018 C273.76,99.631 272.912,99.244 272.065,98.858 L272.647,98.427 L272.647,98.427 Z M257.317,96.44 C254.027,95.966 250.64,96.185 247.438,97.078 C250.42,99.19 254.399,99.823 257.889,98.74 C257.471,97.943 257.053,97.146 256.636,96.349 L257.317,96.44 L257.317,96.44 Z M237.333,95.639 C234.256,95.676 231.18,95.713 228.103,95.749 C228.102,97.037 228.102,98.325 228.101,99.614 C230.923,99.605 233.744,99.596 236.566,99.587 C236.599,98.28 236.633,96.974 236.667,95.667 L237.333,95.639 L237.333,95.639 Z M167.937,88.144 C172.567,88.614 177.197,89.083 181.827,89.553 C183.491,92.61 180.545,96.526 177.127,97.184 C173.71,97.843 170.288,96.336 167.133,94.867 C167.226,93.356 167.318,91.845 167.411,90.334 L167.937,88.144 L167.937,88.144 Z M223.321,96.469 C220.685,96.229 218.049,95.989 215.412,95.748 C215.172,96.783 215.229,97.885 215.576,98.888 C218.317,99.198 221.057,99.507 223.797,99.817 C223.428,98.875 223.059,97.934 222.69,96.992 L223.321,96.469 L223.321,96.469 Z M175.015,88.813 C173.565,91.281 172.783,94.138 172.773,97 L175.015,88.813 L175.015,88.813 Z M187.343,83.613 C186.236,83.25 185.666,85.231 186.576,85.958 C187.487,86.685 188.807,86.429 189.935,86.136 C189.986,84.472 188.333,82.97 186.681,83.179 L187.343,83.613 L187.343,83.613 Z M177.412,82.968 C176.6,81.851 174.511,82.217 174.126,83.543 C174.688,84.813 176.424,85.395 177.638,84.721 C178.852,84.046 179.276,82.266 178.495,81.117 L177.412,82.968 L177.412,82.968 Z M166.63,80.754 C165.439,80.968 164.788,82.606 165.507,83.58 C166.541,83.593 167.574,83.607 168.607,83.621 C168.609,82.992 168.611,82.364 168.612,81.735 C167.965,81.698 167.317,81.661 166.67,81.623 L166.63,80.754 L166.63,80.754 Z M168.916,101.223 C170.207,103.646 173.312,104.933 175.94,104.135 L168.916,101.223 L168.916,101.223 Z M163.395,159.523 C166.24,160.736 169.085,161.949 171.931,163.163 L163.395,159.523 L163.395,159.523 Z M165.301,185.152 C168.201,185.768 171.1,186.385 174,187.001 L165.301,185.152 L165.301,185.152 Z M168.003,166.324 C174.703,168.474 181.642,169.879 188.651,170.506 L168.003,166.324 L168.003,166.324 Z M168.271,171.176 C174.876,174.824 182.46,176.681 190.004,176.497 L168.271,171.176 L168.271,171.176 Z M171.973,153.825 C176.872,154.656 181.77,155.487 186.669,156.318 L171.973,153.825 L171.973,153.825 Z M173.473,146.733 C177.711,148.953 182.56,149.99 187.335,149.698 L173.473,146.733 L173.473,146.733 Z M171.333,139.669 C176.101,140.949 181.057,141.53 185.992,141.386 L171.333,139.669 L171.333,139.669 Z M172.591,129.986 C178.052,131.285 183.749,131.587 189.317,130.872 L172.591,129.986 L172.591,129.986 Z M174.078,119.475 C178.691,121.365 183.682,122.326 188.666,122.287 L174.078,119.475 L174.078,119.475 Z M171.14,111.234 C170.634,111.667 170.128,112.1 169.623,112.533 C173.851,114.916 178.772,116.051 183.616,115.762 C184.575,115.705 185.874,114.962 185.353,114.156 L171.14,111.234 L171.14,111.234 Z" id="Stroke-2"></path>
                    <path d="M172.21,123.582 C173.074,125.617 172.915,127.756 171.688,129.505 C164.218,126.635 178.432,119.761 169.333,117 M170.489,140.948 C170.58,142.661 171.279,145.422 170.759,147.061 C170.448,148.043 168.03,149.502 168.002,149.694 C167.727,151.577 165.988,158.091 171.939,156.242 C169.564,156.98 165.911,144.667 166.891,142.482 C167.482,142.055 168.441,142.319 168.73,142.988 M209.122,113.651 C208.894,116.741 209.009,119.857 209.462,122.923 C213.115,122.976 216.768,123.03 220.421,123.084 C218.038,121.248 218.058,117.091 220.459,115.278 C217.315,113.593 213.611,112.975 210.09,113.548 M201.929,127.814 C206.081,129.821 210.716,130.822 215.326,130.708 M249.304,143.927 C252.64,144.346 256.008,144.513 259.369,144.423 C258.404,147.046 257.44,149.669 256.476,152.292 C253.596,152.257 250.716,152.223 247.837,152.188 C246.87,150.691 245.863,149.025 246.094,147.258 C246.326,145.492 248.534,143.994 249.931,145.1 M239.333,159.372 C248.448,159.366 257.563,159.785 266.64,160.626 M261.369,178.614 C258.709,178.312 256.049,178.01 253.389,177.708 C253.394,179.665 253.399,181.623 253.405,183.581 C255.73,183.631 258.055,183.681 260.38,183.73 C259.943,182.633 259.505,181.536 259.068,180.439 M251.345,188.898 C259.318,189.815 267.324,190.444 275.343,190.784 M298.855,131.354 C301.09,132.732 303.816,133.293 306.414,132.91 C305.541,135.059 305.117,137.389 305.178,139.707 C301.827,139.703 298.476,139.698 295.126,139.694 C294.657,139.693 294.143,139.677 293.791,139.367 C293.334,138.965 293.35,138.26 293.412,137.654 C293.647,135.354 294.104,132.89 295.78,131.297 C297.455,129.704 300.721,129.689 301.696,131.785 M287.336,144.282 C293.807,144.662 300.259,145.357 306.662,146.365 M163.202,233.658 C163.459,228.764 163.716,223.87 163.974,218.975 C164.092,216.719 164.282,214.278 165.768,212.575 C166.55,211.68 167.621,211.083 168.436,210.218 C169.251,209.354 169.784,208.01 169.187,206.983 M208.988,233.299 C208.898,228.965 208.808,224.631 208.717,220.297 C208.681,218.552 207.575,216.093 206.02,216.888 C205.628,214.361 206.4,211.678 208.075,209.746 M251.081,235.681 C251.351,228.12 251.62,220.558 251.89,212.996 M124.719,96.884 C123.469,96.701 122.811,98.648 123.646,99.596 C124.482,100.544 125.973,100.555 127.181,100.183 C128.051,98.879 128.553,97.333 128.615,95.767 C127.299,95.734 125.983,95.7 124.667,95.667 M133.176,97.536 C132.466,98.297 132.431,99.593 133.099,100.391 C133.767,101.189 135.049,101.383 135.923,100.818 C135.928,99.795 135.932,98.772 135.936,97.748 C135.07,97.709 134.202,97.669 133.335,97.63 M144.479,99.256 C142.713,97.978 139.853,100.352 140.784,102.324 C143.106,102.226 144.565,98.99 143.101,97.185 M125.301,121.084 C128.076,122.167 131.027,122.796 134.003,122.937 M137.333,183 L145.333,183 M127.395,127.075 C126.38,127.962 126.188,129.644 126.977,130.737 C127.766,131.83 129.423,132.176 130.584,131.492 C130.591,130.697 130.597,129.902 130.604,129.107 C129.754,128.802 128.904,128.497 128.054,128.193 M128.006,136.268 C127.441,136.34 126.875,136.412 126.31,136.483 C125.397,137.982 125.875,140.22 127.416,141.058 C128.957,141.896 131.226,140.909 131.501,139.176 C131.775,137.443 129.674,135.785 128.115,136.59 M130.647,147.028 C129.515,146.642 128.94,148.425 129.255,149.58 C129.574,150.75 130.22,151.923 131.319,152.437 C132.418,152.951 133.995,152.485 134.304,151.312 C134.613,150.139 132.931,148.938 132.09,149.812 M130.234,157.772 C129.466,159.395 129.218,161.26 129.537,163.027 C130.941,163.286 132.463,162.78 133.433,161.732 C132.744,160.118 131.094,158.958 129.342,158.857 M138.05,162.07 C144.635,163.308 151.301,164.12 157.991,164.497 M139.332,152.283 C144.466,152.139 149.618,152.69 154.605,153.915 M134.767,139.313 C139.789,140.738 144.811,142.164 149.833,143.589 M133.398,129.846 C140.036,130.733 146.673,131.62 153.31,132.507 M170.698,131.69 C169.439,131.779 168.101,131.939 167.129,132.744 C166.157,133.549 165.817,135.227 166.776,136.047 C167.734,136.868 169.611,135.594 168.917,134.54 C168.345,133.841 167.773,133.142 167.201,132.442 M135.384,168.379 C134.631,169.225 134.388,170.495 134.778,171.56 C135.967,171.284 137.192,171.786 138.413,171.795 C139.634,171.803 141.083,170.847 140.738,169.676 C140.515,168.92 139.677,168.557 138.935,168.292 C137.542,167.794 136.148,167.295 134.755,166.797 M145.339,173.135 C149.194,172.97 153.08,173.571 156.705,174.895 M143.371,190.958 C148.366,195.463 155.313,197.722 162.002,197.018 M141.435,202.727 C147.974,205.161 155.04,206.17 162,205.663 M142.023,212.353 C142.335,212.867 142.648,213.381 142.96,213.895 C139.428,211.904 135.895,209.913 132.363,207.922 C131.968,208.924 131.572,209.926 131.177,210.928 M216.562,212.621 C222.402,214.75 228.505,216.156 234.688,216.798 M216.672,220.9 C224.251,221.292 231.818,221.913 239.36,222.762 M217.937,230.467 C223.919,233.273 230.813,234.091 237.285,232.764 M65.978,55.753 C64.606,55.407 63.115,55.563 61.844,56.184 C63.058,57.997 66.589,56.451 66.08,54.329 M74.69,56.878 C78.456,57.609 82.221,58.34 85.986,59.071" id="Stroke-3"></path>
                    <path d="M96,60.333 L117.333,60.333 L96,60.333 Z M130.713,62.83 C136.114,62.323 141.622,62.989 146.747,64.768 L130.713,62.83 Z M156.057,66.773 C162.574,68.407 169.46,68.552 176.04,67.193 L156.057,66.773 Z M62.718,54.957 C62.1,54.172 61.091,53.711 60.093,53.758 C59.866,54.511 59.64,55.265 59.414,56.019 C60.45,56.611 61.578,57.224 62.764,57.088 C63.95,56.952 65.053,55.671 64.54,54.594 C64.006,53.471 62.196,53.607 61.415,54.574 C60.634,55.541 60.62,56.905 60.738,58.143 C62.216,58.911 64.387,58.185 64.784,56.568 C65.181,54.95 63.093,53.253 61.727,54.207 C60.399,55.135 60.962,57.418 62.35,58.254 C63.739,59.089 65.486,58.92 67.094,58.723 L62.718,54.957 Z M345.277,80.775 C338.465,81.204 331.311,81.571 325.146,78.641 C322.978,77.61 320.812,76.151 318.42,76.358 L345.277,80.775 Z M305.361,77.826 C299.6,78.813 293.632,78.566 287.972,77.108 L305.361,77.826 Z M276.009,74.883 C270.895,74.473 265.782,74.062 260.668,73.651 L276.009,74.883 Z M253.293,73.853 C249.759,73.085 246.225,72.318 242.692,71.551 L253.293,73.853 Z M263.344,77.142 C266.454,76.898 269.563,76.654 272.673,76.409 L263.344,77.142 Z M84.833,314.703 C88.092,313.913 91.352,313.123 94.611,312.332 C97.408,311.655 100.27,310.972 103.132,311.267 C105.994,311.562 108.905,313.029 110.146,315.625 C105.326,314.223 100.351,317.794 95.349,317.366 C91.895,317.07 88.918,314.92 86.139,312.848 L84.833,314.703 Z M113.987,311.679 C122.242,309.353 130.847,308.273 139.421,308.487 C139.594,309.931 139.766,311.376 139.939,312.821 C135.668,313.131 131.398,313.44 127.128,313.749 C124.934,313.908 122.681,314.061 120.578,313.415 C118.476,312.77 116.527,311.136 116.173,308.966 L113.987,311.679 Z M170.54,304.304 C171.565,305.972 172.799,307.511 174.203,308.875 C168.089,309.73 161.974,310.584 155.859,311.439 C154.166,311.676 152.405,311.907 150.774,311.394 C149.143,310.88 147.684,309.39 147.797,307.683 C154.938,307.353 162.074,306.921 169.202,306.388 C169.849,306.339 170.564,306.257 170.991,305.77 C171.419,305.283 171.188,304.284 170.54,304.304 L170.54,304.304 Z M211.329,300.966 C216.545,301.241 221.802,300.724 226.864,299.438 C228.632,298.988 230.382,298.444 232.183,298.155 C237.881,297.241 243.641,298.917 249.169,300.575 C236.243,302.785 224.271,305.818 211.369,302.455 C207.144,301.354 203.681,300.095 199.197,300.242 C196.326,300.336 182.035,305.608 180.438,304.04 C183.864,307.406 189.076,308.413 193.84,307.805 C198.605,307.197 203.058,305.179 207.427,303.185 L211.329,300.966 Z M257.987,302.177 C266.301,301.418 274.545,299.887 282.578,297.612 C275.597,294.369 267.296,294.091 260.113,296.857 C262.293,298.025 264.473,299.192 266.652,300.36 L257.987,302.177 Z M294.675,295.135 C311.079,294.099 327.305,288.52 343.123,284.431 C334.858,280.676 325.24,283.344 316.575,286.053 C318.361,288.501 321.715,289.681 324.64,288.891 L294.675,295.135 Z M306.242,331.221 C310.819,329.981 315.652,330.273 320.371,329.812 C334.391,328.443 346.944,320.521 360.736,317.658 C349.323,311.965 335.696,315.656 323.451,319.221 C301.999,325.467 280.026,331.076 257.685,330.766 C266.956,339.263 281.22,341.845 292.881,337.137 C297.404,335.31 301.534,332.496 306.242,331.221 L306.242,331.221 Z M421.916,304.683 C418.183,305.276 414.45,305.869 410.717,306.462 C408.511,306.813 405.316,306.368 405.373,304.135 C410.711,301.424 416.93,300.482 422.832,301.49 L421.916,304.683 Z M399.308,306.905 C385.065,310.739 371.041,308.475 357.177,313.072 C359.816,313.079 361.582,316.548 364.21,316.299 C365.162,316.209 365.985,315.627 366.759,315.065 C369.537,313.047 372.315,311.028 375.094,309.009 C377.593,310.099 382.099,311.562 384.76,312.168 C390.325,313.432 393.86,306.258 399.544,307.154 C394.6,306.23 389.873,303.253 384.835,303.005 C379.544,302.745 373.35,307.464 368.819,303.573 C375.028,301.308 382.054,300.453 388.644,300 L399.308,306.905 Z M361.992,305.552 C352.608,306.472 343.328,308.598 333.924,309.271 C337.533,307.848 345.142,313.074 347.006,309.808 L361.992,305.552 Z M227.839,335.063 C226.064,336.841 227.865,339.782 229.626,341.573 C232.22,344.211 235.428,347.068 239.083,346.496 C241.818,346.069 243.841,343.832 246.117,342.257 C249.404,339.983 253.565,339.007 257.52,339.584 C253.402,336.955 249.765,333.576 246.841,329.663 C242.092,332.234 236.77,333.741 231.378,334.042 C230.122,334.112 228.727,334.173 227.839,335.063 L227.839,335.063 Z M225.599,347.282 C223.879,345.082 222.158,342.882 220.438,340.682 C220.082,340.228 219.7,339.753 219.161,339.549 C218.479,339.292 217.721,339.526 217.032,339.761 C213.065,341.111 209.099,342.46 205.132,343.81 C204.502,344.024 203.723,344.59 204.054,345.166 C204.246,345.499 204.694,345.547 205.069,345.629 C207.123,346.078 208.134,348.973 206.807,350.602 C213.369,351.044 220.038,349.775 225.979,346.952 L225.599,347.282 Z M171.235,354.793 C171.519,357.364 174.701,358.398 177.285,358.512 C184.741,358.839 192.288,356.343 198.08,351.635 C195.084,349.528 192.741,346.505 191.449,343.077 C184.991,346.48 177.936,348.746 170.704,349.74 C172.213,350.696 171.038,353.018 171.235,354.793 L171.235,354.793 Z M144.958,340.253 C145.031,341.016 145.521,341.669 146.029,342.243 C147.83,344.276 150.119,345.873 152.649,346.861 C154.113,347.433 155.674,347.805 157.246,347.771 C158.785,347.737 160.287,347.318 161.775,346.921 C171.857,344.235 182.185,342.468 192.588,341.649 C199.272,341.124 206.194,340.94 212.26,338.083 C212.513,337.963 212.774,337.832 212.943,337.608 C213.749,336.535 211.827,335.559 210.487,335.481 C206.538,335.25 202.654,333.98 199.332,331.833 C198.02,330.984 196.71,329.97 195.155,329.819 C193.342,329.643 191.667,330.675 190.045,331.503 C177.542,337.882 162.158,333.252 148.598,336.875 C146.852,337.341 144.786,338.454 144.958,340.253 L144.958,340.253 Z" id="Stroke-4"></path>
                    <path d="M138.941,322.833 C136.516,320.801 133.391,319.622 130.228,319.546 C128.108,319.496 126.01,319.923 123.925,320.305 C117.556,321.472 111.112,322.234 104.647,322.586 C106.488,323.256 108.102,324.532 109.181,326.167 C109.633,326.853 110.046,327.647 110.802,327.968 C116.76,330.502 128.609,325.196 135.355,325.091 C142.424,324.981 150.528,330.342 156.715,329.511 C154.842,332.284 150.963,332.561 147.63,332.865 C143.02,333.284 138.463,334.281 134.099,335.825 C132.835,336.273 131.509,336.774 130.189,336.536 C129.057,336.332 128.097,335.61 127.184,334.91 C125.453,333.582 123.722,332.254 121.991,330.926 C124.851,327.591 130.134,328.865 134.496,328.21 L138.941,322.833 Z M350.874,296.372 C354.225,295.42 357.775,295.362 361.142,294.468 C364.651,293.536 367.905,291.711 371.484,291.102 C375.062,290.492 379.354,291.547 380.905,294.83 C374.388,297.321 367.663,299.267 360.822,300.64 C359.924,300.82 358.991,300.99 358.101,300.775 C355.261,300.089 353.741,295.81 350.874,296.372 L350.874,296.372 Z M364.045,289.212 C357.164,290.803 350.283,292.394 343.402,293.985 C341.592,294.404 338.819,294.037 339.04,292.192 C339.161,291.185 340.226,290.615 341.158,290.215 C348.001,287.279 355.503,284.285 362.689,286.237 L364.045,289.212 Z M155.092,321.076 C154.74,320.652 154.851,320.031 154.849,319.48 C154.844,317.427 152.648,315.685 150.648,316.146 C160.497,317.773 170.267,309.288 179.897,311.917 C179.901,313.51 180.448,315.096 181.427,316.352 C173.247,318.02 165.068,319.688 156.889,321.356 C156.263,321.484 155.5,321.567 155.092,321.076 L155.092,321.076 Z M187.532,313.423 C188.966,314.726 190.4,316.028 191.834,317.33 C192.547,317.978 193.333,318.658 194.292,318.745 C195.056,318.814 195.795,318.489 196.501,318.189 C201.496,316.065 206.858,314.806 212.276,314.484 C211.319,312.678 209.476,311.37 207.455,311.063 C202.918,310.372 198.361,314.428 194.03,312.909 L187.532,313.423 Z M214.085,308.354 C214.653,310.433 216.016,312.285 217.833,313.445 C221.761,315.952 226.874,314.991 231.414,313.941 C234.297,313.275 237.181,312.609 240.065,311.942 C234.888,308.484 227.966,307.805 222.216,310.192 L214.085,308.354 Z M275.598,309.459 C276.65,309.113 277.67,308.683 278.643,308.14 C281.726,306.417 274.764,305.692 273.675,306.058 C271.569,306.766 269.913,308.64 269.319,310.463 C271.389,310.611 273.537,310.136 275.598,309.459 L275.598,309.459 Z M257.369,306.09 C253.181,306.264 249.019,307.044 245.052,308.399 C245.57,310.686 248.081,312.066 250.426,312.084 C252.77,312.101 254.983,311.083 257.105,310.086 C260.072,308.691 263.039,307.297 266.006,305.902 C264.212,304.889 262.025,304.595 260.027,305.096 L257.369,306.09 Z M300.667,297.575 C293.985,297.406 287.265,299.069 281.434,302.337 C289.838,304.181 298.849,303.133 306.607,299.41 C305.235,298.466 303.864,297.522 302.493,296.578 L300.667,297.575 Z M331.98,289.605 C326.84,291.003 321.7,292.401 316.56,293.799 C315.372,294.122 313.895,295.386 314.789,296.232 C320.681,297.187 326.818,296.584 332.412,294.501 C334.166,292.907 332.35,289.332 330.028,289.81 L331.98,289.605 Z M159.956,328.167 C159.991,328.436 160.059,328.704 160.163,328.969 C160.424,329.632 160.815,330.181 161.432,330.366 C161.633,328.357 161.304,327.213 160.532,325.609 C160.139,326.341 159.845,327.323 159.956,328.167 L159.956,328.167 Z M171.48,320.155 C176.257,321.049 180.76,323.357 184.277,326.711 C177.152,329.027 169.738,330.454 162.262,330.946 C161.735,328.632 161.208,326.318 160.681,324.004 C167.693,324.383 174.767,323.58 181.516,321.639 L171.48,320.155 Z M226.33,320.277 C224.604,317.422 220.915,316.291 217.588,316.543 C214.261,316.796 211.138,318.16 207.983,319.246 C203.055,320.942 197.904,321.989 192.705,322.35 C192.052,325.04 194.903,327.516 197.667,327.666 C200.431,327.816 203.012,326.438 205.527,325.283 C212.049,322.287 219.159,320.576 226.33,320.277 L226.33,320.277 Z M251.754,318.978 C254.249,318.818 256.718,318.273 259.051,317.375 C260.26,316.91 261.432,316.35 262.553,315.7 C263.453,315.179 256.513,313.473 254.683,314.206 C252.387,315.125 250.571,316.521 249.967,318.684 C250.541,319.022 251.092,319.021 251.754,318.978 L251.754,318.978 Z M210.556,332.11 C210.029,332.242 209.464,332.373 208.952,332.19 C208.563,332.051 208.258,331.747 207.968,331.453 C206.575,330.043 205.182,328.632 203.789,327.221 C210.158,327.272 216.693,326.421 222.312,323.421 C225.572,321.68 228.695,319.176 232.391,319.119 C236.146,319.062 239.425,321.577 242.095,324.219 C231.582,326.85 221.069,329.48 210.556,332.11 L210.556,332.11 Z M250.829,323.332 C255.313,321.613 259.797,319.895 264.281,318.177 C264.753,317.996 265.265,317.812 265.755,317.941 C266.279,318.078 266.646,318.539 266.972,318.972 C269.173,321.887 271.373,324.801 273.574,327.716 C266.846,327.377 260.033,328.905 254.096,332.087 C253.539,332.386 252.799,332.682 252.333,332.256 C252.081,332.026 252.015,331.659 251.99,331.319 C251.903,330.124 252.149,328.916 252.005,327.726 C251.86,326.535 251.157,325.271 249.98,325.042 L250.829,323.332 Z M284.54,312.783 C280.395,314.246 276.251,315.71 272.107,317.173 C270.815,317.629 269.302,318.359 269.196,319.724 C269.077,321.266 270.819,322.202 272.274,322.724 C275.556,323.902 279.106,325.093 282.459,324.135 C286.483,322.985 289.401,318.932 293.567,318.538 C291.926,316.688 290.15,314.959 288.256,313.368 L284.54,312.783 Z M311.334,311.019 C306.094,311.091 300.904,313.116 297,316.61 C296.339,317.202 295.659,318.016 295.888,318.873 C296.03,319.4 296.487,319.777 296.948,320.069 C300.207,322.129 304.472,321.534 308.128,320.308 C311.785,319.082 315.345,317.282 319.198,317.118 C316.591,315.5 313.983,313.883 311.375,312.265 L311.334,311.019 Z M330.609,308.533 C326.5,307.361 321.724,309.192 319.451,312.81 C323.305,314.526 328.013,314.166 331.561,311.884 C330.594,310.703 329.626,309.522 328.658,308.341 L330.609,308.533 Z" id="Stroke-5"></path>
                    <path d="M347.448,296.105 C342.456,297.388 337.464,298.67 332.471,299.953 C330.906,300.355 329.137,300.924 328.497,302.408 C327.475,304.777 330.427,307.209 332.999,307.003 C335.57,306.796 337.738,305.099 340.08,304.018 C342.772,302.776 345.941,302.344 348.722,303.372 C348.712,301.058 346.239,299.095 343.984,299.611 L347.448,296.105 Z M318.68,301.72 C314.28,301.786 309.897,302.785 305.904,304.633 C305.023,305.041 304.072,305.594 303.828,306.535 C303.288,308.623 306.351,309.571 308.505,309.457 C313.738,309.18 318.96,308.684 324.153,307.972 C323.806,304.379 321.324,301.074 317.971,299.739 L318.68,301.72 Z M295.944,305.236 C291.581,304.208 286.859,304.783 282.87,306.829 C282.013,308.682 283.364,310.951 285.208,311.827 C287.052,312.703 289.196,312.565 291.231,312.408 C294.006,312.195 296.781,311.981 299.557,311.768 C297.593,309.865 296.538,307.063 296.759,304.338 L295.944,305.236 Z M445.745,359.082 C442.272,357.027 439.6,353.655 438.393,349.804 C420.719,354.282 404.826,364.723 386.863,367.853 C376.34,369.687 365.273,368.975 355.284,372.76 C353.756,374.485 354.908,377.445 356.936,378.54 C358.965,379.634 361.424,379.403 363.707,379.088 C391.616,375.239 417.899,363.359 445.745,359.082 L445.745,359.082 Z M290.868,73.986 C227.365,86.586 164.975,104.797 104.665,128.336 C88.425,134.675 72.339,141.397 56.255,148.119 L290.868,73.986 Z M102.233,286.778 C108.823,282.884 114.116,277.186 119.912,272.185 C130.13,263.37 141.971,256.686 153.606,249.85 C196.239,224.798 237.209,196.917 276.157,166.45 C295.475,151.338 314.315,135.574 331.904,118.481 C337.642,112.905 343.531,107.007 351.11,104.447 L102.233,286.778 Z M66.478,42.814 C67.329,43.058 68.064,43.596 68.737,44.171 C71.927,46.896 74.157,50.725 74.953,54.845 C75.336,56.831 75.427,58.96 76.527,60.657 C74.783,56.779 73.681,52.613 73.279,48.379 C73.199,47.534 73.157,46.634 73.556,45.885 C73.896,45.247 74.509,44.809 75.101,44.394 C81.087,40.196 87.073,35.997 93.06,31.799 C95.118,30.355 97.184,28.907 99.409,27.735 C91.923,30.457 84.436,33.178 76.95,35.899 C75.8,36.317 74.417,36.707 73.437,35.973 C72.869,35.549 72.596,34.846 72.35,34.182 C70.966,30.445 69.582,26.708 68.198,22.971 C68.161,27.973 65.469,32.659 61.896,36.159 C58.323,39.659 53.908,42.152 49.548,44.604 C54.185,44 58.822,43.397 63.459,42.794 C64.464,42.663 65.503,42.534 66.478,42.814 L66.478,42.814 Z M350.612,226.704 C345.599,229.634 341.208,233.624 337.813,238.335 C339.1,239.809 341.477,238.526 342.935,237.221 C346.893,233.681 350.852,230.14 354.81,226.599 C355.741,225.766 356.705,224.914 357.883,224.498 C360.135,223.703 362.591,224.664 364.784,225.611 C368.887,227.383 372.991,229.154 377.095,230.926 C371.334,228.089 365.374,225.094 361.404,220.046 C361.02,219.557 360.641,219.006 360.637,218.384 C360.632,217.4 361.534,216.684 362.346,216.129 C368.32,212.05 374.293,207.97 380.267,203.891 C373.952,208.548 366.777,212.267 359.032,213.522 C351.287,214.778 342.919,213.367 336.652,208.646 C342.536,212.442 348.624,216.443 352.233,222.444 C352.562,222.99 352.877,223.59 352.838,224.226 C352.766,225.384 351.613,226.119 350.612,226.704 L350.612,226.704 Z M29.384,230.346 C34.157,232.721 38.619,235.722 42.619,239.248 C43.896,240.374 45.195,241.675 45.487,243.354 C46.005,246.342 43.214,248.773 40.713,250.489 C32.833,255.895 24.764,261.026 16.527,265.871 C21.622,262.632 26.717,259.394 31.811,256.156 C39.677,251.156 48.55,245.941 57.716,247.629 C64.151,248.813 69.887,253.341 76.427,253.141 C74.006,249.518 69.98,247.011 65.661,246.438 C62.722,246.047 59.707,246.509 56.79,245.984 C53.873,245.46 50.849,243.491 50.554,240.542 C50.135,236.353 54.955,233.885 58.784,232.136 C64.503,229.525 69.751,225.887 74.203,221.447 C71.833,220.498 69.204,221.774 67.004,223.069 C62.545,225.692 58.215,228.533 54.033,231.579 C51.788,233.214 49.455,234.964 46.706,235.348 C40.673,236.19 35.474,230.255 29.384,230.346 L29.384,230.346 Z M479.449,122.102 C477.914,122.498 476.109,123.48 476.254,125.057 C476.35,126.104 477.296,126.836 478.159,127.435 C484.309,131.698 490.459,135.962 496.61,140.226 C502.776,144.501 535.091,164.438 524.227,142.773 C517.254,128.867 494.385,118.247 479.449,122.102 L479.449,122.102 Z M475.201,126.953 C469.629,133.537 467.917,142.746 462.278,149.274 C458.703,153.413 453.826,156.153 449.249,159.147 C437.721,166.687 427.567,176.32 419.428,187.434 C414.036,194.797 409.543,202.771 405.064,210.723 C401.371,217.28 397.648,225.414 401.421,231.925 L475.201,126.953 Z M525.34,159.655 C520.931,165.374 516.522,171.093 512.113,176.812 C510.952,178.318 509.781,179.84 508.982,181.565 C507.979,183.728 507.601,186.119 507.196,188.469 C504.761,202.598 500.241,217.609 488.675,226.082 C485.54,228.378 481.937,230.147 479.417,233.105 C476.042,237.066 475.136,242.5 473.026,247.258 C470.916,252.015 466.358,256.644 461.262,255.587 C459.062,247.321 460.405,238.174 464.889,230.89 C467.647,226.41 471.48,222.684 474.405,218.31 C477.33,213.937 479.34,208.461 477.804,203.43 L525.34,159.655 Z M424.352,197.44 C421.833,199.647 419.313,201.853 416.793,204.06 C412.256,208.033 407.328,212.87 407.593,218.895 C407.668,220.612 408.18,222.294 408.175,224.013 C408.17,226.034 407.452,227.977 406.728,229.865 C403.515,238.24 399.974,246.49 396.116,254.589 L424.352,197.44 Z M426.839,207.345 C426.271,209.729 425.703,212.113 425.135,214.497 C424.041,219.086 422.931,223.72 420.829,227.943 C416.719,236.197 408.902,242.76 407.301,251.841 C406.28,257.629 407.665,264.541 403.445,268.63 C406.67,272.838 402.813,278.991 404.027,284.151 C408.587,282.926 412.133,279.18 414.237,274.953 C416.34,270.725 417.206,266.009 418.049,261.363 L426.839,207.345 Z M439.432,209.248 C437.714,214.368 435.4,219.288 432.552,223.877 C428.851,229.841 424.217,235.316 421.681,241.861 C417.102,253.68 420.036,266.923 423.017,279.242 C428.49,273.77 431.959,266.338 432.64,258.629 C432.852,256.234 432.805,253.806 433.283,251.45 C433.708,249.359 434.535,247.376 435.358,245.407 C438.593,237.668 441.827,229.929 445.062,222.189 C447.613,216.086 450.26,209.833 454.836,205.057 C459.412,200.282 466.416,197.241 472.739,199.181 L439.432,209.248 Z" id="Stroke-6"></path>
                    <path d="M460.841,203.97 C462.124,202.751 464.206,203.746 465.653,204.766 C467.645,206.171 469.679,207.618 471.066,209.622 C472.453,211.627 473.082,214.336 472.025,216.532 L460.841,203.97 Z M394.588,255.832 C393.541,258.405 391.5,260.558 388.987,261.741 C387.759,262.32 386.4,262.691 385.368,263.573 C384.337,264.455 383.768,266.109 384.607,267.177 C385.188,267.917 386.209,268.114 387.139,268.26 C391.212,268.899 395.839,269.401 399.032,266.794 L394.588,255.832 Z M398.787,235.211 C396.361,237.65 394.476,240.625 393.307,243.861 C392.778,245.324 392.401,246.974 393.005,248.409 C393.61,249.843 395.577,250.752 396.797,249.786 L398.787,235.211 Z M457.369,122.25 C460.533,123.757 464.154,124.29 467.619,123.758 C466.834,126.627 464.259,128.568 462.37,130.865 C460.48,133.163 459.333,136.829 461.439,138.929 C466.538,136.602 472.166,135.441 477.77,135.562 C478.874,138.948 479.221,142.579 478.778,146.113 C481.917,147.479 485.773,148.786 488.541,146.772 C489.429,146.125 490.098,145.186 491.066,144.666 C493.928,143.127 497.308,146.172 498.115,149.32 C498.922,152.467 498.383,155.897 499.546,158.931 C500.708,161.965 504.982,164.18 507.156,161.765 C508.712,160.036 508.307,156.831 510.363,155.742 C511.535,155.122 512.973,155.539 514.191,156.062 C519.756,158.451 524.248,162.736 529.243,166.161 C534.237,169.587 540.386,172.248 546.248,170.726 C548.935,169.058 547.394,164.508 544.528,163.171 C541.662,161.834 538.318,162.389 535.171,162.071 C532.025,161.753 528.452,159.788 528.479,156.625 C532.333,154.683 536.188,152.74 540.042,150.798 C540.776,150.428 541.543,150.029 541.997,149.344 C543.002,147.827 541.876,145.641 540.222,144.88 C538.569,144.12 536.649,144.366 534.848,144.627 C534.502,140.95 537.987,138.239 540.706,135.74 C543.425,133.241 545.654,128.72 542.991,126.161 C538.772,122.105 530.621,130.323 526.454,126.214 C528.781,123.734 529.403,119.803 527.955,116.726 C526.508,113.649 523.082,111.622 519.689,111.834 C513.955,112.191 509.077,118.179 503.511,116.755 C505.153,110.77 499.651,104.003 493.457,104.389 C493.395,106.131 493.334,107.874 493.272,109.617 C491.007,111.017 488.427,111.902 485.78,112.186 C485.172,108.225 484.529,104.163 482.541,100.684 C480.553,97.205 476.89,94.386 472.888,94.582 C471.758,99.758 475.055,104.759 478.182,109.034 C470.535,112.162 463.452,116.66 457.369,122.25 L457.369,122.25 Z M477.892,119.002 C479.112,115.581 474.84,112.972 472.934,109.88 C471.411,107.408 471.417,104.322 471.486,101.419 C471.921,82.978 472.982,64.371 477.975,46.614 C482.967,28.856 492.207,11.832 506.609,0.306 L477.892,119.002 Z M523.377,150.771 C528.552,151.314 534.034,151.808 538.732,149.573 C541.116,148.438 543.13,146.67 545.11,144.924 C555.298,135.943 565.991,126.166 569.435,113.029 L523.377,150.771 Z M12.156,498.071 C13.166,495.709 12.806,492.817 11.249,490.776 C10.86,490.266 10.393,489.789 10.197,489.178 C9.92,488.319 10.237,487.392 10.56,486.548 C13.077,479.991 16.25,473.503 16.726,466.496 C17.028,462.052 16.223,457.616 15.422,453.235 C14.441,447.875 13.461,442.515 12.48,437.155 C11.839,433.65 11.197,430.069 11.722,426.545 C12.248,423.021 14.164,419.503 17.394,417.999 L12.156,498.071 Z M22.689,414.022 C26.773,413.167 30.427,416.694 32.657,420.221 C34.886,423.748 36.881,427.886 40.731,429.494 L22.689,414.022 Z M34.871,471.251 C35.293,464.941 42.279,461.558 46.272,456.654 C51.95,449.679 51.356,439.63 49.856,430.763 C48.652,423.644 47.047,416.532 47.096,409.312 C47.145,402.092 49.048,394.579 53.979,389.306 C58.133,389.445 62.287,389.585 66.441,389.725 C70.984,392.864 74.223,397.832 75.263,403.254 L34.871,471.251 Z M65.901,407.458 C68.792,412.375 70.163,418.172 69.78,423.863 C69.535,427.498 68.6,431.047 68.049,434.648 C67.369,439.102 67.281,443.622 67.193,448.127 C67.036,456.22 66.88,464.313 66.723,472.407 C66.657,475.825 66.792,479.721 69.384,481.95 L65.901,407.458 Z M41.956,435.355 C41.845,438.53 37.453,440.57 34.955,438.606 C34.017,437.868 32.387,436.885 32.011,438.018 L41.956,435.355 Z M29.462,444.477 C30.754,449.122 31.17,454.01 30.68,458.808 C31.571,459.455 32.461,460.102 33.352,460.749 L29.462,444.477 Z M79.517,412.732 C77.89,417.509 83.234,422.117 82.937,427.154 C82.697,431.221 78.016,434.361 74.162,433.04 L79.517,412.732 Z M73.265,476.664 C74.756,478.555 77.551,476.074 78.533,473.876 C83.264,463.291 87.1,452.307 89.987,441.079 C90.692,438.337 91.342,435.568 91.591,432.748 C91.877,429.518 91.632,426.269 91.463,423.032 C91.025,414.637 91.098,406.215 91.68,397.828 C91.79,396.242 91.93,394.615 92.618,393.182 C94.66,388.931 100.296,388.199 105.009,388.037 C106.801,387.975 108.805,387.99 110.097,389.234 C111.713,390.79 111.391,393.389 111.765,395.601 C112.051,397.293 112.801,398.868 113.241,400.526 C113.832,402.756 113.852,405.091 113.868,407.398 C113.944,418.201 114.019,429.005 114.095,439.808 C114.119,443.246 114.393,447.204 117.156,449.25 C116.1,452.045 118.015,455.557 120.935,456.183 C117.135,457.894 117.639,463.343 116.153,467.237 C114.381,471.885 109.517,474.409 105.696,477.594 C101.875,480.779 98.822,486.532 101.806,490.512 L73.265,476.664 Z M118.252,415.403 C118.398,418.685 118.545,421.967 118.692,425.25 C118.741,426.353 118.823,427.544 119.535,428.389 C120.21,429.19 121.472,429.827 121.244,430.85 C121.083,431.576 120.248,431.883 119.556,432.155 C116.348,433.415 113.945,436.526 113.537,439.949 L118.252,415.403 Z M107.957,486.458 C109.381,487.645 111.33,485.835 112.276,484.241 C114.785,480.014 117.294,475.787 119.803,471.559 C120.849,469.797 121.896,468.033 122.836,466.211 C124.898,462.214 126.431,457.968 127.958,453.737 C129.448,449.606 130.949,445.435 131.517,441.08 C131.87,438.381 131.859,435.649 131.847,432.927 C131.81,424.296 131.773,415.664 131.736,407.033 C129.328,413.498 126.879,420.252 127.603,427.113 C128.011,430.98 129.393,435.057 127.807,438.608 L107.957,486.458 Z M133.411,401.228 C132.256,398.005 136.927,395.235 140.059,396.62 C143.19,398.004 144.73,401.486 145.992,404.669 C150.581,416.24 155.255,428.627 152.799,440.83 C149.101,459.197 130.039,472.802 130.182,491.537 C130.204,494.387 130.691,497.226 130.588,500.075 C130.47,503.317 129.589,506.537 129.907,509.765 C130.226,512.994 132.264,516.43 135.483,516.834 L133.411,401.228 Z" id="Stroke-7"></path>
                    <path d="M143.402,511.477 C147.878,509.56 148.651,503.699 149.201,498.86 C150.205,490.028 152.621,481.427 155.028,472.87 C155.674,470.573 156.366,468.191 157.951,466.407 C158.995,465.231 160.362,464.395 161.706,463.577 C167.343,460.148 172.981,456.72 178.618,453.291 L143.402,511.477 Z M175.52,461.792 C181.572,471.76 182.357,484.344 179.391,495.622 C176.425,506.901 170.004,517.007 162.487,525.924 C157.675,531.631 152.351,536.974 148.464,543.347 C140.171,556.942 139.418,574.827 146.539,589.07 L175.52,461.792 Z M8.58,506.064 C9.275,514.529 9.971,522.995 10.666,531.461 C11.116,536.936 11.566,542.429 11.349,547.919 C11.178,552.226 10.598,556.518 10.634,560.829 C10.79,579.195 23.351,596.822 40.66,602.966 L8.58,506.064 Z M48.161,610.925 C47.008,617.456 43.747,623.598 38.982,628.211 C44.023,633.287 50.559,636.861 57.554,638.363 C56.846,642.763 56.677,647.249 57.051,651.689 C64.774,647.869 72.796,644.654 81.019,642.084 C105.514,634.428 131.388,632.587 156.988,630.795 C165.161,630.224 173.491,629.664 181.452,631.604 C182.155,631.775 182.927,632.021 183.278,632.654 C183.745,633.498 183.219,634.537 182.648,635.314 C177.617,642.162 168.823,644.927 160.558,646.901 C148.277,649.834 135.813,651.927 123.361,654.018 C100.314,657.888 77.267,661.758 54.221,665.628 C53.643,663.253 54.469,660.589 56.291,658.959 L48.161,610.925 Z M165.625,622.377 C157.341,616.242 151.598,606.778 149.982,596.597 L165.625,622.377 Z M203.392,628.024 L203.392,628.691 L203.392,628.024 Z M31.162,643.739 C19.211,646.796 8.533,654.568 1.951,665.001 C12.464,668.164 23.587,669.284 34.518,668.281 C29.473,678.378 24.975,691.606 32.549,699.975 C38.464,706.511 49.344,706.141 56.876,701.561 C64.408,696.981 69.382,689.267 74.094,681.816 C72.309,689.055 71.282,698.372 77.558,702.396 C84.103,706.593 92.778,700.857 96.638,694.107 C100.498,687.357 102.304,679.166 108.082,673.963 C116.527,682.566 129.448,686.51 141.257,684.09 C153.066,681.669 163.393,672.96 167.772,661.728 C167.166,667.431 174.096,670.806 179.805,671.359 C195.7,672.9 212.171,665.732 221.876,653.049 C219.502,652.085 216.469,654.12 216.46,656.683 C225.63,653.806 234.189,649 241.419,642.669 C243.728,640.648 246.033,638.214 246.351,635.162 C246.971,629.207 239.213,625.275 233.531,627.164 C227.849,629.052 224.133,634.369 220.828,639.362 C221.288,631.321 221.747,623.28 222.207,615.24 C222.364,612.485 222.318,609.259 220.124,607.586 C217.582,605.648 213.955,607.078 211.119,608.553 C203.722,612.404 196.324,616.254 188.927,620.104 C186.735,611.523 184.543,602.943 182.351,594.363 C181.335,590.385 179.907,585.898 176.155,584.231 C171.951,582.364 167.208,585.048 163.501,587.771 C155.017,594.005 147.107,601.02 139.906,608.7 C136.469,601.173 131.806,594.208 126.158,588.16 C124.053,585.906 121.289,583.607 118.257,584.175 C115.48,584.696 113.738,587.402 112.412,589.897 C109.045,596.229 106.184,602.829 103.864,609.615 C105.486,599.964 94.527,590.65 85.264,593.806 C76.001,596.962 73.009,611.029 80.186,617.682 C67.802,605.575 42.906,613.455 39.744,630.483 C27.461,622.496 9.321,625.412 0.16,636.847 C9.853,641.297 20.497,643.663 31.162,643.739 L31.162,643.739 Z" id="Stroke-8"></path>
                </g>
            </g>
        </g>
    </g>
</svg>