<?xml version="1.0" encoding="UTF-8" standalone="no"?>
<svg width="595px" height="842px" viewBox="0 0 595 842" version="1.1" xmlns="http://www.w3.org/2000/svg" xmlns:xlink="http://www.w3.org/1999/xlink" xmlns:sketch="http://www.bohemiancoding.com/sketch/ns">
    <!-- Generator: Sketch Beta 3.3.1 (12005) - http://www.bohemiancoding.com/sketch -->
    <title>A4</title>
    <desc>Created with Sketch Beta.</desc>
    <defs></defs>
    <g id="Page-1" stroke="none" stroke-width="1" fill="none" fill-rule="evenodd" sketch:type="MSPage">
        <g id="A4" sketch:type="MSArtboardGroup">
            <g id="Imported-Layers" sketch:type="MSLayerGroup" transform="translate(-71.000000, 0.000000)">
                <path d="M280.246354,212.386357 C267.289083,218.031719 253.147824,220.934528 239.017808,220.848769 C235.25482,220.826246 231.232375,220.659926 228.038463,222.654037 C224.845415,224.648149 223.396781,229.807543 226.341615,232.153353 C227.778141,233.297671 229.749148,233.421545 231.583507,233.478717 C250.28861,234.062571 269.052524,232.766659 287.500765,229.616968 C290.165386,229.162186 292.898331,228.640702 295.180686,227.190597 C297.463905,225.741358 299.220428,223.135673 298.883999,220.449427 C298.315788,215.916332 292.837791,214.100669 288.350919,213.274265 C286.157644,212.869725 283.965234,212.466052 281.77196,212.062379 C280.083761,211.751394 278.310807,211.444741 276.680553,211.980951 C275.227595,212.459122 274.072148,213.545402 272.906322,214.536393 C264.857973,221.378915 253.998842,224.796278 243.490843,223.793158 L280.246354,212.386357 Z M467.434036,217.581268 C451.315717,220.267514 434.484756,222.91218 418.891404,218.020457 C410.172792,215.284835 402.306927,210.312551 393.677395,207.310122 C385.046998,204.307694 374.794996,203.566183 367.365884,208.891032 C366.197463,213.517681 370.825307,217.719868 375.438449,218.912697 C380.052455,220.105525 385.030566,219.574513 389.525222,221.159753 C393.442154,222.541425 396.627418,225.398322 400.053113,227.749329 C418.138979,240.160982 442.601429,238.123559 463.358835,231.05841 C465.926592,230.184363 469.040938,228.173793 468.197704,225.592363 C460.428703,222.504176 450.661021,225.805461 446.348849,232.977158 L467.434036,217.581268 Z M263.582311,202 C272.911511,204.715699 282.084173,207.971939 291.038026,211.747929 C295.675383,213.703059 300.411334,215.912001 303.68049,219.742566 C311.562786,228.975942 307.911365,242.989294 303.851731,254.436809 C297.556445,272.188903 291.262024,289.940132 284.966738,307.69136 C274.714736,336.602507 264.390951,368.157455 273.996905,397.290363 C274.377442,398.442478 274.830626,399.6483 275.782833,400.398474 C278.08162,402.210672 281.334343,400.33697 283.797452,398.757793 C297.811577,389.774764 315.732257,390.707717 332.324517,391.947323 C339.975032,392.519049 349.38207,392.184676 353.000627,385.40799 C349.265315,385.30404 345.530867,385.200956 341.796419,385.097005 L263.582311,202 Z M256.315791,381.032553 C250.351745,381.073267 244.386834,381.113981 238.422787,381.153828 C237.455879,382.427218 238.241168,384.405737 239.598991,385.248599 C240.956815,386.091462 242.648473,386.115717 244.245862,386.113985 C248.94203,386.11052 253.639062,386.107055 258.33523,386.10359 L256.315791,381.032553 Z M341.060427,362.614311 C349.678716,360.426159 361.064544,359.352874 365.284176,367.190718 C367.466207,371.24391 366.67054,376.267303 368.126957,380.634943 C371.329518,390.236476 383.496311,393.021475 393.603017,392.992023 C403.710588,392.961704 415.124092,392.113644 422.509096,399.026331 C426.097383,402.384789 428.075309,407.079006 429.941668,411.629426 C436.900298,428.586302 443.713633,445.602948 450.380807,462.676768 L341.060427,362.614311 Z M237.139341,371.100978 C232.515822,369.447304 227.57144,367.915771 222.767166,368.931018 C217.962891,369.946265 213.541748,374.440378 214.364226,379.288788 C215.12184,383.754315 219.598334,386.406778 222.512898,389.870052 C227.490144,395.78655 227.847329,404.636177 224.998494,411.827798 C222.149659,419.019419 216.575662,424.789521 210.588265,429.677779 C204.600003,434.56517 198.063422,438.779484 192.375265,444.015109 L237.139341,371.100978 Z M191.941972,462.885534 C199.1246,462.239311 204.6493,456.585286 210.362538,452.177798 C218.947962,445.553572 229.070236,441.287283 239.06624,437.092892 C249.534456,432.700997 261.623412,428.324694 271.812279,433.33336 C275.865859,435.326605 279.104744,438.614897 282.557249,441.528967 C286.010619,444.443904 289.987226,447.119755 294.490531,447.457593 C298.992971,447.795431 303.993567,444.990508 304.67075,440.518918 L191.941972,462.885534 Z M311.970133,439.69338 C314.495513,434.262848 322.244622,433.335093 327.636998,435.926052 C333.02851,438.517876 336.813119,443.476301 341.03794,447.715736 C360.891572,467.644721 391.269636,472.17435 419.373994,472.579756 C423.501951,472.638661 427.693907,472.64126 431.660136,473.78991 C440.984148,476.490016 447.530242,484.997473 456.455555,488.818509 L311.970133,439.69338 Z M221.037454,462.811903 C232.878196,456.654586 246.441731,450.337013 259.049601,454.707253 C263.105775,456.112313 266.710494,458.544748 270.434564,460.680924 C288.166704,470.855915 309.554591,474.472516 329.638275,470.69306 L221.037454,462.811903 Z M244.383374,469.951549 C250.513473,468.407888 256.569194,472.193408 261.929571,475.549267 C293.853997,495.537157 331.704415,505.894061 369.341215,504.939452 C375.907201,504.773131 384.010901,503.079609 385.713802,496.725654 L244.383374,469.951549 Z M198.993142,266.387616 C197.607643,267.815199 196.113172,269.565027 196.436628,271.52882 C196.799003,273.7265 199.200707,274.878615 201.319604,275.554291 C216.787552,280.483263 234.156453,279.117184 248.667006,271.831142 C254.535918,268.883287 260.227534,264.928849 266.777953,264.481863 C274.671493,263.943054 302.115965,269.071264 290.616841,252.94599 C285.70446,246.055825 268.717825,238.606061 260.481802,236.697709 C236.655022,231.175354 214.244011,250.680742 198.993142,266.387616 L198.993142,266.387616 Z M404.106692,235.565518 C408.622105,236.846704 412.158501,240.254538 415.79522,243.226647 C430.372366,255.14367 449.485682,261.346032 468.270352,260.256287 C471.445238,260.071776 475.03266,259.821429 477.37469,261.975797 C479.621585,264.04354 479.778124,267.485157 479.722774,270.541293 C479.594775,277.62983 478.520624,285.878278 472.438092,289.504407 C469.876389,291.031609 466.822583,291.438747 463.863911,291.813834 C458.599533,292.480848 453.33429,293.148728 448.069912,293.815741 C441.195173,294.68719 433.724548,295.443428 427.779528,291.878803 C420.561441,287.55101 417.530121,277.919158 409.921983,274.32508 C406.295643,272.611634 402.120118,272.5432 398.122754,272.861115 C388.899931,273.593964 378.225879,275.755261 371.512868,269.377917 C365.427742,263.598286 366.082438,253.974231 365.34731,245.607106 C373.671548,241.43264 382.48616,238.239636 391.551579,236.115587 C395.676077,235.149717 400.030626,234.409938 404.106692,235.565518 L404.106692,235.565518 Z M353.88624,331.846786 C359.550181,336.834663 365.516822,341.986261 372.837827,343.79846 C379.797323,345.520568 387.111409,344.003761 394.271551,344.345931 C407.399199,344.973097 419.590208,351.916104 429.073352,361.030803 C438.556497,370.145503 445.709721,381.366926 452.76781,392.471405 L353.88624,331.846786 Z M268.869175,331.214422 C259.450894,342.374342 245.73082,349.792921 231.248808,351.557475 C222.875273,352.57792 213.570288,352.044309 207.031113,357.382151 C202.325432,361.224843 200.168481,367.299866 198.22342,373.061305 L268.869175,331.214422 Z M373.507226,246.881363 C382.518159,243.918782 392.889511,245.475436 400.637755,250.953611 C404.956846,254.007148 408.446539,258.154761 412.91352,260.987404 C423.850488,267.920016 438.032395,265.664296 450.673994,268.448429 C458.720613,270.22078 466.205076,274.078198 474.280235,275.721478 C482.35453,277.364757 491.846324,276.216974 497,269.778125 L373.507226,246.881363 Z M276.216126,253.811375 C267.745727,251.193563 258.981277,249.531226 250.141585,248.866811 C247.708745,248.684032 245.170393,248.593076 242.928687,249.556347 C239.782341,250.908566 237.832956,254.040066 235.223685,256.258536 C226.229184,263.904939 210.857235,259.833557 202.466403,268.140043 C200.865555,269.724418 199.611514,271.698605 197.716615,272.91309 C193.704548,275.484991 188.444494,273.833049 184,272.117871 L276.216126,253.811375 Z M395.128623,254.224577 C390.460131,255.227697 389.189658,261.945478 391.793739,265.953624 C394.396955,269.961771 399.207284,271.824212 403.714913,273.400789 C409.303611,275.355919 415.003877,277.261673 420.916032,277.56746 C426.828187,277.874113 433.071581,276.39109 437.386347,272.330969 L395.128623,254.224577 Z M243.159603,253.677106 C245.944439,253.389511 248.397171,256.026381 248.750032,258.807915 C249.102028,261.589449 247.851446,264.337199 246.257517,266.641428 C241.691078,273.242265 233.915158,277.49816 225.903133,277.783156 C221.008049,277.957273 215.289622,275.995213 213.923149,271.283671 L243.159603,253.677106 Z" id="Stroke-1" stroke="#1A1918" sketch:type="MSShapeGroup"></path>
                <path d="M403.059918,259.742186 C400.969306,261.182638 401.596056,264.706632 403.602698,266.262355 C405.610205,267.818077 408.333627,267.963683 410.870064,268.045152 C416.168012,268.215892 422.072801,268.169957 425.937187,264.538493 M234.065746,257.740981 C233.790461,262.233943 230.470586,266.380226 226.150854,267.628271 C221.830255,268.876315 216.814518,267.13772 214.190648,263.481988 M246.472642,114.229676 C261.096538,132.712009 284.318347,142.399958 307.412901,147.019458 C330.508321,151.638958 354.256462,151.931902 377.512898,155.651769 C404.46145,159.962724 430.664654,168.907047 454.630946,181.975118 C463.004648,186.541749 471.280528,191.758403 477.212153,199.232806 C482.606192,206.028584 485.761588,214.319416 488.257337,222.631916 C493.690331,240.724234 496.379127,259.639049 496.20426,278.530463 C496.097781,290.005544 494.993176,301.839437 498.831592,312.653226 C505.731045,332.094993 526.539344,342.819513 546.43089,348.213841 C561.403654,352.273454 578.784735,355.728978 586.478014,369.213931 C590.493028,376.251518 590.925001,384.703556 591.260018,392.801114 C592.0348,411.55819 592.810447,430.315266 593.586095,449.073209 C593.866574,455.85512 594.082128,462.964642 591.098137,469.060995 C583.843756,483.883263 561.852941,485.66086 553.235118,499.731701 M320.68028,97.5604758 C312.141234,114.34148 301.610262,130.97688 285.658416,140.959506 C261.031612,156.370262 227.323847,153.577761 204.978104,172.15023 C190.041698,184.563944 183.060006,205.818843 187.721682,224.685123 C190.006205,233.934523 194.861793,243.235925 192.571209,252.484458 C190.583613,260.512681 183.730907,266.195619 178.387077,272.503446 C169.570148,282.911621 164.320677,296.294303 163.706912,309.927461 C162.989265,325.864302 168.378975,341.418063 169.784836,357.308969 C171.913538,381.372836 164.46438,406.154329 149.422361,425.044009 M143.00336,417.730812 C152.70934,400.090044 162.664636,381.568709 163.171923,361.435317 C163.931122,331.282031 143.293362,302.593464 148.429429,272.872659 C154.632011,236.984433 195.659948,215.119378 202.21486,179.293554 C204.694162,165.740999 201.905813,151.262811 206.774386,138.37588 C212.793444,122.445106 228.779052,112.999832 243.387366,104.270451 C257.99568,95.5410697 273.516418,84.6570775 277.292505,68.0494125 M268.884176,106.682471 C289.078709,134.182795 311.959441,163.543053 345.07162,171.670946 C362.476939,175.9429 380.705518,173.718953 398.604274,172.825388 C415.626963,171.976024 433.053059,172.41544 449.142548,178.045509 C465.232037,183.675579 479.958949,195.183593 486.038604,211.124768 C492.119992,227.071142 489.008745,245.223263 494.021886,261.537984 C497.659464,273.374478 505.649671,283.816454 516.118313,290.413758 C526.620717,297.030997 539.375615,299.850365 548.98464,307.710448 C567.459937,322.823059 568.144688,350.351118 567.27295,374.220845 C566.373511,398.864533 565.474072,423.508221 564.573767,448.151909 C564.15651,459.600121 563.689044,471.298809 559.546775,481.978261 C555.404507,492.658579 546.830833,502.318794 535.614245,504.583475 M289.167009,86.4771431 C297.847161,106.682471 319.245852,120.712577 341.214159,120.600773 C357.656845,120.51757 373.246838,113.294509 389.591701,111.497845 C407.76834,109.498373 426.627998,114.549488 441.38088,125.366744 C444.979503,128.00584 448.405856,131.052283 450.577842,134.95329 C459.684773,151.307879 443.774479,175.059735 455.851551,189.356784 C463.488562,198.398176 477.355855,197.365072 489.166299,196.734983 C504.95886,195.892552 520.864825,197.195199 536.311115,200.596989 C541.34157,201.704628 546.52698,203.139013 550.379247,206.561603 C556.640695,212.124071 557.794643,221.332736 558.417066,229.690304 C559.384028,242.663904 560.054062,255.793511 557.834464,268.611106 C551.805018,303.427227 524.845212,334.986298 530.720568,369.82842 C533.399841,385.716726 542.694624,399.559624 549.188074,414.303022 C574.395748,471.537151 557.884674,543.498211 593.344571,595 M603.868617,495.641753 C599.8562,473.579092 601.097582,450.940076 602.352815,428.550669 C603.350941,410.745227 604.550771,392.223027 613.307968,376.693534 C619.316638,366.03575 628.751661,357.061093 631.826549,345.215933 C634.178596,336.152006 632.463688,326.559394 630.233702,317.464266 C628.296315,309.561715 625.855969,301.517025 620.708648,295.218731 C614.531171,287.660259 605.233791,283.517443 596.346742,279.490765 C579.891937,272.035429 563.439729,263.955205 549.823481,252.07451 C536.207234,240.194682 525.542948,223.970097 523.812458,205.971382 C522.126984,188.43115 528.893987,171.306066 531.452931,153.872438 C534.011875,136.43881 530.578597,115.571325 515.223203,106.959815 C507.730761,102.757196 498.222155,102.378449 490.4198,105.972646 C481.018538,110.302668 473.962398,119.949883 463.68507,121.158059 C452.279765,122.499708 442.844741,112.967764 435.102984,104.476725 C420.277385,88.2157391 404.502137,72.8223178 387.883719,58.4030649 C383.841869,54.8946718 379.033894,51.2216061 373.737677,51.9747666 C370.703476,52.4063821 368.083935,54.2498486 365.595111,56.038713 C351.89749,65.8861345 338.199869,75.733556 324.502248,85.5801108 C322.82543,84.1760602 321.148612,82.7720096 319.471794,81.3670923 M239.743728,61.3628382 C238.144821,72.8465853 231.961284,83.6257071 222.859546,90.7958987 C209.348912,101.439816 189.24614,105.132815 181.720803,120.60944 C172.48402,139.608324 188.989034,161.908461 185.745339,182.78808 C184.09882,193.388662 177.490235,202.508057 170.476513,210.618616 C163.80733,218.331361 156.584114,225.562221 148.880447,232.238395 C145.122539,235.495446 141.143018,238.75163 138.900912,243.193457 C136.693434,247.567681 136.406894,252.626597 136.161908,257.52084 C135.693576,266.904578 135.257274,276.547459 138.2404,285.457113 C141.938576,296.504044 150.642967,305.600905 152.912774,317.028317 C154.838042,326.718866 151.850588,336.661625 151.742378,346.541981 C151.667064,353.435696 152.999342,360.314677 152.541399,367.192791 C151.811632,378.149586 146.638341,388.224949 142.940165,398.563789 C130.431986,433.537649 135.36635,474.294984 155.85781,505.263833 M134.754315,478.25146 C131.443097,463.800139 128.132745,449.349685 124.821527,434.898364 C119.268204,410.657691 113.706224,385.390847 119.370354,361.176175 C122.095508,349.527755 127.325934,338.635962 131.057005,327.270086 C137.372991,308.036327 139.336348,287.383782 136.759225,267.301525 C134.616673,250.608924 129.404426,234.420741 127.360561,217.715139 C125.317561,201.00867 126.857602,182.902484 136.849256,169.367263 C149.479496,152.259513 171.940374,146.578309 191.150632,137.484914 C205.863693,130.521864 220.130064,120.037419 225.647029,104.709867 C231.670416,87.9747971 226.116227,68.8831758 231.450534,51.9158311 M313.890769,27 C314.959881,40.2795452 316.908522,54.4084543 325.642346,64.4586831 C334.667903,74.8460574 349.248516,78.6846623 362.998943,78.8580019 C376.74937,79.0322082 390.356961,76.1157698 404.094403,75.5038811 C427.549079,74.4595101 451.268653,80.3201213 471.545426,92.1687482 C476.373311,94.9898499 481.179555,98.3223033 483.907306,103.207013 C486.639385,108.098656 486.951029,113.916799 487.623661,119.480132 C492.08623,156.394529 516.431689,190.290217 549.963721,206.27646 C565.377116,213.625191 582.972018,217.722072 595.178942,229.672103 C605.647585,239.919939 610.525679,254.398994 617.367997,267.357861 C624.20945,280.316728 635.022632,293.116989 649.602379,294.456037 M357.514874,29.7214314 C361.252871,42.3899545 364.990868,55.0584777 368.727999,67.7270008 C372.236591,79.6198294 376.990894,92.9643769 388.416977,97.7511494 C396.384676,101.088803 405.561727,99.2089352 413.659278,96.2006268 C428.013082,90.866968 440.899563,82.2346569 453.171413,73.0693267 C460.517555,67.5839957 469.452216,61.5491782 478.10207,64.5791541 C486.351114,67.4687249 489.764482,77.0665374 492.126917,85.4899742 C498.795234,109.273898 505.464416,133.056955 512.133598,156.840012 C515.955566,170.471436 522.074177,186.380543 535.899919,189.358517 C549.768078,192.346025 562.137749,180.218321 576.024954,177.321817 C586.720404,175.090936 597.882454,178.543861 607.423956,183.869719 C616.966323,189.195578 625.356473,196.340635 634.477255,202.361585 C656.405741,216.836307 682.741393,224.629654 709,224.003899" id="Stroke-2" stroke="#1A1918" sketch:type="MSShapeGroup"></path>
                <path d="M405.515509,29.2106933 C432.091534,47.3726252 466.450302,53.6949044 497.749336,46.1830282 C500.000822,45.642381 502.465415,45.0532143 504.548841,46.0643284 C507.061947,47.2842502 508.016598,50.3115276 508.717426,53.0156298 C515.047402,77.436592 521.377378,101.857554 527.708221,126.278517 C532.290891,143.957852 538.07164,163.332774 553.566958,172.995975 C564.690113,179.932547 579.078313,180.267853 591.495704,176.06744 C603.91223,171.867028 614.573653,163.571906 623.740726,154.201555 C626.598615,151.280848 629.455637,148.157398 633.222263,146.572712 C637.305951,144.853732 641.920675,145.169109 646.33875,145.513945 C656.253432,146.28766 666.216626,147.068305 675.891345,149.375587 C698.276262,154.715343 720.166527,171.007537 723.173418,193.826486 M681.562075,101.842825 C676.031684,114.32363 669.495531,127.849339 657.03136,133.413499 C651.564208,135.855076 645.468996,136.473701 639.484669,136.674711 C617.974705,137.397306 595.988281,132.921372 577.596958,121.741933 C559.205635,110.562493 544.72301,92.3277819 540.199247,71.2832651 C536.883091,55.8566265 538.128815,37.84112 526.905171,26.7517885 C522.837942,22.7333246 517.572635,20.194709 512.380097,17.8025187 C495.409489,9.98479561 477.809954,2.88100402 459.257502,0.666430134 C440.705049,-1.54727733 420.903407,1.58050504 405.859426,12.6637715 M456.460253,26.2362676 C486.384486,34.0297309 516.309586,41.8231941 546.233818,49.6166574 C551.150011,50.8972287 556.304432,52.3086296 559.935917,55.8618251 C563.778777,59.6229617 565.2558,65.1507322 566.129886,70.4575652 C568.483594,84.7483248 567.6277,99.4237757 570.005664,113.710203 C572.382762,127.997497 578.870403,142.71367 591.525158,149.754213 C597.869861,153.284015 605.195204,154.569785 612.399266,155.472596 C637.705311,158.644566 665.369395,157.126595 685.702072,141.728549 C692.963309,136.22937 698.919915,129.223484 704.813281,122.278248 C714.875232,110.4204 724.937183,98.5616861 735,86.7029722 M378.837263,25.1081865 C360.038784,38.0187364 338.299253,46.6197047 315.756671,50.0645974 C307.776414,51.2836528 299.59691,51.861556 291.65217,50.4258953 C284.087731,49.0595482 276.98156,45.9187695 269.851132,43.0483144 C255.164929,37.1367191 240.055976,32.2760933 224.678474,28.5149567 C221.979983,27.8556098 218.869138,27.3045656 216.637577,28.959431 C214.529028,30.5233222 214.063831,33.4258349 213.627221,36.0155694 C210.908805,52.1483416 203.06802,66.8931063 195.340719,81.3129628 C187.791874,95.4001133 180.029055,109.767985 168.294299,120.616451 C154.988095,132.916173 137.649314,139.716717 120.749741,146.248671 C107.259883,151.463663 93.6210239,156.716778 79.2943307,158.694818 C75.8482317,159.170484 72.2314737,159.50319 69.3008168,161.378126 C66.2454143,163.33364 64.4010842,166.671963 62.7603322,169.908048 C49.6429789,195.782 41.4868647,224.160776 38.8646068,253.051608 M185.00069,56.3296928 C146.865766,84.8150393 124.790981,133.507073 128.495234,180.967055 C129.800732,197.685528 134.036887,214.753169 129.704574,230.952656 C125.773353,245.649767 115.305979,257.566532 105.159998,268.902793 C85.8530074,290.474961 66.5451504,312.047129 47.2381597,333.619296 M211.543795,28.7627533 C187.496469,24.4401754 159.670389,36.11954 151.27951,59.0684518 C147.0165,70.7287552 148.025728,83.5526629 148.7768,95.9442262 C150.736347,128.263489 150.509379,161.024626 143.307916,192.591835 C136.105586,224.159043 121.50168,254.66142 97.9845234,276.912862 C74.4673665,299.165171 41.4253581,312.333914 9.3457973,307.978412 M313.404696,37.3741187 C298.039321,20.1669835 275.313953,10.893672 252.469903,7.69137735 C229.625853,4.48908271 206.398903,6.81455858 183.495945,9.56458108 C174.152148,10.6865972 164.594378,11.9463744 156.235552,16.2706851 C141.660233,23.8102868 133.117754,39.3538923 127.233051,54.6739609 C106.66994,108.210158 108.571446,167.278458 102.193823,224.272545 C101.177666,233.357843 99.8678364,242.659746 95.4558248,250.666349 C90.6851693,259.322768 82.7161736,265.696167 74.7671026,271.569639 C61.6012371,281.296089 47.9121328,290.314673 33.7777558,298.571672 C25.6684212,303.309266 17.1605935,308.013069 11.5357768,315.536209 C6.62738132,322.10022 4.36290097,330.249782 2.85209235,338.305771 C-10.0755436,407.222687 25.1027342,476.148267 25.6840144,546.265176 M88.190256,206.031768 L60.7098253,315.666172 C58.8888851,322.929385 57.0558169,330.299168 57.223877,337.785918 C57.5573984,352.606928 65.6502735,366.111843 74.7281196,377.831063 C91.5921743,399.605107 112.762553,418.112741 126.947175,441.720134 C141.195902,465.435829 147.677479,493.734895 145.170438,521.288838 C143.761851,536.774393 139.606261,552.010419 139.57854,567.560089 C139.530028,595.570636 153.872314,623.226817 176.793464,639.322334 M532.000684,266.252409 C542.678567,263.688667 546.999618,251.23992 550.537544,240.841993 C554.076336,230.444067 561.544616,218.505642 572.44167,219.862458 C580.190628,220.827652 585.344184,228.398445 588.020151,235.73617 C594.700109,254.052325 592.054461,275.507526 581.124488,291.652428 C573.678731,302.649919 562.883033,310.998758 555.074301,321.741521 C547.266435,332.48515 542.834499,347.62587 549.875699,358.887619 C554.876787,366.886424 564.386045,370.929148 570.384233,378.20969 C576.5063,385.642721 578.353229,395.626499 579.601552,405.176199 C581.367049,418.689778 580.627238,435.619658 568.433349,441.702805 C565.999943,442.917529 563.102205,443.53702 560.551849,442.59262 C555.255356,440.631042 554.318897,433.543712 555.056975,427.943162 C555.795054,422.342612 557.140401,416.012535 553.688238,411.540933 M535.073413,288.680602 C546.673027,286.78747 556.63882,277.255965 559.047971,265.751618 C559.67603,262.751199 559.855352,259.58876 561.253543,256.861264 C562.650868,254.134635 565.816289,251.951253 568.714027,252.94937 C572.997828,254.425753 572.721482,260.612004 571.066869,264.831478 C569.109921,269.819467 566.400168,274.511141 563.057158,278.696824 C553.199651,291.039002 537.37601,300.034192 534.39944,315.547472 C530.890102,333.832436 547.504665,351.762167 543.339546,369.90937 C543.042409,371.203804 542.567682,372.576216 541.46143,373.310941 C539.349417,374.712812 536.335596,372.687984 535.796764,370.210884 C535.257932,367.732918 536.348591,365.223761 537.414127,362.922545 M148.443279,248.238636 C155.29043,266.209088 162.161837,286.254621 155.109376,304.145363 C152.816308,309.961652 149.144973,315.179243 147.084937,321.082174 C143.552209,331.20198 145.052623,342.299109 146.594618,352.90671 C150.332656,378.627305 154.070695,404.347033 157.809599,430.066762 C160.164174,446.270581 162.59065,462.72133 169.336446,477.641111 C178.783331,498.534871 196.183619,515.243813 204.421164,536.643563 C209.082667,548.753539 210.604738,561.88416 215.165751,574.032259 C219.727631,586.179492 228.505741,597.989686 241.172623,600.797759 C256.244326,604.139547 272.126008,593.878515 286.965545,598.131779 C302.234761,602.508075 310.526016,620.61109 325.852407,624.778579 C337.317747,627.89683 349.34011,622.209638 358.892683,615.143103 C368.445256,608.076567 377.071765,599.347369 388.111756,594.955477 C401.527113,589.619186 416.723561,591.398816 430.699407,587.77804 C451.402856,582.414889 467.119077,566.011793 481.664076,550.331293 C524.023026,504.663072 566.745818,458.51052 598.090765,404.680606 M533.424864,510.770478 C534.473074,556.520144 522.470635,601.493495 518.327173,647.067277 C514.006122,694.604371 518.263068,742.456842 522.518281,790 M193.991907,537.238795 C193.107425,561.048064 192.173565,585.164045 185.314286,607.981261 C179.594178,627.008748 169.920325,644.560719 161.934003,662.753842 C150.457402,688.896384 142.418237,716.545634 138.08679,744.766722 M277.710976,661.888287 C275.911693,669.66009 278.864873,677.920554 283.706564,684.259295 C288.546523,690.598903 295.11213,695.363356 301.578113,700.032503 M261.731402,545.931604 C267.858667,541.674874 276.1248,540.687153 283.08197,543.379992" id="Stroke-3" stroke="#1A1918" sketch:type="MSShapeGroup"></path>
                <path d="M359.947586,256.870113 C355.382204,270.492319 363.418385,285.779828 375.110683,294.120202 C386.802114,302.460576 401.367692,305.435072 415.456122,308.210287 C421.936159,309.486556 428.416196,310.762826 434.896233,312.039096 M298.759168,249.470696 C298.880404,265.090918 291.548255,280.606301 279.404788,290.423959 C257.331269,308.270938 225.291327,305.414278 198.968504,316.029062 M219.98814,254.806248 C231.589511,256.575523 238.65754,238.258932 250.328188,239.497945 C258.364369,240.35139 262.682084,250.11013 270.442022,252.367212 M400.944234,241.093065 C406.641436,245.196536 412.338638,249.300873 418.03584,253.404344 C420.749783,255.359038 423.511354,257.338859 426.663477,258.454836 C429.164392,259.34034 431.828109,259.651393 434.471043,259.878401 C442.547924,260.573288 450.687156,260.542096 458.757975,259.787425 M354.766501,370.2129 C354.565597,374.427275 359.771795,376.360308 362.871094,379.221301 C365.667304,381.802433 366.90737,385.616512 368.967507,388.818016 C374.194489,396.940913 384.106356,400.443073 393.296006,403.408905 M266.60665,351.114778 C266.046369,354.743439 262.79466,357.333235 259.51524,358.980342 C256.23582,360.628315 252.604817,361.776351 249.916853,364.276037 C247.228889,366.775723 245.877979,371.29422 248.234278,374.109291 M236.773194,398.608814 C235.898566,407.644941 231.537553,416.298967 224.795993,422.375327 M263.244097,418.300449 C267.513318,416.904611 271.78254,415.507906 276.051761,414.112067 C276.996532,413.802747 278.01491,413.491694 278.965743,413.781086 C280.144325,414.14066 280.857016,415.294761 281.582697,416.290303 C283.969304,419.563722 287.607235,421.899651 291.5751,422.706308 M306.720876,427.842578 C315.055816,423.165523 326.187832,424.083085 333.644681,430.06327 M221.209155,471.817126 C227.869313,474.629598 234.529471,477.44207 241.188764,480.254541 M467.538023,491.373596 C470.943874,497.910037 473.19106,505.048655 474.146223,512.357963 M189.533785,467.126207 C190.923663,474.510895 195.587766,481.215426 202.026236,485.083224 M550.405079,23 C572.464742,41.4240297 585.688936,68.3331291 595.084687,95.503894 C634.891494,210.610757 615.700782,336.737901 596.072756,456.947243 C591.699619,483.728975 587.183597,510.969055 575.146644,535.286626 C559.5064,566.884911 531.115646,594.290482 529.840075,629.528691 C529.552574,637.4757 530.660147,645.784882 527.56691,653.110652 C524.677176,659.95468 518.575566,664.816288 512.711233,669.374641 C491.00575,686.249472 469.299401,703.125169 447.593919,720 M584.782268,24.4850822 C607.128567,49.1908187 612.032542,84.6317757 615.386436,117.782726 C624.662683,209.471386 629.856757,301.606263 642.464383,392.89636 C647.548479,429.706296 653.835406,467.149601 647.591778,503.780183 C643.660284,526.84921 634.863783,548.793595 625.235087,570.120207 C614.471108,593.961234 601.017432,618.90091 577.471768,630.275565 C566.596078,635.529671 554.45954,637.390789 542.73347,640.28384 C530.194256,643.377039 517.959863,647.709251 506.2667,653.197297 C495.786758,658.115223 485.40467,664.262631 478.779151,673.759706 C472.153631,683.257647 470.202606,696.816603 476.797816,706.335338 C449.009776,705.631787 421.452083,697.310475 397.914212,682.515106 M73.6110065,39.886961 C76.7943041,66.0821119 84.7326309,91.6906813 96.9219935,115.091556 C111.328234,142.747528 131.814434,167.868291 139.165634,198.176443 C143.2149,214.868455 143.025253,232.281346 142.096069,249.433439 C141.323626,263.691614 140.029004,278.065892 135.681846,291.666437 C126.704358,319.753032 105.67433,342.036195 85.8462654,363.852347 C70.1964955,381.070289 54.9173598,398.625277 40.0218478,416.499982 C27.9779678,430.95224 15.5591237,447.35486 16.0120249,466.166189 C16.4571323,484.645671 29.1435604,500.142859 39.2164978,515.638313 C55.4481981,540.607448 66.0840145,569.196579 70.1202903,598.708471 C72.9944374,619.720564 73.6283259,643.510471 89.1828393,657.918541 C97.2181545,665.362147 108.346707,669.179692 115.34719,677.60411 C124.533377,688.660781 123.625842,706.740833 113.377979,716.820157 M577.46484,712.587586 C560.32041,658.545845 547.069371,603.268557 537.849412,547.324976 C535.153654,530.964812 532.872695,513.74427 538.522269,498.156106 C541.671793,489.46569 547.126525,481.810672 552.912921,474.604471 C576.422215,445.328251 606.937188,420.739484 622.368734,386.505481 C628.517105,372.865946 632.017347,358.163286 637.962216,344.434508 C644.291575,329.818492 653.322753,316.464017 659.213932,301.666914 C666.797211,282.617313 668.913637,261.424134 665.244531,241.250757 C657.823187,200.436125 627.994927,166.313027 620.977124,125.42648 C616.118178,97.119809 621.563384,64.5190499 602.967592,42.6387818 M310.892243,567.39178 C321.190332,571.913742 330.686535,578.259566 338.806715,586.045417 M245.227637,449.970649 C245.053578,450.882146 245.630312,451.877689 246.507538,452.179211 C247.395155,449.010631 251.228794,447.031677 254.323763,448.145055 C253.134789,451.313635 252.963328,454.855651 253.839687,458.124738 C254.093416,455.799207 261.778014,449.634469 264.090148,449.287026 C266.401416,448.939583 268.863362,450.309428 269.78735,452.457339 C265.266998,457.500899 265.096402,465.885462 269.40719,471.108376 M332.915536,473.141916 C333.493136,468.666742 330.185139,464.418575 326.131544,462.440487 C322.078815,460.461533 317.422506,460.250121 312.91601,460.075966 C311.016076,460.001452 308.836436,460.043041 307.598968,461.487401 C305.654004,463.757479 307.511505,467.713655 305.634087,470.039186 M340.150697,466.676524 C345.750045,463.982754 353.225079,464.943639 357.166098,469.750661 C358.992424,471.978284 360.031585,474.88 362.300421,476.654473 C366.059587,479.595179 371.472752,478.318043 376.03034,476.904009 M293.867316,471.422028 C296.277305,468.838297 298.043879,465.658454 298.966135,462.24727 C296.280769,463.527006 293.167614,459.009375 290.635524,460.570705 C290.059656,460.925079 289.694217,461.530723 289.350428,462.113838 C286.692773,466.616739 284.035984,471.120506 281.378329,475.624274 M336.236522,476.019371 C334.796418,471.679362 334.527102,466.955518 335.464945,462.479477 C337.531144,459.719858 341.995208,459.729389 344.735996,461.820114 C347.476784,463.91084 348.731572,467.44939 349.122123,470.875303 C349.512675,474.301216 349.182741,477.773051 349.462448,481.209361 M277.41999,468.025574 C280.611947,463.79387 284.229095,459.883616 288.199557,456.373658 C285.229288,452.877563 280.141727,449.43952 276.499466,452.225998 C272.098618,455.59386 275.216968,464.464496 270.271426,466.96245 M305.795157,474.091537 C305.001064,469.802648 304.652945,465.431446 304.758593,461.070642 C304.790634,459.718125 304.917065,458.244307 305.842785,457.257429 C306.668918,456.377124 307.937561,456.099862 309.128267,455.895382 C314.208034,455.021141 319.374398,454.658969 324.52604,454.814928 C326.571456,454.877312 328.702603,455.047135 330.456187,456.101595 C333.364107,457.849209 334.458691,461.547185 334.617163,464.936707 C334.775635,468.327096 334.251724,471.77727 334.991261,475.089679 M357.484774,478.737401 C360.041977,476.527973 361.654409,473.258886 361.850984,469.884093 C367.917954,473.905252 374.292343,477.461998 380.899677,480.514474 C381.333527,482.746429 381.766511,484.979251 382.200361,487.212073 M244.708923,457.490502 C246.797637,455.237752 245.719507,451.210528 243.119872,449.575551 C240.520236,447.940575 237.075417,448.288018 234.283536,449.567753 C234.079168,452.809114 234.732108,456.101595 236.158357,459.019773" id="Stroke-4" stroke="#1A1918" sketch:type="MSShapeGroup"></path>
                <path d="M353.221792,293.955306 C355.3464,302.161568 358.935569,309.984311 363.768707,316.944786 M317.382007,331.990321 C317.142383,336.707688 321.485891,341.141961 326.203975,340.996518 C328.820807,336.506839 327.620957,330.169689 323.543889,326.948305 M288.253422,166.19076 C285.655622,166.359577 283.848494,169.671863 285.111493,171.950466 C286.373628,174.228204 290.138406,174.447234 291.656601,172.331388 M426,177.903231 C391.398127,187.151833 350.053046,191.840631 314.64493,186.455785 C300.843628,192.304662 285.407347,176.673894 271.03337,180.924632 M304.317743,160.702027 C313.042823,160.134107 321.767039,159.567054 330.491254,159 M254.144638,182.428406 C251.212056,183.393696 248.03639,183.610128 245,183.052598" id="Stroke-5" stroke="#1A1918" sketch:type="MSShapeGroup"></path>
                <path d="M457.885327,465.996421 C466.021247,466.077801 474.380153,464.785248 481.396809,460.676437 C494.021064,453.283866 500.087648,438.1152 501.586941,423.586318 C505.634511,384.359547 479.507943,344.066182 441.990913,331.671354 C426.697777,326.618884 410.195143,325.831058 395.085081,320.257411 C379.975019,314.682899 365.527839,302.073366 365.367324,286 C359.508108,299.657946 365.297045,315.725252 374.296273,327.560811 C383.296369,339.39637 395.301993,348.68405 404.384515,360.45641 C414.603654,373.703994 420.842032,389.969555 422.096649,406.640283 C422.801177,416.004149 421.97431,425.457186 423.100515,434.780362 C424.227588,444.103537 427.679085,453.690765 435.097462,459.469592 C441.440825,464.410382 449.838774,465.916773 457.885327,465.996421" id="Fill-6" fill="#1A1918" sketch:type="MSShapeGroup"></path>
                <path d="M198.716377,344.998266 C204.068901,344.938797 209.642173,343.736488 213.721276,340.285562 C220.690896,334.389511 221.308994,324.055692 221.109887,314.951761 C220.911646,305.846969 220.800838,295.695866 227,289 C220.237278,297.058483 210.413498,301.7867 201.713375,307.724121 C193.014118,313.661542 184.72433,322.048397 184.039574,332.52701 C183.890676,334.800622 184.135664,337.164731 185.226426,339.168579 C187.684968,343.683053 193.558633,345.056011 198.716377,344.998266" id="Fill-7" fill="#1A1918" sketch:type="MSShapeGroup"></path>
            </g>
            <path d="M69.171875,762.851562 L60.7734375,762.851562 L60.7734375,775.546875 C60.7734375,779.908876 61.3105415,782.561844 62.3847656,783.505859 C63.4589897,784.449875 66.3723721,784.921875 71.125,784.921875 L71.125,788.925781 L46.4179688,788.925781 L46.4179688,784.921875 C48.0455811,784.921875 49.2255823,784.799806 49.9580078,784.555664 C50.6904333,784.311522 51.3007788,783.750004 51.7890625,782.871094 C52.2773462,781.992183 52.5214844,779.71356 52.5214844,776.035156 L52.5214844,738.388672 C52.5214844,734.938134 52.3668635,732.814132 52.0576172,732.016602 C51.7483708,731.219072 51.1217495,730.600588 50.1777344,730.161133 C49.2337192,729.721677 47.9642007,729.501953 46.3691406,729.501953 L46.3691406,725.498047 L70.2949219,725.498047 C76.3170874,725.498047 81.0615061,727.166324 84.5283203,730.50293 C87.9951345,733.839535 89.7285156,738.177057 89.7285156,743.515625 C89.7285156,749.635447 87.9625828,754.388004 84.4306641,757.773438 C80.8987454,761.158871 75.8125332,762.851562 69.171875,762.851562 L69.171875,762.851562 Z M60.7734375,730.087891 L60.7734375,758.359375 L67.21875,758.359375 C71.6458555,758.359375 74.9742727,757.032891 77.2041016,754.379883 C79.4339304,751.726875 80.5488281,748.235699 80.5488281,743.90625 C80.5488281,739.641906 79.2793096,736.207695 76.7402344,733.603516 C74.2011592,730.999336 70.9459834,729.697266 66.9746094,729.697266 C64.4680864,729.697266 62.4010498,729.827473 60.7734375,730.087891 L60.7734375,730.087891 Z M119.171875,762.851562 L110.773438,762.851562 L110.773438,775.546875 C110.773438,779.908876 111.310542,782.561844 112.384766,783.505859 C113.45899,784.449875 116.372372,784.921875 121.125,784.921875 L121.125,788.925781 L96.4179688,788.925781 L96.4179688,784.921875 C98.0455811,784.921875 99.2255823,784.799806 99.9580078,784.555664 C100.690433,784.311522 101.300779,783.750004 101.789063,782.871094 C102.277346,781.992183 102.521484,779.71356 102.521484,776.035156 L102.521484,738.388672 C102.521484,734.938134 102.366864,732.814132 102.057617,732.016602 C101.748371,731.219072 101.12175,730.600588 100.177734,730.161133 C99.2337192,729.721677 97.9642007,729.501953 96.3691406,729.501953 L96.3691406,725.498047 L120.294922,725.498047 C126.317087,725.498047 131.061506,727.166324 134.52832,730.50293 C137.995135,733.839535 139.728516,738.177057 139.728516,743.515625 C139.728516,749.635447 137.962583,754.388004 134.430664,757.773438 C130.898745,761.158871 125.812533,762.851562 119.171875,762.851562 L119.171875,762.851562 Z M110.773438,730.087891 L110.773438,758.359375 L117.21875,758.359375 C121.645855,758.359375 124.974273,757.032891 127.204102,754.379883 C129.43393,751.726875 130.548828,748.235699 130.548828,743.90625 C130.548828,739.641906 129.27931,736.207695 126.740234,733.603516 C124.201159,730.999336 120.945983,729.697266 116.974609,729.697266 C114.468086,729.697266 112.40105,729.827473 110.773438,730.087891 L110.773438,730.087891 Z M146.417969,788.925781 L146.417969,784.921875 C147.915372,784.921875 149.127925,784.685875 150.055664,784.213867 C150.983403,783.74186 151.6263,783.058273 151.984375,782.163086 C152.34245,781.267899 152.521484,779.062518 152.521484,775.546875 L152.521484,738.876953 C152.521484,735.035788 152.375001,732.814131 152.082031,732.211914 C151.789061,731.609698 151.333336,731.00749 150.714844,730.405273 C150.096351,729.803057 148.647798,729.501953 146.369141,729.501953 L146.369141,725.498047 L168.585938,725.498047 L168.585938,729.501953 C165.623683,729.501953 163.735681,729.754229 162.921875,730.258789 C162.108069,730.763349 161.546551,731.634108 161.237305,732.871094 C160.928058,734.108079 160.773438,736.15884 160.773438,739.023438 L160.773438,775.107422 C160.773438,779.274109 160.936196,781.902664 161.261719,782.993164 C161.587241,784.083664 162.596346,784.628906 164.289062,784.628906 L176.056641,784.628906 C179.539731,784.628906 182.07063,783.35125 183.649414,780.795898 C185.228198,778.240547 186.017578,774.016957 186.017578,768.125 L190.314453,768.125 L190.314453,788.925781 L146.417969,788.925781 Z M223.273438,788.925781 L223.273438,784.921875 C226.561214,784.921875 228.205078,783.652356 228.205078,781.113281 C228.205078,779.453117 227.733078,777.10939 226.789062,774.082031 L225.03125,768.417969 L206.818359,768.417969 L204.669922,775.009766 C203.563146,778.395199 203.009766,780.771478 203.009766,782.138672 C203.009766,783.99415 204.686181,784.921875 208.039062,784.921875 L208.039062,788.925781 L192.511719,788.925781 L192.511719,784.921875 C194.204436,784.921875 195.400713,784.417323 196.100586,783.408203 C196.800459,782.399083 197.850253,779.811219 199.25,775.644531 L216.486328,724.033203 L219.904297,724.033203 L235.285156,773.984375 C236.815112,778.932316 238.141596,781.992182 239.264648,783.164062 C240.387701,784.335943 241.795564,784.921875 243.488281,784.921875 L243.488281,788.925781 L223.273438,788.925781 Z M216.095703,738.486328 L208.332031,763.632812 L223.615234,763.632812 L216.095703,738.486328 Z M285.578125,738.876953 L285.578125,790 L282.550781,790 L255.304688,739.316406 L255.304688,775.546875 C255.304688,779.485697 255.57324,782.032872 256.110352,783.188477 C256.647464,784.344081 258.429672,784.921875 261.457031,784.921875 L261.457031,788.925781 L244.269531,788.925781 L244.269531,784.921875 C247.166681,784.921875 248.916338,784.344081 249.518555,783.188477 C250.120771,782.032872 250.421875,779.485697 250.421875,775.546875 L250.421875,738.876953 C250.421875,736.761057 250.307944,734.962573 250.080078,733.481445 C249.852212,732.000318 249.209315,730.9668 248.151367,730.380859 C247.093419,729.794919 245.636728,729.501953 243.78125,729.501953 L243.78125,725.498047 L257.501953,725.498047 L280.695312,769.345703 L280.695312,738.876953 C280.695312,735.003236 280.418623,732.472337 279.865234,731.28418 C279.311846,730.096023 277.537775,729.501953 274.542969,729.501953 L274.542969,725.498047 L291.730469,725.498047 L291.730469,729.501953 C288.768214,729.501953 287.002281,730.030919 286.432617,731.088867 C285.862953,732.146815 285.578125,734.742818 285.578125,738.876953 L285.578125,738.876953 Z M336.701172,742.929688 C336.701172,737.688776 336.082688,734.189462 334.845703,732.431641 C333.608718,730.673819 331.883475,729.794922 329.669922,729.794922 L322.150391,729.794922 L322.150391,775.546875 C322.150391,779.843771 322.606115,782.480464 323.517578,783.457031 C324.429041,784.433599 326.577457,784.921875 329.962891,784.921875 L329.962891,788.925781 L306.037109,788.925781 L306.037109,784.921875 C309.422543,784.921875 311.570959,784.433599 312.482422,783.457031 C313.393885,782.480464 313.849609,779.843771 313.849609,775.546875 L313.849609,729.794922 L306.330078,729.794922 C304.083973,729.794922 302.350592,730.665681 301.129883,732.407227 C299.909174,734.148772 299.298828,737.656224 299.298828,742.929688 L295.099609,742.929688 L295.099609,725.498047 L340.900391,725.498047 L340.900391,742.929688 L336.701172,742.929688 Z" id="PPLANT" stroke="#030303" sketch:type="MSShapeGroup"></path>
        </g>
    </g>
</svg>